G04 (created by PCBNEW-RS274X (2012-01-19 BZR 3256)-stable) date 2/13/2012 4:38:26 PM*
G01*
G70*
G90*
%MOIN*%
G04 Gerber Fmt 3.4, Leading zero omitted, Abs format*
%FSLAX34Y34*%
G04 APERTURE LIST*
%ADD10C,0.006000*%
%ADD11C,0.015000*%
%ADD12C,0.009800*%
G04 APERTURE END LIST*
G54D10*
G54D11*
X53750Y-46750D02*
X70250Y-46750D01*
X52500Y-30500D02*
X52500Y-45500D01*
X70250Y-29250D02*
X53750Y-29250D01*
X71500Y-45500D02*
X71500Y-30500D01*
X70250Y-46750D02*
X70358Y-46745D01*
X70467Y-46731D01*
X70573Y-46707D01*
X70677Y-46674D01*
X70778Y-46632D01*
X70875Y-46582D01*
X70966Y-46523D01*
X71053Y-46457D01*
X71133Y-46383D01*
X71207Y-46303D01*
X71273Y-46216D01*
X71332Y-46124D01*
X71382Y-46028D01*
X71424Y-45927D01*
X71457Y-45823D01*
X71481Y-45717D01*
X71495Y-45608D01*
X71500Y-45500D01*
X52500Y-45500D02*
X52505Y-45608D01*
X52519Y-45717D01*
X52543Y-45823D01*
X52576Y-45927D01*
X52618Y-46028D01*
X52668Y-46124D01*
X52727Y-46216D01*
X52793Y-46303D01*
X52867Y-46383D01*
X52947Y-46457D01*
X53034Y-46523D01*
X53126Y-46582D01*
X53222Y-46632D01*
X53323Y-46674D01*
X53427Y-46707D01*
X53533Y-46731D01*
X53642Y-46745D01*
X53750Y-46750D01*
X53750Y-29250D02*
X53642Y-29255D01*
X53533Y-29269D01*
X53427Y-29293D01*
X53323Y-29326D01*
X53222Y-29368D01*
X53126Y-29418D01*
X53034Y-29477D01*
X52947Y-29543D01*
X52867Y-29617D01*
X52793Y-29697D01*
X52727Y-29784D01*
X52668Y-29876D01*
X52618Y-29972D01*
X52576Y-30073D01*
X52543Y-30177D01*
X52519Y-30283D01*
X52505Y-30392D01*
X52500Y-30500D01*
X71500Y-30500D02*
X71495Y-30392D01*
X71481Y-30283D01*
X71457Y-30177D01*
X71424Y-30073D01*
X71382Y-29972D01*
X71332Y-29876D01*
X71273Y-29784D01*
X71207Y-29697D01*
X71133Y-29617D01*
X71053Y-29543D01*
X70966Y-29477D01*
X70875Y-29418D01*
X70778Y-29368D01*
X70677Y-29326D01*
X70573Y-29293D01*
X70467Y-29269D01*
X70358Y-29255D01*
X70250Y-29250D01*
G54D12*
X55988Y-38352D02*
X56251Y-38352D01*
X55988Y-37761D01*
X56251Y-37761D01*
X56570Y-37761D02*
X56570Y-38071D01*
X56551Y-38127D01*
X56513Y-38155D01*
X56438Y-38155D01*
X56401Y-38127D01*
X56570Y-37789D02*
X56532Y-37761D01*
X56438Y-37761D01*
X56401Y-37789D01*
X56382Y-37846D01*
X56382Y-37902D01*
X56401Y-37958D01*
X56438Y-37986D01*
X56532Y-37986D01*
X56570Y-38015D01*
X56926Y-37789D02*
X56888Y-37761D01*
X56813Y-37761D01*
X56776Y-37789D01*
X56757Y-37818D01*
X56738Y-37874D01*
X56738Y-38043D01*
X56757Y-38099D01*
X56776Y-38127D01*
X56813Y-38155D01*
X56888Y-38155D01*
X56926Y-38127D01*
X57095Y-37761D02*
X57095Y-38352D01*
X57264Y-37761D02*
X57264Y-38071D01*
X57245Y-38127D01*
X57207Y-38155D01*
X57151Y-38155D01*
X57114Y-38127D01*
X57095Y-38099D01*
X57620Y-37761D02*
X57620Y-38071D01*
X57601Y-38127D01*
X57563Y-38155D01*
X57488Y-38155D01*
X57451Y-38127D01*
X57620Y-37789D02*
X57582Y-37761D01*
X57488Y-37761D01*
X57451Y-37789D01*
X57432Y-37846D01*
X57432Y-37902D01*
X57451Y-37958D01*
X57488Y-37986D01*
X57582Y-37986D01*
X57620Y-38015D01*
X57807Y-37761D02*
X57807Y-38155D01*
X57807Y-38043D02*
X57826Y-38099D01*
X57844Y-38127D01*
X57882Y-38155D01*
X57919Y-38155D01*
X58013Y-38155D02*
X58107Y-37761D01*
X58201Y-38155D02*
X58107Y-37761D01*
X58070Y-37621D01*
X58051Y-37592D01*
X58013Y-37564D01*
X58651Y-37761D02*
X58651Y-38352D01*
X58651Y-38071D02*
X58876Y-38071D01*
X58876Y-37761D02*
X58876Y-38352D01*
X59214Y-37789D02*
X59176Y-37761D01*
X59101Y-37761D01*
X59064Y-37789D01*
X59045Y-37846D01*
X59045Y-38071D01*
X59064Y-38127D01*
X59101Y-38155D01*
X59176Y-38155D01*
X59214Y-38127D01*
X59233Y-38071D01*
X59233Y-38015D01*
X59045Y-37958D01*
X59402Y-37761D02*
X59402Y-38155D01*
X59402Y-38352D02*
X59383Y-38324D01*
X59402Y-38296D01*
X59421Y-38324D01*
X59402Y-38352D01*
X59402Y-38296D01*
X59646Y-37761D02*
X59609Y-37789D01*
X59590Y-37846D01*
X59590Y-38352D01*
X59796Y-37761D02*
X59796Y-38155D01*
X59796Y-38352D02*
X59777Y-38324D01*
X59796Y-38296D01*
X59815Y-38324D01*
X59796Y-38352D01*
X59796Y-38296D01*
X60153Y-38155D02*
X60153Y-37677D01*
X60134Y-37621D01*
X60115Y-37592D01*
X60078Y-37564D01*
X60021Y-37564D01*
X59984Y-37592D01*
X60153Y-37789D02*
X60115Y-37761D01*
X60040Y-37761D01*
X60003Y-37789D01*
X59984Y-37818D01*
X59965Y-37874D01*
X59965Y-38043D01*
X59984Y-38099D01*
X60003Y-38127D01*
X60040Y-38155D01*
X60115Y-38155D01*
X60153Y-38127D01*
X60640Y-37986D02*
X60940Y-37986D01*
X61390Y-38155D02*
X61597Y-38155D01*
X61390Y-37761D01*
X61597Y-37761D01*
X61916Y-37761D02*
X61916Y-38071D01*
X61897Y-38127D01*
X61859Y-38155D01*
X61784Y-38155D01*
X61747Y-38127D01*
X61916Y-37789D02*
X61878Y-37761D01*
X61784Y-37761D01*
X61747Y-37789D01*
X61728Y-37846D01*
X61728Y-37902D01*
X61747Y-37958D01*
X61784Y-37986D01*
X61878Y-37986D01*
X61916Y-38015D01*
X62272Y-37789D02*
X62234Y-37761D01*
X62159Y-37761D01*
X62122Y-37789D01*
X62103Y-37818D01*
X62084Y-37874D01*
X62084Y-38043D01*
X62103Y-38099D01*
X62122Y-38127D01*
X62159Y-38155D01*
X62234Y-38155D01*
X62272Y-38127D01*
X62441Y-37761D02*
X62441Y-38352D01*
X62610Y-37761D02*
X62610Y-38071D01*
X62591Y-38127D01*
X62553Y-38155D01*
X62497Y-38155D01*
X62460Y-38127D01*
X62441Y-38099D01*
X62797Y-37818D02*
X62816Y-37789D01*
X62797Y-37761D01*
X62778Y-37789D01*
X62797Y-37818D01*
X62797Y-37761D01*
X62985Y-37761D02*
X62985Y-38352D01*
X63154Y-37761D02*
X63154Y-38071D01*
X63135Y-38127D01*
X63097Y-38155D01*
X63041Y-38155D01*
X63004Y-38127D01*
X62985Y-38099D01*
X63491Y-37789D02*
X63453Y-37761D01*
X63378Y-37761D01*
X63341Y-37789D01*
X63322Y-37846D01*
X63322Y-38071D01*
X63341Y-38127D01*
X63378Y-38155D01*
X63453Y-38155D01*
X63491Y-38127D01*
X63510Y-38071D01*
X63510Y-38015D01*
X63322Y-37958D01*
X63679Y-37761D02*
X63679Y-38155D01*
X63679Y-38352D02*
X63660Y-38324D01*
X63679Y-38296D01*
X63698Y-38324D01*
X63679Y-38352D01*
X63679Y-38296D01*
X63923Y-37761D02*
X63886Y-37789D01*
X63867Y-37846D01*
X63867Y-38352D01*
X64073Y-37761D02*
X64073Y-38155D01*
X64073Y-38352D02*
X64054Y-38324D01*
X64073Y-38296D01*
X64092Y-38324D01*
X64073Y-38352D01*
X64073Y-38296D01*
X64430Y-38155D02*
X64430Y-37677D01*
X64411Y-37621D01*
X64392Y-37592D01*
X64355Y-37564D01*
X64298Y-37564D01*
X64261Y-37592D01*
X64430Y-37789D02*
X64392Y-37761D01*
X64317Y-37761D01*
X64280Y-37789D01*
X64261Y-37818D01*
X64242Y-37874D01*
X64242Y-38043D01*
X64261Y-38099D01*
X64280Y-38127D01*
X64317Y-38155D01*
X64392Y-38155D01*
X64430Y-38127D01*
X64861Y-38043D02*
X64842Y-38071D01*
X64804Y-38099D01*
X64767Y-38099D01*
X64729Y-38071D01*
X64711Y-38043D01*
X64692Y-37986D01*
X64692Y-37930D01*
X64711Y-37874D01*
X64729Y-37846D01*
X64767Y-37818D01*
X64804Y-37818D01*
X64842Y-37846D01*
X64861Y-37874D01*
X64861Y-38099D02*
X64861Y-37874D01*
X64879Y-37846D01*
X64898Y-37846D01*
X64936Y-37874D01*
X64955Y-37930D01*
X64955Y-38071D01*
X64917Y-38155D01*
X64861Y-38212D01*
X64786Y-38240D01*
X64711Y-38212D01*
X64654Y-38155D01*
X64617Y-38071D01*
X64598Y-37958D01*
X64617Y-37846D01*
X64654Y-37761D01*
X64711Y-37705D01*
X64786Y-37677D01*
X64861Y-37705D01*
X64917Y-37761D01*
X65293Y-38155D02*
X65293Y-37677D01*
X65274Y-37621D01*
X65255Y-37592D01*
X65218Y-37564D01*
X65161Y-37564D01*
X65124Y-37592D01*
X65293Y-37789D02*
X65255Y-37761D01*
X65180Y-37761D01*
X65143Y-37789D01*
X65124Y-37818D01*
X65105Y-37874D01*
X65105Y-38043D01*
X65124Y-38099D01*
X65143Y-38127D01*
X65180Y-38155D01*
X65255Y-38155D01*
X65293Y-38127D01*
X65480Y-37761D02*
X65480Y-38155D01*
X65480Y-38099D02*
X65499Y-38127D01*
X65536Y-38155D01*
X65592Y-38155D01*
X65630Y-38127D01*
X65649Y-38071D01*
X65649Y-37761D01*
X65649Y-38071D02*
X65667Y-38127D01*
X65705Y-38155D01*
X65761Y-38155D01*
X65799Y-38127D01*
X65818Y-38071D01*
X65818Y-37761D01*
X66174Y-37761D02*
X66174Y-38071D01*
X66155Y-38127D01*
X66117Y-38155D01*
X66042Y-38155D01*
X66005Y-38127D01*
X66174Y-37789D02*
X66136Y-37761D01*
X66042Y-37761D01*
X66005Y-37789D01*
X65986Y-37846D01*
X65986Y-37902D01*
X66005Y-37958D01*
X66042Y-37986D01*
X66136Y-37986D01*
X66174Y-38015D01*
X66361Y-37761D02*
X66361Y-38155D01*
X66361Y-38352D02*
X66342Y-38324D01*
X66361Y-38296D01*
X66380Y-38324D01*
X66361Y-38352D01*
X66361Y-38296D01*
X66605Y-37761D02*
X66568Y-37789D01*
X66549Y-37846D01*
X66549Y-38352D01*
X66755Y-37818D02*
X66774Y-37789D01*
X66755Y-37761D01*
X66736Y-37789D01*
X66755Y-37818D01*
X66755Y-37761D01*
X67112Y-37789D02*
X67074Y-37761D01*
X66999Y-37761D01*
X66962Y-37789D01*
X66943Y-37818D01*
X66924Y-37874D01*
X66924Y-38043D01*
X66943Y-38099D01*
X66962Y-38127D01*
X66999Y-38155D01*
X67074Y-38155D01*
X67112Y-38127D01*
X67337Y-37761D02*
X67300Y-37789D01*
X67281Y-37818D01*
X67262Y-37874D01*
X67262Y-38043D01*
X67281Y-38099D01*
X67300Y-38127D01*
X67337Y-38155D01*
X67393Y-38155D01*
X67431Y-38127D01*
X67450Y-38099D01*
X67468Y-38043D01*
X67468Y-37874D01*
X67450Y-37818D01*
X67431Y-37789D01*
X67393Y-37761D01*
X67337Y-37761D01*
X67637Y-37761D02*
X67637Y-38155D01*
X67637Y-38099D02*
X67656Y-38127D01*
X67693Y-38155D01*
X67749Y-38155D01*
X67787Y-38127D01*
X67806Y-38071D01*
X67806Y-37761D01*
X67806Y-38071D02*
X67824Y-38127D01*
X67862Y-38155D01*
X67918Y-38155D01*
X67956Y-38127D01*
X67975Y-38071D01*
X67975Y-37761D01*
X70656Y-43430D02*
X70844Y-43430D01*
X70619Y-43261D02*
X70750Y-43852D01*
X70881Y-43261D01*
X70778Y-42571D02*
X70834Y-42543D01*
X70853Y-42515D01*
X70872Y-42458D01*
X70872Y-42374D01*
X70853Y-42318D01*
X70834Y-42289D01*
X70797Y-42261D01*
X70647Y-42261D01*
X70647Y-42852D01*
X70778Y-42852D01*
X70816Y-42824D01*
X70834Y-42796D01*
X70853Y-42740D01*
X70853Y-42683D01*
X70834Y-42627D01*
X70816Y-42599D01*
X70778Y-42571D01*
X70647Y-42571D01*
X70872Y-41318D02*
X70853Y-41289D01*
X70797Y-41261D01*
X70759Y-41261D01*
X70703Y-41289D01*
X70666Y-41346D01*
X70647Y-41402D01*
X70628Y-41515D01*
X70628Y-41599D01*
X70647Y-41712D01*
X70666Y-41768D01*
X70703Y-41824D01*
X70759Y-41852D01*
X70797Y-41852D01*
X70853Y-41824D01*
X70872Y-41796D01*
X70647Y-40261D02*
X70647Y-40852D01*
X70741Y-40852D01*
X70797Y-40824D01*
X70834Y-40768D01*
X70853Y-40712D01*
X70872Y-40599D01*
X70872Y-40515D01*
X70853Y-40402D01*
X70834Y-40346D01*
X70797Y-40289D01*
X70741Y-40261D01*
X70647Y-40261D01*
X70666Y-39571D02*
X70797Y-39571D01*
X70853Y-39261D02*
X70666Y-39261D01*
X70666Y-39852D01*
X70853Y-39852D01*
X70806Y-36571D02*
X70675Y-36571D01*
X70675Y-36261D02*
X70675Y-36852D01*
X70862Y-36852D01*
X70853Y-35824D02*
X70816Y-35852D01*
X70759Y-35852D01*
X70703Y-35824D01*
X70666Y-35768D01*
X70647Y-35712D01*
X70628Y-35599D01*
X70628Y-35515D01*
X70647Y-35402D01*
X70666Y-35346D01*
X70703Y-35289D01*
X70759Y-35261D01*
X70797Y-35261D01*
X70853Y-35289D01*
X70872Y-35318D01*
X70872Y-35515D01*
X70797Y-35515D01*
X70638Y-34261D02*
X70638Y-34852D01*
X70638Y-34571D02*
X70863Y-34571D01*
X70863Y-34261D02*
X70863Y-34852D01*
X70750Y-33261D02*
X70750Y-33852D01*
X70806Y-32852D02*
X70806Y-32430D01*
X70788Y-32346D01*
X70750Y-32289D01*
X70694Y-32261D01*
X70656Y-32261D01*
X53306Y-32852D02*
X53306Y-32430D01*
X53288Y-32346D01*
X53250Y-32289D01*
X53194Y-32261D01*
X53156Y-32261D01*
X53250Y-33261D02*
X53250Y-33852D01*
X53138Y-34261D02*
X53138Y-34852D01*
X53138Y-34571D02*
X53363Y-34571D01*
X53363Y-34261D02*
X53363Y-34852D01*
X53353Y-35824D02*
X53316Y-35852D01*
X53259Y-35852D01*
X53203Y-35824D01*
X53166Y-35768D01*
X53147Y-35712D01*
X53128Y-35599D01*
X53128Y-35515D01*
X53147Y-35402D01*
X53166Y-35346D01*
X53203Y-35289D01*
X53259Y-35261D01*
X53297Y-35261D01*
X53353Y-35289D01*
X53372Y-35318D01*
X53372Y-35515D01*
X53297Y-35515D01*
X53306Y-36571D02*
X53175Y-36571D01*
X53175Y-36261D02*
X53175Y-36852D01*
X53362Y-36852D01*
X53166Y-39571D02*
X53297Y-39571D01*
X53353Y-39261D02*
X53166Y-39261D01*
X53166Y-39852D01*
X53353Y-39852D01*
X53147Y-40261D02*
X53147Y-40852D01*
X53241Y-40852D01*
X53297Y-40824D01*
X53334Y-40768D01*
X53353Y-40712D01*
X53372Y-40599D01*
X53372Y-40515D01*
X53353Y-40402D01*
X53334Y-40346D01*
X53297Y-40289D01*
X53241Y-40261D01*
X53147Y-40261D01*
X53372Y-41318D02*
X53353Y-41289D01*
X53297Y-41261D01*
X53259Y-41261D01*
X53203Y-41289D01*
X53166Y-41346D01*
X53147Y-41402D01*
X53128Y-41515D01*
X53128Y-41599D01*
X53147Y-41712D01*
X53166Y-41768D01*
X53203Y-41824D01*
X53259Y-41852D01*
X53297Y-41852D01*
X53353Y-41824D01*
X53372Y-41796D01*
X53278Y-42571D02*
X53334Y-42543D01*
X53353Y-42515D01*
X53372Y-42458D01*
X53372Y-42374D01*
X53353Y-42318D01*
X53334Y-42289D01*
X53297Y-42261D01*
X53147Y-42261D01*
X53147Y-42852D01*
X53278Y-42852D01*
X53316Y-42824D01*
X53334Y-42796D01*
X53353Y-42740D01*
X53353Y-42683D01*
X53334Y-42627D01*
X53316Y-42599D01*
X53278Y-42571D01*
X53147Y-42571D01*
X53156Y-43430D02*
X53344Y-43430D01*
X53119Y-43261D02*
X53250Y-43852D01*
X53381Y-43261D01*
X70650Y-46014D02*
X70350Y-46014D01*
X64650Y-46014D02*
X64350Y-46014D01*
X59650Y-46014D02*
X59350Y-46014D01*
X53650Y-46014D02*
X53350Y-46014D01*
G54D11*
X70500Y-45250D02*
X53500Y-45250D01*
G54D12*
X54113Y-44261D02*
X53888Y-44261D01*
X54001Y-44261D02*
X54001Y-44852D01*
X53963Y-44768D01*
X53926Y-44712D01*
X53888Y-44683D01*
X54888Y-44796D02*
X54907Y-44824D01*
X54944Y-44852D01*
X55038Y-44852D01*
X55076Y-44824D01*
X55094Y-44796D01*
X55113Y-44740D01*
X55113Y-44683D01*
X55094Y-44599D01*
X54869Y-44261D01*
X55113Y-44261D01*
X55869Y-44852D02*
X56113Y-44852D01*
X55982Y-44627D01*
X56038Y-44627D01*
X56076Y-44599D01*
X56094Y-44571D01*
X56113Y-44515D01*
X56113Y-44374D01*
X56094Y-44318D01*
X56076Y-44289D01*
X56038Y-44261D01*
X55926Y-44261D01*
X55888Y-44289D01*
X55869Y-44318D01*
X57076Y-44655D02*
X57076Y-44261D01*
X56982Y-44880D02*
X56888Y-44458D01*
X57132Y-44458D01*
X58094Y-44852D02*
X57907Y-44852D01*
X57888Y-44571D01*
X57907Y-44599D01*
X57944Y-44627D01*
X58038Y-44627D01*
X58076Y-44599D01*
X58094Y-44571D01*
X58113Y-44515D01*
X58113Y-44374D01*
X58094Y-44318D01*
X58076Y-44289D01*
X58038Y-44261D01*
X57944Y-44261D01*
X57907Y-44289D01*
X57888Y-44318D01*
X59076Y-44852D02*
X59001Y-44852D01*
X58963Y-44824D01*
X58944Y-44796D01*
X58907Y-44712D01*
X58888Y-44599D01*
X58888Y-44374D01*
X58907Y-44318D01*
X58926Y-44289D01*
X58963Y-44261D01*
X59038Y-44261D01*
X59076Y-44289D01*
X59094Y-44318D01*
X59113Y-44374D01*
X59113Y-44515D01*
X59094Y-44571D01*
X59076Y-44599D01*
X59038Y-44627D01*
X58963Y-44627D01*
X58926Y-44599D01*
X58907Y-44571D01*
X58888Y-44515D01*
X59869Y-44852D02*
X60132Y-44852D01*
X59963Y-44261D01*
X60963Y-44599D02*
X60926Y-44627D01*
X60907Y-44655D01*
X60888Y-44712D01*
X60888Y-44740D01*
X60907Y-44796D01*
X60926Y-44824D01*
X60963Y-44852D01*
X61038Y-44852D01*
X61076Y-44824D01*
X61094Y-44796D01*
X61113Y-44740D01*
X61113Y-44712D01*
X61094Y-44655D01*
X61076Y-44627D01*
X61038Y-44599D01*
X60963Y-44599D01*
X60926Y-44571D01*
X60907Y-44543D01*
X60888Y-44486D01*
X60888Y-44374D01*
X60907Y-44318D01*
X60926Y-44289D01*
X60963Y-44261D01*
X61038Y-44261D01*
X61076Y-44289D01*
X61094Y-44318D01*
X61113Y-44374D01*
X61113Y-44486D01*
X61094Y-44543D01*
X61076Y-44571D01*
X61038Y-44599D01*
X61926Y-44261D02*
X62001Y-44261D01*
X62038Y-44289D01*
X62057Y-44318D01*
X62094Y-44402D01*
X62113Y-44515D01*
X62113Y-44740D01*
X62094Y-44796D01*
X62076Y-44824D01*
X62038Y-44852D01*
X61963Y-44852D01*
X61926Y-44824D01*
X61907Y-44796D01*
X61888Y-44740D01*
X61888Y-44599D01*
X61907Y-44543D01*
X61926Y-44515D01*
X61963Y-44486D01*
X62038Y-44486D01*
X62076Y-44515D01*
X62094Y-44543D01*
X62113Y-44599D01*
X62925Y-44261D02*
X62700Y-44261D01*
X62813Y-44261D02*
X62813Y-44852D01*
X62775Y-44768D01*
X62738Y-44712D01*
X62700Y-44683D01*
X63169Y-44852D02*
X63206Y-44852D01*
X63244Y-44824D01*
X63263Y-44796D01*
X63281Y-44740D01*
X63300Y-44627D01*
X63300Y-44486D01*
X63281Y-44374D01*
X63263Y-44318D01*
X63244Y-44289D01*
X63206Y-44261D01*
X63169Y-44261D01*
X63131Y-44289D01*
X63113Y-44318D01*
X63094Y-44374D01*
X63075Y-44486D01*
X63075Y-44627D01*
X63094Y-44740D01*
X63113Y-44796D01*
X63131Y-44824D01*
X63169Y-44852D01*
X63925Y-44261D02*
X63700Y-44261D01*
X63813Y-44261D02*
X63813Y-44852D01*
X63775Y-44768D01*
X63738Y-44712D01*
X63700Y-44683D01*
X64300Y-44261D02*
X64075Y-44261D01*
X64188Y-44261D02*
X64188Y-44852D01*
X64150Y-44768D01*
X64113Y-44712D01*
X64075Y-44683D01*
X64925Y-44261D02*
X64700Y-44261D01*
X64813Y-44261D02*
X64813Y-44852D01*
X64775Y-44768D01*
X64738Y-44712D01*
X64700Y-44683D01*
X65075Y-44796D02*
X65094Y-44824D01*
X65131Y-44852D01*
X65225Y-44852D01*
X65263Y-44824D01*
X65281Y-44796D01*
X65300Y-44740D01*
X65300Y-44683D01*
X65281Y-44599D01*
X65056Y-44261D01*
X65300Y-44261D01*
X65925Y-44261D02*
X65700Y-44261D01*
X65813Y-44261D02*
X65813Y-44852D01*
X65775Y-44768D01*
X65738Y-44712D01*
X65700Y-44683D01*
X66056Y-44852D02*
X66300Y-44852D01*
X66169Y-44627D01*
X66225Y-44627D01*
X66263Y-44599D01*
X66281Y-44571D01*
X66300Y-44515D01*
X66300Y-44374D01*
X66281Y-44318D01*
X66263Y-44289D01*
X66225Y-44261D01*
X66113Y-44261D01*
X66075Y-44289D01*
X66056Y-44318D01*
X66925Y-44261D02*
X66700Y-44261D01*
X66813Y-44261D02*
X66813Y-44852D01*
X66775Y-44768D01*
X66738Y-44712D01*
X66700Y-44683D01*
X67263Y-44655D02*
X67263Y-44261D01*
X67169Y-44880D02*
X67075Y-44458D01*
X67319Y-44458D01*
X67925Y-44261D02*
X67700Y-44261D01*
X67813Y-44261D02*
X67813Y-44852D01*
X67775Y-44768D01*
X67738Y-44712D01*
X67700Y-44683D01*
X68281Y-44852D02*
X68094Y-44852D01*
X68075Y-44571D01*
X68094Y-44599D01*
X68131Y-44627D01*
X68225Y-44627D01*
X68263Y-44599D01*
X68281Y-44571D01*
X68300Y-44515D01*
X68300Y-44374D01*
X68281Y-44318D01*
X68263Y-44289D01*
X68225Y-44261D01*
X68131Y-44261D01*
X68094Y-44289D01*
X68075Y-44318D01*
X68925Y-44261D02*
X68700Y-44261D01*
X68813Y-44261D02*
X68813Y-44852D01*
X68775Y-44768D01*
X68738Y-44712D01*
X68700Y-44683D01*
X69263Y-44852D02*
X69188Y-44852D01*
X69150Y-44824D01*
X69131Y-44796D01*
X69094Y-44712D01*
X69075Y-44599D01*
X69075Y-44374D01*
X69094Y-44318D01*
X69113Y-44289D01*
X69150Y-44261D01*
X69225Y-44261D01*
X69263Y-44289D01*
X69281Y-44318D01*
X69300Y-44374D01*
X69300Y-44515D01*
X69281Y-44571D01*
X69263Y-44599D01*
X69225Y-44627D01*
X69150Y-44627D01*
X69113Y-44599D01*
X69094Y-44571D01*
X69075Y-44515D01*
X69925Y-44261D02*
X69700Y-44261D01*
X69813Y-44261D02*
X69813Y-44852D01*
X69775Y-44768D01*
X69738Y-44712D01*
X69700Y-44683D01*
X70056Y-44852D02*
X70319Y-44852D01*
X70150Y-44261D01*
X69925Y-31261D02*
X69700Y-31261D01*
X69813Y-31261D02*
X69813Y-31852D01*
X69775Y-31768D01*
X69738Y-31712D01*
X69700Y-31683D01*
X70056Y-31852D02*
X70319Y-31852D01*
X70150Y-31261D01*
X68925Y-31261D02*
X68700Y-31261D01*
X68813Y-31261D02*
X68813Y-31852D01*
X68775Y-31768D01*
X68738Y-31712D01*
X68700Y-31683D01*
X69263Y-31852D02*
X69188Y-31852D01*
X69150Y-31824D01*
X69131Y-31796D01*
X69094Y-31712D01*
X69075Y-31599D01*
X69075Y-31374D01*
X69094Y-31318D01*
X69113Y-31289D01*
X69150Y-31261D01*
X69225Y-31261D01*
X69263Y-31289D01*
X69281Y-31318D01*
X69300Y-31374D01*
X69300Y-31515D01*
X69281Y-31571D01*
X69263Y-31599D01*
X69225Y-31627D01*
X69150Y-31627D01*
X69113Y-31599D01*
X69094Y-31571D01*
X69075Y-31515D01*
X67925Y-31261D02*
X67700Y-31261D01*
X67813Y-31261D02*
X67813Y-31852D01*
X67775Y-31768D01*
X67738Y-31712D01*
X67700Y-31683D01*
X68281Y-31852D02*
X68094Y-31852D01*
X68075Y-31571D01*
X68094Y-31599D01*
X68131Y-31627D01*
X68225Y-31627D01*
X68263Y-31599D01*
X68281Y-31571D01*
X68300Y-31515D01*
X68300Y-31374D01*
X68281Y-31318D01*
X68263Y-31289D01*
X68225Y-31261D01*
X68131Y-31261D01*
X68094Y-31289D01*
X68075Y-31318D01*
X66925Y-31261D02*
X66700Y-31261D01*
X66813Y-31261D02*
X66813Y-31852D01*
X66775Y-31768D01*
X66738Y-31712D01*
X66700Y-31683D01*
X67263Y-31655D02*
X67263Y-31261D01*
X67169Y-31880D02*
X67075Y-31458D01*
X67319Y-31458D01*
X65925Y-31261D02*
X65700Y-31261D01*
X65813Y-31261D02*
X65813Y-31852D01*
X65775Y-31768D01*
X65738Y-31712D01*
X65700Y-31683D01*
X66056Y-31852D02*
X66300Y-31852D01*
X66169Y-31627D01*
X66225Y-31627D01*
X66263Y-31599D01*
X66281Y-31571D01*
X66300Y-31515D01*
X66300Y-31374D01*
X66281Y-31318D01*
X66263Y-31289D01*
X66225Y-31261D01*
X66113Y-31261D01*
X66075Y-31289D01*
X66056Y-31318D01*
X64925Y-31261D02*
X64700Y-31261D01*
X64813Y-31261D02*
X64813Y-31852D01*
X64775Y-31768D01*
X64738Y-31712D01*
X64700Y-31683D01*
X65075Y-31796D02*
X65094Y-31824D01*
X65131Y-31852D01*
X65225Y-31852D01*
X65263Y-31824D01*
X65281Y-31796D01*
X65300Y-31740D01*
X65300Y-31683D01*
X65281Y-31599D01*
X65056Y-31261D01*
X65300Y-31261D01*
X63925Y-31261D02*
X63700Y-31261D01*
X63813Y-31261D02*
X63813Y-31852D01*
X63775Y-31768D01*
X63738Y-31712D01*
X63700Y-31683D01*
X64300Y-31261D02*
X64075Y-31261D01*
X64188Y-31261D02*
X64188Y-31852D01*
X64150Y-31768D01*
X64113Y-31712D01*
X64075Y-31683D01*
X62925Y-31261D02*
X62700Y-31261D01*
X62813Y-31261D02*
X62813Y-31852D01*
X62775Y-31768D01*
X62738Y-31712D01*
X62700Y-31683D01*
X63169Y-31852D02*
X63206Y-31852D01*
X63244Y-31824D01*
X63263Y-31796D01*
X63281Y-31740D01*
X63300Y-31627D01*
X63300Y-31486D01*
X63281Y-31374D01*
X63263Y-31318D01*
X63244Y-31289D01*
X63206Y-31261D01*
X63169Y-31261D01*
X63131Y-31289D01*
X63113Y-31318D01*
X63094Y-31374D01*
X63075Y-31486D01*
X63075Y-31627D01*
X63094Y-31740D01*
X63113Y-31796D01*
X63131Y-31824D01*
X63169Y-31852D01*
X61926Y-31261D02*
X62001Y-31261D01*
X62038Y-31289D01*
X62057Y-31318D01*
X62094Y-31402D01*
X62113Y-31515D01*
X62113Y-31740D01*
X62094Y-31796D01*
X62076Y-31824D01*
X62038Y-31852D01*
X61963Y-31852D01*
X61926Y-31824D01*
X61907Y-31796D01*
X61888Y-31740D01*
X61888Y-31599D01*
X61907Y-31543D01*
X61926Y-31515D01*
X61963Y-31486D01*
X62038Y-31486D01*
X62076Y-31515D01*
X62094Y-31543D01*
X62113Y-31599D01*
X60963Y-31599D02*
X60926Y-31627D01*
X60907Y-31655D01*
X60888Y-31712D01*
X60888Y-31740D01*
X60907Y-31796D01*
X60926Y-31824D01*
X60963Y-31852D01*
X61038Y-31852D01*
X61076Y-31824D01*
X61094Y-31796D01*
X61113Y-31740D01*
X61113Y-31712D01*
X61094Y-31655D01*
X61076Y-31627D01*
X61038Y-31599D01*
X60963Y-31599D01*
X60926Y-31571D01*
X60907Y-31543D01*
X60888Y-31486D01*
X60888Y-31374D01*
X60907Y-31318D01*
X60926Y-31289D01*
X60963Y-31261D01*
X61038Y-31261D01*
X61076Y-31289D01*
X61094Y-31318D01*
X61113Y-31374D01*
X61113Y-31486D01*
X61094Y-31543D01*
X61076Y-31571D01*
X61038Y-31599D01*
X59869Y-31852D02*
X60132Y-31852D01*
X59963Y-31261D01*
X59076Y-31852D02*
X59001Y-31852D01*
X58963Y-31824D01*
X58944Y-31796D01*
X58907Y-31712D01*
X58888Y-31599D01*
X58888Y-31374D01*
X58907Y-31318D01*
X58926Y-31289D01*
X58963Y-31261D01*
X59038Y-31261D01*
X59076Y-31289D01*
X59094Y-31318D01*
X59113Y-31374D01*
X59113Y-31515D01*
X59094Y-31571D01*
X59076Y-31599D01*
X59038Y-31627D01*
X58963Y-31627D01*
X58926Y-31599D01*
X58907Y-31571D01*
X58888Y-31515D01*
X58094Y-31852D02*
X57907Y-31852D01*
X57888Y-31571D01*
X57907Y-31599D01*
X57944Y-31627D01*
X58038Y-31627D01*
X58076Y-31599D01*
X58094Y-31571D01*
X58113Y-31515D01*
X58113Y-31374D01*
X58094Y-31318D01*
X58076Y-31289D01*
X58038Y-31261D01*
X57944Y-31261D01*
X57907Y-31289D01*
X57888Y-31318D01*
X57076Y-31655D02*
X57076Y-31261D01*
X56982Y-31880D02*
X56888Y-31458D01*
X57132Y-31458D01*
X55869Y-31852D02*
X56113Y-31852D01*
X55982Y-31627D01*
X56038Y-31627D01*
X56076Y-31599D01*
X56094Y-31571D01*
X56113Y-31515D01*
X56113Y-31374D01*
X56094Y-31318D01*
X56076Y-31289D01*
X56038Y-31261D01*
X55926Y-31261D01*
X55888Y-31289D01*
X55869Y-31318D01*
G54D11*
X70500Y-30750D02*
X53500Y-30750D01*
G54D12*
X70650Y-30014D02*
X70350Y-30014D01*
X70500Y-30239D02*
X70500Y-29788D01*
X64650Y-30014D02*
X64350Y-30014D01*
X64500Y-30239D02*
X64500Y-29788D01*
X59675Y-30014D02*
X59375Y-30014D01*
X59525Y-30239D02*
X59525Y-29788D01*
X53650Y-30014D02*
X53350Y-30014D01*
X53500Y-30239D02*
X53500Y-29788D01*
X54888Y-31796D02*
X54907Y-31824D01*
X54944Y-31852D01*
X55038Y-31852D01*
X55076Y-31824D01*
X55094Y-31796D01*
X55113Y-31740D01*
X55113Y-31683D01*
X55094Y-31599D01*
X54869Y-31261D01*
X55113Y-31261D01*
X54113Y-31261D02*
X53888Y-31261D01*
X54001Y-31261D02*
X54001Y-31852D01*
X53963Y-31768D01*
X53926Y-31712D01*
X53888Y-31683D01*
M02*
