G04 (created by PCBNEW-RS274X (2011-07-08 BZR 3044)-stable) date 12/7/2011 10:38:21 PM*
G01*
G70*
G90*
%MOIN*%
G04 Gerber Fmt 3.4, Leading zero omitted, Abs format*
%FSLAX34Y34*%
G04 APERTURE LIST*
%ADD10C,0.006000*%
%ADD11C,0.015000*%
%ADD12C,0.068900*%
%ADD13C,0.060000*%
%ADD14C,0.008000*%
%ADD15C,0.010000*%
G04 APERTURE END LIST*
G54D10*
G54D11*
X71750Y-30900D02*
X71750Y-45100D01*
X52250Y-30900D02*
X52250Y-45100D01*
X70175Y-29300D02*
X53875Y-29300D01*
X53850Y-46700D02*
X70150Y-46700D01*
X52250Y-45100D02*
X52257Y-45239D01*
X52275Y-45377D01*
X52305Y-45514D01*
X52347Y-45647D01*
X52400Y-45776D01*
X52465Y-45899D01*
X52540Y-46017D01*
X52625Y-46128D01*
X52719Y-46231D01*
X52822Y-46325D01*
X52933Y-46410D01*
X53051Y-46485D01*
X53174Y-46550D01*
X53303Y-46603D01*
X53436Y-46645D01*
X53573Y-46675D01*
X53711Y-46693D01*
X53850Y-46700D01*
X53850Y-29300D02*
X53711Y-29307D01*
X53573Y-29325D01*
X53436Y-29355D01*
X53303Y-29397D01*
X53174Y-29450D01*
X53051Y-29515D01*
X52933Y-29590D01*
X52822Y-29675D01*
X52719Y-29769D01*
X52625Y-29872D01*
X52540Y-29983D01*
X52465Y-30101D01*
X52400Y-30224D01*
X52347Y-30353D01*
X52305Y-30486D01*
X52275Y-30623D01*
X52257Y-30761D01*
X52250Y-30900D01*
X71750Y-30900D02*
X71743Y-30761D01*
X71725Y-30623D01*
X71695Y-30486D01*
X71653Y-30353D01*
X71600Y-30224D01*
X71535Y-30101D01*
X71460Y-29983D01*
X71375Y-29872D01*
X71281Y-29769D01*
X71178Y-29675D01*
X71067Y-29590D01*
X70950Y-29515D01*
X70826Y-29450D01*
X70697Y-29397D01*
X70564Y-29355D01*
X70427Y-29325D01*
X70289Y-29307D01*
X70150Y-29300D01*
X70150Y-46700D02*
X70289Y-46693D01*
X70427Y-46675D01*
X70564Y-46645D01*
X70697Y-46603D01*
X70826Y-46550D01*
X70950Y-46485D01*
X71067Y-46410D01*
X71178Y-46325D01*
X71281Y-46231D01*
X71375Y-46128D01*
X71460Y-46017D01*
X71535Y-45899D01*
X71600Y-45776D01*
X71653Y-45647D01*
X71695Y-45514D01*
X71725Y-45377D01*
X71743Y-45239D01*
X71750Y-45100D01*
G54D12*
X54000Y-36500D03*
X55000Y-36500D03*
X56000Y-36500D03*
X57000Y-36500D03*
X58000Y-36500D03*
X59000Y-36500D03*
X60000Y-36500D03*
X61000Y-36500D03*
X62000Y-36500D03*
X63000Y-36500D03*
X64000Y-36500D03*
X65000Y-36500D03*
X66000Y-36500D03*
X67000Y-36500D03*
X68000Y-36500D03*
X69000Y-36500D03*
X70000Y-36500D03*
X54000Y-35500D03*
X55000Y-35500D03*
X56000Y-35500D03*
X57000Y-35500D03*
X58000Y-35500D03*
X59000Y-35500D03*
X60000Y-35500D03*
X61000Y-35500D03*
X62000Y-35500D03*
X63000Y-35500D03*
X64000Y-35500D03*
X65000Y-35500D03*
X66000Y-35500D03*
X67000Y-35500D03*
X68000Y-35500D03*
X69000Y-35500D03*
X70000Y-35500D03*
X54000Y-34500D03*
X55000Y-34500D03*
X56000Y-34500D03*
X57000Y-34500D03*
X58000Y-34500D03*
X59000Y-34500D03*
X60000Y-34500D03*
X61000Y-34500D03*
X62000Y-34500D03*
X63000Y-34500D03*
X64000Y-34500D03*
X65000Y-34500D03*
X66000Y-34500D03*
X67000Y-34500D03*
X68000Y-34500D03*
X69000Y-34500D03*
X70000Y-34500D03*
X54000Y-33500D03*
X55000Y-33500D03*
X56000Y-33500D03*
X57000Y-33500D03*
X58000Y-33500D03*
X59000Y-33500D03*
X60000Y-33500D03*
X61000Y-33500D03*
X62000Y-33500D03*
X63000Y-33500D03*
X64000Y-33500D03*
X65000Y-33500D03*
X66000Y-33500D03*
X67000Y-33500D03*
X68000Y-33500D03*
X69000Y-33500D03*
X70000Y-33500D03*
X54000Y-32500D03*
X55000Y-32500D03*
X56000Y-32500D03*
X57000Y-32500D03*
X58000Y-32500D03*
X59000Y-32500D03*
X60000Y-32500D03*
X61000Y-32500D03*
X62000Y-32500D03*
X63000Y-32500D03*
X64000Y-32500D03*
X65000Y-32500D03*
X66000Y-32500D03*
X67000Y-32500D03*
X68000Y-32500D03*
X69000Y-32500D03*
X70000Y-32500D03*
X54000Y-39500D03*
X55000Y-39500D03*
X56000Y-39500D03*
X57000Y-39500D03*
X58000Y-39500D03*
X59000Y-39500D03*
X60000Y-39500D03*
X61000Y-39500D03*
X62000Y-39500D03*
X63000Y-39500D03*
X64000Y-39500D03*
X65000Y-39500D03*
X66000Y-39500D03*
X67000Y-39500D03*
X68000Y-39500D03*
X69000Y-39500D03*
X70000Y-39500D03*
X54000Y-40500D03*
X55000Y-40500D03*
X56000Y-40500D03*
X57000Y-40500D03*
X58000Y-40500D03*
X59000Y-40500D03*
X60000Y-40500D03*
X61000Y-40500D03*
X62000Y-40500D03*
X63000Y-40500D03*
X64000Y-40500D03*
X65000Y-40500D03*
X66000Y-40500D03*
X67000Y-40500D03*
X68000Y-40500D03*
X69000Y-40500D03*
X70000Y-40500D03*
X54000Y-41500D03*
X55000Y-41500D03*
X56000Y-41500D03*
X57000Y-41500D03*
X58000Y-41500D03*
X59000Y-41500D03*
X60000Y-41500D03*
X61000Y-41500D03*
X62000Y-41500D03*
X63000Y-41500D03*
X64000Y-41500D03*
X65000Y-41500D03*
X66000Y-41500D03*
X67000Y-41500D03*
X68000Y-41500D03*
X69000Y-41500D03*
X70000Y-41500D03*
X54000Y-42500D03*
X55000Y-42500D03*
X56000Y-42500D03*
X57000Y-42500D03*
X58000Y-42500D03*
X59000Y-42500D03*
X60000Y-42500D03*
X61000Y-42500D03*
X62000Y-42500D03*
X63000Y-42500D03*
X64000Y-42500D03*
X65000Y-42500D03*
X66000Y-42500D03*
X67000Y-42500D03*
X68000Y-42500D03*
X69000Y-42500D03*
X70000Y-42500D03*
X54000Y-43500D03*
X55000Y-43500D03*
X56000Y-43500D03*
X57000Y-43500D03*
X58000Y-43500D03*
X59000Y-43500D03*
X60000Y-43500D03*
X61000Y-43500D03*
X62000Y-43500D03*
X63000Y-43500D03*
X64000Y-43500D03*
X65000Y-43500D03*
X66000Y-43500D03*
X67000Y-43500D03*
X68000Y-43500D03*
X69000Y-43500D03*
X70000Y-43500D03*
G54D13*
X54500Y-30000D03*
X55500Y-30000D03*
X56500Y-30000D03*
X57500Y-30000D03*
X58500Y-30000D03*
X60500Y-30000D03*
X61500Y-30000D03*
X62500Y-30000D03*
X63500Y-30000D03*
X65500Y-30000D03*
X66500Y-30000D03*
X67500Y-30000D03*
X68500Y-30000D03*
X69500Y-30000D03*
X54500Y-46000D03*
X55500Y-46000D03*
X56500Y-46000D03*
X57500Y-46000D03*
X58500Y-46000D03*
X60500Y-46000D03*
X61500Y-46000D03*
X62500Y-46000D03*
X63500Y-46000D03*
X65500Y-46000D03*
X66500Y-46000D03*
X67500Y-46000D03*
X68500Y-46000D03*
X69500Y-46000D03*
G54D14*
X54500Y-30000D02*
X55500Y-30000D01*
X55500Y-30000D02*
X56500Y-30000D01*
X56500Y-30000D02*
X57500Y-30000D01*
X57500Y-30000D02*
X58500Y-30000D01*
X58500Y-30000D02*
X60500Y-30000D01*
X60500Y-30000D02*
X61500Y-30000D01*
X61500Y-30000D02*
X62500Y-30000D01*
X62500Y-30000D02*
X63500Y-30000D01*
X63500Y-30000D02*
X65500Y-30000D01*
X65500Y-30000D02*
X66500Y-30000D01*
X66500Y-30000D02*
X67500Y-30000D01*
X67500Y-30000D02*
X68500Y-30000D01*
X68500Y-30000D02*
X69500Y-30000D01*
G54D10*
G36*
X71525Y-45080D02*
X71415Y-45624D01*
X71119Y-46067D01*
X70674Y-46365D01*
X70493Y-46401D01*
X70493Y-43598D01*
X70493Y-43402D01*
X70493Y-42598D01*
X70493Y-42402D01*
X70493Y-41598D01*
X70493Y-41402D01*
X70493Y-40598D01*
X70493Y-40402D01*
X70493Y-39598D01*
X70493Y-39402D01*
X70493Y-36598D01*
X70493Y-36402D01*
X70493Y-35598D01*
X70493Y-35402D01*
X70493Y-34598D01*
X70493Y-34402D01*
X70493Y-33598D01*
X70493Y-33402D01*
X70493Y-32598D01*
X70493Y-32402D01*
X70418Y-32221D01*
X70279Y-32082D01*
X70098Y-32007D01*
X69902Y-32007D01*
X69721Y-32082D01*
X69582Y-32221D01*
X69507Y-32402D01*
X69507Y-32598D01*
X69582Y-32779D01*
X69721Y-32918D01*
X69902Y-32993D01*
X70098Y-32993D01*
X70279Y-32918D01*
X70418Y-32779D01*
X70493Y-32598D01*
X70493Y-33402D01*
X70418Y-33221D01*
X70279Y-33082D01*
X70098Y-33007D01*
X69902Y-33007D01*
X69721Y-33082D01*
X69582Y-33221D01*
X69507Y-33402D01*
X69507Y-33598D01*
X69582Y-33779D01*
X69721Y-33918D01*
X69902Y-33993D01*
X70098Y-33993D01*
X70279Y-33918D01*
X70418Y-33779D01*
X70493Y-33598D01*
X70493Y-34402D01*
X70418Y-34221D01*
X70279Y-34082D01*
X70098Y-34007D01*
X69902Y-34007D01*
X69721Y-34082D01*
X69582Y-34221D01*
X69507Y-34402D01*
X69507Y-34598D01*
X69582Y-34779D01*
X69721Y-34918D01*
X69902Y-34993D01*
X70098Y-34993D01*
X70279Y-34918D01*
X70418Y-34779D01*
X70493Y-34598D01*
X70493Y-35402D01*
X70418Y-35221D01*
X70279Y-35082D01*
X70098Y-35007D01*
X69902Y-35007D01*
X69721Y-35082D01*
X69582Y-35221D01*
X69507Y-35402D01*
X69507Y-35598D01*
X69582Y-35779D01*
X69721Y-35918D01*
X69902Y-35993D01*
X70098Y-35993D01*
X70279Y-35918D01*
X70418Y-35779D01*
X70493Y-35598D01*
X70493Y-36402D01*
X70418Y-36221D01*
X70279Y-36082D01*
X70098Y-36007D01*
X69902Y-36007D01*
X69721Y-36082D01*
X69582Y-36221D01*
X69507Y-36402D01*
X69507Y-36598D01*
X69582Y-36779D01*
X69721Y-36918D01*
X69902Y-36993D01*
X70098Y-36993D01*
X70279Y-36918D01*
X70418Y-36779D01*
X70493Y-36598D01*
X70493Y-39402D01*
X70418Y-39221D01*
X70279Y-39082D01*
X70098Y-39007D01*
X69902Y-39007D01*
X69721Y-39082D01*
X69582Y-39221D01*
X69507Y-39402D01*
X69507Y-39598D01*
X69582Y-39779D01*
X69721Y-39918D01*
X69902Y-39993D01*
X70098Y-39993D01*
X70279Y-39918D01*
X70418Y-39779D01*
X70493Y-39598D01*
X70493Y-40402D01*
X70418Y-40221D01*
X70279Y-40082D01*
X70098Y-40007D01*
X69902Y-40007D01*
X69721Y-40082D01*
X69582Y-40221D01*
X69507Y-40402D01*
X69507Y-40598D01*
X69582Y-40779D01*
X69721Y-40918D01*
X69902Y-40993D01*
X70098Y-40993D01*
X70279Y-40918D01*
X70418Y-40779D01*
X70493Y-40598D01*
X70493Y-41402D01*
X70418Y-41221D01*
X70279Y-41082D01*
X70098Y-41007D01*
X69902Y-41007D01*
X69721Y-41082D01*
X69582Y-41221D01*
X69507Y-41402D01*
X69507Y-41598D01*
X69582Y-41779D01*
X69721Y-41918D01*
X69902Y-41993D01*
X70098Y-41993D01*
X70279Y-41918D01*
X70418Y-41779D01*
X70493Y-41598D01*
X70493Y-42402D01*
X70418Y-42221D01*
X70279Y-42082D01*
X70098Y-42007D01*
X69902Y-42007D01*
X69721Y-42082D01*
X69582Y-42221D01*
X69507Y-42402D01*
X69507Y-42598D01*
X69582Y-42779D01*
X69721Y-42918D01*
X69902Y-42993D01*
X70098Y-42993D01*
X70279Y-42918D01*
X70418Y-42779D01*
X70493Y-42598D01*
X70493Y-43402D01*
X70418Y-43221D01*
X70279Y-43082D01*
X70098Y-43007D01*
X69902Y-43007D01*
X69721Y-43082D01*
X69582Y-43221D01*
X69507Y-43402D01*
X69507Y-43598D01*
X69582Y-43779D01*
X69721Y-43918D01*
X69902Y-43993D01*
X70098Y-43993D01*
X70279Y-43918D01*
X70418Y-43779D01*
X70493Y-43598D01*
X70493Y-46401D01*
X70126Y-46475D01*
X69949Y-46475D01*
X69949Y-46090D01*
X69949Y-45911D01*
X69881Y-45746D01*
X69755Y-45620D01*
X69590Y-45551D01*
X69493Y-45551D01*
X69493Y-43598D01*
X69493Y-43402D01*
X69493Y-42598D01*
X69493Y-42402D01*
X69493Y-41598D01*
X69493Y-41402D01*
X69493Y-40598D01*
X69493Y-40402D01*
X69493Y-39598D01*
X69493Y-39402D01*
X69493Y-36598D01*
X69493Y-36402D01*
X69493Y-35598D01*
X69493Y-35402D01*
X69493Y-34598D01*
X69493Y-34402D01*
X69493Y-33598D01*
X69493Y-33402D01*
X69493Y-32598D01*
X69493Y-32402D01*
X69418Y-32221D01*
X69279Y-32082D01*
X69098Y-32007D01*
X68902Y-32007D01*
X68721Y-32082D01*
X68582Y-32221D01*
X68507Y-32402D01*
X68507Y-32598D01*
X68582Y-32779D01*
X68721Y-32918D01*
X68902Y-32993D01*
X69098Y-32993D01*
X69279Y-32918D01*
X69418Y-32779D01*
X69493Y-32598D01*
X69493Y-33402D01*
X69418Y-33221D01*
X69279Y-33082D01*
X69098Y-33007D01*
X68902Y-33007D01*
X68721Y-33082D01*
X68582Y-33221D01*
X68507Y-33402D01*
X68507Y-33598D01*
X68582Y-33779D01*
X68721Y-33918D01*
X68902Y-33993D01*
X69098Y-33993D01*
X69279Y-33918D01*
X69418Y-33779D01*
X69493Y-33598D01*
X69493Y-34402D01*
X69418Y-34221D01*
X69279Y-34082D01*
X69098Y-34007D01*
X68902Y-34007D01*
X68721Y-34082D01*
X68582Y-34221D01*
X68507Y-34402D01*
X68507Y-34598D01*
X68582Y-34779D01*
X68721Y-34918D01*
X68902Y-34993D01*
X69098Y-34993D01*
X69279Y-34918D01*
X69418Y-34779D01*
X69493Y-34598D01*
X69493Y-35402D01*
X69418Y-35221D01*
X69279Y-35082D01*
X69098Y-35007D01*
X68902Y-35007D01*
X68721Y-35082D01*
X68582Y-35221D01*
X68507Y-35402D01*
X68507Y-35598D01*
X68582Y-35779D01*
X68721Y-35918D01*
X68902Y-35993D01*
X69098Y-35993D01*
X69279Y-35918D01*
X69418Y-35779D01*
X69493Y-35598D01*
X69493Y-36402D01*
X69418Y-36221D01*
X69279Y-36082D01*
X69098Y-36007D01*
X68902Y-36007D01*
X68721Y-36082D01*
X68582Y-36221D01*
X68507Y-36402D01*
X68507Y-36598D01*
X68582Y-36779D01*
X68721Y-36918D01*
X68902Y-36993D01*
X69098Y-36993D01*
X69279Y-36918D01*
X69418Y-36779D01*
X69493Y-36598D01*
X69493Y-39402D01*
X69418Y-39221D01*
X69279Y-39082D01*
X69098Y-39007D01*
X68902Y-39007D01*
X68721Y-39082D01*
X68582Y-39221D01*
X68507Y-39402D01*
X68507Y-39598D01*
X68582Y-39779D01*
X68721Y-39918D01*
X68902Y-39993D01*
X69098Y-39993D01*
X69279Y-39918D01*
X69418Y-39779D01*
X69493Y-39598D01*
X69493Y-40402D01*
X69418Y-40221D01*
X69279Y-40082D01*
X69098Y-40007D01*
X68902Y-40007D01*
X68721Y-40082D01*
X68582Y-40221D01*
X68507Y-40402D01*
X68507Y-40598D01*
X68582Y-40779D01*
X68721Y-40918D01*
X68902Y-40993D01*
X69098Y-40993D01*
X69279Y-40918D01*
X69418Y-40779D01*
X69493Y-40598D01*
X69493Y-41402D01*
X69418Y-41221D01*
X69279Y-41082D01*
X69098Y-41007D01*
X68902Y-41007D01*
X68721Y-41082D01*
X68582Y-41221D01*
X68507Y-41402D01*
X68507Y-41598D01*
X68582Y-41779D01*
X68721Y-41918D01*
X68902Y-41993D01*
X69098Y-41993D01*
X69279Y-41918D01*
X69418Y-41779D01*
X69493Y-41598D01*
X69493Y-42402D01*
X69418Y-42221D01*
X69279Y-42082D01*
X69098Y-42007D01*
X68902Y-42007D01*
X68721Y-42082D01*
X68582Y-42221D01*
X68507Y-42402D01*
X68507Y-42598D01*
X68582Y-42779D01*
X68721Y-42918D01*
X68902Y-42993D01*
X69098Y-42993D01*
X69279Y-42918D01*
X69418Y-42779D01*
X69493Y-42598D01*
X69493Y-43402D01*
X69418Y-43221D01*
X69279Y-43082D01*
X69098Y-43007D01*
X68902Y-43007D01*
X68721Y-43082D01*
X68582Y-43221D01*
X68507Y-43402D01*
X68507Y-43598D01*
X68582Y-43779D01*
X68721Y-43918D01*
X68902Y-43993D01*
X69098Y-43993D01*
X69279Y-43918D01*
X69418Y-43779D01*
X69493Y-43598D01*
X69493Y-45551D01*
X69411Y-45551D01*
X69246Y-45619D01*
X69120Y-45745D01*
X69051Y-45910D01*
X69051Y-46089D01*
X69119Y-46254D01*
X69245Y-46380D01*
X69410Y-46449D01*
X69589Y-46449D01*
X69754Y-46381D01*
X69880Y-46255D01*
X69949Y-46090D01*
X69949Y-46475D01*
X68949Y-46475D01*
X68949Y-46090D01*
X68949Y-45911D01*
X68881Y-45746D01*
X68755Y-45620D01*
X68590Y-45551D01*
X68493Y-45551D01*
X68493Y-43598D01*
X68493Y-43402D01*
X68493Y-42598D01*
X68493Y-42402D01*
X68493Y-41598D01*
X68493Y-41402D01*
X68493Y-40598D01*
X68493Y-40402D01*
X68493Y-39598D01*
X68493Y-39402D01*
X68493Y-36598D01*
X68493Y-36402D01*
X68493Y-35598D01*
X68493Y-35402D01*
X68493Y-34598D01*
X68493Y-34402D01*
X68493Y-33598D01*
X68493Y-33402D01*
X68493Y-32598D01*
X68493Y-32402D01*
X68418Y-32221D01*
X68279Y-32082D01*
X68098Y-32007D01*
X67902Y-32007D01*
X67721Y-32082D01*
X67582Y-32221D01*
X67507Y-32402D01*
X67507Y-32598D01*
X67582Y-32779D01*
X67721Y-32918D01*
X67902Y-32993D01*
X68098Y-32993D01*
X68279Y-32918D01*
X68418Y-32779D01*
X68493Y-32598D01*
X68493Y-33402D01*
X68418Y-33221D01*
X68279Y-33082D01*
X68098Y-33007D01*
X67902Y-33007D01*
X67721Y-33082D01*
X67582Y-33221D01*
X67507Y-33402D01*
X67507Y-33598D01*
X67582Y-33779D01*
X67721Y-33918D01*
X67902Y-33993D01*
X68098Y-33993D01*
X68279Y-33918D01*
X68418Y-33779D01*
X68493Y-33598D01*
X68493Y-34402D01*
X68418Y-34221D01*
X68279Y-34082D01*
X68098Y-34007D01*
X67902Y-34007D01*
X67721Y-34082D01*
X67582Y-34221D01*
X67507Y-34402D01*
X67507Y-34598D01*
X67582Y-34779D01*
X67721Y-34918D01*
X67902Y-34993D01*
X68098Y-34993D01*
X68279Y-34918D01*
X68418Y-34779D01*
X68493Y-34598D01*
X68493Y-35402D01*
X68418Y-35221D01*
X68279Y-35082D01*
X68098Y-35007D01*
X67902Y-35007D01*
X67721Y-35082D01*
X67582Y-35221D01*
X67507Y-35402D01*
X67507Y-35598D01*
X67582Y-35779D01*
X67721Y-35918D01*
X67902Y-35993D01*
X68098Y-35993D01*
X68279Y-35918D01*
X68418Y-35779D01*
X68493Y-35598D01*
X68493Y-36402D01*
X68418Y-36221D01*
X68279Y-36082D01*
X68098Y-36007D01*
X67902Y-36007D01*
X67721Y-36082D01*
X67582Y-36221D01*
X67507Y-36402D01*
X67507Y-36598D01*
X67582Y-36779D01*
X67721Y-36918D01*
X67902Y-36993D01*
X68098Y-36993D01*
X68279Y-36918D01*
X68418Y-36779D01*
X68493Y-36598D01*
X68493Y-39402D01*
X68418Y-39221D01*
X68279Y-39082D01*
X68098Y-39007D01*
X67902Y-39007D01*
X67721Y-39082D01*
X67582Y-39221D01*
X67507Y-39402D01*
X67507Y-39598D01*
X67582Y-39779D01*
X67721Y-39918D01*
X67902Y-39993D01*
X68098Y-39993D01*
X68279Y-39918D01*
X68418Y-39779D01*
X68493Y-39598D01*
X68493Y-40402D01*
X68418Y-40221D01*
X68279Y-40082D01*
X68098Y-40007D01*
X67902Y-40007D01*
X67721Y-40082D01*
X67582Y-40221D01*
X67507Y-40402D01*
X67507Y-40598D01*
X67582Y-40779D01*
X67721Y-40918D01*
X67902Y-40993D01*
X68098Y-40993D01*
X68279Y-40918D01*
X68418Y-40779D01*
X68493Y-40598D01*
X68493Y-41402D01*
X68418Y-41221D01*
X68279Y-41082D01*
X68098Y-41007D01*
X67902Y-41007D01*
X67721Y-41082D01*
X67582Y-41221D01*
X67507Y-41402D01*
X67507Y-41598D01*
X67582Y-41779D01*
X67721Y-41918D01*
X67902Y-41993D01*
X68098Y-41993D01*
X68279Y-41918D01*
X68418Y-41779D01*
X68493Y-41598D01*
X68493Y-42402D01*
X68418Y-42221D01*
X68279Y-42082D01*
X68098Y-42007D01*
X67902Y-42007D01*
X67721Y-42082D01*
X67582Y-42221D01*
X67507Y-42402D01*
X67507Y-42598D01*
X67582Y-42779D01*
X67721Y-42918D01*
X67902Y-42993D01*
X68098Y-42993D01*
X68279Y-42918D01*
X68418Y-42779D01*
X68493Y-42598D01*
X68493Y-43402D01*
X68418Y-43221D01*
X68279Y-43082D01*
X68098Y-43007D01*
X67902Y-43007D01*
X67721Y-43082D01*
X67582Y-43221D01*
X67507Y-43402D01*
X67507Y-43598D01*
X67582Y-43779D01*
X67721Y-43918D01*
X67902Y-43993D01*
X68098Y-43993D01*
X68279Y-43918D01*
X68418Y-43779D01*
X68493Y-43598D01*
X68493Y-45551D01*
X68411Y-45551D01*
X68246Y-45619D01*
X68120Y-45745D01*
X68051Y-45910D01*
X68051Y-46089D01*
X68119Y-46254D01*
X68245Y-46380D01*
X68410Y-46449D01*
X68589Y-46449D01*
X68754Y-46381D01*
X68880Y-46255D01*
X68949Y-46090D01*
X68949Y-46475D01*
X67949Y-46475D01*
X67949Y-46090D01*
X67949Y-45911D01*
X67881Y-45746D01*
X67755Y-45620D01*
X67590Y-45551D01*
X67493Y-45551D01*
X67493Y-43598D01*
X67493Y-43402D01*
X67493Y-42598D01*
X67493Y-42402D01*
X67493Y-41598D01*
X67493Y-41402D01*
X67493Y-40598D01*
X67493Y-40402D01*
X67493Y-39598D01*
X67493Y-39402D01*
X67493Y-36598D01*
X67493Y-36402D01*
X67493Y-35598D01*
X67493Y-35402D01*
X67493Y-34598D01*
X67493Y-34402D01*
X67493Y-33598D01*
X67493Y-33402D01*
X67493Y-32598D01*
X67493Y-32402D01*
X67418Y-32221D01*
X67279Y-32082D01*
X67098Y-32007D01*
X66902Y-32007D01*
X66721Y-32082D01*
X66582Y-32221D01*
X66507Y-32402D01*
X66507Y-32598D01*
X66582Y-32779D01*
X66721Y-32918D01*
X66902Y-32993D01*
X67098Y-32993D01*
X67279Y-32918D01*
X67418Y-32779D01*
X67493Y-32598D01*
X67493Y-33402D01*
X67418Y-33221D01*
X67279Y-33082D01*
X67098Y-33007D01*
X66902Y-33007D01*
X66721Y-33082D01*
X66582Y-33221D01*
X66507Y-33402D01*
X66507Y-33598D01*
X66582Y-33779D01*
X66721Y-33918D01*
X66902Y-33993D01*
X67098Y-33993D01*
X67279Y-33918D01*
X67418Y-33779D01*
X67493Y-33598D01*
X67493Y-34402D01*
X67418Y-34221D01*
X67279Y-34082D01*
X67098Y-34007D01*
X66902Y-34007D01*
X66721Y-34082D01*
X66582Y-34221D01*
X66507Y-34402D01*
X66507Y-34598D01*
X66582Y-34779D01*
X66721Y-34918D01*
X66902Y-34993D01*
X67098Y-34993D01*
X67279Y-34918D01*
X67418Y-34779D01*
X67493Y-34598D01*
X67493Y-35402D01*
X67418Y-35221D01*
X67279Y-35082D01*
X67098Y-35007D01*
X66902Y-35007D01*
X66721Y-35082D01*
X66582Y-35221D01*
X66507Y-35402D01*
X66507Y-35598D01*
X66582Y-35779D01*
X66721Y-35918D01*
X66902Y-35993D01*
X67098Y-35993D01*
X67279Y-35918D01*
X67418Y-35779D01*
X67493Y-35598D01*
X67493Y-36402D01*
X67418Y-36221D01*
X67279Y-36082D01*
X67098Y-36007D01*
X66902Y-36007D01*
X66721Y-36082D01*
X66582Y-36221D01*
X66507Y-36402D01*
X66507Y-36598D01*
X66582Y-36779D01*
X66721Y-36918D01*
X66902Y-36993D01*
X67098Y-36993D01*
X67279Y-36918D01*
X67418Y-36779D01*
X67493Y-36598D01*
X67493Y-39402D01*
X67418Y-39221D01*
X67279Y-39082D01*
X67098Y-39007D01*
X66902Y-39007D01*
X66721Y-39082D01*
X66582Y-39221D01*
X66507Y-39402D01*
X66507Y-39598D01*
X66582Y-39779D01*
X66721Y-39918D01*
X66902Y-39993D01*
X67098Y-39993D01*
X67279Y-39918D01*
X67418Y-39779D01*
X67493Y-39598D01*
X67493Y-40402D01*
X67418Y-40221D01*
X67279Y-40082D01*
X67098Y-40007D01*
X66902Y-40007D01*
X66721Y-40082D01*
X66582Y-40221D01*
X66507Y-40402D01*
X66507Y-40598D01*
X66582Y-40779D01*
X66721Y-40918D01*
X66902Y-40993D01*
X67098Y-40993D01*
X67279Y-40918D01*
X67418Y-40779D01*
X67493Y-40598D01*
X67493Y-41402D01*
X67418Y-41221D01*
X67279Y-41082D01*
X67098Y-41007D01*
X66902Y-41007D01*
X66721Y-41082D01*
X66582Y-41221D01*
X66507Y-41402D01*
X66507Y-41598D01*
X66582Y-41779D01*
X66721Y-41918D01*
X66902Y-41993D01*
X67098Y-41993D01*
X67279Y-41918D01*
X67418Y-41779D01*
X67493Y-41598D01*
X67493Y-42402D01*
X67418Y-42221D01*
X67279Y-42082D01*
X67098Y-42007D01*
X66902Y-42007D01*
X66721Y-42082D01*
X66582Y-42221D01*
X66507Y-42402D01*
X66507Y-42598D01*
X66582Y-42779D01*
X66721Y-42918D01*
X66902Y-42993D01*
X67098Y-42993D01*
X67279Y-42918D01*
X67418Y-42779D01*
X67493Y-42598D01*
X67493Y-43402D01*
X67418Y-43221D01*
X67279Y-43082D01*
X67098Y-43007D01*
X66902Y-43007D01*
X66721Y-43082D01*
X66582Y-43221D01*
X66507Y-43402D01*
X66507Y-43598D01*
X66582Y-43779D01*
X66721Y-43918D01*
X66902Y-43993D01*
X67098Y-43993D01*
X67279Y-43918D01*
X67418Y-43779D01*
X67493Y-43598D01*
X67493Y-45551D01*
X67411Y-45551D01*
X67246Y-45619D01*
X67120Y-45745D01*
X67051Y-45910D01*
X67051Y-46089D01*
X67119Y-46254D01*
X67245Y-46380D01*
X67410Y-46449D01*
X67589Y-46449D01*
X67754Y-46381D01*
X67880Y-46255D01*
X67949Y-46090D01*
X67949Y-46475D01*
X66949Y-46475D01*
X66949Y-46090D01*
X66949Y-45911D01*
X66881Y-45746D01*
X66755Y-45620D01*
X66590Y-45551D01*
X66493Y-45551D01*
X66493Y-43598D01*
X66493Y-43402D01*
X66493Y-42598D01*
X66493Y-42402D01*
X66493Y-41598D01*
X66493Y-41402D01*
X66493Y-40598D01*
X66493Y-40402D01*
X66493Y-39598D01*
X66493Y-39402D01*
X66493Y-36598D01*
X66493Y-36402D01*
X66493Y-35598D01*
X66493Y-35402D01*
X66493Y-34598D01*
X66493Y-34402D01*
X66493Y-33598D01*
X66493Y-33402D01*
X66493Y-32598D01*
X66493Y-32402D01*
X66418Y-32221D01*
X66279Y-32082D01*
X66098Y-32007D01*
X65902Y-32007D01*
X65721Y-32082D01*
X65582Y-32221D01*
X65507Y-32402D01*
X65507Y-32598D01*
X65582Y-32779D01*
X65721Y-32918D01*
X65902Y-32993D01*
X66098Y-32993D01*
X66279Y-32918D01*
X66418Y-32779D01*
X66493Y-32598D01*
X66493Y-33402D01*
X66418Y-33221D01*
X66279Y-33082D01*
X66098Y-33007D01*
X65902Y-33007D01*
X65721Y-33082D01*
X65582Y-33221D01*
X65507Y-33402D01*
X65507Y-33598D01*
X65582Y-33779D01*
X65721Y-33918D01*
X65902Y-33993D01*
X66098Y-33993D01*
X66279Y-33918D01*
X66418Y-33779D01*
X66493Y-33598D01*
X66493Y-34402D01*
X66418Y-34221D01*
X66279Y-34082D01*
X66098Y-34007D01*
X65902Y-34007D01*
X65721Y-34082D01*
X65582Y-34221D01*
X65507Y-34402D01*
X65507Y-34598D01*
X65582Y-34779D01*
X65721Y-34918D01*
X65902Y-34993D01*
X66098Y-34993D01*
X66279Y-34918D01*
X66418Y-34779D01*
X66493Y-34598D01*
X66493Y-35402D01*
X66418Y-35221D01*
X66279Y-35082D01*
X66098Y-35007D01*
X65902Y-35007D01*
X65721Y-35082D01*
X65582Y-35221D01*
X65507Y-35402D01*
X65507Y-35598D01*
X65582Y-35779D01*
X65721Y-35918D01*
X65902Y-35993D01*
X66098Y-35993D01*
X66279Y-35918D01*
X66418Y-35779D01*
X66493Y-35598D01*
X66493Y-36402D01*
X66418Y-36221D01*
X66279Y-36082D01*
X66098Y-36007D01*
X65902Y-36007D01*
X65721Y-36082D01*
X65582Y-36221D01*
X65507Y-36402D01*
X65507Y-36598D01*
X65582Y-36779D01*
X65721Y-36918D01*
X65902Y-36993D01*
X66098Y-36993D01*
X66279Y-36918D01*
X66418Y-36779D01*
X66493Y-36598D01*
X66493Y-39402D01*
X66418Y-39221D01*
X66279Y-39082D01*
X66098Y-39007D01*
X65902Y-39007D01*
X65721Y-39082D01*
X65582Y-39221D01*
X65507Y-39402D01*
X65507Y-39598D01*
X65582Y-39779D01*
X65721Y-39918D01*
X65902Y-39993D01*
X66098Y-39993D01*
X66279Y-39918D01*
X66418Y-39779D01*
X66493Y-39598D01*
X66493Y-40402D01*
X66418Y-40221D01*
X66279Y-40082D01*
X66098Y-40007D01*
X65902Y-40007D01*
X65721Y-40082D01*
X65582Y-40221D01*
X65507Y-40402D01*
X65507Y-40598D01*
X65582Y-40779D01*
X65721Y-40918D01*
X65902Y-40993D01*
X66098Y-40993D01*
X66279Y-40918D01*
X66418Y-40779D01*
X66493Y-40598D01*
X66493Y-41402D01*
X66418Y-41221D01*
X66279Y-41082D01*
X66098Y-41007D01*
X65902Y-41007D01*
X65721Y-41082D01*
X65582Y-41221D01*
X65507Y-41402D01*
X65507Y-41598D01*
X65582Y-41779D01*
X65721Y-41918D01*
X65902Y-41993D01*
X66098Y-41993D01*
X66279Y-41918D01*
X66418Y-41779D01*
X66493Y-41598D01*
X66493Y-42402D01*
X66418Y-42221D01*
X66279Y-42082D01*
X66098Y-42007D01*
X65902Y-42007D01*
X65721Y-42082D01*
X65582Y-42221D01*
X65507Y-42402D01*
X65507Y-42598D01*
X65582Y-42779D01*
X65721Y-42918D01*
X65902Y-42993D01*
X66098Y-42993D01*
X66279Y-42918D01*
X66418Y-42779D01*
X66493Y-42598D01*
X66493Y-43402D01*
X66418Y-43221D01*
X66279Y-43082D01*
X66098Y-43007D01*
X65902Y-43007D01*
X65721Y-43082D01*
X65582Y-43221D01*
X65507Y-43402D01*
X65507Y-43598D01*
X65582Y-43779D01*
X65721Y-43918D01*
X65902Y-43993D01*
X66098Y-43993D01*
X66279Y-43918D01*
X66418Y-43779D01*
X66493Y-43598D01*
X66493Y-45551D01*
X66411Y-45551D01*
X66246Y-45619D01*
X66120Y-45745D01*
X66051Y-45910D01*
X66051Y-46089D01*
X66119Y-46254D01*
X66245Y-46380D01*
X66410Y-46449D01*
X66589Y-46449D01*
X66754Y-46381D01*
X66880Y-46255D01*
X66949Y-46090D01*
X66949Y-46475D01*
X65949Y-46475D01*
X65949Y-46090D01*
X65949Y-45911D01*
X65881Y-45746D01*
X65755Y-45620D01*
X65590Y-45551D01*
X65493Y-45551D01*
X65493Y-43598D01*
X65493Y-43402D01*
X65493Y-42598D01*
X65493Y-42402D01*
X65493Y-41598D01*
X65493Y-41402D01*
X65493Y-40598D01*
X65493Y-40402D01*
X65493Y-39598D01*
X65493Y-39402D01*
X65493Y-36598D01*
X65493Y-36402D01*
X65493Y-35598D01*
X65493Y-35402D01*
X65493Y-34598D01*
X65493Y-34402D01*
X65493Y-33598D01*
X65493Y-33402D01*
X65493Y-32598D01*
X65493Y-32402D01*
X65418Y-32221D01*
X65279Y-32082D01*
X65098Y-32007D01*
X64902Y-32007D01*
X64721Y-32082D01*
X64582Y-32221D01*
X64507Y-32402D01*
X64507Y-32598D01*
X64582Y-32779D01*
X64721Y-32918D01*
X64902Y-32993D01*
X65098Y-32993D01*
X65279Y-32918D01*
X65418Y-32779D01*
X65493Y-32598D01*
X65493Y-33402D01*
X65418Y-33221D01*
X65279Y-33082D01*
X65098Y-33007D01*
X64902Y-33007D01*
X64721Y-33082D01*
X64582Y-33221D01*
X64507Y-33402D01*
X64507Y-33598D01*
X64582Y-33779D01*
X64721Y-33918D01*
X64902Y-33993D01*
X65098Y-33993D01*
X65279Y-33918D01*
X65418Y-33779D01*
X65493Y-33598D01*
X65493Y-34402D01*
X65418Y-34221D01*
X65279Y-34082D01*
X65098Y-34007D01*
X64902Y-34007D01*
X64721Y-34082D01*
X64582Y-34221D01*
X64507Y-34402D01*
X64507Y-34598D01*
X64582Y-34779D01*
X64721Y-34918D01*
X64902Y-34993D01*
X65098Y-34993D01*
X65279Y-34918D01*
X65418Y-34779D01*
X65493Y-34598D01*
X65493Y-35402D01*
X65418Y-35221D01*
X65279Y-35082D01*
X65098Y-35007D01*
X64902Y-35007D01*
X64721Y-35082D01*
X64582Y-35221D01*
X64507Y-35402D01*
X64507Y-35598D01*
X64582Y-35779D01*
X64721Y-35918D01*
X64902Y-35993D01*
X65098Y-35993D01*
X65279Y-35918D01*
X65418Y-35779D01*
X65493Y-35598D01*
X65493Y-36402D01*
X65418Y-36221D01*
X65279Y-36082D01*
X65098Y-36007D01*
X64902Y-36007D01*
X64721Y-36082D01*
X64582Y-36221D01*
X64507Y-36402D01*
X64507Y-36598D01*
X64582Y-36779D01*
X64721Y-36918D01*
X64902Y-36993D01*
X65098Y-36993D01*
X65279Y-36918D01*
X65418Y-36779D01*
X65493Y-36598D01*
X65493Y-39402D01*
X65418Y-39221D01*
X65279Y-39082D01*
X65098Y-39007D01*
X64902Y-39007D01*
X64721Y-39082D01*
X64582Y-39221D01*
X64507Y-39402D01*
X64507Y-39598D01*
X64582Y-39779D01*
X64721Y-39918D01*
X64902Y-39993D01*
X65098Y-39993D01*
X65279Y-39918D01*
X65418Y-39779D01*
X65493Y-39598D01*
X65493Y-40402D01*
X65418Y-40221D01*
X65279Y-40082D01*
X65098Y-40007D01*
X64902Y-40007D01*
X64721Y-40082D01*
X64582Y-40221D01*
X64507Y-40402D01*
X64507Y-40598D01*
X64582Y-40779D01*
X64721Y-40918D01*
X64902Y-40993D01*
X65098Y-40993D01*
X65279Y-40918D01*
X65418Y-40779D01*
X65493Y-40598D01*
X65493Y-41402D01*
X65418Y-41221D01*
X65279Y-41082D01*
X65098Y-41007D01*
X64902Y-41007D01*
X64721Y-41082D01*
X64582Y-41221D01*
X64507Y-41402D01*
X64507Y-41598D01*
X64582Y-41779D01*
X64721Y-41918D01*
X64902Y-41993D01*
X65098Y-41993D01*
X65279Y-41918D01*
X65418Y-41779D01*
X65493Y-41598D01*
X65493Y-42402D01*
X65418Y-42221D01*
X65279Y-42082D01*
X65098Y-42007D01*
X64902Y-42007D01*
X64721Y-42082D01*
X64582Y-42221D01*
X64507Y-42402D01*
X64507Y-42598D01*
X64582Y-42779D01*
X64721Y-42918D01*
X64902Y-42993D01*
X65098Y-42993D01*
X65279Y-42918D01*
X65418Y-42779D01*
X65493Y-42598D01*
X65493Y-43402D01*
X65418Y-43221D01*
X65279Y-43082D01*
X65098Y-43007D01*
X64902Y-43007D01*
X64721Y-43082D01*
X64582Y-43221D01*
X64507Y-43402D01*
X64507Y-43598D01*
X64582Y-43779D01*
X64721Y-43918D01*
X64902Y-43993D01*
X65098Y-43993D01*
X65279Y-43918D01*
X65418Y-43779D01*
X65493Y-43598D01*
X65493Y-45551D01*
X65411Y-45551D01*
X65246Y-45619D01*
X65120Y-45745D01*
X65051Y-45910D01*
X65051Y-46089D01*
X65119Y-46254D01*
X65245Y-46380D01*
X65410Y-46449D01*
X65589Y-46449D01*
X65754Y-46381D01*
X65880Y-46255D01*
X65949Y-46090D01*
X65949Y-46475D01*
X64493Y-46475D01*
X64493Y-43598D01*
X64493Y-43402D01*
X64493Y-42598D01*
X64493Y-42402D01*
X64493Y-41598D01*
X64493Y-41402D01*
X64493Y-40598D01*
X64493Y-40402D01*
X64493Y-39598D01*
X64493Y-39402D01*
X64493Y-36598D01*
X64493Y-36402D01*
X64493Y-35598D01*
X64493Y-35402D01*
X64493Y-34598D01*
X64493Y-34402D01*
X64493Y-33598D01*
X64493Y-33402D01*
X64493Y-32598D01*
X64493Y-32402D01*
X64418Y-32221D01*
X64279Y-32082D01*
X64098Y-32007D01*
X63902Y-32007D01*
X63721Y-32082D01*
X63582Y-32221D01*
X63507Y-32402D01*
X63507Y-32598D01*
X63582Y-32779D01*
X63721Y-32918D01*
X63902Y-32993D01*
X64098Y-32993D01*
X64279Y-32918D01*
X64418Y-32779D01*
X64493Y-32598D01*
X64493Y-33402D01*
X64418Y-33221D01*
X64279Y-33082D01*
X64098Y-33007D01*
X63902Y-33007D01*
X63721Y-33082D01*
X63582Y-33221D01*
X63507Y-33402D01*
X63507Y-33598D01*
X63582Y-33779D01*
X63721Y-33918D01*
X63902Y-33993D01*
X64098Y-33993D01*
X64279Y-33918D01*
X64418Y-33779D01*
X64493Y-33598D01*
X64493Y-34402D01*
X64418Y-34221D01*
X64279Y-34082D01*
X64098Y-34007D01*
X63902Y-34007D01*
X63721Y-34082D01*
X63582Y-34221D01*
X63507Y-34402D01*
X63507Y-34598D01*
X63582Y-34779D01*
X63721Y-34918D01*
X63902Y-34993D01*
X64098Y-34993D01*
X64279Y-34918D01*
X64418Y-34779D01*
X64493Y-34598D01*
X64493Y-35402D01*
X64418Y-35221D01*
X64279Y-35082D01*
X64098Y-35007D01*
X63902Y-35007D01*
X63721Y-35082D01*
X63582Y-35221D01*
X63507Y-35402D01*
X63507Y-35598D01*
X63582Y-35779D01*
X63721Y-35918D01*
X63902Y-35993D01*
X64098Y-35993D01*
X64279Y-35918D01*
X64418Y-35779D01*
X64493Y-35598D01*
X64493Y-36402D01*
X64418Y-36221D01*
X64279Y-36082D01*
X64098Y-36007D01*
X63902Y-36007D01*
X63721Y-36082D01*
X63582Y-36221D01*
X63507Y-36402D01*
X63507Y-36598D01*
X63582Y-36779D01*
X63721Y-36918D01*
X63902Y-36993D01*
X64098Y-36993D01*
X64279Y-36918D01*
X64418Y-36779D01*
X64493Y-36598D01*
X64493Y-39402D01*
X64418Y-39221D01*
X64279Y-39082D01*
X64098Y-39007D01*
X63902Y-39007D01*
X63721Y-39082D01*
X63582Y-39221D01*
X63507Y-39402D01*
X63507Y-39598D01*
X63582Y-39779D01*
X63721Y-39918D01*
X63902Y-39993D01*
X64098Y-39993D01*
X64279Y-39918D01*
X64418Y-39779D01*
X64493Y-39598D01*
X64493Y-40402D01*
X64418Y-40221D01*
X64279Y-40082D01*
X64098Y-40007D01*
X63902Y-40007D01*
X63721Y-40082D01*
X63582Y-40221D01*
X63507Y-40402D01*
X63507Y-40598D01*
X63582Y-40779D01*
X63721Y-40918D01*
X63902Y-40993D01*
X64098Y-40993D01*
X64279Y-40918D01*
X64418Y-40779D01*
X64493Y-40598D01*
X64493Y-41402D01*
X64418Y-41221D01*
X64279Y-41082D01*
X64098Y-41007D01*
X63902Y-41007D01*
X63721Y-41082D01*
X63582Y-41221D01*
X63507Y-41402D01*
X63507Y-41598D01*
X63582Y-41779D01*
X63721Y-41918D01*
X63902Y-41993D01*
X64098Y-41993D01*
X64279Y-41918D01*
X64418Y-41779D01*
X64493Y-41598D01*
X64493Y-42402D01*
X64418Y-42221D01*
X64279Y-42082D01*
X64098Y-42007D01*
X63902Y-42007D01*
X63721Y-42082D01*
X63582Y-42221D01*
X63507Y-42402D01*
X63507Y-42598D01*
X63582Y-42779D01*
X63721Y-42918D01*
X63902Y-42993D01*
X64098Y-42993D01*
X64279Y-42918D01*
X64418Y-42779D01*
X64493Y-42598D01*
X64493Y-43402D01*
X64418Y-43221D01*
X64279Y-43082D01*
X64098Y-43007D01*
X63902Y-43007D01*
X63721Y-43082D01*
X63582Y-43221D01*
X63507Y-43402D01*
X63507Y-43598D01*
X63582Y-43779D01*
X63721Y-43918D01*
X63902Y-43993D01*
X64098Y-43993D01*
X64279Y-43918D01*
X64418Y-43779D01*
X64493Y-43598D01*
X64493Y-46475D01*
X63949Y-46475D01*
X63949Y-46090D01*
X63949Y-45911D01*
X63881Y-45746D01*
X63755Y-45620D01*
X63590Y-45551D01*
X63493Y-45551D01*
X63493Y-43598D01*
X63493Y-43402D01*
X63493Y-42598D01*
X63493Y-42402D01*
X63493Y-41598D01*
X63493Y-41402D01*
X63493Y-40598D01*
X63493Y-40402D01*
X63493Y-39598D01*
X63493Y-39402D01*
X63493Y-36598D01*
X63493Y-36402D01*
X63493Y-35598D01*
X63493Y-35402D01*
X63493Y-34598D01*
X63493Y-34402D01*
X63493Y-33598D01*
X63493Y-33402D01*
X63493Y-32598D01*
X63493Y-32402D01*
X63418Y-32221D01*
X63279Y-32082D01*
X63098Y-32007D01*
X62902Y-32007D01*
X62721Y-32082D01*
X62582Y-32221D01*
X62507Y-32402D01*
X62507Y-32598D01*
X62582Y-32779D01*
X62721Y-32918D01*
X62902Y-32993D01*
X63098Y-32993D01*
X63279Y-32918D01*
X63418Y-32779D01*
X63493Y-32598D01*
X63493Y-33402D01*
X63418Y-33221D01*
X63279Y-33082D01*
X63098Y-33007D01*
X62902Y-33007D01*
X62721Y-33082D01*
X62582Y-33221D01*
X62507Y-33402D01*
X62507Y-33598D01*
X62582Y-33779D01*
X62721Y-33918D01*
X62902Y-33993D01*
X63098Y-33993D01*
X63279Y-33918D01*
X63418Y-33779D01*
X63493Y-33598D01*
X63493Y-34402D01*
X63418Y-34221D01*
X63279Y-34082D01*
X63098Y-34007D01*
X62902Y-34007D01*
X62721Y-34082D01*
X62582Y-34221D01*
X62507Y-34402D01*
X62507Y-34598D01*
X62582Y-34779D01*
X62721Y-34918D01*
X62902Y-34993D01*
X63098Y-34993D01*
X63279Y-34918D01*
X63418Y-34779D01*
X63493Y-34598D01*
X63493Y-35402D01*
X63418Y-35221D01*
X63279Y-35082D01*
X63098Y-35007D01*
X62902Y-35007D01*
X62721Y-35082D01*
X62582Y-35221D01*
X62507Y-35402D01*
X62507Y-35598D01*
X62582Y-35779D01*
X62721Y-35918D01*
X62902Y-35993D01*
X63098Y-35993D01*
X63279Y-35918D01*
X63418Y-35779D01*
X63493Y-35598D01*
X63493Y-36402D01*
X63418Y-36221D01*
X63279Y-36082D01*
X63098Y-36007D01*
X62902Y-36007D01*
X62721Y-36082D01*
X62582Y-36221D01*
X62507Y-36402D01*
X62507Y-36598D01*
X62582Y-36779D01*
X62721Y-36918D01*
X62902Y-36993D01*
X63098Y-36993D01*
X63279Y-36918D01*
X63418Y-36779D01*
X63493Y-36598D01*
X63493Y-39402D01*
X63418Y-39221D01*
X63279Y-39082D01*
X63098Y-39007D01*
X62902Y-39007D01*
X62721Y-39082D01*
X62582Y-39221D01*
X62507Y-39402D01*
X62507Y-39598D01*
X62582Y-39779D01*
X62721Y-39918D01*
X62902Y-39993D01*
X63098Y-39993D01*
X63279Y-39918D01*
X63418Y-39779D01*
X63493Y-39598D01*
X63493Y-40402D01*
X63418Y-40221D01*
X63279Y-40082D01*
X63098Y-40007D01*
X62902Y-40007D01*
X62721Y-40082D01*
X62582Y-40221D01*
X62507Y-40402D01*
X62507Y-40598D01*
X62582Y-40779D01*
X62721Y-40918D01*
X62902Y-40993D01*
X63098Y-40993D01*
X63279Y-40918D01*
X63418Y-40779D01*
X63493Y-40598D01*
X63493Y-41402D01*
X63418Y-41221D01*
X63279Y-41082D01*
X63098Y-41007D01*
X62902Y-41007D01*
X62721Y-41082D01*
X62582Y-41221D01*
X62507Y-41402D01*
X62507Y-41598D01*
X62582Y-41779D01*
X62721Y-41918D01*
X62902Y-41993D01*
X63098Y-41993D01*
X63279Y-41918D01*
X63418Y-41779D01*
X63493Y-41598D01*
X63493Y-42402D01*
X63418Y-42221D01*
X63279Y-42082D01*
X63098Y-42007D01*
X62902Y-42007D01*
X62721Y-42082D01*
X62582Y-42221D01*
X62507Y-42402D01*
X62507Y-42598D01*
X62582Y-42779D01*
X62721Y-42918D01*
X62902Y-42993D01*
X63098Y-42993D01*
X63279Y-42918D01*
X63418Y-42779D01*
X63493Y-42598D01*
X63493Y-43402D01*
X63418Y-43221D01*
X63279Y-43082D01*
X63098Y-43007D01*
X62902Y-43007D01*
X62721Y-43082D01*
X62582Y-43221D01*
X62507Y-43402D01*
X62507Y-43598D01*
X62582Y-43779D01*
X62721Y-43918D01*
X62902Y-43993D01*
X63098Y-43993D01*
X63279Y-43918D01*
X63418Y-43779D01*
X63493Y-43598D01*
X63493Y-45551D01*
X63411Y-45551D01*
X63246Y-45619D01*
X63120Y-45745D01*
X63051Y-45910D01*
X63051Y-46089D01*
X63119Y-46254D01*
X63245Y-46380D01*
X63410Y-46449D01*
X63589Y-46449D01*
X63754Y-46381D01*
X63880Y-46255D01*
X63949Y-46090D01*
X63949Y-46475D01*
X62949Y-46475D01*
X62949Y-46090D01*
X62949Y-45911D01*
X62881Y-45746D01*
X62755Y-45620D01*
X62590Y-45551D01*
X62493Y-45551D01*
X62493Y-43598D01*
X62493Y-43402D01*
X62493Y-42598D01*
X62493Y-42402D01*
X62493Y-41598D01*
X62493Y-41402D01*
X62493Y-40598D01*
X62493Y-40402D01*
X62493Y-39598D01*
X62493Y-39402D01*
X62493Y-36598D01*
X62493Y-36402D01*
X62493Y-35598D01*
X62493Y-35402D01*
X62493Y-34598D01*
X62493Y-34402D01*
X62493Y-33598D01*
X62493Y-33402D01*
X62493Y-32598D01*
X62493Y-32402D01*
X62418Y-32221D01*
X62279Y-32082D01*
X62098Y-32007D01*
X61902Y-32007D01*
X61721Y-32082D01*
X61582Y-32221D01*
X61507Y-32402D01*
X61507Y-32598D01*
X61582Y-32779D01*
X61721Y-32918D01*
X61902Y-32993D01*
X62098Y-32993D01*
X62279Y-32918D01*
X62418Y-32779D01*
X62493Y-32598D01*
X62493Y-33402D01*
X62418Y-33221D01*
X62279Y-33082D01*
X62098Y-33007D01*
X61902Y-33007D01*
X61721Y-33082D01*
X61582Y-33221D01*
X61507Y-33402D01*
X61507Y-33598D01*
X61582Y-33779D01*
X61721Y-33918D01*
X61902Y-33993D01*
X62098Y-33993D01*
X62279Y-33918D01*
X62418Y-33779D01*
X62493Y-33598D01*
X62493Y-34402D01*
X62418Y-34221D01*
X62279Y-34082D01*
X62098Y-34007D01*
X61902Y-34007D01*
X61721Y-34082D01*
X61582Y-34221D01*
X61507Y-34402D01*
X61507Y-34598D01*
X61582Y-34779D01*
X61721Y-34918D01*
X61902Y-34993D01*
X62098Y-34993D01*
X62279Y-34918D01*
X62418Y-34779D01*
X62493Y-34598D01*
X62493Y-35402D01*
X62418Y-35221D01*
X62279Y-35082D01*
X62098Y-35007D01*
X61902Y-35007D01*
X61721Y-35082D01*
X61582Y-35221D01*
X61507Y-35402D01*
X61507Y-35598D01*
X61582Y-35779D01*
X61721Y-35918D01*
X61902Y-35993D01*
X62098Y-35993D01*
X62279Y-35918D01*
X62418Y-35779D01*
X62493Y-35598D01*
X62493Y-36402D01*
X62418Y-36221D01*
X62279Y-36082D01*
X62098Y-36007D01*
X61902Y-36007D01*
X61721Y-36082D01*
X61582Y-36221D01*
X61507Y-36402D01*
X61507Y-36598D01*
X61582Y-36779D01*
X61721Y-36918D01*
X61902Y-36993D01*
X62098Y-36993D01*
X62279Y-36918D01*
X62418Y-36779D01*
X62493Y-36598D01*
X62493Y-39402D01*
X62418Y-39221D01*
X62279Y-39082D01*
X62098Y-39007D01*
X61902Y-39007D01*
X61721Y-39082D01*
X61582Y-39221D01*
X61507Y-39402D01*
X61507Y-39598D01*
X61582Y-39779D01*
X61721Y-39918D01*
X61902Y-39993D01*
X62098Y-39993D01*
X62279Y-39918D01*
X62418Y-39779D01*
X62493Y-39598D01*
X62493Y-40402D01*
X62418Y-40221D01*
X62279Y-40082D01*
X62098Y-40007D01*
X61902Y-40007D01*
X61721Y-40082D01*
X61582Y-40221D01*
X61507Y-40402D01*
X61507Y-40598D01*
X61582Y-40779D01*
X61721Y-40918D01*
X61902Y-40993D01*
X62098Y-40993D01*
X62279Y-40918D01*
X62418Y-40779D01*
X62493Y-40598D01*
X62493Y-41402D01*
X62418Y-41221D01*
X62279Y-41082D01*
X62098Y-41007D01*
X61902Y-41007D01*
X61721Y-41082D01*
X61582Y-41221D01*
X61507Y-41402D01*
X61507Y-41598D01*
X61582Y-41779D01*
X61721Y-41918D01*
X61902Y-41993D01*
X62098Y-41993D01*
X62279Y-41918D01*
X62418Y-41779D01*
X62493Y-41598D01*
X62493Y-42402D01*
X62418Y-42221D01*
X62279Y-42082D01*
X62098Y-42007D01*
X61902Y-42007D01*
X61721Y-42082D01*
X61582Y-42221D01*
X61507Y-42402D01*
X61507Y-42598D01*
X61582Y-42779D01*
X61721Y-42918D01*
X61902Y-42993D01*
X62098Y-42993D01*
X62279Y-42918D01*
X62418Y-42779D01*
X62493Y-42598D01*
X62493Y-43402D01*
X62418Y-43221D01*
X62279Y-43082D01*
X62098Y-43007D01*
X61902Y-43007D01*
X61721Y-43082D01*
X61582Y-43221D01*
X61507Y-43402D01*
X61507Y-43598D01*
X61582Y-43779D01*
X61721Y-43918D01*
X61902Y-43993D01*
X62098Y-43993D01*
X62279Y-43918D01*
X62418Y-43779D01*
X62493Y-43598D01*
X62493Y-45551D01*
X62411Y-45551D01*
X62246Y-45619D01*
X62120Y-45745D01*
X62051Y-45910D01*
X62051Y-46089D01*
X62119Y-46254D01*
X62245Y-46380D01*
X62410Y-46449D01*
X62589Y-46449D01*
X62754Y-46381D01*
X62880Y-46255D01*
X62949Y-46090D01*
X62949Y-46475D01*
X61949Y-46475D01*
X61949Y-46090D01*
X61949Y-45911D01*
X61881Y-45746D01*
X61755Y-45620D01*
X61590Y-45551D01*
X61493Y-45551D01*
X61493Y-43598D01*
X61493Y-43402D01*
X61493Y-42598D01*
X61493Y-42402D01*
X61493Y-41598D01*
X61493Y-41402D01*
X61493Y-40598D01*
X61493Y-40402D01*
X61493Y-39598D01*
X61493Y-39402D01*
X61493Y-36598D01*
X61493Y-36402D01*
X61493Y-35598D01*
X61493Y-35402D01*
X61493Y-34598D01*
X61493Y-34402D01*
X61493Y-33598D01*
X61493Y-33402D01*
X61493Y-32598D01*
X61493Y-32402D01*
X61418Y-32221D01*
X61279Y-32082D01*
X61098Y-32007D01*
X60902Y-32007D01*
X60721Y-32082D01*
X60582Y-32221D01*
X60507Y-32402D01*
X60507Y-32598D01*
X60582Y-32779D01*
X60721Y-32918D01*
X60902Y-32993D01*
X61098Y-32993D01*
X61279Y-32918D01*
X61418Y-32779D01*
X61493Y-32598D01*
X61493Y-33402D01*
X61418Y-33221D01*
X61279Y-33082D01*
X61098Y-33007D01*
X60902Y-33007D01*
X60721Y-33082D01*
X60582Y-33221D01*
X60507Y-33402D01*
X60507Y-33598D01*
X60582Y-33779D01*
X60721Y-33918D01*
X60902Y-33993D01*
X61098Y-33993D01*
X61279Y-33918D01*
X61418Y-33779D01*
X61493Y-33598D01*
X61493Y-34402D01*
X61418Y-34221D01*
X61279Y-34082D01*
X61098Y-34007D01*
X60902Y-34007D01*
X60721Y-34082D01*
X60582Y-34221D01*
X60507Y-34402D01*
X60507Y-34598D01*
X60582Y-34779D01*
X60721Y-34918D01*
X60902Y-34993D01*
X61098Y-34993D01*
X61279Y-34918D01*
X61418Y-34779D01*
X61493Y-34598D01*
X61493Y-35402D01*
X61418Y-35221D01*
X61279Y-35082D01*
X61098Y-35007D01*
X60902Y-35007D01*
X60721Y-35082D01*
X60582Y-35221D01*
X60507Y-35402D01*
X60507Y-35598D01*
X60582Y-35779D01*
X60721Y-35918D01*
X60902Y-35993D01*
X61098Y-35993D01*
X61279Y-35918D01*
X61418Y-35779D01*
X61493Y-35598D01*
X61493Y-36402D01*
X61418Y-36221D01*
X61279Y-36082D01*
X61098Y-36007D01*
X60902Y-36007D01*
X60721Y-36082D01*
X60582Y-36221D01*
X60507Y-36402D01*
X60507Y-36598D01*
X60582Y-36779D01*
X60721Y-36918D01*
X60902Y-36993D01*
X61098Y-36993D01*
X61279Y-36918D01*
X61418Y-36779D01*
X61493Y-36598D01*
X61493Y-39402D01*
X61418Y-39221D01*
X61279Y-39082D01*
X61098Y-39007D01*
X60902Y-39007D01*
X60721Y-39082D01*
X60582Y-39221D01*
X60507Y-39402D01*
X60507Y-39598D01*
X60582Y-39779D01*
X60721Y-39918D01*
X60902Y-39993D01*
X61098Y-39993D01*
X61279Y-39918D01*
X61418Y-39779D01*
X61493Y-39598D01*
X61493Y-40402D01*
X61418Y-40221D01*
X61279Y-40082D01*
X61098Y-40007D01*
X60902Y-40007D01*
X60721Y-40082D01*
X60582Y-40221D01*
X60507Y-40402D01*
X60507Y-40598D01*
X60582Y-40779D01*
X60721Y-40918D01*
X60902Y-40993D01*
X61098Y-40993D01*
X61279Y-40918D01*
X61418Y-40779D01*
X61493Y-40598D01*
X61493Y-41402D01*
X61418Y-41221D01*
X61279Y-41082D01*
X61098Y-41007D01*
X60902Y-41007D01*
X60721Y-41082D01*
X60582Y-41221D01*
X60507Y-41402D01*
X60507Y-41598D01*
X60582Y-41779D01*
X60721Y-41918D01*
X60902Y-41993D01*
X61098Y-41993D01*
X61279Y-41918D01*
X61418Y-41779D01*
X61493Y-41598D01*
X61493Y-42402D01*
X61418Y-42221D01*
X61279Y-42082D01*
X61098Y-42007D01*
X60902Y-42007D01*
X60721Y-42082D01*
X60582Y-42221D01*
X60507Y-42402D01*
X60507Y-42598D01*
X60582Y-42779D01*
X60721Y-42918D01*
X60902Y-42993D01*
X61098Y-42993D01*
X61279Y-42918D01*
X61418Y-42779D01*
X61493Y-42598D01*
X61493Y-43402D01*
X61418Y-43221D01*
X61279Y-43082D01*
X61098Y-43007D01*
X60902Y-43007D01*
X60721Y-43082D01*
X60582Y-43221D01*
X60507Y-43402D01*
X60507Y-43598D01*
X60582Y-43779D01*
X60721Y-43918D01*
X60902Y-43993D01*
X61098Y-43993D01*
X61279Y-43918D01*
X61418Y-43779D01*
X61493Y-43598D01*
X61493Y-45551D01*
X61411Y-45551D01*
X61246Y-45619D01*
X61120Y-45745D01*
X61051Y-45910D01*
X61051Y-46089D01*
X61119Y-46254D01*
X61245Y-46380D01*
X61410Y-46449D01*
X61589Y-46449D01*
X61754Y-46381D01*
X61880Y-46255D01*
X61949Y-46090D01*
X61949Y-46475D01*
X60949Y-46475D01*
X60949Y-46090D01*
X60949Y-45911D01*
X60881Y-45746D01*
X60755Y-45620D01*
X60590Y-45551D01*
X60493Y-45551D01*
X60493Y-43598D01*
X60493Y-43402D01*
X60493Y-42598D01*
X60493Y-42402D01*
X60493Y-41598D01*
X60493Y-41402D01*
X60493Y-40598D01*
X60493Y-40402D01*
X60493Y-39598D01*
X60493Y-39402D01*
X60493Y-36598D01*
X60493Y-36402D01*
X60493Y-35598D01*
X60493Y-35402D01*
X60493Y-34598D01*
X60493Y-34402D01*
X60493Y-33598D01*
X60493Y-33402D01*
X60493Y-32598D01*
X60493Y-32402D01*
X60418Y-32221D01*
X60279Y-32082D01*
X60098Y-32007D01*
X59902Y-32007D01*
X59721Y-32082D01*
X59582Y-32221D01*
X59507Y-32402D01*
X59507Y-32598D01*
X59582Y-32779D01*
X59721Y-32918D01*
X59902Y-32993D01*
X60098Y-32993D01*
X60279Y-32918D01*
X60418Y-32779D01*
X60493Y-32598D01*
X60493Y-33402D01*
X60418Y-33221D01*
X60279Y-33082D01*
X60098Y-33007D01*
X59902Y-33007D01*
X59721Y-33082D01*
X59582Y-33221D01*
X59507Y-33402D01*
X59507Y-33598D01*
X59582Y-33779D01*
X59721Y-33918D01*
X59902Y-33993D01*
X60098Y-33993D01*
X60279Y-33918D01*
X60418Y-33779D01*
X60493Y-33598D01*
X60493Y-34402D01*
X60418Y-34221D01*
X60279Y-34082D01*
X60098Y-34007D01*
X59902Y-34007D01*
X59721Y-34082D01*
X59582Y-34221D01*
X59507Y-34402D01*
X59507Y-34598D01*
X59582Y-34779D01*
X59721Y-34918D01*
X59902Y-34993D01*
X60098Y-34993D01*
X60279Y-34918D01*
X60418Y-34779D01*
X60493Y-34598D01*
X60493Y-35402D01*
X60418Y-35221D01*
X60279Y-35082D01*
X60098Y-35007D01*
X59902Y-35007D01*
X59721Y-35082D01*
X59582Y-35221D01*
X59507Y-35402D01*
X59507Y-35598D01*
X59582Y-35779D01*
X59721Y-35918D01*
X59902Y-35993D01*
X60098Y-35993D01*
X60279Y-35918D01*
X60418Y-35779D01*
X60493Y-35598D01*
X60493Y-36402D01*
X60418Y-36221D01*
X60279Y-36082D01*
X60098Y-36007D01*
X59902Y-36007D01*
X59721Y-36082D01*
X59582Y-36221D01*
X59507Y-36402D01*
X59507Y-36598D01*
X59582Y-36779D01*
X59721Y-36918D01*
X59902Y-36993D01*
X60098Y-36993D01*
X60279Y-36918D01*
X60418Y-36779D01*
X60493Y-36598D01*
X60493Y-39402D01*
X60418Y-39221D01*
X60279Y-39082D01*
X60098Y-39007D01*
X59902Y-39007D01*
X59721Y-39082D01*
X59582Y-39221D01*
X59507Y-39402D01*
X59507Y-39598D01*
X59582Y-39779D01*
X59721Y-39918D01*
X59902Y-39993D01*
X60098Y-39993D01*
X60279Y-39918D01*
X60418Y-39779D01*
X60493Y-39598D01*
X60493Y-40402D01*
X60418Y-40221D01*
X60279Y-40082D01*
X60098Y-40007D01*
X59902Y-40007D01*
X59721Y-40082D01*
X59582Y-40221D01*
X59507Y-40402D01*
X59507Y-40598D01*
X59582Y-40779D01*
X59721Y-40918D01*
X59902Y-40993D01*
X60098Y-40993D01*
X60279Y-40918D01*
X60418Y-40779D01*
X60493Y-40598D01*
X60493Y-41402D01*
X60418Y-41221D01*
X60279Y-41082D01*
X60098Y-41007D01*
X59902Y-41007D01*
X59721Y-41082D01*
X59582Y-41221D01*
X59507Y-41402D01*
X59507Y-41598D01*
X59582Y-41779D01*
X59721Y-41918D01*
X59902Y-41993D01*
X60098Y-41993D01*
X60279Y-41918D01*
X60418Y-41779D01*
X60493Y-41598D01*
X60493Y-42402D01*
X60418Y-42221D01*
X60279Y-42082D01*
X60098Y-42007D01*
X59902Y-42007D01*
X59721Y-42082D01*
X59582Y-42221D01*
X59507Y-42402D01*
X59507Y-42598D01*
X59582Y-42779D01*
X59721Y-42918D01*
X59902Y-42993D01*
X60098Y-42993D01*
X60279Y-42918D01*
X60418Y-42779D01*
X60493Y-42598D01*
X60493Y-43402D01*
X60418Y-43221D01*
X60279Y-43082D01*
X60098Y-43007D01*
X59902Y-43007D01*
X59721Y-43082D01*
X59582Y-43221D01*
X59507Y-43402D01*
X59507Y-43598D01*
X59582Y-43779D01*
X59721Y-43918D01*
X59902Y-43993D01*
X60098Y-43993D01*
X60279Y-43918D01*
X60418Y-43779D01*
X60493Y-43598D01*
X60493Y-45551D01*
X60411Y-45551D01*
X60246Y-45619D01*
X60120Y-45745D01*
X60051Y-45910D01*
X60051Y-46089D01*
X60119Y-46254D01*
X60245Y-46380D01*
X60410Y-46449D01*
X60589Y-46449D01*
X60754Y-46381D01*
X60880Y-46255D01*
X60949Y-46090D01*
X60949Y-46475D01*
X59493Y-46475D01*
X59493Y-43598D01*
X59493Y-43402D01*
X59493Y-42598D01*
X59493Y-42402D01*
X59493Y-41598D01*
X59493Y-41402D01*
X59493Y-40598D01*
X59493Y-40402D01*
X59493Y-39598D01*
X59493Y-39402D01*
X59493Y-36598D01*
X59493Y-36402D01*
X59493Y-35598D01*
X59493Y-35402D01*
X59493Y-34598D01*
X59493Y-34402D01*
X59493Y-33598D01*
X59493Y-33402D01*
X59493Y-32598D01*
X59493Y-32402D01*
X59418Y-32221D01*
X59279Y-32082D01*
X59098Y-32007D01*
X58902Y-32007D01*
X58721Y-32082D01*
X58582Y-32221D01*
X58507Y-32402D01*
X58507Y-32598D01*
X58582Y-32779D01*
X58721Y-32918D01*
X58902Y-32993D01*
X59098Y-32993D01*
X59279Y-32918D01*
X59418Y-32779D01*
X59493Y-32598D01*
X59493Y-33402D01*
X59418Y-33221D01*
X59279Y-33082D01*
X59098Y-33007D01*
X58902Y-33007D01*
X58721Y-33082D01*
X58582Y-33221D01*
X58507Y-33402D01*
X58507Y-33598D01*
X58582Y-33779D01*
X58721Y-33918D01*
X58902Y-33993D01*
X59098Y-33993D01*
X59279Y-33918D01*
X59418Y-33779D01*
X59493Y-33598D01*
X59493Y-34402D01*
X59418Y-34221D01*
X59279Y-34082D01*
X59098Y-34007D01*
X58902Y-34007D01*
X58721Y-34082D01*
X58582Y-34221D01*
X58507Y-34402D01*
X58507Y-34598D01*
X58582Y-34779D01*
X58721Y-34918D01*
X58902Y-34993D01*
X59098Y-34993D01*
X59279Y-34918D01*
X59418Y-34779D01*
X59493Y-34598D01*
X59493Y-35402D01*
X59418Y-35221D01*
X59279Y-35082D01*
X59098Y-35007D01*
X58902Y-35007D01*
X58721Y-35082D01*
X58582Y-35221D01*
X58507Y-35402D01*
X58507Y-35598D01*
X58582Y-35779D01*
X58721Y-35918D01*
X58902Y-35993D01*
X59098Y-35993D01*
X59279Y-35918D01*
X59418Y-35779D01*
X59493Y-35598D01*
X59493Y-36402D01*
X59418Y-36221D01*
X59279Y-36082D01*
X59098Y-36007D01*
X58902Y-36007D01*
X58721Y-36082D01*
X58582Y-36221D01*
X58507Y-36402D01*
X58507Y-36598D01*
X58582Y-36779D01*
X58721Y-36918D01*
X58902Y-36993D01*
X59098Y-36993D01*
X59279Y-36918D01*
X59418Y-36779D01*
X59493Y-36598D01*
X59493Y-39402D01*
X59418Y-39221D01*
X59279Y-39082D01*
X59098Y-39007D01*
X58902Y-39007D01*
X58721Y-39082D01*
X58582Y-39221D01*
X58507Y-39402D01*
X58507Y-39598D01*
X58582Y-39779D01*
X58721Y-39918D01*
X58902Y-39993D01*
X59098Y-39993D01*
X59279Y-39918D01*
X59418Y-39779D01*
X59493Y-39598D01*
X59493Y-40402D01*
X59418Y-40221D01*
X59279Y-40082D01*
X59098Y-40007D01*
X58902Y-40007D01*
X58721Y-40082D01*
X58582Y-40221D01*
X58507Y-40402D01*
X58507Y-40598D01*
X58582Y-40779D01*
X58721Y-40918D01*
X58902Y-40993D01*
X59098Y-40993D01*
X59279Y-40918D01*
X59418Y-40779D01*
X59493Y-40598D01*
X59493Y-41402D01*
X59418Y-41221D01*
X59279Y-41082D01*
X59098Y-41007D01*
X58902Y-41007D01*
X58721Y-41082D01*
X58582Y-41221D01*
X58507Y-41402D01*
X58507Y-41598D01*
X58582Y-41779D01*
X58721Y-41918D01*
X58902Y-41993D01*
X59098Y-41993D01*
X59279Y-41918D01*
X59418Y-41779D01*
X59493Y-41598D01*
X59493Y-42402D01*
X59418Y-42221D01*
X59279Y-42082D01*
X59098Y-42007D01*
X58902Y-42007D01*
X58721Y-42082D01*
X58582Y-42221D01*
X58507Y-42402D01*
X58507Y-42598D01*
X58582Y-42779D01*
X58721Y-42918D01*
X58902Y-42993D01*
X59098Y-42993D01*
X59279Y-42918D01*
X59418Y-42779D01*
X59493Y-42598D01*
X59493Y-43402D01*
X59418Y-43221D01*
X59279Y-43082D01*
X59098Y-43007D01*
X58902Y-43007D01*
X58721Y-43082D01*
X58582Y-43221D01*
X58507Y-43402D01*
X58507Y-43598D01*
X58582Y-43779D01*
X58721Y-43918D01*
X58902Y-43993D01*
X59098Y-43993D01*
X59279Y-43918D01*
X59418Y-43779D01*
X59493Y-43598D01*
X59493Y-46475D01*
X58949Y-46475D01*
X58949Y-46090D01*
X58949Y-45911D01*
X58881Y-45746D01*
X58755Y-45620D01*
X58590Y-45551D01*
X58493Y-45551D01*
X58493Y-43598D01*
X58493Y-43402D01*
X58493Y-42598D01*
X58493Y-42402D01*
X58493Y-41598D01*
X58493Y-41402D01*
X58493Y-40598D01*
X58493Y-40402D01*
X58493Y-39598D01*
X58493Y-39402D01*
X58493Y-36598D01*
X58493Y-36402D01*
X58493Y-35598D01*
X58493Y-35402D01*
X58493Y-34598D01*
X58493Y-34402D01*
X58493Y-33598D01*
X58493Y-33402D01*
X58493Y-32598D01*
X58493Y-32402D01*
X58418Y-32221D01*
X58279Y-32082D01*
X58098Y-32007D01*
X57902Y-32007D01*
X57721Y-32082D01*
X57582Y-32221D01*
X57507Y-32402D01*
X57507Y-32598D01*
X57582Y-32779D01*
X57721Y-32918D01*
X57902Y-32993D01*
X58098Y-32993D01*
X58279Y-32918D01*
X58418Y-32779D01*
X58493Y-32598D01*
X58493Y-33402D01*
X58418Y-33221D01*
X58279Y-33082D01*
X58098Y-33007D01*
X57902Y-33007D01*
X57721Y-33082D01*
X57582Y-33221D01*
X57507Y-33402D01*
X57507Y-33598D01*
X57582Y-33779D01*
X57721Y-33918D01*
X57902Y-33993D01*
X58098Y-33993D01*
X58279Y-33918D01*
X58418Y-33779D01*
X58493Y-33598D01*
X58493Y-34402D01*
X58418Y-34221D01*
X58279Y-34082D01*
X58098Y-34007D01*
X57902Y-34007D01*
X57721Y-34082D01*
X57582Y-34221D01*
X57507Y-34402D01*
X57507Y-34598D01*
X57582Y-34779D01*
X57721Y-34918D01*
X57902Y-34993D01*
X58098Y-34993D01*
X58279Y-34918D01*
X58418Y-34779D01*
X58493Y-34598D01*
X58493Y-35402D01*
X58418Y-35221D01*
X58279Y-35082D01*
X58098Y-35007D01*
X57902Y-35007D01*
X57721Y-35082D01*
X57582Y-35221D01*
X57507Y-35402D01*
X57507Y-35598D01*
X57582Y-35779D01*
X57721Y-35918D01*
X57902Y-35993D01*
X58098Y-35993D01*
X58279Y-35918D01*
X58418Y-35779D01*
X58493Y-35598D01*
X58493Y-36402D01*
X58418Y-36221D01*
X58279Y-36082D01*
X58098Y-36007D01*
X57902Y-36007D01*
X57721Y-36082D01*
X57582Y-36221D01*
X57507Y-36402D01*
X57507Y-36598D01*
X57582Y-36779D01*
X57721Y-36918D01*
X57902Y-36993D01*
X58098Y-36993D01*
X58279Y-36918D01*
X58418Y-36779D01*
X58493Y-36598D01*
X58493Y-39402D01*
X58418Y-39221D01*
X58279Y-39082D01*
X58098Y-39007D01*
X57902Y-39007D01*
X57721Y-39082D01*
X57582Y-39221D01*
X57507Y-39402D01*
X57507Y-39598D01*
X57582Y-39779D01*
X57721Y-39918D01*
X57902Y-39993D01*
X58098Y-39993D01*
X58279Y-39918D01*
X58418Y-39779D01*
X58493Y-39598D01*
X58493Y-40402D01*
X58418Y-40221D01*
X58279Y-40082D01*
X58098Y-40007D01*
X57902Y-40007D01*
X57721Y-40082D01*
X57582Y-40221D01*
X57507Y-40402D01*
X57507Y-40598D01*
X57582Y-40779D01*
X57721Y-40918D01*
X57902Y-40993D01*
X58098Y-40993D01*
X58279Y-40918D01*
X58418Y-40779D01*
X58493Y-40598D01*
X58493Y-41402D01*
X58418Y-41221D01*
X58279Y-41082D01*
X58098Y-41007D01*
X57902Y-41007D01*
X57721Y-41082D01*
X57582Y-41221D01*
X57507Y-41402D01*
X57507Y-41598D01*
X57582Y-41779D01*
X57721Y-41918D01*
X57902Y-41993D01*
X58098Y-41993D01*
X58279Y-41918D01*
X58418Y-41779D01*
X58493Y-41598D01*
X58493Y-42402D01*
X58418Y-42221D01*
X58279Y-42082D01*
X58098Y-42007D01*
X57902Y-42007D01*
X57721Y-42082D01*
X57582Y-42221D01*
X57507Y-42402D01*
X57507Y-42598D01*
X57582Y-42779D01*
X57721Y-42918D01*
X57902Y-42993D01*
X58098Y-42993D01*
X58279Y-42918D01*
X58418Y-42779D01*
X58493Y-42598D01*
X58493Y-43402D01*
X58418Y-43221D01*
X58279Y-43082D01*
X58098Y-43007D01*
X57902Y-43007D01*
X57721Y-43082D01*
X57582Y-43221D01*
X57507Y-43402D01*
X57507Y-43598D01*
X57582Y-43779D01*
X57721Y-43918D01*
X57902Y-43993D01*
X58098Y-43993D01*
X58279Y-43918D01*
X58418Y-43779D01*
X58493Y-43598D01*
X58493Y-45551D01*
X58411Y-45551D01*
X58246Y-45619D01*
X58120Y-45745D01*
X58051Y-45910D01*
X58051Y-46089D01*
X58119Y-46254D01*
X58245Y-46380D01*
X58410Y-46449D01*
X58589Y-46449D01*
X58754Y-46381D01*
X58880Y-46255D01*
X58949Y-46090D01*
X58949Y-46475D01*
X57949Y-46475D01*
X57949Y-46090D01*
X57949Y-45911D01*
X57881Y-45746D01*
X57755Y-45620D01*
X57590Y-45551D01*
X57493Y-45551D01*
X57493Y-43598D01*
X57493Y-43402D01*
X57493Y-42598D01*
X57493Y-42402D01*
X57493Y-41598D01*
X57493Y-41402D01*
X57493Y-40598D01*
X57493Y-40402D01*
X57493Y-39598D01*
X57493Y-39402D01*
X57493Y-36598D01*
X57493Y-36402D01*
X57493Y-35598D01*
X57493Y-35402D01*
X57493Y-34598D01*
X57493Y-34402D01*
X57493Y-33598D01*
X57493Y-33402D01*
X57493Y-32598D01*
X57493Y-32402D01*
X57418Y-32221D01*
X57279Y-32082D01*
X57098Y-32007D01*
X56902Y-32007D01*
X56721Y-32082D01*
X56582Y-32221D01*
X56507Y-32402D01*
X56507Y-32598D01*
X56582Y-32779D01*
X56721Y-32918D01*
X56902Y-32993D01*
X57098Y-32993D01*
X57279Y-32918D01*
X57418Y-32779D01*
X57493Y-32598D01*
X57493Y-33402D01*
X57418Y-33221D01*
X57279Y-33082D01*
X57098Y-33007D01*
X56902Y-33007D01*
X56721Y-33082D01*
X56582Y-33221D01*
X56507Y-33402D01*
X56507Y-33598D01*
X56582Y-33779D01*
X56721Y-33918D01*
X56902Y-33993D01*
X57098Y-33993D01*
X57279Y-33918D01*
X57418Y-33779D01*
X57493Y-33598D01*
X57493Y-34402D01*
X57418Y-34221D01*
X57279Y-34082D01*
X57098Y-34007D01*
X56902Y-34007D01*
X56721Y-34082D01*
X56582Y-34221D01*
X56507Y-34402D01*
X56507Y-34598D01*
X56582Y-34779D01*
X56721Y-34918D01*
X56902Y-34993D01*
X57098Y-34993D01*
X57279Y-34918D01*
X57418Y-34779D01*
X57493Y-34598D01*
X57493Y-35402D01*
X57418Y-35221D01*
X57279Y-35082D01*
X57098Y-35007D01*
X56902Y-35007D01*
X56721Y-35082D01*
X56582Y-35221D01*
X56507Y-35402D01*
X56507Y-35598D01*
X56582Y-35779D01*
X56721Y-35918D01*
X56902Y-35993D01*
X57098Y-35993D01*
X57279Y-35918D01*
X57418Y-35779D01*
X57493Y-35598D01*
X57493Y-36402D01*
X57418Y-36221D01*
X57279Y-36082D01*
X57098Y-36007D01*
X56902Y-36007D01*
X56721Y-36082D01*
X56582Y-36221D01*
X56507Y-36402D01*
X56507Y-36598D01*
X56582Y-36779D01*
X56721Y-36918D01*
X56902Y-36993D01*
X57098Y-36993D01*
X57279Y-36918D01*
X57418Y-36779D01*
X57493Y-36598D01*
X57493Y-39402D01*
X57418Y-39221D01*
X57279Y-39082D01*
X57098Y-39007D01*
X56902Y-39007D01*
X56721Y-39082D01*
X56582Y-39221D01*
X56507Y-39402D01*
X56507Y-39598D01*
X56582Y-39779D01*
X56721Y-39918D01*
X56902Y-39993D01*
X57098Y-39993D01*
X57279Y-39918D01*
X57418Y-39779D01*
X57493Y-39598D01*
X57493Y-40402D01*
X57418Y-40221D01*
X57279Y-40082D01*
X57098Y-40007D01*
X56902Y-40007D01*
X56721Y-40082D01*
X56582Y-40221D01*
X56507Y-40402D01*
X56507Y-40598D01*
X56582Y-40779D01*
X56721Y-40918D01*
X56902Y-40993D01*
X57098Y-40993D01*
X57279Y-40918D01*
X57418Y-40779D01*
X57493Y-40598D01*
X57493Y-41402D01*
X57418Y-41221D01*
X57279Y-41082D01*
X57098Y-41007D01*
X56902Y-41007D01*
X56721Y-41082D01*
X56582Y-41221D01*
X56507Y-41402D01*
X56507Y-41598D01*
X56582Y-41779D01*
X56721Y-41918D01*
X56902Y-41993D01*
X57098Y-41993D01*
X57279Y-41918D01*
X57418Y-41779D01*
X57493Y-41598D01*
X57493Y-42402D01*
X57418Y-42221D01*
X57279Y-42082D01*
X57098Y-42007D01*
X56902Y-42007D01*
X56721Y-42082D01*
X56582Y-42221D01*
X56507Y-42402D01*
X56507Y-42598D01*
X56582Y-42779D01*
X56721Y-42918D01*
X56902Y-42993D01*
X57098Y-42993D01*
X57279Y-42918D01*
X57418Y-42779D01*
X57493Y-42598D01*
X57493Y-43402D01*
X57418Y-43221D01*
X57279Y-43082D01*
X57098Y-43007D01*
X56902Y-43007D01*
X56721Y-43082D01*
X56582Y-43221D01*
X56507Y-43402D01*
X56507Y-43598D01*
X56582Y-43779D01*
X56721Y-43918D01*
X56902Y-43993D01*
X57098Y-43993D01*
X57279Y-43918D01*
X57418Y-43779D01*
X57493Y-43598D01*
X57493Y-45551D01*
X57411Y-45551D01*
X57246Y-45619D01*
X57120Y-45745D01*
X57051Y-45910D01*
X57051Y-46089D01*
X57119Y-46254D01*
X57245Y-46380D01*
X57410Y-46449D01*
X57589Y-46449D01*
X57754Y-46381D01*
X57880Y-46255D01*
X57949Y-46090D01*
X57949Y-46475D01*
X56949Y-46475D01*
X56949Y-46090D01*
X56949Y-45911D01*
X56881Y-45746D01*
X56755Y-45620D01*
X56590Y-45551D01*
X56493Y-45551D01*
X56493Y-43598D01*
X56493Y-43402D01*
X56493Y-42598D01*
X56493Y-42402D01*
X56493Y-41598D01*
X56493Y-41402D01*
X56493Y-40598D01*
X56493Y-40402D01*
X56493Y-39598D01*
X56493Y-39402D01*
X56493Y-36598D01*
X56493Y-36402D01*
X56493Y-35598D01*
X56493Y-35402D01*
X56493Y-34598D01*
X56493Y-34402D01*
X56493Y-33598D01*
X56493Y-33402D01*
X56493Y-32598D01*
X56493Y-32402D01*
X56418Y-32221D01*
X56279Y-32082D01*
X56098Y-32007D01*
X55902Y-32007D01*
X55721Y-32082D01*
X55582Y-32221D01*
X55507Y-32402D01*
X55507Y-32598D01*
X55582Y-32779D01*
X55721Y-32918D01*
X55902Y-32993D01*
X56098Y-32993D01*
X56279Y-32918D01*
X56418Y-32779D01*
X56493Y-32598D01*
X56493Y-33402D01*
X56418Y-33221D01*
X56279Y-33082D01*
X56098Y-33007D01*
X55902Y-33007D01*
X55721Y-33082D01*
X55582Y-33221D01*
X55507Y-33402D01*
X55507Y-33598D01*
X55582Y-33779D01*
X55721Y-33918D01*
X55902Y-33993D01*
X56098Y-33993D01*
X56279Y-33918D01*
X56418Y-33779D01*
X56493Y-33598D01*
X56493Y-34402D01*
X56418Y-34221D01*
X56279Y-34082D01*
X56098Y-34007D01*
X55902Y-34007D01*
X55721Y-34082D01*
X55582Y-34221D01*
X55507Y-34402D01*
X55507Y-34598D01*
X55582Y-34779D01*
X55721Y-34918D01*
X55902Y-34993D01*
X56098Y-34993D01*
X56279Y-34918D01*
X56418Y-34779D01*
X56493Y-34598D01*
X56493Y-35402D01*
X56418Y-35221D01*
X56279Y-35082D01*
X56098Y-35007D01*
X55902Y-35007D01*
X55721Y-35082D01*
X55582Y-35221D01*
X55507Y-35402D01*
X55507Y-35598D01*
X55582Y-35779D01*
X55721Y-35918D01*
X55902Y-35993D01*
X56098Y-35993D01*
X56279Y-35918D01*
X56418Y-35779D01*
X56493Y-35598D01*
X56493Y-36402D01*
X56418Y-36221D01*
X56279Y-36082D01*
X56098Y-36007D01*
X55902Y-36007D01*
X55721Y-36082D01*
X55582Y-36221D01*
X55507Y-36402D01*
X55507Y-36598D01*
X55582Y-36779D01*
X55721Y-36918D01*
X55902Y-36993D01*
X56098Y-36993D01*
X56279Y-36918D01*
X56418Y-36779D01*
X56493Y-36598D01*
X56493Y-39402D01*
X56418Y-39221D01*
X56279Y-39082D01*
X56098Y-39007D01*
X55902Y-39007D01*
X55721Y-39082D01*
X55582Y-39221D01*
X55507Y-39402D01*
X55507Y-39598D01*
X55582Y-39779D01*
X55721Y-39918D01*
X55902Y-39993D01*
X56098Y-39993D01*
X56279Y-39918D01*
X56418Y-39779D01*
X56493Y-39598D01*
X56493Y-40402D01*
X56418Y-40221D01*
X56279Y-40082D01*
X56098Y-40007D01*
X55902Y-40007D01*
X55721Y-40082D01*
X55582Y-40221D01*
X55507Y-40402D01*
X55507Y-40598D01*
X55582Y-40779D01*
X55721Y-40918D01*
X55902Y-40993D01*
X56098Y-40993D01*
X56279Y-40918D01*
X56418Y-40779D01*
X56493Y-40598D01*
X56493Y-41402D01*
X56418Y-41221D01*
X56279Y-41082D01*
X56098Y-41007D01*
X55902Y-41007D01*
X55721Y-41082D01*
X55582Y-41221D01*
X55507Y-41402D01*
X55507Y-41598D01*
X55582Y-41779D01*
X55721Y-41918D01*
X55902Y-41993D01*
X56098Y-41993D01*
X56279Y-41918D01*
X56418Y-41779D01*
X56493Y-41598D01*
X56493Y-42402D01*
X56418Y-42221D01*
X56279Y-42082D01*
X56098Y-42007D01*
X55902Y-42007D01*
X55721Y-42082D01*
X55582Y-42221D01*
X55507Y-42402D01*
X55507Y-42598D01*
X55582Y-42779D01*
X55721Y-42918D01*
X55902Y-42993D01*
X56098Y-42993D01*
X56279Y-42918D01*
X56418Y-42779D01*
X56493Y-42598D01*
X56493Y-43402D01*
X56418Y-43221D01*
X56279Y-43082D01*
X56098Y-43007D01*
X55902Y-43007D01*
X55721Y-43082D01*
X55582Y-43221D01*
X55507Y-43402D01*
X55507Y-43598D01*
X55582Y-43779D01*
X55721Y-43918D01*
X55902Y-43993D01*
X56098Y-43993D01*
X56279Y-43918D01*
X56418Y-43779D01*
X56493Y-43598D01*
X56493Y-45551D01*
X56411Y-45551D01*
X56246Y-45619D01*
X56120Y-45745D01*
X56051Y-45910D01*
X56051Y-46089D01*
X56119Y-46254D01*
X56245Y-46380D01*
X56410Y-46449D01*
X56589Y-46449D01*
X56754Y-46381D01*
X56880Y-46255D01*
X56949Y-46090D01*
X56949Y-46475D01*
X55949Y-46475D01*
X55949Y-46090D01*
X55949Y-45911D01*
X55881Y-45746D01*
X55755Y-45620D01*
X55590Y-45551D01*
X55493Y-45551D01*
X55493Y-43598D01*
X55493Y-43402D01*
X55493Y-42598D01*
X55493Y-42402D01*
X55493Y-41598D01*
X55493Y-41402D01*
X55493Y-40598D01*
X55493Y-40402D01*
X55493Y-39598D01*
X55493Y-39402D01*
X55493Y-36598D01*
X55493Y-36402D01*
X55493Y-35598D01*
X55493Y-35402D01*
X55493Y-34598D01*
X55493Y-34402D01*
X55493Y-33598D01*
X55493Y-33402D01*
X55493Y-32598D01*
X55493Y-32402D01*
X55418Y-32221D01*
X55279Y-32082D01*
X55098Y-32007D01*
X54902Y-32007D01*
X54721Y-32082D01*
X54582Y-32221D01*
X54507Y-32402D01*
X54507Y-32598D01*
X54582Y-32779D01*
X54721Y-32918D01*
X54902Y-32993D01*
X55098Y-32993D01*
X55279Y-32918D01*
X55418Y-32779D01*
X55493Y-32598D01*
X55493Y-33402D01*
X55418Y-33221D01*
X55279Y-33082D01*
X55098Y-33007D01*
X54902Y-33007D01*
X54721Y-33082D01*
X54582Y-33221D01*
X54507Y-33402D01*
X54507Y-33598D01*
X54582Y-33779D01*
X54721Y-33918D01*
X54902Y-33993D01*
X55098Y-33993D01*
X55279Y-33918D01*
X55418Y-33779D01*
X55493Y-33598D01*
X55493Y-34402D01*
X55418Y-34221D01*
X55279Y-34082D01*
X55098Y-34007D01*
X54902Y-34007D01*
X54721Y-34082D01*
X54582Y-34221D01*
X54507Y-34402D01*
X54507Y-34598D01*
X54582Y-34779D01*
X54721Y-34918D01*
X54902Y-34993D01*
X55098Y-34993D01*
X55279Y-34918D01*
X55418Y-34779D01*
X55493Y-34598D01*
X55493Y-35402D01*
X55418Y-35221D01*
X55279Y-35082D01*
X55098Y-35007D01*
X54902Y-35007D01*
X54721Y-35082D01*
X54582Y-35221D01*
X54507Y-35402D01*
X54507Y-35598D01*
X54582Y-35779D01*
X54721Y-35918D01*
X54902Y-35993D01*
X55098Y-35993D01*
X55279Y-35918D01*
X55418Y-35779D01*
X55493Y-35598D01*
X55493Y-36402D01*
X55418Y-36221D01*
X55279Y-36082D01*
X55098Y-36007D01*
X54902Y-36007D01*
X54721Y-36082D01*
X54582Y-36221D01*
X54507Y-36402D01*
X54507Y-36598D01*
X54582Y-36779D01*
X54721Y-36918D01*
X54902Y-36993D01*
X55098Y-36993D01*
X55279Y-36918D01*
X55418Y-36779D01*
X55493Y-36598D01*
X55493Y-39402D01*
X55418Y-39221D01*
X55279Y-39082D01*
X55098Y-39007D01*
X54902Y-39007D01*
X54721Y-39082D01*
X54582Y-39221D01*
X54507Y-39402D01*
X54507Y-39598D01*
X54582Y-39779D01*
X54721Y-39918D01*
X54902Y-39993D01*
X55098Y-39993D01*
X55279Y-39918D01*
X55418Y-39779D01*
X55493Y-39598D01*
X55493Y-40402D01*
X55418Y-40221D01*
X55279Y-40082D01*
X55098Y-40007D01*
X54902Y-40007D01*
X54721Y-40082D01*
X54582Y-40221D01*
X54507Y-40402D01*
X54507Y-40598D01*
X54582Y-40779D01*
X54721Y-40918D01*
X54902Y-40993D01*
X55098Y-40993D01*
X55279Y-40918D01*
X55418Y-40779D01*
X55493Y-40598D01*
X55493Y-41402D01*
X55418Y-41221D01*
X55279Y-41082D01*
X55098Y-41007D01*
X54902Y-41007D01*
X54721Y-41082D01*
X54582Y-41221D01*
X54507Y-41402D01*
X54507Y-41598D01*
X54582Y-41779D01*
X54721Y-41918D01*
X54902Y-41993D01*
X55098Y-41993D01*
X55279Y-41918D01*
X55418Y-41779D01*
X55493Y-41598D01*
X55493Y-42402D01*
X55418Y-42221D01*
X55279Y-42082D01*
X55098Y-42007D01*
X54902Y-42007D01*
X54721Y-42082D01*
X54582Y-42221D01*
X54507Y-42402D01*
X54507Y-42598D01*
X54582Y-42779D01*
X54721Y-42918D01*
X54902Y-42993D01*
X55098Y-42993D01*
X55279Y-42918D01*
X55418Y-42779D01*
X55493Y-42598D01*
X55493Y-43402D01*
X55418Y-43221D01*
X55279Y-43082D01*
X55098Y-43007D01*
X54902Y-43007D01*
X54721Y-43082D01*
X54582Y-43221D01*
X54507Y-43402D01*
X54507Y-43598D01*
X54582Y-43779D01*
X54721Y-43918D01*
X54902Y-43993D01*
X55098Y-43993D01*
X55279Y-43918D01*
X55418Y-43779D01*
X55493Y-43598D01*
X55493Y-45551D01*
X55411Y-45551D01*
X55246Y-45619D01*
X55120Y-45745D01*
X55051Y-45910D01*
X55051Y-46089D01*
X55119Y-46254D01*
X55245Y-46380D01*
X55410Y-46449D01*
X55589Y-46449D01*
X55754Y-46381D01*
X55880Y-46255D01*
X55949Y-46090D01*
X55949Y-46475D01*
X54949Y-46475D01*
X54949Y-46090D01*
X54949Y-45911D01*
X54881Y-45746D01*
X54755Y-45620D01*
X54590Y-45551D01*
X54493Y-45551D01*
X54493Y-43598D01*
X54493Y-43402D01*
X54493Y-42598D01*
X54493Y-42402D01*
X54493Y-41598D01*
X54493Y-41402D01*
X54493Y-40598D01*
X54493Y-40402D01*
X54493Y-39598D01*
X54493Y-39402D01*
X54493Y-36598D01*
X54493Y-36402D01*
X54493Y-35598D01*
X54493Y-35402D01*
X54493Y-34598D01*
X54493Y-34402D01*
X54493Y-33598D01*
X54493Y-33402D01*
X54493Y-32598D01*
X54493Y-32402D01*
X54418Y-32221D01*
X54279Y-32082D01*
X54098Y-32007D01*
X53902Y-32007D01*
X53721Y-32082D01*
X53582Y-32221D01*
X53507Y-32402D01*
X53507Y-32598D01*
X53582Y-32779D01*
X53721Y-32918D01*
X53902Y-32993D01*
X54098Y-32993D01*
X54279Y-32918D01*
X54418Y-32779D01*
X54493Y-32598D01*
X54493Y-33402D01*
X54418Y-33221D01*
X54279Y-33082D01*
X54098Y-33007D01*
X53902Y-33007D01*
X53721Y-33082D01*
X53582Y-33221D01*
X53507Y-33402D01*
X53507Y-33598D01*
X53582Y-33779D01*
X53721Y-33918D01*
X53902Y-33993D01*
X54098Y-33993D01*
X54279Y-33918D01*
X54418Y-33779D01*
X54493Y-33598D01*
X54493Y-34402D01*
X54418Y-34221D01*
X54279Y-34082D01*
X54098Y-34007D01*
X53902Y-34007D01*
X53721Y-34082D01*
X53582Y-34221D01*
X53507Y-34402D01*
X53507Y-34598D01*
X53582Y-34779D01*
X53721Y-34918D01*
X53902Y-34993D01*
X54098Y-34993D01*
X54279Y-34918D01*
X54418Y-34779D01*
X54493Y-34598D01*
X54493Y-35402D01*
X54418Y-35221D01*
X54279Y-35082D01*
X54098Y-35007D01*
X53902Y-35007D01*
X53721Y-35082D01*
X53582Y-35221D01*
X53507Y-35402D01*
X53507Y-35598D01*
X53582Y-35779D01*
X53721Y-35918D01*
X53902Y-35993D01*
X54098Y-35993D01*
X54279Y-35918D01*
X54418Y-35779D01*
X54493Y-35598D01*
X54493Y-36402D01*
X54418Y-36221D01*
X54279Y-36082D01*
X54098Y-36007D01*
X53902Y-36007D01*
X53721Y-36082D01*
X53582Y-36221D01*
X53507Y-36402D01*
X53507Y-36598D01*
X53582Y-36779D01*
X53721Y-36918D01*
X53902Y-36993D01*
X54098Y-36993D01*
X54279Y-36918D01*
X54418Y-36779D01*
X54493Y-36598D01*
X54493Y-39402D01*
X54418Y-39221D01*
X54279Y-39082D01*
X54098Y-39007D01*
X53902Y-39007D01*
X53721Y-39082D01*
X53582Y-39221D01*
X53507Y-39402D01*
X53507Y-39598D01*
X53582Y-39779D01*
X53721Y-39918D01*
X53902Y-39993D01*
X54098Y-39993D01*
X54279Y-39918D01*
X54418Y-39779D01*
X54493Y-39598D01*
X54493Y-40402D01*
X54418Y-40221D01*
X54279Y-40082D01*
X54098Y-40007D01*
X53902Y-40007D01*
X53721Y-40082D01*
X53582Y-40221D01*
X53507Y-40402D01*
X53507Y-40598D01*
X53582Y-40779D01*
X53721Y-40918D01*
X53902Y-40993D01*
X54098Y-40993D01*
X54279Y-40918D01*
X54418Y-40779D01*
X54493Y-40598D01*
X54493Y-41402D01*
X54418Y-41221D01*
X54279Y-41082D01*
X54098Y-41007D01*
X53902Y-41007D01*
X53721Y-41082D01*
X53582Y-41221D01*
X53507Y-41402D01*
X53507Y-41598D01*
X53582Y-41779D01*
X53721Y-41918D01*
X53902Y-41993D01*
X54098Y-41993D01*
X54279Y-41918D01*
X54418Y-41779D01*
X54493Y-41598D01*
X54493Y-42402D01*
X54418Y-42221D01*
X54279Y-42082D01*
X54098Y-42007D01*
X53902Y-42007D01*
X53721Y-42082D01*
X53582Y-42221D01*
X53507Y-42402D01*
X53507Y-42598D01*
X53582Y-42779D01*
X53721Y-42918D01*
X53902Y-42993D01*
X54098Y-42993D01*
X54279Y-42918D01*
X54418Y-42779D01*
X54493Y-42598D01*
X54493Y-43402D01*
X54418Y-43221D01*
X54279Y-43082D01*
X54098Y-43007D01*
X53902Y-43007D01*
X53721Y-43082D01*
X53582Y-43221D01*
X53507Y-43402D01*
X53507Y-43598D01*
X53582Y-43779D01*
X53721Y-43918D01*
X53902Y-43993D01*
X54098Y-43993D01*
X54279Y-43918D01*
X54418Y-43779D01*
X54493Y-43598D01*
X54493Y-45551D01*
X54411Y-45551D01*
X54246Y-45619D01*
X54120Y-45745D01*
X54051Y-45910D01*
X54051Y-46089D01*
X54119Y-46254D01*
X54245Y-46380D01*
X54410Y-46449D01*
X54589Y-46449D01*
X54754Y-46381D01*
X54880Y-46255D01*
X54949Y-46090D01*
X54949Y-46475D01*
X53869Y-46475D01*
X53325Y-46365D01*
X52882Y-46069D01*
X52584Y-45624D01*
X52475Y-45076D01*
X52475Y-30923D01*
X52584Y-30375D01*
X52882Y-29930D01*
X53325Y-29634D01*
X53872Y-29524D01*
X53875Y-29525D01*
X70126Y-29525D01*
X70674Y-29634D01*
X71119Y-29932D01*
X71415Y-30375D01*
X71525Y-30919D01*
X71525Y-45080D01*
X71525Y-45080D01*
G37*
G54D15*
X71525Y-45080D02*
X71415Y-45624D01*
X71119Y-46067D01*
X70674Y-46365D01*
X70493Y-46401D01*
X70493Y-43598D01*
X70493Y-43402D01*
X70493Y-42598D01*
X70493Y-42402D01*
X70493Y-41598D01*
X70493Y-41402D01*
X70493Y-40598D01*
X70493Y-40402D01*
X70493Y-39598D01*
X70493Y-39402D01*
X70493Y-36598D01*
X70493Y-36402D01*
X70493Y-35598D01*
X70493Y-35402D01*
X70493Y-34598D01*
X70493Y-34402D01*
X70493Y-33598D01*
X70493Y-33402D01*
X70493Y-32598D01*
X70493Y-32402D01*
X70418Y-32221D01*
X70279Y-32082D01*
X70098Y-32007D01*
X69902Y-32007D01*
X69721Y-32082D01*
X69582Y-32221D01*
X69507Y-32402D01*
X69507Y-32598D01*
X69582Y-32779D01*
X69721Y-32918D01*
X69902Y-32993D01*
X70098Y-32993D01*
X70279Y-32918D01*
X70418Y-32779D01*
X70493Y-32598D01*
X70493Y-33402D01*
X70418Y-33221D01*
X70279Y-33082D01*
X70098Y-33007D01*
X69902Y-33007D01*
X69721Y-33082D01*
X69582Y-33221D01*
X69507Y-33402D01*
X69507Y-33598D01*
X69582Y-33779D01*
X69721Y-33918D01*
X69902Y-33993D01*
X70098Y-33993D01*
X70279Y-33918D01*
X70418Y-33779D01*
X70493Y-33598D01*
X70493Y-34402D01*
X70418Y-34221D01*
X70279Y-34082D01*
X70098Y-34007D01*
X69902Y-34007D01*
X69721Y-34082D01*
X69582Y-34221D01*
X69507Y-34402D01*
X69507Y-34598D01*
X69582Y-34779D01*
X69721Y-34918D01*
X69902Y-34993D01*
X70098Y-34993D01*
X70279Y-34918D01*
X70418Y-34779D01*
X70493Y-34598D01*
X70493Y-35402D01*
X70418Y-35221D01*
X70279Y-35082D01*
X70098Y-35007D01*
X69902Y-35007D01*
X69721Y-35082D01*
X69582Y-35221D01*
X69507Y-35402D01*
X69507Y-35598D01*
X69582Y-35779D01*
X69721Y-35918D01*
X69902Y-35993D01*
X70098Y-35993D01*
X70279Y-35918D01*
X70418Y-35779D01*
X70493Y-35598D01*
X70493Y-36402D01*
X70418Y-36221D01*
X70279Y-36082D01*
X70098Y-36007D01*
X69902Y-36007D01*
X69721Y-36082D01*
X69582Y-36221D01*
X69507Y-36402D01*
X69507Y-36598D01*
X69582Y-36779D01*
X69721Y-36918D01*
X69902Y-36993D01*
X70098Y-36993D01*
X70279Y-36918D01*
X70418Y-36779D01*
X70493Y-36598D01*
X70493Y-39402D01*
X70418Y-39221D01*
X70279Y-39082D01*
X70098Y-39007D01*
X69902Y-39007D01*
X69721Y-39082D01*
X69582Y-39221D01*
X69507Y-39402D01*
X69507Y-39598D01*
X69582Y-39779D01*
X69721Y-39918D01*
X69902Y-39993D01*
X70098Y-39993D01*
X70279Y-39918D01*
X70418Y-39779D01*
X70493Y-39598D01*
X70493Y-40402D01*
X70418Y-40221D01*
X70279Y-40082D01*
X70098Y-40007D01*
X69902Y-40007D01*
X69721Y-40082D01*
X69582Y-40221D01*
X69507Y-40402D01*
X69507Y-40598D01*
X69582Y-40779D01*
X69721Y-40918D01*
X69902Y-40993D01*
X70098Y-40993D01*
X70279Y-40918D01*
X70418Y-40779D01*
X70493Y-40598D01*
X70493Y-41402D01*
X70418Y-41221D01*
X70279Y-41082D01*
X70098Y-41007D01*
X69902Y-41007D01*
X69721Y-41082D01*
X69582Y-41221D01*
X69507Y-41402D01*
X69507Y-41598D01*
X69582Y-41779D01*
X69721Y-41918D01*
X69902Y-41993D01*
X70098Y-41993D01*
X70279Y-41918D01*
X70418Y-41779D01*
X70493Y-41598D01*
X70493Y-42402D01*
X70418Y-42221D01*
X70279Y-42082D01*
X70098Y-42007D01*
X69902Y-42007D01*
X69721Y-42082D01*
X69582Y-42221D01*
X69507Y-42402D01*
X69507Y-42598D01*
X69582Y-42779D01*
X69721Y-42918D01*
X69902Y-42993D01*
X70098Y-42993D01*
X70279Y-42918D01*
X70418Y-42779D01*
X70493Y-42598D01*
X70493Y-43402D01*
X70418Y-43221D01*
X70279Y-43082D01*
X70098Y-43007D01*
X69902Y-43007D01*
X69721Y-43082D01*
X69582Y-43221D01*
X69507Y-43402D01*
X69507Y-43598D01*
X69582Y-43779D01*
X69721Y-43918D01*
X69902Y-43993D01*
X70098Y-43993D01*
X70279Y-43918D01*
X70418Y-43779D01*
X70493Y-43598D01*
X70493Y-46401D01*
X70126Y-46475D01*
X69949Y-46475D01*
X69949Y-46090D01*
X69949Y-45911D01*
X69881Y-45746D01*
X69755Y-45620D01*
X69590Y-45551D01*
X69493Y-45551D01*
X69493Y-43598D01*
X69493Y-43402D01*
X69493Y-42598D01*
X69493Y-42402D01*
X69493Y-41598D01*
X69493Y-41402D01*
X69493Y-40598D01*
X69493Y-40402D01*
X69493Y-39598D01*
X69493Y-39402D01*
X69493Y-36598D01*
X69493Y-36402D01*
X69493Y-35598D01*
X69493Y-35402D01*
X69493Y-34598D01*
X69493Y-34402D01*
X69493Y-33598D01*
X69493Y-33402D01*
X69493Y-32598D01*
X69493Y-32402D01*
X69418Y-32221D01*
X69279Y-32082D01*
X69098Y-32007D01*
X68902Y-32007D01*
X68721Y-32082D01*
X68582Y-32221D01*
X68507Y-32402D01*
X68507Y-32598D01*
X68582Y-32779D01*
X68721Y-32918D01*
X68902Y-32993D01*
X69098Y-32993D01*
X69279Y-32918D01*
X69418Y-32779D01*
X69493Y-32598D01*
X69493Y-33402D01*
X69418Y-33221D01*
X69279Y-33082D01*
X69098Y-33007D01*
X68902Y-33007D01*
X68721Y-33082D01*
X68582Y-33221D01*
X68507Y-33402D01*
X68507Y-33598D01*
X68582Y-33779D01*
X68721Y-33918D01*
X68902Y-33993D01*
X69098Y-33993D01*
X69279Y-33918D01*
X69418Y-33779D01*
X69493Y-33598D01*
X69493Y-34402D01*
X69418Y-34221D01*
X69279Y-34082D01*
X69098Y-34007D01*
X68902Y-34007D01*
X68721Y-34082D01*
X68582Y-34221D01*
X68507Y-34402D01*
X68507Y-34598D01*
X68582Y-34779D01*
X68721Y-34918D01*
X68902Y-34993D01*
X69098Y-34993D01*
X69279Y-34918D01*
X69418Y-34779D01*
X69493Y-34598D01*
X69493Y-35402D01*
X69418Y-35221D01*
X69279Y-35082D01*
X69098Y-35007D01*
X68902Y-35007D01*
X68721Y-35082D01*
X68582Y-35221D01*
X68507Y-35402D01*
X68507Y-35598D01*
X68582Y-35779D01*
X68721Y-35918D01*
X68902Y-35993D01*
X69098Y-35993D01*
X69279Y-35918D01*
X69418Y-35779D01*
X69493Y-35598D01*
X69493Y-36402D01*
X69418Y-36221D01*
X69279Y-36082D01*
X69098Y-36007D01*
X68902Y-36007D01*
X68721Y-36082D01*
X68582Y-36221D01*
X68507Y-36402D01*
X68507Y-36598D01*
X68582Y-36779D01*
X68721Y-36918D01*
X68902Y-36993D01*
X69098Y-36993D01*
X69279Y-36918D01*
X69418Y-36779D01*
X69493Y-36598D01*
X69493Y-39402D01*
X69418Y-39221D01*
X69279Y-39082D01*
X69098Y-39007D01*
X68902Y-39007D01*
X68721Y-39082D01*
X68582Y-39221D01*
X68507Y-39402D01*
X68507Y-39598D01*
X68582Y-39779D01*
X68721Y-39918D01*
X68902Y-39993D01*
X69098Y-39993D01*
X69279Y-39918D01*
X69418Y-39779D01*
X69493Y-39598D01*
X69493Y-40402D01*
X69418Y-40221D01*
X69279Y-40082D01*
X69098Y-40007D01*
X68902Y-40007D01*
X68721Y-40082D01*
X68582Y-40221D01*
X68507Y-40402D01*
X68507Y-40598D01*
X68582Y-40779D01*
X68721Y-40918D01*
X68902Y-40993D01*
X69098Y-40993D01*
X69279Y-40918D01*
X69418Y-40779D01*
X69493Y-40598D01*
X69493Y-41402D01*
X69418Y-41221D01*
X69279Y-41082D01*
X69098Y-41007D01*
X68902Y-41007D01*
X68721Y-41082D01*
X68582Y-41221D01*
X68507Y-41402D01*
X68507Y-41598D01*
X68582Y-41779D01*
X68721Y-41918D01*
X68902Y-41993D01*
X69098Y-41993D01*
X69279Y-41918D01*
X69418Y-41779D01*
X69493Y-41598D01*
X69493Y-42402D01*
X69418Y-42221D01*
X69279Y-42082D01*
X69098Y-42007D01*
X68902Y-42007D01*
X68721Y-42082D01*
X68582Y-42221D01*
X68507Y-42402D01*
X68507Y-42598D01*
X68582Y-42779D01*
X68721Y-42918D01*
X68902Y-42993D01*
X69098Y-42993D01*
X69279Y-42918D01*
X69418Y-42779D01*
X69493Y-42598D01*
X69493Y-43402D01*
X69418Y-43221D01*
X69279Y-43082D01*
X69098Y-43007D01*
X68902Y-43007D01*
X68721Y-43082D01*
X68582Y-43221D01*
X68507Y-43402D01*
X68507Y-43598D01*
X68582Y-43779D01*
X68721Y-43918D01*
X68902Y-43993D01*
X69098Y-43993D01*
X69279Y-43918D01*
X69418Y-43779D01*
X69493Y-43598D01*
X69493Y-45551D01*
X69411Y-45551D01*
X69246Y-45619D01*
X69120Y-45745D01*
X69051Y-45910D01*
X69051Y-46089D01*
X69119Y-46254D01*
X69245Y-46380D01*
X69410Y-46449D01*
X69589Y-46449D01*
X69754Y-46381D01*
X69880Y-46255D01*
X69949Y-46090D01*
X69949Y-46475D01*
X68949Y-46475D01*
X68949Y-46090D01*
X68949Y-45911D01*
X68881Y-45746D01*
X68755Y-45620D01*
X68590Y-45551D01*
X68493Y-45551D01*
X68493Y-43598D01*
X68493Y-43402D01*
X68493Y-42598D01*
X68493Y-42402D01*
X68493Y-41598D01*
X68493Y-41402D01*
X68493Y-40598D01*
X68493Y-40402D01*
X68493Y-39598D01*
X68493Y-39402D01*
X68493Y-36598D01*
X68493Y-36402D01*
X68493Y-35598D01*
X68493Y-35402D01*
X68493Y-34598D01*
X68493Y-34402D01*
X68493Y-33598D01*
X68493Y-33402D01*
X68493Y-32598D01*
X68493Y-32402D01*
X68418Y-32221D01*
X68279Y-32082D01*
X68098Y-32007D01*
X67902Y-32007D01*
X67721Y-32082D01*
X67582Y-32221D01*
X67507Y-32402D01*
X67507Y-32598D01*
X67582Y-32779D01*
X67721Y-32918D01*
X67902Y-32993D01*
X68098Y-32993D01*
X68279Y-32918D01*
X68418Y-32779D01*
X68493Y-32598D01*
X68493Y-33402D01*
X68418Y-33221D01*
X68279Y-33082D01*
X68098Y-33007D01*
X67902Y-33007D01*
X67721Y-33082D01*
X67582Y-33221D01*
X67507Y-33402D01*
X67507Y-33598D01*
X67582Y-33779D01*
X67721Y-33918D01*
X67902Y-33993D01*
X68098Y-33993D01*
X68279Y-33918D01*
X68418Y-33779D01*
X68493Y-33598D01*
X68493Y-34402D01*
X68418Y-34221D01*
X68279Y-34082D01*
X68098Y-34007D01*
X67902Y-34007D01*
X67721Y-34082D01*
X67582Y-34221D01*
X67507Y-34402D01*
X67507Y-34598D01*
X67582Y-34779D01*
X67721Y-34918D01*
X67902Y-34993D01*
X68098Y-34993D01*
X68279Y-34918D01*
X68418Y-34779D01*
X68493Y-34598D01*
X68493Y-35402D01*
X68418Y-35221D01*
X68279Y-35082D01*
X68098Y-35007D01*
X67902Y-35007D01*
X67721Y-35082D01*
X67582Y-35221D01*
X67507Y-35402D01*
X67507Y-35598D01*
X67582Y-35779D01*
X67721Y-35918D01*
X67902Y-35993D01*
X68098Y-35993D01*
X68279Y-35918D01*
X68418Y-35779D01*
X68493Y-35598D01*
X68493Y-36402D01*
X68418Y-36221D01*
X68279Y-36082D01*
X68098Y-36007D01*
X67902Y-36007D01*
X67721Y-36082D01*
X67582Y-36221D01*
X67507Y-36402D01*
X67507Y-36598D01*
X67582Y-36779D01*
X67721Y-36918D01*
X67902Y-36993D01*
X68098Y-36993D01*
X68279Y-36918D01*
X68418Y-36779D01*
X68493Y-36598D01*
X68493Y-39402D01*
X68418Y-39221D01*
X68279Y-39082D01*
X68098Y-39007D01*
X67902Y-39007D01*
X67721Y-39082D01*
X67582Y-39221D01*
X67507Y-39402D01*
X67507Y-39598D01*
X67582Y-39779D01*
X67721Y-39918D01*
X67902Y-39993D01*
X68098Y-39993D01*
X68279Y-39918D01*
X68418Y-39779D01*
X68493Y-39598D01*
X68493Y-40402D01*
X68418Y-40221D01*
X68279Y-40082D01*
X68098Y-40007D01*
X67902Y-40007D01*
X67721Y-40082D01*
X67582Y-40221D01*
X67507Y-40402D01*
X67507Y-40598D01*
X67582Y-40779D01*
X67721Y-40918D01*
X67902Y-40993D01*
X68098Y-40993D01*
X68279Y-40918D01*
X68418Y-40779D01*
X68493Y-40598D01*
X68493Y-41402D01*
X68418Y-41221D01*
X68279Y-41082D01*
X68098Y-41007D01*
X67902Y-41007D01*
X67721Y-41082D01*
X67582Y-41221D01*
X67507Y-41402D01*
X67507Y-41598D01*
X67582Y-41779D01*
X67721Y-41918D01*
X67902Y-41993D01*
X68098Y-41993D01*
X68279Y-41918D01*
X68418Y-41779D01*
X68493Y-41598D01*
X68493Y-42402D01*
X68418Y-42221D01*
X68279Y-42082D01*
X68098Y-42007D01*
X67902Y-42007D01*
X67721Y-42082D01*
X67582Y-42221D01*
X67507Y-42402D01*
X67507Y-42598D01*
X67582Y-42779D01*
X67721Y-42918D01*
X67902Y-42993D01*
X68098Y-42993D01*
X68279Y-42918D01*
X68418Y-42779D01*
X68493Y-42598D01*
X68493Y-43402D01*
X68418Y-43221D01*
X68279Y-43082D01*
X68098Y-43007D01*
X67902Y-43007D01*
X67721Y-43082D01*
X67582Y-43221D01*
X67507Y-43402D01*
X67507Y-43598D01*
X67582Y-43779D01*
X67721Y-43918D01*
X67902Y-43993D01*
X68098Y-43993D01*
X68279Y-43918D01*
X68418Y-43779D01*
X68493Y-43598D01*
X68493Y-45551D01*
X68411Y-45551D01*
X68246Y-45619D01*
X68120Y-45745D01*
X68051Y-45910D01*
X68051Y-46089D01*
X68119Y-46254D01*
X68245Y-46380D01*
X68410Y-46449D01*
X68589Y-46449D01*
X68754Y-46381D01*
X68880Y-46255D01*
X68949Y-46090D01*
X68949Y-46475D01*
X67949Y-46475D01*
X67949Y-46090D01*
X67949Y-45911D01*
X67881Y-45746D01*
X67755Y-45620D01*
X67590Y-45551D01*
X67493Y-45551D01*
X67493Y-43598D01*
X67493Y-43402D01*
X67493Y-42598D01*
X67493Y-42402D01*
X67493Y-41598D01*
X67493Y-41402D01*
X67493Y-40598D01*
X67493Y-40402D01*
X67493Y-39598D01*
X67493Y-39402D01*
X67493Y-36598D01*
X67493Y-36402D01*
X67493Y-35598D01*
X67493Y-35402D01*
X67493Y-34598D01*
X67493Y-34402D01*
X67493Y-33598D01*
X67493Y-33402D01*
X67493Y-32598D01*
X67493Y-32402D01*
X67418Y-32221D01*
X67279Y-32082D01*
X67098Y-32007D01*
X66902Y-32007D01*
X66721Y-32082D01*
X66582Y-32221D01*
X66507Y-32402D01*
X66507Y-32598D01*
X66582Y-32779D01*
X66721Y-32918D01*
X66902Y-32993D01*
X67098Y-32993D01*
X67279Y-32918D01*
X67418Y-32779D01*
X67493Y-32598D01*
X67493Y-33402D01*
X67418Y-33221D01*
X67279Y-33082D01*
X67098Y-33007D01*
X66902Y-33007D01*
X66721Y-33082D01*
X66582Y-33221D01*
X66507Y-33402D01*
X66507Y-33598D01*
X66582Y-33779D01*
X66721Y-33918D01*
X66902Y-33993D01*
X67098Y-33993D01*
X67279Y-33918D01*
X67418Y-33779D01*
X67493Y-33598D01*
X67493Y-34402D01*
X67418Y-34221D01*
X67279Y-34082D01*
X67098Y-34007D01*
X66902Y-34007D01*
X66721Y-34082D01*
X66582Y-34221D01*
X66507Y-34402D01*
X66507Y-34598D01*
X66582Y-34779D01*
X66721Y-34918D01*
X66902Y-34993D01*
X67098Y-34993D01*
X67279Y-34918D01*
X67418Y-34779D01*
X67493Y-34598D01*
X67493Y-35402D01*
X67418Y-35221D01*
X67279Y-35082D01*
X67098Y-35007D01*
X66902Y-35007D01*
X66721Y-35082D01*
X66582Y-35221D01*
X66507Y-35402D01*
X66507Y-35598D01*
X66582Y-35779D01*
X66721Y-35918D01*
X66902Y-35993D01*
X67098Y-35993D01*
X67279Y-35918D01*
X67418Y-35779D01*
X67493Y-35598D01*
X67493Y-36402D01*
X67418Y-36221D01*
X67279Y-36082D01*
X67098Y-36007D01*
X66902Y-36007D01*
X66721Y-36082D01*
X66582Y-36221D01*
X66507Y-36402D01*
X66507Y-36598D01*
X66582Y-36779D01*
X66721Y-36918D01*
X66902Y-36993D01*
X67098Y-36993D01*
X67279Y-36918D01*
X67418Y-36779D01*
X67493Y-36598D01*
X67493Y-39402D01*
X67418Y-39221D01*
X67279Y-39082D01*
X67098Y-39007D01*
X66902Y-39007D01*
X66721Y-39082D01*
X66582Y-39221D01*
X66507Y-39402D01*
X66507Y-39598D01*
X66582Y-39779D01*
X66721Y-39918D01*
X66902Y-39993D01*
X67098Y-39993D01*
X67279Y-39918D01*
X67418Y-39779D01*
X67493Y-39598D01*
X67493Y-40402D01*
X67418Y-40221D01*
X67279Y-40082D01*
X67098Y-40007D01*
X66902Y-40007D01*
X66721Y-40082D01*
X66582Y-40221D01*
X66507Y-40402D01*
X66507Y-40598D01*
X66582Y-40779D01*
X66721Y-40918D01*
X66902Y-40993D01*
X67098Y-40993D01*
X67279Y-40918D01*
X67418Y-40779D01*
X67493Y-40598D01*
X67493Y-41402D01*
X67418Y-41221D01*
X67279Y-41082D01*
X67098Y-41007D01*
X66902Y-41007D01*
X66721Y-41082D01*
X66582Y-41221D01*
X66507Y-41402D01*
X66507Y-41598D01*
X66582Y-41779D01*
X66721Y-41918D01*
X66902Y-41993D01*
X67098Y-41993D01*
X67279Y-41918D01*
X67418Y-41779D01*
X67493Y-41598D01*
X67493Y-42402D01*
X67418Y-42221D01*
X67279Y-42082D01*
X67098Y-42007D01*
X66902Y-42007D01*
X66721Y-42082D01*
X66582Y-42221D01*
X66507Y-42402D01*
X66507Y-42598D01*
X66582Y-42779D01*
X66721Y-42918D01*
X66902Y-42993D01*
X67098Y-42993D01*
X67279Y-42918D01*
X67418Y-42779D01*
X67493Y-42598D01*
X67493Y-43402D01*
X67418Y-43221D01*
X67279Y-43082D01*
X67098Y-43007D01*
X66902Y-43007D01*
X66721Y-43082D01*
X66582Y-43221D01*
X66507Y-43402D01*
X66507Y-43598D01*
X66582Y-43779D01*
X66721Y-43918D01*
X66902Y-43993D01*
X67098Y-43993D01*
X67279Y-43918D01*
X67418Y-43779D01*
X67493Y-43598D01*
X67493Y-45551D01*
X67411Y-45551D01*
X67246Y-45619D01*
X67120Y-45745D01*
X67051Y-45910D01*
X67051Y-46089D01*
X67119Y-46254D01*
X67245Y-46380D01*
X67410Y-46449D01*
X67589Y-46449D01*
X67754Y-46381D01*
X67880Y-46255D01*
X67949Y-46090D01*
X67949Y-46475D01*
X66949Y-46475D01*
X66949Y-46090D01*
X66949Y-45911D01*
X66881Y-45746D01*
X66755Y-45620D01*
X66590Y-45551D01*
X66493Y-45551D01*
X66493Y-43598D01*
X66493Y-43402D01*
X66493Y-42598D01*
X66493Y-42402D01*
X66493Y-41598D01*
X66493Y-41402D01*
X66493Y-40598D01*
X66493Y-40402D01*
X66493Y-39598D01*
X66493Y-39402D01*
X66493Y-36598D01*
X66493Y-36402D01*
X66493Y-35598D01*
X66493Y-35402D01*
X66493Y-34598D01*
X66493Y-34402D01*
X66493Y-33598D01*
X66493Y-33402D01*
X66493Y-32598D01*
X66493Y-32402D01*
X66418Y-32221D01*
X66279Y-32082D01*
X66098Y-32007D01*
X65902Y-32007D01*
X65721Y-32082D01*
X65582Y-32221D01*
X65507Y-32402D01*
X65507Y-32598D01*
X65582Y-32779D01*
X65721Y-32918D01*
X65902Y-32993D01*
X66098Y-32993D01*
X66279Y-32918D01*
X66418Y-32779D01*
X66493Y-32598D01*
X66493Y-33402D01*
X66418Y-33221D01*
X66279Y-33082D01*
X66098Y-33007D01*
X65902Y-33007D01*
X65721Y-33082D01*
X65582Y-33221D01*
X65507Y-33402D01*
X65507Y-33598D01*
X65582Y-33779D01*
X65721Y-33918D01*
X65902Y-33993D01*
X66098Y-33993D01*
X66279Y-33918D01*
X66418Y-33779D01*
X66493Y-33598D01*
X66493Y-34402D01*
X66418Y-34221D01*
X66279Y-34082D01*
X66098Y-34007D01*
X65902Y-34007D01*
X65721Y-34082D01*
X65582Y-34221D01*
X65507Y-34402D01*
X65507Y-34598D01*
X65582Y-34779D01*
X65721Y-34918D01*
X65902Y-34993D01*
X66098Y-34993D01*
X66279Y-34918D01*
X66418Y-34779D01*
X66493Y-34598D01*
X66493Y-35402D01*
X66418Y-35221D01*
X66279Y-35082D01*
X66098Y-35007D01*
X65902Y-35007D01*
X65721Y-35082D01*
X65582Y-35221D01*
X65507Y-35402D01*
X65507Y-35598D01*
X65582Y-35779D01*
X65721Y-35918D01*
X65902Y-35993D01*
X66098Y-35993D01*
X66279Y-35918D01*
X66418Y-35779D01*
X66493Y-35598D01*
X66493Y-36402D01*
X66418Y-36221D01*
X66279Y-36082D01*
X66098Y-36007D01*
X65902Y-36007D01*
X65721Y-36082D01*
X65582Y-36221D01*
X65507Y-36402D01*
X65507Y-36598D01*
X65582Y-36779D01*
X65721Y-36918D01*
X65902Y-36993D01*
X66098Y-36993D01*
X66279Y-36918D01*
X66418Y-36779D01*
X66493Y-36598D01*
X66493Y-39402D01*
X66418Y-39221D01*
X66279Y-39082D01*
X66098Y-39007D01*
X65902Y-39007D01*
X65721Y-39082D01*
X65582Y-39221D01*
X65507Y-39402D01*
X65507Y-39598D01*
X65582Y-39779D01*
X65721Y-39918D01*
X65902Y-39993D01*
X66098Y-39993D01*
X66279Y-39918D01*
X66418Y-39779D01*
X66493Y-39598D01*
X66493Y-40402D01*
X66418Y-40221D01*
X66279Y-40082D01*
X66098Y-40007D01*
X65902Y-40007D01*
X65721Y-40082D01*
X65582Y-40221D01*
X65507Y-40402D01*
X65507Y-40598D01*
X65582Y-40779D01*
X65721Y-40918D01*
X65902Y-40993D01*
X66098Y-40993D01*
X66279Y-40918D01*
X66418Y-40779D01*
X66493Y-40598D01*
X66493Y-41402D01*
X66418Y-41221D01*
X66279Y-41082D01*
X66098Y-41007D01*
X65902Y-41007D01*
X65721Y-41082D01*
X65582Y-41221D01*
X65507Y-41402D01*
X65507Y-41598D01*
X65582Y-41779D01*
X65721Y-41918D01*
X65902Y-41993D01*
X66098Y-41993D01*
X66279Y-41918D01*
X66418Y-41779D01*
X66493Y-41598D01*
X66493Y-42402D01*
X66418Y-42221D01*
X66279Y-42082D01*
X66098Y-42007D01*
X65902Y-42007D01*
X65721Y-42082D01*
X65582Y-42221D01*
X65507Y-42402D01*
X65507Y-42598D01*
X65582Y-42779D01*
X65721Y-42918D01*
X65902Y-42993D01*
X66098Y-42993D01*
X66279Y-42918D01*
X66418Y-42779D01*
X66493Y-42598D01*
X66493Y-43402D01*
X66418Y-43221D01*
X66279Y-43082D01*
X66098Y-43007D01*
X65902Y-43007D01*
X65721Y-43082D01*
X65582Y-43221D01*
X65507Y-43402D01*
X65507Y-43598D01*
X65582Y-43779D01*
X65721Y-43918D01*
X65902Y-43993D01*
X66098Y-43993D01*
X66279Y-43918D01*
X66418Y-43779D01*
X66493Y-43598D01*
X66493Y-45551D01*
X66411Y-45551D01*
X66246Y-45619D01*
X66120Y-45745D01*
X66051Y-45910D01*
X66051Y-46089D01*
X66119Y-46254D01*
X66245Y-46380D01*
X66410Y-46449D01*
X66589Y-46449D01*
X66754Y-46381D01*
X66880Y-46255D01*
X66949Y-46090D01*
X66949Y-46475D01*
X65949Y-46475D01*
X65949Y-46090D01*
X65949Y-45911D01*
X65881Y-45746D01*
X65755Y-45620D01*
X65590Y-45551D01*
X65493Y-45551D01*
X65493Y-43598D01*
X65493Y-43402D01*
X65493Y-42598D01*
X65493Y-42402D01*
X65493Y-41598D01*
X65493Y-41402D01*
X65493Y-40598D01*
X65493Y-40402D01*
X65493Y-39598D01*
X65493Y-39402D01*
X65493Y-36598D01*
X65493Y-36402D01*
X65493Y-35598D01*
X65493Y-35402D01*
X65493Y-34598D01*
X65493Y-34402D01*
X65493Y-33598D01*
X65493Y-33402D01*
X65493Y-32598D01*
X65493Y-32402D01*
X65418Y-32221D01*
X65279Y-32082D01*
X65098Y-32007D01*
X64902Y-32007D01*
X64721Y-32082D01*
X64582Y-32221D01*
X64507Y-32402D01*
X64507Y-32598D01*
X64582Y-32779D01*
X64721Y-32918D01*
X64902Y-32993D01*
X65098Y-32993D01*
X65279Y-32918D01*
X65418Y-32779D01*
X65493Y-32598D01*
X65493Y-33402D01*
X65418Y-33221D01*
X65279Y-33082D01*
X65098Y-33007D01*
X64902Y-33007D01*
X64721Y-33082D01*
X64582Y-33221D01*
X64507Y-33402D01*
X64507Y-33598D01*
X64582Y-33779D01*
X64721Y-33918D01*
X64902Y-33993D01*
X65098Y-33993D01*
X65279Y-33918D01*
X65418Y-33779D01*
X65493Y-33598D01*
X65493Y-34402D01*
X65418Y-34221D01*
X65279Y-34082D01*
X65098Y-34007D01*
X64902Y-34007D01*
X64721Y-34082D01*
X64582Y-34221D01*
X64507Y-34402D01*
X64507Y-34598D01*
X64582Y-34779D01*
X64721Y-34918D01*
X64902Y-34993D01*
X65098Y-34993D01*
X65279Y-34918D01*
X65418Y-34779D01*
X65493Y-34598D01*
X65493Y-35402D01*
X65418Y-35221D01*
X65279Y-35082D01*
X65098Y-35007D01*
X64902Y-35007D01*
X64721Y-35082D01*
X64582Y-35221D01*
X64507Y-35402D01*
X64507Y-35598D01*
X64582Y-35779D01*
X64721Y-35918D01*
X64902Y-35993D01*
X65098Y-35993D01*
X65279Y-35918D01*
X65418Y-35779D01*
X65493Y-35598D01*
X65493Y-36402D01*
X65418Y-36221D01*
X65279Y-36082D01*
X65098Y-36007D01*
X64902Y-36007D01*
X64721Y-36082D01*
X64582Y-36221D01*
X64507Y-36402D01*
X64507Y-36598D01*
X64582Y-36779D01*
X64721Y-36918D01*
X64902Y-36993D01*
X65098Y-36993D01*
X65279Y-36918D01*
X65418Y-36779D01*
X65493Y-36598D01*
X65493Y-39402D01*
X65418Y-39221D01*
X65279Y-39082D01*
X65098Y-39007D01*
X64902Y-39007D01*
X64721Y-39082D01*
X64582Y-39221D01*
X64507Y-39402D01*
X64507Y-39598D01*
X64582Y-39779D01*
X64721Y-39918D01*
X64902Y-39993D01*
X65098Y-39993D01*
X65279Y-39918D01*
X65418Y-39779D01*
X65493Y-39598D01*
X65493Y-40402D01*
X65418Y-40221D01*
X65279Y-40082D01*
X65098Y-40007D01*
X64902Y-40007D01*
X64721Y-40082D01*
X64582Y-40221D01*
X64507Y-40402D01*
X64507Y-40598D01*
X64582Y-40779D01*
X64721Y-40918D01*
X64902Y-40993D01*
X65098Y-40993D01*
X65279Y-40918D01*
X65418Y-40779D01*
X65493Y-40598D01*
X65493Y-41402D01*
X65418Y-41221D01*
X65279Y-41082D01*
X65098Y-41007D01*
X64902Y-41007D01*
X64721Y-41082D01*
X64582Y-41221D01*
X64507Y-41402D01*
X64507Y-41598D01*
X64582Y-41779D01*
X64721Y-41918D01*
X64902Y-41993D01*
X65098Y-41993D01*
X65279Y-41918D01*
X65418Y-41779D01*
X65493Y-41598D01*
X65493Y-42402D01*
X65418Y-42221D01*
X65279Y-42082D01*
X65098Y-42007D01*
X64902Y-42007D01*
X64721Y-42082D01*
X64582Y-42221D01*
X64507Y-42402D01*
X64507Y-42598D01*
X64582Y-42779D01*
X64721Y-42918D01*
X64902Y-42993D01*
X65098Y-42993D01*
X65279Y-42918D01*
X65418Y-42779D01*
X65493Y-42598D01*
X65493Y-43402D01*
X65418Y-43221D01*
X65279Y-43082D01*
X65098Y-43007D01*
X64902Y-43007D01*
X64721Y-43082D01*
X64582Y-43221D01*
X64507Y-43402D01*
X64507Y-43598D01*
X64582Y-43779D01*
X64721Y-43918D01*
X64902Y-43993D01*
X65098Y-43993D01*
X65279Y-43918D01*
X65418Y-43779D01*
X65493Y-43598D01*
X65493Y-45551D01*
X65411Y-45551D01*
X65246Y-45619D01*
X65120Y-45745D01*
X65051Y-45910D01*
X65051Y-46089D01*
X65119Y-46254D01*
X65245Y-46380D01*
X65410Y-46449D01*
X65589Y-46449D01*
X65754Y-46381D01*
X65880Y-46255D01*
X65949Y-46090D01*
X65949Y-46475D01*
X64493Y-46475D01*
X64493Y-43598D01*
X64493Y-43402D01*
X64493Y-42598D01*
X64493Y-42402D01*
X64493Y-41598D01*
X64493Y-41402D01*
X64493Y-40598D01*
X64493Y-40402D01*
X64493Y-39598D01*
X64493Y-39402D01*
X64493Y-36598D01*
X64493Y-36402D01*
X64493Y-35598D01*
X64493Y-35402D01*
X64493Y-34598D01*
X64493Y-34402D01*
X64493Y-33598D01*
X64493Y-33402D01*
X64493Y-32598D01*
X64493Y-32402D01*
X64418Y-32221D01*
X64279Y-32082D01*
X64098Y-32007D01*
X63902Y-32007D01*
X63721Y-32082D01*
X63582Y-32221D01*
X63507Y-32402D01*
X63507Y-32598D01*
X63582Y-32779D01*
X63721Y-32918D01*
X63902Y-32993D01*
X64098Y-32993D01*
X64279Y-32918D01*
X64418Y-32779D01*
X64493Y-32598D01*
X64493Y-33402D01*
X64418Y-33221D01*
X64279Y-33082D01*
X64098Y-33007D01*
X63902Y-33007D01*
X63721Y-33082D01*
X63582Y-33221D01*
X63507Y-33402D01*
X63507Y-33598D01*
X63582Y-33779D01*
X63721Y-33918D01*
X63902Y-33993D01*
X64098Y-33993D01*
X64279Y-33918D01*
X64418Y-33779D01*
X64493Y-33598D01*
X64493Y-34402D01*
X64418Y-34221D01*
X64279Y-34082D01*
X64098Y-34007D01*
X63902Y-34007D01*
X63721Y-34082D01*
X63582Y-34221D01*
X63507Y-34402D01*
X63507Y-34598D01*
X63582Y-34779D01*
X63721Y-34918D01*
X63902Y-34993D01*
X64098Y-34993D01*
X64279Y-34918D01*
X64418Y-34779D01*
X64493Y-34598D01*
X64493Y-35402D01*
X64418Y-35221D01*
X64279Y-35082D01*
X64098Y-35007D01*
X63902Y-35007D01*
X63721Y-35082D01*
X63582Y-35221D01*
X63507Y-35402D01*
X63507Y-35598D01*
X63582Y-35779D01*
X63721Y-35918D01*
X63902Y-35993D01*
X64098Y-35993D01*
X64279Y-35918D01*
X64418Y-35779D01*
X64493Y-35598D01*
X64493Y-36402D01*
X64418Y-36221D01*
X64279Y-36082D01*
X64098Y-36007D01*
X63902Y-36007D01*
X63721Y-36082D01*
X63582Y-36221D01*
X63507Y-36402D01*
X63507Y-36598D01*
X63582Y-36779D01*
X63721Y-36918D01*
X63902Y-36993D01*
X64098Y-36993D01*
X64279Y-36918D01*
X64418Y-36779D01*
X64493Y-36598D01*
X64493Y-39402D01*
X64418Y-39221D01*
X64279Y-39082D01*
X64098Y-39007D01*
X63902Y-39007D01*
X63721Y-39082D01*
X63582Y-39221D01*
X63507Y-39402D01*
X63507Y-39598D01*
X63582Y-39779D01*
X63721Y-39918D01*
X63902Y-39993D01*
X64098Y-39993D01*
X64279Y-39918D01*
X64418Y-39779D01*
X64493Y-39598D01*
X64493Y-40402D01*
X64418Y-40221D01*
X64279Y-40082D01*
X64098Y-40007D01*
X63902Y-40007D01*
X63721Y-40082D01*
X63582Y-40221D01*
X63507Y-40402D01*
X63507Y-40598D01*
X63582Y-40779D01*
X63721Y-40918D01*
X63902Y-40993D01*
X64098Y-40993D01*
X64279Y-40918D01*
X64418Y-40779D01*
X64493Y-40598D01*
X64493Y-41402D01*
X64418Y-41221D01*
X64279Y-41082D01*
X64098Y-41007D01*
X63902Y-41007D01*
X63721Y-41082D01*
X63582Y-41221D01*
X63507Y-41402D01*
X63507Y-41598D01*
X63582Y-41779D01*
X63721Y-41918D01*
X63902Y-41993D01*
X64098Y-41993D01*
X64279Y-41918D01*
X64418Y-41779D01*
X64493Y-41598D01*
X64493Y-42402D01*
X64418Y-42221D01*
X64279Y-42082D01*
X64098Y-42007D01*
X63902Y-42007D01*
X63721Y-42082D01*
X63582Y-42221D01*
X63507Y-42402D01*
X63507Y-42598D01*
X63582Y-42779D01*
X63721Y-42918D01*
X63902Y-42993D01*
X64098Y-42993D01*
X64279Y-42918D01*
X64418Y-42779D01*
X64493Y-42598D01*
X64493Y-43402D01*
X64418Y-43221D01*
X64279Y-43082D01*
X64098Y-43007D01*
X63902Y-43007D01*
X63721Y-43082D01*
X63582Y-43221D01*
X63507Y-43402D01*
X63507Y-43598D01*
X63582Y-43779D01*
X63721Y-43918D01*
X63902Y-43993D01*
X64098Y-43993D01*
X64279Y-43918D01*
X64418Y-43779D01*
X64493Y-43598D01*
X64493Y-46475D01*
X63949Y-46475D01*
X63949Y-46090D01*
X63949Y-45911D01*
X63881Y-45746D01*
X63755Y-45620D01*
X63590Y-45551D01*
X63493Y-45551D01*
X63493Y-43598D01*
X63493Y-43402D01*
X63493Y-42598D01*
X63493Y-42402D01*
X63493Y-41598D01*
X63493Y-41402D01*
X63493Y-40598D01*
X63493Y-40402D01*
X63493Y-39598D01*
X63493Y-39402D01*
X63493Y-36598D01*
X63493Y-36402D01*
X63493Y-35598D01*
X63493Y-35402D01*
X63493Y-34598D01*
X63493Y-34402D01*
X63493Y-33598D01*
X63493Y-33402D01*
X63493Y-32598D01*
X63493Y-32402D01*
X63418Y-32221D01*
X63279Y-32082D01*
X63098Y-32007D01*
X62902Y-32007D01*
X62721Y-32082D01*
X62582Y-32221D01*
X62507Y-32402D01*
X62507Y-32598D01*
X62582Y-32779D01*
X62721Y-32918D01*
X62902Y-32993D01*
X63098Y-32993D01*
X63279Y-32918D01*
X63418Y-32779D01*
X63493Y-32598D01*
X63493Y-33402D01*
X63418Y-33221D01*
X63279Y-33082D01*
X63098Y-33007D01*
X62902Y-33007D01*
X62721Y-33082D01*
X62582Y-33221D01*
X62507Y-33402D01*
X62507Y-33598D01*
X62582Y-33779D01*
X62721Y-33918D01*
X62902Y-33993D01*
X63098Y-33993D01*
X63279Y-33918D01*
X63418Y-33779D01*
X63493Y-33598D01*
X63493Y-34402D01*
X63418Y-34221D01*
X63279Y-34082D01*
X63098Y-34007D01*
X62902Y-34007D01*
X62721Y-34082D01*
X62582Y-34221D01*
X62507Y-34402D01*
X62507Y-34598D01*
X62582Y-34779D01*
X62721Y-34918D01*
X62902Y-34993D01*
X63098Y-34993D01*
X63279Y-34918D01*
X63418Y-34779D01*
X63493Y-34598D01*
X63493Y-35402D01*
X63418Y-35221D01*
X63279Y-35082D01*
X63098Y-35007D01*
X62902Y-35007D01*
X62721Y-35082D01*
X62582Y-35221D01*
X62507Y-35402D01*
X62507Y-35598D01*
X62582Y-35779D01*
X62721Y-35918D01*
X62902Y-35993D01*
X63098Y-35993D01*
X63279Y-35918D01*
X63418Y-35779D01*
X63493Y-35598D01*
X63493Y-36402D01*
X63418Y-36221D01*
X63279Y-36082D01*
X63098Y-36007D01*
X62902Y-36007D01*
X62721Y-36082D01*
X62582Y-36221D01*
X62507Y-36402D01*
X62507Y-36598D01*
X62582Y-36779D01*
X62721Y-36918D01*
X62902Y-36993D01*
X63098Y-36993D01*
X63279Y-36918D01*
X63418Y-36779D01*
X63493Y-36598D01*
X63493Y-39402D01*
X63418Y-39221D01*
X63279Y-39082D01*
X63098Y-39007D01*
X62902Y-39007D01*
X62721Y-39082D01*
X62582Y-39221D01*
X62507Y-39402D01*
X62507Y-39598D01*
X62582Y-39779D01*
X62721Y-39918D01*
X62902Y-39993D01*
X63098Y-39993D01*
X63279Y-39918D01*
X63418Y-39779D01*
X63493Y-39598D01*
X63493Y-40402D01*
X63418Y-40221D01*
X63279Y-40082D01*
X63098Y-40007D01*
X62902Y-40007D01*
X62721Y-40082D01*
X62582Y-40221D01*
X62507Y-40402D01*
X62507Y-40598D01*
X62582Y-40779D01*
X62721Y-40918D01*
X62902Y-40993D01*
X63098Y-40993D01*
X63279Y-40918D01*
X63418Y-40779D01*
X63493Y-40598D01*
X63493Y-41402D01*
X63418Y-41221D01*
X63279Y-41082D01*
X63098Y-41007D01*
X62902Y-41007D01*
X62721Y-41082D01*
X62582Y-41221D01*
X62507Y-41402D01*
X62507Y-41598D01*
X62582Y-41779D01*
X62721Y-41918D01*
X62902Y-41993D01*
X63098Y-41993D01*
X63279Y-41918D01*
X63418Y-41779D01*
X63493Y-41598D01*
X63493Y-42402D01*
X63418Y-42221D01*
X63279Y-42082D01*
X63098Y-42007D01*
X62902Y-42007D01*
X62721Y-42082D01*
X62582Y-42221D01*
X62507Y-42402D01*
X62507Y-42598D01*
X62582Y-42779D01*
X62721Y-42918D01*
X62902Y-42993D01*
X63098Y-42993D01*
X63279Y-42918D01*
X63418Y-42779D01*
X63493Y-42598D01*
X63493Y-43402D01*
X63418Y-43221D01*
X63279Y-43082D01*
X63098Y-43007D01*
X62902Y-43007D01*
X62721Y-43082D01*
X62582Y-43221D01*
X62507Y-43402D01*
X62507Y-43598D01*
X62582Y-43779D01*
X62721Y-43918D01*
X62902Y-43993D01*
X63098Y-43993D01*
X63279Y-43918D01*
X63418Y-43779D01*
X63493Y-43598D01*
X63493Y-45551D01*
X63411Y-45551D01*
X63246Y-45619D01*
X63120Y-45745D01*
X63051Y-45910D01*
X63051Y-46089D01*
X63119Y-46254D01*
X63245Y-46380D01*
X63410Y-46449D01*
X63589Y-46449D01*
X63754Y-46381D01*
X63880Y-46255D01*
X63949Y-46090D01*
X63949Y-46475D01*
X62949Y-46475D01*
X62949Y-46090D01*
X62949Y-45911D01*
X62881Y-45746D01*
X62755Y-45620D01*
X62590Y-45551D01*
X62493Y-45551D01*
X62493Y-43598D01*
X62493Y-43402D01*
X62493Y-42598D01*
X62493Y-42402D01*
X62493Y-41598D01*
X62493Y-41402D01*
X62493Y-40598D01*
X62493Y-40402D01*
X62493Y-39598D01*
X62493Y-39402D01*
X62493Y-36598D01*
X62493Y-36402D01*
X62493Y-35598D01*
X62493Y-35402D01*
X62493Y-34598D01*
X62493Y-34402D01*
X62493Y-33598D01*
X62493Y-33402D01*
X62493Y-32598D01*
X62493Y-32402D01*
X62418Y-32221D01*
X62279Y-32082D01*
X62098Y-32007D01*
X61902Y-32007D01*
X61721Y-32082D01*
X61582Y-32221D01*
X61507Y-32402D01*
X61507Y-32598D01*
X61582Y-32779D01*
X61721Y-32918D01*
X61902Y-32993D01*
X62098Y-32993D01*
X62279Y-32918D01*
X62418Y-32779D01*
X62493Y-32598D01*
X62493Y-33402D01*
X62418Y-33221D01*
X62279Y-33082D01*
X62098Y-33007D01*
X61902Y-33007D01*
X61721Y-33082D01*
X61582Y-33221D01*
X61507Y-33402D01*
X61507Y-33598D01*
X61582Y-33779D01*
X61721Y-33918D01*
X61902Y-33993D01*
X62098Y-33993D01*
X62279Y-33918D01*
X62418Y-33779D01*
X62493Y-33598D01*
X62493Y-34402D01*
X62418Y-34221D01*
X62279Y-34082D01*
X62098Y-34007D01*
X61902Y-34007D01*
X61721Y-34082D01*
X61582Y-34221D01*
X61507Y-34402D01*
X61507Y-34598D01*
X61582Y-34779D01*
X61721Y-34918D01*
X61902Y-34993D01*
X62098Y-34993D01*
X62279Y-34918D01*
X62418Y-34779D01*
X62493Y-34598D01*
X62493Y-35402D01*
X62418Y-35221D01*
X62279Y-35082D01*
X62098Y-35007D01*
X61902Y-35007D01*
X61721Y-35082D01*
X61582Y-35221D01*
X61507Y-35402D01*
X61507Y-35598D01*
X61582Y-35779D01*
X61721Y-35918D01*
X61902Y-35993D01*
X62098Y-35993D01*
X62279Y-35918D01*
X62418Y-35779D01*
X62493Y-35598D01*
X62493Y-36402D01*
X62418Y-36221D01*
X62279Y-36082D01*
X62098Y-36007D01*
X61902Y-36007D01*
X61721Y-36082D01*
X61582Y-36221D01*
X61507Y-36402D01*
X61507Y-36598D01*
X61582Y-36779D01*
X61721Y-36918D01*
X61902Y-36993D01*
X62098Y-36993D01*
X62279Y-36918D01*
X62418Y-36779D01*
X62493Y-36598D01*
X62493Y-39402D01*
X62418Y-39221D01*
X62279Y-39082D01*
X62098Y-39007D01*
X61902Y-39007D01*
X61721Y-39082D01*
X61582Y-39221D01*
X61507Y-39402D01*
X61507Y-39598D01*
X61582Y-39779D01*
X61721Y-39918D01*
X61902Y-39993D01*
X62098Y-39993D01*
X62279Y-39918D01*
X62418Y-39779D01*
X62493Y-39598D01*
X62493Y-40402D01*
X62418Y-40221D01*
X62279Y-40082D01*
X62098Y-40007D01*
X61902Y-40007D01*
X61721Y-40082D01*
X61582Y-40221D01*
X61507Y-40402D01*
X61507Y-40598D01*
X61582Y-40779D01*
X61721Y-40918D01*
X61902Y-40993D01*
X62098Y-40993D01*
X62279Y-40918D01*
X62418Y-40779D01*
X62493Y-40598D01*
X62493Y-41402D01*
X62418Y-41221D01*
X62279Y-41082D01*
X62098Y-41007D01*
X61902Y-41007D01*
X61721Y-41082D01*
X61582Y-41221D01*
X61507Y-41402D01*
X61507Y-41598D01*
X61582Y-41779D01*
X61721Y-41918D01*
X61902Y-41993D01*
X62098Y-41993D01*
X62279Y-41918D01*
X62418Y-41779D01*
X62493Y-41598D01*
X62493Y-42402D01*
X62418Y-42221D01*
X62279Y-42082D01*
X62098Y-42007D01*
X61902Y-42007D01*
X61721Y-42082D01*
X61582Y-42221D01*
X61507Y-42402D01*
X61507Y-42598D01*
X61582Y-42779D01*
X61721Y-42918D01*
X61902Y-42993D01*
X62098Y-42993D01*
X62279Y-42918D01*
X62418Y-42779D01*
X62493Y-42598D01*
X62493Y-43402D01*
X62418Y-43221D01*
X62279Y-43082D01*
X62098Y-43007D01*
X61902Y-43007D01*
X61721Y-43082D01*
X61582Y-43221D01*
X61507Y-43402D01*
X61507Y-43598D01*
X61582Y-43779D01*
X61721Y-43918D01*
X61902Y-43993D01*
X62098Y-43993D01*
X62279Y-43918D01*
X62418Y-43779D01*
X62493Y-43598D01*
X62493Y-45551D01*
X62411Y-45551D01*
X62246Y-45619D01*
X62120Y-45745D01*
X62051Y-45910D01*
X62051Y-46089D01*
X62119Y-46254D01*
X62245Y-46380D01*
X62410Y-46449D01*
X62589Y-46449D01*
X62754Y-46381D01*
X62880Y-46255D01*
X62949Y-46090D01*
X62949Y-46475D01*
X61949Y-46475D01*
X61949Y-46090D01*
X61949Y-45911D01*
X61881Y-45746D01*
X61755Y-45620D01*
X61590Y-45551D01*
X61493Y-45551D01*
X61493Y-43598D01*
X61493Y-43402D01*
X61493Y-42598D01*
X61493Y-42402D01*
X61493Y-41598D01*
X61493Y-41402D01*
X61493Y-40598D01*
X61493Y-40402D01*
X61493Y-39598D01*
X61493Y-39402D01*
X61493Y-36598D01*
X61493Y-36402D01*
X61493Y-35598D01*
X61493Y-35402D01*
X61493Y-34598D01*
X61493Y-34402D01*
X61493Y-33598D01*
X61493Y-33402D01*
X61493Y-32598D01*
X61493Y-32402D01*
X61418Y-32221D01*
X61279Y-32082D01*
X61098Y-32007D01*
X60902Y-32007D01*
X60721Y-32082D01*
X60582Y-32221D01*
X60507Y-32402D01*
X60507Y-32598D01*
X60582Y-32779D01*
X60721Y-32918D01*
X60902Y-32993D01*
X61098Y-32993D01*
X61279Y-32918D01*
X61418Y-32779D01*
X61493Y-32598D01*
X61493Y-33402D01*
X61418Y-33221D01*
X61279Y-33082D01*
X61098Y-33007D01*
X60902Y-33007D01*
X60721Y-33082D01*
X60582Y-33221D01*
X60507Y-33402D01*
X60507Y-33598D01*
X60582Y-33779D01*
X60721Y-33918D01*
X60902Y-33993D01*
X61098Y-33993D01*
X61279Y-33918D01*
X61418Y-33779D01*
X61493Y-33598D01*
X61493Y-34402D01*
X61418Y-34221D01*
X61279Y-34082D01*
X61098Y-34007D01*
X60902Y-34007D01*
X60721Y-34082D01*
X60582Y-34221D01*
X60507Y-34402D01*
X60507Y-34598D01*
X60582Y-34779D01*
X60721Y-34918D01*
X60902Y-34993D01*
X61098Y-34993D01*
X61279Y-34918D01*
X61418Y-34779D01*
X61493Y-34598D01*
X61493Y-35402D01*
X61418Y-35221D01*
X61279Y-35082D01*
X61098Y-35007D01*
X60902Y-35007D01*
X60721Y-35082D01*
X60582Y-35221D01*
X60507Y-35402D01*
X60507Y-35598D01*
X60582Y-35779D01*
X60721Y-35918D01*
X60902Y-35993D01*
X61098Y-35993D01*
X61279Y-35918D01*
X61418Y-35779D01*
X61493Y-35598D01*
X61493Y-36402D01*
X61418Y-36221D01*
X61279Y-36082D01*
X61098Y-36007D01*
X60902Y-36007D01*
X60721Y-36082D01*
X60582Y-36221D01*
X60507Y-36402D01*
X60507Y-36598D01*
X60582Y-36779D01*
X60721Y-36918D01*
X60902Y-36993D01*
X61098Y-36993D01*
X61279Y-36918D01*
X61418Y-36779D01*
X61493Y-36598D01*
X61493Y-39402D01*
X61418Y-39221D01*
X61279Y-39082D01*
X61098Y-39007D01*
X60902Y-39007D01*
X60721Y-39082D01*
X60582Y-39221D01*
X60507Y-39402D01*
X60507Y-39598D01*
X60582Y-39779D01*
X60721Y-39918D01*
X60902Y-39993D01*
X61098Y-39993D01*
X61279Y-39918D01*
X61418Y-39779D01*
X61493Y-39598D01*
X61493Y-40402D01*
X61418Y-40221D01*
X61279Y-40082D01*
X61098Y-40007D01*
X60902Y-40007D01*
X60721Y-40082D01*
X60582Y-40221D01*
X60507Y-40402D01*
X60507Y-40598D01*
X60582Y-40779D01*
X60721Y-40918D01*
X60902Y-40993D01*
X61098Y-40993D01*
X61279Y-40918D01*
X61418Y-40779D01*
X61493Y-40598D01*
X61493Y-41402D01*
X61418Y-41221D01*
X61279Y-41082D01*
X61098Y-41007D01*
X60902Y-41007D01*
X60721Y-41082D01*
X60582Y-41221D01*
X60507Y-41402D01*
X60507Y-41598D01*
X60582Y-41779D01*
X60721Y-41918D01*
X60902Y-41993D01*
X61098Y-41993D01*
X61279Y-41918D01*
X61418Y-41779D01*
X61493Y-41598D01*
X61493Y-42402D01*
X61418Y-42221D01*
X61279Y-42082D01*
X61098Y-42007D01*
X60902Y-42007D01*
X60721Y-42082D01*
X60582Y-42221D01*
X60507Y-42402D01*
X60507Y-42598D01*
X60582Y-42779D01*
X60721Y-42918D01*
X60902Y-42993D01*
X61098Y-42993D01*
X61279Y-42918D01*
X61418Y-42779D01*
X61493Y-42598D01*
X61493Y-43402D01*
X61418Y-43221D01*
X61279Y-43082D01*
X61098Y-43007D01*
X60902Y-43007D01*
X60721Y-43082D01*
X60582Y-43221D01*
X60507Y-43402D01*
X60507Y-43598D01*
X60582Y-43779D01*
X60721Y-43918D01*
X60902Y-43993D01*
X61098Y-43993D01*
X61279Y-43918D01*
X61418Y-43779D01*
X61493Y-43598D01*
X61493Y-45551D01*
X61411Y-45551D01*
X61246Y-45619D01*
X61120Y-45745D01*
X61051Y-45910D01*
X61051Y-46089D01*
X61119Y-46254D01*
X61245Y-46380D01*
X61410Y-46449D01*
X61589Y-46449D01*
X61754Y-46381D01*
X61880Y-46255D01*
X61949Y-46090D01*
X61949Y-46475D01*
X60949Y-46475D01*
X60949Y-46090D01*
X60949Y-45911D01*
X60881Y-45746D01*
X60755Y-45620D01*
X60590Y-45551D01*
X60493Y-45551D01*
X60493Y-43598D01*
X60493Y-43402D01*
X60493Y-42598D01*
X60493Y-42402D01*
X60493Y-41598D01*
X60493Y-41402D01*
X60493Y-40598D01*
X60493Y-40402D01*
X60493Y-39598D01*
X60493Y-39402D01*
X60493Y-36598D01*
X60493Y-36402D01*
X60493Y-35598D01*
X60493Y-35402D01*
X60493Y-34598D01*
X60493Y-34402D01*
X60493Y-33598D01*
X60493Y-33402D01*
X60493Y-32598D01*
X60493Y-32402D01*
X60418Y-32221D01*
X60279Y-32082D01*
X60098Y-32007D01*
X59902Y-32007D01*
X59721Y-32082D01*
X59582Y-32221D01*
X59507Y-32402D01*
X59507Y-32598D01*
X59582Y-32779D01*
X59721Y-32918D01*
X59902Y-32993D01*
X60098Y-32993D01*
X60279Y-32918D01*
X60418Y-32779D01*
X60493Y-32598D01*
X60493Y-33402D01*
X60418Y-33221D01*
X60279Y-33082D01*
X60098Y-33007D01*
X59902Y-33007D01*
X59721Y-33082D01*
X59582Y-33221D01*
X59507Y-33402D01*
X59507Y-33598D01*
X59582Y-33779D01*
X59721Y-33918D01*
X59902Y-33993D01*
X60098Y-33993D01*
X60279Y-33918D01*
X60418Y-33779D01*
X60493Y-33598D01*
X60493Y-34402D01*
X60418Y-34221D01*
X60279Y-34082D01*
X60098Y-34007D01*
X59902Y-34007D01*
X59721Y-34082D01*
X59582Y-34221D01*
X59507Y-34402D01*
X59507Y-34598D01*
X59582Y-34779D01*
X59721Y-34918D01*
X59902Y-34993D01*
X60098Y-34993D01*
X60279Y-34918D01*
X60418Y-34779D01*
X60493Y-34598D01*
X60493Y-35402D01*
X60418Y-35221D01*
X60279Y-35082D01*
X60098Y-35007D01*
X59902Y-35007D01*
X59721Y-35082D01*
X59582Y-35221D01*
X59507Y-35402D01*
X59507Y-35598D01*
X59582Y-35779D01*
X59721Y-35918D01*
X59902Y-35993D01*
X60098Y-35993D01*
X60279Y-35918D01*
X60418Y-35779D01*
X60493Y-35598D01*
X60493Y-36402D01*
X60418Y-36221D01*
X60279Y-36082D01*
X60098Y-36007D01*
X59902Y-36007D01*
X59721Y-36082D01*
X59582Y-36221D01*
X59507Y-36402D01*
X59507Y-36598D01*
X59582Y-36779D01*
X59721Y-36918D01*
X59902Y-36993D01*
X60098Y-36993D01*
X60279Y-36918D01*
X60418Y-36779D01*
X60493Y-36598D01*
X60493Y-39402D01*
X60418Y-39221D01*
X60279Y-39082D01*
X60098Y-39007D01*
X59902Y-39007D01*
X59721Y-39082D01*
X59582Y-39221D01*
X59507Y-39402D01*
X59507Y-39598D01*
X59582Y-39779D01*
X59721Y-39918D01*
X59902Y-39993D01*
X60098Y-39993D01*
X60279Y-39918D01*
X60418Y-39779D01*
X60493Y-39598D01*
X60493Y-40402D01*
X60418Y-40221D01*
X60279Y-40082D01*
X60098Y-40007D01*
X59902Y-40007D01*
X59721Y-40082D01*
X59582Y-40221D01*
X59507Y-40402D01*
X59507Y-40598D01*
X59582Y-40779D01*
X59721Y-40918D01*
X59902Y-40993D01*
X60098Y-40993D01*
X60279Y-40918D01*
X60418Y-40779D01*
X60493Y-40598D01*
X60493Y-41402D01*
X60418Y-41221D01*
X60279Y-41082D01*
X60098Y-41007D01*
X59902Y-41007D01*
X59721Y-41082D01*
X59582Y-41221D01*
X59507Y-41402D01*
X59507Y-41598D01*
X59582Y-41779D01*
X59721Y-41918D01*
X59902Y-41993D01*
X60098Y-41993D01*
X60279Y-41918D01*
X60418Y-41779D01*
X60493Y-41598D01*
X60493Y-42402D01*
X60418Y-42221D01*
X60279Y-42082D01*
X60098Y-42007D01*
X59902Y-42007D01*
X59721Y-42082D01*
X59582Y-42221D01*
X59507Y-42402D01*
X59507Y-42598D01*
X59582Y-42779D01*
X59721Y-42918D01*
X59902Y-42993D01*
X60098Y-42993D01*
X60279Y-42918D01*
X60418Y-42779D01*
X60493Y-42598D01*
X60493Y-43402D01*
X60418Y-43221D01*
X60279Y-43082D01*
X60098Y-43007D01*
X59902Y-43007D01*
X59721Y-43082D01*
X59582Y-43221D01*
X59507Y-43402D01*
X59507Y-43598D01*
X59582Y-43779D01*
X59721Y-43918D01*
X59902Y-43993D01*
X60098Y-43993D01*
X60279Y-43918D01*
X60418Y-43779D01*
X60493Y-43598D01*
X60493Y-45551D01*
X60411Y-45551D01*
X60246Y-45619D01*
X60120Y-45745D01*
X60051Y-45910D01*
X60051Y-46089D01*
X60119Y-46254D01*
X60245Y-46380D01*
X60410Y-46449D01*
X60589Y-46449D01*
X60754Y-46381D01*
X60880Y-46255D01*
X60949Y-46090D01*
X60949Y-46475D01*
X59493Y-46475D01*
X59493Y-43598D01*
X59493Y-43402D01*
X59493Y-42598D01*
X59493Y-42402D01*
X59493Y-41598D01*
X59493Y-41402D01*
X59493Y-40598D01*
X59493Y-40402D01*
X59493Y-39598D01*
X59493Y-39402D01*
X59493Y-36598D01*
X59493Y-36402D01*
X59493Y-35598D01*
X59493Y-35402D01*
X59493Y-34598D01*
X59493Y-34402D01*
X59493Y-33598D01*
X59493Y-33402D01*
X59493Y-32598D01*
X59493Y-32402D01*
X59418Y-32221D01*
X59279Y-32082D01*
X59098Y-32007D01*
X58902Y-32007D01*
X58721Y-32082D01*
X58582Y-32221D01*
X58507Y-32402D01*
X58507Y-32598D01*
X58582Y-32779D01*
X58721Y-32918D01*
X58902Y-32993D01*
X59098Y-32993D01*
X59279Y-32918D01*
X59418Y-32779D01*
X59493Y-32598D01*
X59493Y-33402D01*
X59418Y-33221D01*
X59279Y-33082D01*
X59098Y-33007D01*
X58902Y-33007D01*
X58721Y-33082D01*
X58582Y-33221D01*
X58507Y-33402D01*
X58507Y-33598D01*
X58582Y-33779D01*
X58721Y-33918D01*
X58902Y-33993D01*
X59098Y-33993D01*
X59279Y-33918D01*
X59418Y-33779D01*
X59493Y-33598D01*
X59493Y-34402D01*
X59418Y-34221D01*
X59279Y-34082D01*
X59098Y-34007D01*
X58902Y-34007D01*
X58721Y-34082D01*
X58582Y-34221D01*
X58507Y-34402D01*
X58507Y-34598D01*
X58582Y-34779D01*
X58721Y-34918D01*
X58902Y-34993D01*
X59098Y-34993D01*
X59279Y-34918D01*
X59418Y-34779D01*
X59493Y-34598D01*
X59493Y-35402D01*
X59418Y-35221D01*
X59279Y-35082D01*
X59098Y-35007D01*
X58902Y-35007D01*
X58721Y-35082D01*
X58582Y-35221D01*
X58507Y-35402D01*
X58507Y-35598D01*
X58582Y-35779D01*
X58721Y-35918D01*
X58902Y-35993D01*
X59098Y-35993D01*
X59279Y-35918D01*
X59418Y-35779D01*
X59493Y-35598D01*
X59493Y-36402D01*
X59418Y-36221D01*
X59279Y-36082D01*
X59098Y-36007D01*
X58902Y-36007D01*
X58721Y-36082D01*
X58582Y-36221D01*
X58507Y-36402D01*
X58507Y-36598D01*
X58582Y-36779D01*
X58721Y-36918D01*
X58902Y-36993D01*
X59098Y-36993D01*
X59279Y-36918D01*
X59418Y-36779D01*
X59493Y-36598D01*
X59493Y-39402D01*
X59418Y-39221D01*
X59279Y-39082D01*
X59098Y-39007D01*
X58902Y-39007D01*
X58721Y-39082D01*
X58582Y-39221D01*
X58507Y-39402D01*
X58507Y-39598D01*
X58582Y-39779D01*
X58721Y-39918D01*
X58902Y-39993D01*
X59098Y-39993D01*
X59279Y-39918D01*
X59418Y-39779D01*
X59493Y-39598D01*
X59493Y-40402D01*
X59418Y-40221D01*
X59279Y-40082D01*
X59098Y-40007D01*
X58902Y-40007D01*
X58721Y-40082D01*
X58582Y-40221D01*
X58507Y-40402D01*
X58507Y-40598D01*
X58582Y-40779D01*
X58721Y-40918D01*
X58902Y-40993D01*
X59098Y-40993D01*
X59279Y-40918D01*
X59418Y-40779D01*
X59493Y-40598D01*
X59493Y-41402D01*
X59418Y-41221D01*
X59279Y-41082D01*
X59098Y-41007D01*
X58902Y-41007D01*
X58721Y-41082D01*
X58582Y-41221D01*
X58507Y-41402D01*
X58507Y-41598D01*
X58582Y-41779D01*
X58721Y-41918D01*
X58902Y-41993D01*
X59098Y-41993D01*
X59279Y-41918D01*
X59418Y-41779D01*
X59493Y-41598D01*
X59493Y-42402D01*
X59418Y-42221D01*
X59279Y-42082D01*
X59098Y-42007D01*
X58902Y-42007D01*
X58721Y-42082D01*
X58582Y-42221D01*
X58507Y-42402D01*
X58507Y-42598D01*
X58582Y-42779D01*
X58721Y-42918D01*
X58902Y-42993D01*
X59098Y-42993D01*
X59279Y-42918D01*
X59418Y-42779D01*
X59493Y-42598D01*
X59493Y-43402D01*
X59418Y-43221D01*
X59279Y-43082D01*
X59098Y-43007D01*
X58902Y-43007D01*
X58721Y-43082D01*
X58582Y-43221D01*
X58507Y-43402D01*
X58507Y-43598D01*
X58582Y-43779D01*
X58721Y-43918D01*
X58902Y-43993D01*
X59098Y-43993D01*
X59279Y-43918D01*
X59418Y-43779D01*
X59493Y-43598D01*
X59493Y-46475D01*
X58949Y-46475D01*
X58949Y-46090D01*
X58949Y-45911D01*
X58881Y-45746D01*
X58755Y-45620D01*
X58590Y-45551D01*
X58493Y-45551D01*
X58493Y-43598D01*
X58493Y-43402D01*
X58493Y-42598D01*
X58493Y-42402D01*
X58493Y-41598D01*
X58493Y-41402D01*
X58493Y-40598D01*
X58493Y-40402D01*
X58493Y-39598D01*
X58493Y-39402D01*
X58493Y-36598D01*
X58493Y-36402D01*
X58493Y-35598D01*
X58493Y-35402D01*
X58493Y-34598D01*
X58493Y-34402D01*
X58493Y-33598D01*
X58493Y-33402D01*
X58493Y-32598D01*
X58493Y-32402D01*
X58418Y-32221D01*
X58279Y-32082D01*
X58098Y-32007D01*
X57902Y-32007D01*
X57721Y-32082D01*
X57582Y-32221D01*
X57507Y-32402D01*
X57507Y-32598D01*
X57582Y-32779D01*
X57721Y-32918D01*
X57902Y-32993D01*
X58098Y-32993D01*
X58279Y-32918D01*
X58418Y-32779D01*
X58493Y-32598D01*
X58493Y-33402D01*
X58418Y-33221D01*
X58279Y-33082D01*
X58098Y-33007D01*
X57902Y-33007D01*
X57721Y-33082D01*
X57582Y-33221D01*
X57507Y-33402D01*
X57507Y-33598D01*
X57582Y-33779D01*
X57721Y-33918D01*
X57902Y-33993D01*
X58098Y-33993D01*
X58279Y-33918D01*
X58418Y-33779D01*
X58493Y-33598D01*
X58493Y-34402D01*
X58418Y-34221D01*
X58279Y-34082D01*
X58098Y-34007D01*
X57902Y-34007D01*
X57721Y-34082D01*
X57582Y-34221D01*
X57507Y-34402D01*
X57507Y-34598D01*
X57582Y-34779D01*
X57721Y-34918D01*
X57902Y-34993D01*
X58098Y-34993D01*
X58279Y-34918D01*
X58418Y-34779D01*
X58493Y-34598D01*
X58493Y-35402D01*
X58418Y-35221D01*
X58279Y-35082D01*
X58098Y-35007D01*
X57902Y-35007D01*
X57721Y-35082D01*
X57582Y-35221D01*
X57507Y-35402D01*
X57507Y-35598D01*
X57582Y-35779D01*
X57721Y-35918D01*
X57902Y-35993D01*
X58098Y-35993D01*
X58279Y-35918D01*
X58418Y-35779D01*
X58493Y-35598D01*
X58493Y-36402D01*
X58418Y-36221D01*
X58279Y-36082D01*
X58098Y-36007D01*
X57902Y-36007D01*
X57721Y-36082D01*
X57582Y-36221D01*
X57507Y-36402D01*
X57507Y-36598D01*
X57582Y-36779D01*
X57721Y-36918D01*
X57902Y-36993D01*
X58098Y-36993D01*
X58279Y-36918D01*
X58418Y-36779D01*
X58493Y-36598D01*
X58493Y-39402D01*
X58418Y-39221D01*
X58279Y-39082D01*
X58098Y-39007D01*
X57902Y-39007D01*
X57721Y-39082D01*
X57582Y-39221D01*
X57507Y-39402D01*
X57507Y-39598D01*
X57582Y-39779D01*
X57721Y-39918D01*
X57902Y-39993D01*
X58098Y-39993D01*
X58279Y-39918D01*
X58418Y-39779D01*
X58493Y-39598D01*
X58493Y-40402D01*
X58418Y-40221D01*
X58279Y-40082D01*
X58098Y-40007D01*
X57902Y-40007D01*
X57721Y-40082D01*
X57582Y-40221D01*
X57507Y-40402D01*
X57507Y-40598D01*
X57582Y-40779D01*
X57721Y-40918D01*
X57902Y-40993D01*
X58098Y-40993D01*
X58279Y-40918D01*
X58418Y-40779D01*
X58493Y-40598D01*
X58493Y-41402D01*
X58418Y-41221D01*
X58279Y-41082D01*
X58098Y-41007D01*
X57902Y-41007D01*
X57721Y-41082D01*
X57582Y-41221D01*
X57507Y-41402D01*
X57507Y-41598D01*
X57582Y-41779D01*
X57721Y-41918D01*
X57902Y-41993D01*
X58098Y-41993D01*
X58279Y-41918D01*
X58418Y-41779D01*
X58493Y-41598D01*
X58493Y-42402D01*
X58418Y-42221D01*
X58279Y-42082D01*
X58098Y-42007D01*
X57902Y-42007D01*
X57721Y-42082D01*
X57582Y-42221D01*
X57507Y-42402D01*
X57507Y-42598D01*
X57582Y-42779D01*
X57721Y-42918D01*
X57902Y-42993D01*
X58098Y-42993D01*
X58279Y-42918D01*
X58418Y-42779D01*
X58493Y-42598D01*
X58493Y-43402D01*
X58418Y-43221D01*
X58279Y-43082D01*
X58098Y-43007D01*
X57902Y-43007D01*
X57721Y-43082D01*
X57582Y-43221D01*
X57507Y-43402D01*
X57507Y-43598D01*
X57582Y-43779D01*
X57721Y-43918D01*
X57902Y-43993D01*
X58098Y-43993D01*
X58279Y-43918D01*
X58418Y-43779D01*
X58493Y-43598D01*
X58493Y-45551D01*
X58411Y-45551D01*
X58246Y-45619D01*
X58120Y-45745D01*
X58051Y-45910D01*
X58051Y-46089D01*
X58119Y-46254D01*
X58245Y-46380D01*
X58410Y-46449D01*
X58589Y-46449D01*
X58754Y-46381D01*
X58880Y-46255D01*
X58949Y-46090D01*
X58949Y-46475D01*
X57949Y-46475D01*
X57949Y-46090D01*
X57949Y-45911D01*
X57881Y-45746D01*
X57755Y-45620D01*
X57590Y-45551D01*
X57493Y-45551D01*
X57493Y-43598D01*
X57493Y-43402D01*
X57493Y-42598D01*
X57493Y-42402D01*
X57493Y-41598D01*
X57493Y-41402D01*
X57493Y-40598D01*
X57493Y-40402D01*
X57493Y-39598D01*
X57493Y-39402D01*
X57493Y-36598D01*
X57493Y-36402D01*
X57493Y-35598D01*
X57493Y-35402D01*
X57493Y-34598D01*
X57493Y-34402D01*
X57493Y-33598D01*
X57493Y-33402D01*
X57493Y-32598D01*
X57493Y-32402D01*
X57418Y-32221D01*
X57279Y-32082D01*
X57098Y-32007D01*
X56902Y-32007D01*
X56721Y-32082D01*
X56582Y-32221D01*
X56507Y-32402D01*
X56507Y-32598D01*
X56582Y-32779D01*
X56721Y-32918D01*
X56902Y-32993D01*
X57098Y-32993D01*
X57279Y-32918D01*
X57418Y-32779D01*
X57493Y-32598D01*
X57493Y-33402D01*
X57418Y-33221D01*
X57279Y-33082D01*
X57098Y-33007D01*
X56902Y-33007D01*
X56721Y-33082D01*
X56582Y-33221D01*
X56507Y-33402D01*
X56507Y-33598D01*
X56582Y-33779D01*
X56721Y-33918D01*
X56902Y-33993D01*
X57098Y-33993D01*
X57279Y-33918D01*
X57418Y-33779D01*
X57493Y-33598D01*
X57493Y-34402D01*
X57418Y-34221D01*
X57279Y-34082D01*
X57098Y-34007D01*
X56902Y-34007D01*
X56721Y-34082D01*
X56582Y-34221D01*
X56507Y-34402D01*
X56507Y-34598D01*
X56582Y-34779D01*
X56721Y-34918D01*
X56902Y-34993D01*
X57098Y-34993D01*
X57279Y-34918D01*
X57418Y-34779D01*
X57493Y-34598D01*
X57493Y-35402D01*
X57418Y-35221D01*
X57279Y-35082D01*
X57098Y-35007D01*
X56902Y-35007D01*
X56721Y-35082D01*
X56582Y-35221D01*
X56507Y-35402D01*
X56507Y-35598D01*
X56582Y-35779D01*
X56721Y-35918D01*
X56902Y-35993D01*
X57098Y-35993D01*
X57279Y-35918D01*
X57418Y-35779D01*
X57493Y-35598D01*
X57493Y-36402D01*
X57418Y-36221D01*
X57279Y-36082D01*
X57098Y-36007D01*
X56902Y-36007D01*
X56721Y-36082D01*
X56582Y-36221D01*
X56507Y-36402D01*
X56507Y-36598D01*
X56582Y-36779D01*
X56721Y-36918D01*
X56902Y-36993D01*
X57098Y-36993D01*
X57279Y-36918D01*
X57418Y-36779D01*
X57493Y-36598D01*
X57493Y-39402D01*
X57418Y-39221D01*
X57279Y-39082D01*
X57098Y-39007D01*
X56902Y-39007D01*
X56721Y-39082D01*
X56582Y-39221D01*
X56507Y-39402D01*
X56507Y-39598D01*
X56582Y-39779D01*
X56721Y-39918D01*
X56902Y-39993D01*
X57098Y-39993D01*
X57279Y-39918D01*
X57418Y-39779D01*
X57493Y-39598D01*
X57493Y-40402D01*
X57418Y-40221D01*
X57279Y-40082D01*
X57098Y-40007D01*
X56902Y-40007D01*
X56721Y-40082D01*
X56582Y-40221D01*
X56507Y-40402D01*
X56507Y-40598D01*
X56582Y-40779D01*
X56721Y-40918D01*
X56902Y-40993D01*
X57098Y-40993D01*
X57279Y-40918D01*
X57418Y-40779D01*
X57493Y-40598D01*
X57493Y-41402D01*
X57418Y-41221D01*
X57279Y-41082D01*
X57098Y-41007D01*
X56902Y-41007D01*
X56721Y-41082D01*
X56582Y-41221D01*
X56507Y-41402D01*
X56507Y-41598D01*
X56582Y-41779D01*
X56721Y-41918D01*
X56902Y-41993D01*
X57098Y-41993D01*
X57279Y-41918D01*
X57418Y-41779D01*
X57493Y-41598D01*
X57493Y-42402D01*
X57418Y-42221D01*
X57279Y-42082D01*
X57098Y-42007D01*
X56902Y-42007D01*
X56721Y-42082D01*
X56582Y-42221D01*
X56507Y-42402D01*
X56507Y-42598D01*
X56582Y-42779D01*
X56721Y-42918D01*
X56902Y-42993D01*
X57098Y-42993D01*
X57279Y-42918D01*
X57418Y-42779D01*
X57493Y-42598D01*
X57493Y-43402D01*
X57418Y-43221D01*
X57279Y-43082D01*
X57098Y-43007D01*
X56902Y-43007D01*
X56721Y-43082D01*
X56582Y-43221D01*
X56507Y-43402D01*
X56507Y-43598D01*
X56582Y-43779D01*
X56721Y-43918D01*
X56902Y-43993D01*
X57098Y-43993D01*
X57279Y-43918D01*
X57418Y-43779D01*
X57493Y-43598D01*
X57493Y-45551D01*
X57411Y-45551D01*
X57246Y-45619D01*
X57120Y-45745D01*
X57051Y-45910D01*
X57051Y-46089D01*
X57119Y-46254D01*
X57245Y-46380D01*
X57410Y-46449D01*
X57589Y-46449D01*
X57754Y-46381D01*
X57880Y-46255D01*
X57949Y-46090D01*
X57949Y-46475D01*
X56949Y-46475D01*
X56949Y-46090D01*
X56949Y-45911D01*
X56881Y-45746D01*
X56755Y-45620D01*
X56590Y-45551D01*
X56493Y-45551D01*
X56493Y-43598D01*
X56493Y-43402D01*
X56493Y-42598D01*
X56493Y-42402D01*
X56493Y-41598D01*
X56493Y-41402D01*
X56493Y-40598D01*
X56493Y-40402D01*
X56493Y-39598D01*
X56493Y-39402D01*
X56493Y-36598D01*
X56493Y-36402D01*
X56493Y-35598D01*
X56493Y-35402D01*
X56493Y-34598D01*
X56493Y-34402D01*
X56493Y-33598D01*
X56493Y-33402D01*
X56493Y-32598D01*
X56493Y-32402D01*
X56418Y-32221D01*
X56279Y-32082D01*
X56098Y-32007D01*
X55902Y-32007D01*
X55721Y-32082D01*
X55582Y-32221D01*
X55507Y-32402D01*
X55507Y-32598D01*
X55582Y-32779D01*
X55721Y-32918D01*
X55902Y-32993D01*
X56098Y-32993D01*
X56279Y-32918D01*
X56418Y-32779D01*
X56493Y-32598D01*
X56493Y-33402D01*
X56418Y-33221D01*
X56279Y-33082D01*
X56098Y-33007D01*
X55902Y-33007D01*
X55721Y-33082D01*
X55582Y-33221D01*
X55507Y-33402D01*
X55507Y-33598D01*
X55582Y-33779D01*
X55721Y-33918D01*
X55902Y-33993D01*
X56098Y-33993D01*
X56279Y-33918D01*
X56418Y-33779D01*
X56493Y-33598D01*
X56493Y-34402D01*
X56418Y-34221D01*
X56279Y-34082D01*
X56098Y-34007D01*
X55902Y-34007D01*
X55721Y-34082D01*
X55582Y-34221D01*
X55507Y-34402D01*
X55507Y-34598D01*
X55582Y-34779D01*
X55721Y-34918D01*
X55902Y-34993D01*
X56098Y-34993D01*
X56279Y-34918D01*
X56418Y-34779D01*
X56493Y-34598D01*
X56493Y-35402D01*
X56418Y-35221D01*
X56279Y-35082D01*
X56098Y-35007D01*
X55902Y-35007D01*
X55721Y-35082D01*
X55582Y-35221D01*
X55507Y-35402D01*
X55507Y-35598D01*
X55582Y-35779D01*
X55721Y-35918D01*
X55902Y-35993D01*
X56098Y-35993D01*
X56279Y-35918D01*
X56418Y-35779D01*
X56493Y-35598D01*
X56493Y-36402D01*
X56418Y-36221D01*
X56279Y-36082D01*
X56098Y-36007D01*
X55902Y-36007D01*
X55721Y-36082D01*
X55582Y-36221D01*
X55507Y-36402D01*
X55507Y-36598D01*
X55582Y-36779D01*
X55721Y-36918D01*
X55902Y-36993D01*
X56098Y-36993D01*
X56279Y-36918D01*
X56418Y-36779D01*
X56493Y-36598D01*
X56493Y-39402D01*
X56418Y-39221D01*
X56279Y-39082D01*
X56098Y-39007D01*
X55902Y-39007D01*
X55721Y-39082D01*
X55582Y-39221D01*
X55507Y-39402D01*
X55507Y-39598D01*
X55582Y-39779D01*
X55721Y-39918D01*
X55902Y-39993D01*
X56098Y-39993D01*
X56279Y-39918D01*
X56418Y-39779D01*
X56493Y-39598D01*
X56493Y-40402D01*
X56418Y-40221D01*
X56279Y-40082D01*
X56098Y-40007D01*
X55902Y-40007D01*
X55721Y-40082D01*
X55582Y-40221D01*
X55507Y-40402D01*
X55507Y-40598D01*
X55582Y-40779D01*
X55721Y-40918D01*
X55902Y-40993D01*
X56098Y-40993D01*
X56279Y-40918D01*
X56418Y-40779D01*
X56493Y-40598D01*
X56493Y-41402D01*
X56418Y-41221D01*
X56279Y-41082D01*
X56098Y-41007D01*
X55902Y-41007D01*
X55721Y-41082D01*
X55582Y-41221D01*
X55507Y-41402D01*
X55507Y-41598D01*
X55582Y-41779D01*
X55721Y-41918D01*
X55902Y-41993D01*
X56098Y-41993D01*
X56279Y-41918D01*
X56418Y-41779D01*
X56493Y-41598D01*
X56493Y-42402D01*
X56418Y-42221D01*
X56279Y-42082D01*
X56098Y-42007D01*
X55902Y-42007D01*
X55721Y-42082D01*
X55582Y-42221D01*
X55507Y-42402D01*
X55507Y-42598D01*
X55582Y-42779D01*
X55721Y-42918D01*
X55902Y-42993D01*
X56098Y-42993D01*
X56279Y-42918D01*
X56418Y-42779D01*
X56493Y-42598D01*
X56493Y-43402D01*
X56418Y-43221D01*
X56279Y-43082D01*
X56098Y-43007D01*
X55902Y-43007D01*
X55721Y-43082D01*
X55582Y-43221D01*
X55507Y-43402D01*
X55507Y-43598D01*
X55582Y-43779D01*
X55721Y-43918D01*
X55902Y-43993D01*
X56098Y-43993D01*
X56279Y-43918D01*
X56418Y-43779D01*
X56493Y-43598D01*
X56493Y-45551D01*
X56411Y-45551D01*
X56246Y-45619D01*
X56120Y-45745D01*
X56051Y-45910D01*
X56051Y-46089D01*
X56119Y-46254D01*
X56245Y-46380D01*
X56410Y-46449D01*
X56589Y-46449D01*
X56754Y-46381D01*
X56880Y-46255D01*
X56949Y-46090D01*
X56949Y-46475D01*
X55949Y-46475D01*
X55949Y-46090D01*
X55949Y-45911D01*
X55881Y-45746D01*
X55755Y-45620D01*
X55590Y-45551D01*
X55493Y-45551D01*
X55493Y-43598D01*
X55493Y-43402D01*
X55493Y-42598D01*
X55493Y-42402D01*
X55493Y-41598D01*
X55493Y-41402D01*
X55493Y-40598D01*
X55493Y-40402D01*
X55493Y-39598D01*
X55493Y-39402D01*
X55493Y-36598D01*
X55493Y-36402D01*
X55493Y-35598D01*
X55493Y-35402D01*
X55493Y-34598D01*
X55493Y-34402D01*
X55493Y-33598D01*
X55493Y-33402D01*
X55493Y-32598D01*
X55493Y-32402D01*
X55418Y-32221D01*
X55279Y-32082D01*
X55098Y-32007D01*
X54902Y-32007D01*
X54721Y-32082D01*
X54582Y-32221D01*
X54507Y-32402D01*
X54507Y-32598D01*
X54582Y-32779D01*
X54721Y-32918D01*
X54902Y-32993D01*
X55098Y-32993D01*
X55279Y-32918D01*
X55418Y-32779D01*
X55493Y-32598D01*
X55493Y-33402D01*
X55418Y-33221D01*
X55279Y-33082D01*
X55098Y-33007D01*
X54902Y-33007D01*
X54721Y-33082D01*
X54582Y-33221D01*
X54507Y-33402D01*
X54507Y-33598D01*
X54582Y-33779D01*
X54721Y-33918D01*
X54902Y-33993D01*
X55098Y-33993D01*
X55279Y-33918D01*
X55418Y-33779D01*
X55493Y-33598D01*
X55493Y-34402D01*
X55418Y-34221D01*
X55279Y-34082D01*
X55098Y-34007D01*
X54902Y-34007D01*
X54721Y-34082D01*
X54582Y-34221D01*
X54507Y-34402D01*
X54507Y-34598D01*
X54582Y-34779D01*
X54721Y-34918D01*
X54902Y-34993D01*
X55098Y-34993D01*
X55279Y-34918D01*
X55418Y-34779D01*
X55493Y-34598D01*
X55493Y-35402D01*
X55418Y-35221D01*
X55279Y-35082D01*
X55098Y-35007D01*
X54902Y-35007D01*
X54721Y-35082D01*
X54582Y-35221D01*
X54507Y-35402D01*
X54507Y-35598D01*
X54582Y-35779D01*
X54721Y-35918D01*
X54902Y-35993D01*
X55098Y-35993D01*
X55279Y-35918D01*
X55418Y-35779D01*
X55493Y-35598D01*
X55493Y-36402D01*
X55418Y-36221D01*
X55279Y-36082D01*
X55098Y-36007D01*
X54902Y-36007D01*
X54721Y-36082D01*
X54582Y-36221D01*
X54507Y-36402D01*
X54507Y-36598D01*
X54582Y-36779D01*
X54721Y-36918D01*
X54902Y-36993D01*
X55098Y-36993D01*
X55279Y-36918D01*
X55418Y-36779D01*
X55493Y-36598D01*
X55493Y-39402D01*
X55418Y-39221D01*
X55279Y-39082D01*
X55098Y-39007D01*
X54902Y-39007D01*
X54721Y-39082D01*
X54582Y-39221D01*
X54507Y-39402D01*
X54507Y-39598D01*
X54582Y-39779D01*
X54721Y-39918D01*
X54902Y-39993D01*
X55098Y-39993D01*
X55279Y-39918D01*
X55418Y-39779D01*
X55493Y-39598D01*
X55493Y-40402D01*
X55418Y-40221D01*
X55279Y-40082D01*
X55098Y-40007D01*
X54902Y-40007D01*
X54721Y-40082D01*
X54582Y-40221D01*
X54507Y-40402D01*
X54507Y-40598D01*
X54582Y-40779D01*
X54721Y-40918D01*
X54902Y-40993D01*
X55098Y-40993D01*
X55279Y-40918D01*
X55418Y-40779D01*
X55493Y-40598D01*
X55493Y-41402D01*
X55418Y-41221D01*
X55279Y-41082D01*
X55098Y-41007D01*
X54902Y-41007D01*
X54721Y-41082D01*
X54582Y-41221D01*
X54507Y-41402D01*
X54507Y-41598D01*
X54582Y-41779D01*
X54721Y-41918D01*
X54902Y-41993D01*
X55098Y-41993D01*
X55279Y-41918D01*
X55418Y-41779D01*
X55493Y-41598D01*
X55493Y-42402D01*
X55418Y-42221D01*
X55279Y-42082D01*
X55098Y-42007D01*
X54902Y-42007D01*
X54721Y-42082D01*
X54582Y-42221D01*
X54507Y-42402D01*
X54507Y-42598D01*
X54582Y-42779D01*
X54721Y-42918D01*
X54902Y-42993D01*
X55098Y-42993D01*
X55279Y-42918D01*
X55418Y-42779D01*
X55493Y-42598D01*
X55493Y-43402D01*
X55418Y-43221D01*
X55279Y-43082D01*
X55098Y-43007D01*
X54902Y-43007D01*
X54721Y-43082D01*
X54582Y-43221D01*
X54507Y-43402D01*
X54507Y-43598D01*
X54582Y-43779D01*
X54721Y-43918D01*
X54902Y-43993D01*
X55098Y-43993D01*
X55279Y-43918D01*
X55418Y-43779D01*
X55493Y-43598D01*
X55493Y-45551D01*
X55411Y-45551D01*
X55246Y-45619D01*
X55120Y-45745D01*
X55051Y-45910D01*
X55051Y-46089D01*
X55119Y-46254D01*
X55245Y-46380D01*
X55410Y-46449D01*
X55589Y-46449D01*
X55754Y-46381D01*
X55880Y-46255D01*
X55949Y-46090D01*
X55949Y-46475D01*
X54949Y-46475D01*
X54949Y-46090D01*
X54949Y-45911D01*
X54881Y-45746D01*
X54755Y-45620D01*
X54590Y-45551D01*
X54493Y-45551D01*
X54493Y-43598D01*
X54493Y-43402D01*
X54493Y-42598D01*
X54493Y-42402D01*
X54493Y-41598D01*
X54493Y-41402D01*
X54493Y-40598D01*
X54493Y-40402D01*
X54493Y-39598D01*
X54493Y-39402D01*
X54493Y-36598D01*
X54493Y-36402D01*
X54493Y-35598D01*
X54493Y-35402D01*
X54493Y-34598D01*
X54493Y-34402D01*
X54493Y-33598D01*
X54493Y-33402D01*
X54493Y-32598D01*
X54493Y-32402D01*
X54418Y-32221D01*
X54279Y-32082D01*
X54098Y-32007D01*
X53902Y-32007D01*
X53721Y-32082D01*
X53582Y-32221D01*
X53507Y-32402D01*
X53507Y-32598D01*
X53582Y-32779D01*
X53721Y-32918D01*
X53902Y-32993D01*
X54098Y-32993D01*
X54279Y-32918D01*
X54418Y-32779D01*
X54493Y-32598D01*
X54493Y-33402D01*
X54418Y-33221D01*
X54279Y-33082D01*
X54098Y-33007D01*
X53902Y-33007D01*
X53721Y-33082D01*
X53582Y-33221D01*
X53507Y-33402D01*
X53507Y-33598D01*
X53582Y-33779D01*
X53721Y-33918D01*
X53902Y-33993D01*
X54098Y-33993D01*
X54279Y-33918D01*
X54418Y-33779D01*
X54493Y-33598D01*
X54493Y-34402D01*
X54418Y-34221D01*
X54279Y-34082D01*
X54098Y-34007D01*
X53902Y-34007D01*
X53721Y-34082D01*
X53582Y-34221D01*
X53507Y-34402D01*
X53507Y-34598D01*
X53582Y-34779D01*
X53721Y-34918D01*
X53902Y-34993D01*
X54098Y-34993D01*
X54279Y-34918D01*
X54418Y-34779D01*
X54493Y-34598D01*
X54493Y-35402D01*
X54418Y-35221D01*
X54279Y-35082D01*
X54098Y-35007D01*
X53902Y-35007D01*
X53721Y-35082D01*
X53582Y-35221D01*
X53507Y-35402D01*
X53507Y-35598D01*
X53582Y-35779D01*
X53721Y-35918D01*
X53902Y-35993D01*
X54098Y-35993D01*
X54279Y-35918D01*
X54418Y-35779D01*
X54493Y-35598D01*
X54493Y-36402D01*
X54418Y-36221D01*
X54279Y-36082D01*
X54098Y-36007D01*
X53902Y-36007D01*
X53721Y-36082D01*
X53582Y-36221D01*
X53507Y-36402D01*
X53507Y-36598D01*
X53582Y-36779D01*
X53721Y-36918D01*
X53902Y-36993D01*
X54098Y-36993D01*
X54279Y-36918D01*
X54418Y-36779D01*
X54493Y-36598D01*
X54493Y-39402D01*
X54418Y-39221D01*
X54279Y-39082D01*
X54098Y-39007D01*
X53902Y-39007D01*
X53721Y-39082D01*
X53582Y-39221D01*
X53507Y-39402D01*
X53507Y-39598D01*
X53582Y-39779D01*
X53721Y-39918D01*
X53902Y-39993D01*
X54098Y-39993D01*
X54279Y-39918D01*
X54418Y-39779D01*
X54493Y-39598D01*
X54493Y-40402D01*
X54418Y-40221D01*
X54279Y-40082D01*
X54098Y-40007D01*
X53902Y-40007D01*
X53721Y-40082D01*
X53582Y-40221D01*
X53507Y-40402D01*
X53507Y-40598D01*
X53582Y-40779D01*
X53721Y-40918D01*
X53902Y-40993D01*
X54098Y-40993D01*
X54279Y-40918D01*
X54418Y-40779D01*
X54493Y-40598D01*
X54493Y-41402D01*
X54418Y-41221D01*
X54279Y-41082D01*
X54098Y-41007D01*
X53902Y-41007D01*
X53721Y-41082D01*
X53582Y-41221D01*
X53507Y-41402D01*
X53507Y-41598D01*
X53582Y-41779D01*
X53721Y-41918D01*
X53902Y-41993D01*
X54098Y-41993D01*
X54279Y-41918D01*
X54418Y-41779D01*
X54493Y-41598D01*
X54493Y-42402D01*
X54418Y-42221D01*
X54279Y-42082D01*
X54098Y-42007D01*
X53902Y-42007D01*
X53721Y-42082D01*
X53582Y-42221D01*
X53507Y-42402D01*
X53507Y-42598D01*
X53582Y-42779D01*
X53721Y-42918D01*
X53902Y-42993D01*
X54098Y-42993D01*
X54279Y-42918D01*
X54418Y-42779D01*
X54493Y-42598D01*
X54493Y-43402D01*
X54418Y-43221D01*
X54279Y-43082D01*
X54098Y-43007D01*
X53902Y-43007D01*
X53721Y-43082D01*
X53582Y-43221D01*
X53507Y-43402D01*
X53507Y-43598D01*
X53582Y-43779D01*
X53721Y-43918D01*
X53902Y-43993D01*
X54098Y-43993D01*
X54279Y-43918D01*
X54418Y-43779D01*
X54493Y-43598D01*
X54493Y-45551D01*
X54411Y-45551D01*
X54246Y-45619D01*
X54120Y-45745D01*
X54051Y-45910D01*
X54051Y-46089D01*
X54119Y-46254D01*
X54245Y-46380D01*
X54410Y-46449D01*
X54589Y-46449D01*
X54754Y-46381D01*
X54880Y-46255D01*
X54949Y-46090D01*
X54949Y-46475D01*
X53869Y-46475D01*
X53325Y-46365D01*
X52882Y-46069D01*
X52584Y-45624D01*
X52475Y-45076D01*
X52475Y-30923D01*
X52584Y-30375D01*
X52882Y-29930D01*
X53325Y-29634D01*
X53872Y-29524D01*
X53875Y-29525D01*
X70126Y-29525D01*
X70674Y-29634D01*
X71119Y-29932D01*
X71415Y-30375D01*
X71525Y-30919D01*
X71525Y-45080D01*
M02*
