G04 (created by PCBNEW-RS274X (2012-01-19 BZR 3256)-stable) date 4/28/2012 8:21:40 PM*
G01*
G70*
G90*
%MOIN*%
G04 Gerber Fmt 3.4, Leading zero omitted, Abs format*
%FSLAX34Y34*%
G04 APERTURE LIST*
%ADD10C,0.006000*%
%ADD11C,0.015000*%
G04 APERTURE END LIST*
G54D10*
G54D11*
X53750Y-46750D02*
X70250Y-46750D01*
X52500Y-30500D02*
X52500Y-45500D01*
X70250Y-29250D02*
X53750Y-29250D01*
X71500Y-45500D02*
X71500Y-30500D01*
X70250Y-46750D02*
X70358Y-46745D01*
X70467Y-46731D01*
X70573Y-46707D01*
X70677Y-46674D01*
X70778Y-46632D01*
X70875Y-46582D01*
X70966Y-46523D01*
X71053Y-46457D01*
X71133Y-46383D01*
X71207Y-46303D01*
X71273Y-46216D01*
X71332Y-46124D01*
X71382Y-46028D01*
X71424Y-45927D01*
X71457Y-45823D01*
X71481Y-45717D01*
X71495Y-45608D01*
X71500Y-45500D01*
X52500Y-45500D02*
X52505Y-45608D01*
X52519Y-45717D01*
X52543Y-45823D01*
X52576Y-45927D01*
X52618Y-46028D01*
X52668Y-46124D01*
X52727Y-46216D01*
X52793Y-46303D01*
X52867Y-46383D01*
X52947Y-46457D01*
X53034Y-46523D01*
X53126Y-46582D01*
X53222Y-46632D01*
X53323Y-46674D01*
X53427Y-46707D01*
X53533Y-46731D01*
X53642Y-46745D01*
X53750Y-46750D01*
X53750Y-29250D02*
X53642Y-29255D01*
X53533Y-29269D01*
X53427Y-29293D01*
X53323Y-29326D01*
X53222Y-29368D01*
X53126Y-29418D01*
X53034Y-29477D01*
X52947Y-29543D01*
X52867Y-29617D01*
X52793Y-29697D01*
X52727Y-29784D01*
X52668Y-29876D01*
X52618Y-29972D01*
X52576Y-30073D01*
X52543Y-30177D01*
X52519Y-30283D01*
X52505Y-30392D01*
X52500Y-30500D01*
X71500Y-30500D02*
X71495Y-30392D01*
X71481Y-30283D01*
X71457Y-30177D01*
X71424Y-30073D01*
X71382Y-29972D01*
X71332Y-29876D01*
X71273Y-29784D01*
X71207Y-29697D01*
X71133Y-29617D01*
X71053Y-29543D01*
X70966Y-29477D01*
X70875Y-29418D01*
X70778Y-29368D01*
X70677Y-29326D01*
X70573Y-29293D01*
X70467Y-29269D01*
X70358Y-29255D01*
X70250Y-29250D01*
M02*
