G04 (created by PCBNEW-RS274X (2012-01-19 BZR 3256)-stable) date 4/28/2012 8:21:40 PM*
G01*
G70*
G90*
%MOIN*%
G04 Gerber Fmt 3.4, Leading zero omitted, Abs format*
%FSLAX34Y34*%
G04 APERTURE LIST*
%ADD10C,0.006000*%
%ADD11C,0.015000*%
%ADD12C,0.068900*%
%ADD13C,0.149600*%
%ADD14C,0.068900*%
%ADD15C,0.009800*%
G04 APERTURE END LIST*
G54D10*
G54D11*
X53750Y-46750D02*
X70250Y-46750D01*
X52500Y-30500D02*
X52500Y-45500D01*
X70250Y-29250D02*
X53750Y-29250D01*
X71500Y-45500D02*
X71500Y-30500D01*
X70250Y-46750D02*
X70358Y-46745D01*
X70467Y-46731D01*
X70573Y-46707D01*
X70677Y-46674D01*
X70778Y-46632D01*
X70875Y-46582D01*
X70966Y-46523D01*
X71053Y-46457D01*
X71133Y-46383D01*
X71207Y-46303D01*
X71273Y-46216D01*
X71332Y-46124D01*
X71382Y-46028D01*
X71424Y-45927D01*
X71457Y-45823D01*
X71481Y-45717D01*
X71495Y-45608D01*
X71500Y-45500D01*
X52500Y-45500D02*
X52505Y-45608D01*
X52519Y-45717D01*
X52543Y-45823D01*
X52576Y-45927D01*
X52618Y-46028D01*
X52668Y-46124D01*
X52727Y-46216D01*
X52793Y-46303D01*
X52867Y-46383D01*
X52947Y-46457D01*
X53034Y-46523D01*
X53126Y-46582D01*
X53222Y-46632D01*
X53323Y-46674D01*
X53427Y-46707D01*
X53533Y-46731D01*
X53642Y-46745D01*
X53750Y-46750D01*
X53750Y-29250D02*
X53642Y-29255D01*
X53533Y-29269D01*
X53427Y-29293D01*
X53323Y-29326D01*
X53222Y-29368D01*
X53126Y-29418D01*
X53034Y-29477D01*
X52947Y-29543D01*
X52867Y-29617D01*
X52793Y-29697D01*
X52727Y-29784D01*
X52668Y-29876D01*
X52618Y-29972D01*
X52576Y-30073D01*
X52543Y-30177D01*
X52519Y-30283D01*
X52505Y-30392D01*
X52500Y-30500D01*
X71500Y-30500D02*
X71495Y-30392D01*
X71481Y-30283D01*
X71457Y-30177D01*
X71424Y-30073D01*
X71382Y-29972D01*
X71332Y-29876D01*
X71273Y-29784D01*
X71207Y-29697D01*
X71133Y-29617D01*
X71053Y-29543D01*
X70966Y-29477D01*
X70875Y-29418D01*
X70778Y-29368D01*
X70677Y-29326D01*
X70573Y-29293D01*
X70467Y-29269D01*
X70358Y-29255D01*
X70250Y-29250D01*
G54D12*
X54000Y-36500D03*
X55000Y-36500D03*
X56000Y-36500D03*
X57000Y-36500D03*
X58000Y-36500D03*
X59000Y-36500D03*
X60000Y-36500D03*
X61000Y-36500D03*
X62000Y-36500D03*
X63000Y-36500D03*
X64000Y-36500D03*
X65000Y-36500D03*
X66000Y-36500D03*
X67000Y-36500D03*
X68000Y-36500D03*
X69000Y-36500D03*
X70000Y-36500D03*
X54000Y-35500D03*
X55000Y-35500D03*
X56000Y-35500D03*
X57000Y-35500D03*
X58000Y-35500D03*
X59000Y-35500D03*
X60000Y-35500D03*
X61000Y-35500D03*
X62000Y-35500D03*
X63000Y-35500D03*
X64000Y-35500D03*
X65000Y-35500D03*
X66000Y-35500D03*
X67000Y-35500D03*
X68000Y-35500D03*
X69000Y-35500D03*
X70000Y-35500D03*
X54000Y-34500D03*
X55000Y-34500D03*
X56000Y-34500D03*
X57000Y-34500D03*
X58000Y-34500D03*
X59000Y-34500D03*
X60000Y-34500D03*
X61000Y-34500D03*
X62000Y-34500D03*
X63000Y-34500D03*
X64000Y-34500D03*
X65000Y-34500D03*
X66000Y-34500D03*
X67000Y-34500D03*
X68000Y-34500D03*
X69000Y-34500D03*
X70000Y-34500D03*
X54000Y-33500D03*
X55000Y-33500D03*
X56000Y-33500D03*
X57000Y-33500D03*
X58000Y-33500D03*
X59000Y-33500D03*
X60000Y-33500D03*
X61000Y-33500D03*
X62000Y-33500D03*
X63000Y-33500D03*
X64000Y-33500D03*
X65000Y-33500D03*
X66000Y-33500D03*
X67000Y-33500D03*
X68000Y-33500D03*
X69000Y-33500D03*
X70000Y-33500D03*
X54000Y-32500D03*
X55000Y-32500D03*
X56000Y-32500D03*
X57000Y-32500D03*
X58000Y-32500D03*
X59000Y-32500D03*
X60000Y-32500D03*
X61000Y-32500D03*
X62000Y-32500D03*
X63000Y-32500D03*
X64000Y-32500D03*
X65000Y-32500D03*
X66000Y-32500D03*
X67000Y-32500D03*
X68000Y-32500D03*
X69000Y-32500D03*
X70000Y-32500D03*
X54000Y-39500D03*
X55000Y-39500D03*
X56000Y-39500D03*
X57000Y-39500D03*
X58000Y-39500D03*
X59000Y-39500D03*
X60000Y-39500D03*
X61000Y-39500D03*
X62000Y-39500D03*
X63000Y-39500D03*
X64000Y-39500D03*
X65000Y-39500D03*
X66000Y-39500D03*
X67000Y-39500D03*
X68000Y-39500D03*
X69000Y-39500D03*
X70000Y-39500D03*
X54000Y-40500D03*
X55000Y-40500D03*
X56000Y-40500D03*
X57000Y-40500D03*
X58000Y-40500D03*
X59000Y-40500D03*
X60000Y-40500D03*
X61000Y-40500D03*
X62000Y-40500D03*
X63000Y-40500D03*
X64000Y-40500D03*
X65000Y-40500D03*
X66000Y-40500D03*
X67000Y-40500D03*
X68000Y-40500D03*
X69000Y-40500D03*
X70000Y-40500D03*
X54000Y-41500D03*
X55000Y-41500D03*
X56000Y-41500D03*
X57000Y-41500D03*
X58000Y-41500D03*
X59000Y-41500D03*
X60000Y-41500D03*
X61000Y-41500D03*
X62000Y-41500D03*
X63000Y-41500D03*
X64000Y-41500D03*
X65000Y-41500D03*
X66000Y-41500D03*
X67000Y-41500D03*
X68000Y-41500D03*
X69000Y-41500D03*
X70000Y-41500D03*
X54000Y-42500D03*
X55000Y-42500D03*
X56000Y-42500D03*
X57000Y-42500D03*
X58000Y-42500D03*
X59000Y-42500D03*
X60000Y-42500D03*
X61000Y-42500D03*
X62000Y-42500D03*
X63000Y-42500D03*
X64000Y-42500D03*
X65000Y-42500D03*
X66000Y-42500D03*
X67000Y-42500D03*
X68000Y-42500D03*
X69000Y-42500D03*
X70000Y-42500D03*
X54000Y-43500D03*
X55000Y-43500D03*
X56000Y-43500D03*
X57000Y-43500D03*
X58000Y-43500D03*
X59000Y-43500D03*
X60000Y-43500D03*
X61000Y-43500D03*
X62000Y-43500D03*
X63000Y-43500D03*
X64000Y-43500D03*
X65000Y-43500D03*
X66000Y-43500D03*
X67000Y-43500D03*
X68000Y-43500D03*
X69000Y-43500D03*
X70000Y-43500D03*
X54500Y-30000D03*
X55500Y-30000D03*
X56500Y-30000D03*
X57500Y-30000D03*
X58500Y-30000D03*
X60500Y-30000D03*
X61500Y-30000D03*
X62500Y-30000D03*
X63500Y-30000D03*
X65500Y-30000D03*
X66500Y-30000D03*
X67500Y-30000D03*
X68500Y-30000D03*
X69500Y-30000D03*
X54500Y-46000D03*
X55500Y-46000D03*
X56500Y-46000D03*
X57500Y-46000D03*
X58500Y-46000D03*
X60500Y-46000D03*
X61500Y-46000D03*
X62500Y-46000D03*
X63500Y-46000D03*
X65500Y-46000D03*
X66500Y-46000D03*
X67500Y-46000D03*
X68500Y-46000D03*
X69500Y-46000D03*
G54D13*
X54000Y-38000D03*
X70000Y-38000D03*
G54D14*
X55500Y-30000D02*
X54500Y-30000D01*
X58500Y-30000D02*
X57500Y-30000D01*
X61500Y-30000D02*
X60500Y-30000D01*
X67500Y-30000D02*
X66500Y-30000D01*
X66500Y-30000D02*
X65500Y-30000D01*
X63500Y-30000D02*
X62500Y-30000D01*
X65500Y-30000D02*
X63500Y-30000D01*
X68500Y-30000D02*
X67500Y-30000D01*
X69500Y-30000D02*
X68500Y-30000D01*
X56500Y-30000D02*
X55500Y-30000D01*
X57500Y-30000D02*
X56500Y-30000D01*
X60500Y-30000D02*
X58500Y-30000D01*
X62500Y-30000D02*
X61500Y-30000D01*
X54000Y-35500D02*
X54000Y-34500D01*
X54000Y-36500D02*
X54000Y-35500D01*
X54000Y-33500D02*
X54000Y-32500D01*
X54000Y-34500D02*
X54000Y-33500D01*
X63000Y-35500D02*
X63000Y-36500D01*
X63000Y-33500D02*
X63000Y-34500D01*
X63000Y-34500D02*
X63000Y-35500D01*
X63000Y-32500D02*
X63000Y-33500D01*
X64000Y-35500D02*
X64000Y-36500D01*
X64000Y-32500D02*
X64000Y-33500D01*
X64000Y-33500D02*
X64000Y-34500D01*
X64000Y-34500D02*
X64000Y-35500D01*
X65000Y-33500D02*
X65000Y-32500D01*
X65000Y-34500D02*
X65000Y-33500D01*
X65000Y-35500D02*
X65000Y-34500D01*
X65000Y-36500D02*
X65000Y-35500D01*
X66000Y-35500D02*
X66000Y-36500D01*
X66000Y-34500D02*
X66000Y-35500D01*
X66000Y-32500D02*
X66000Y-33500D01*
X66000Y-33500D02*
X66000Y-34500D01*
X67000Y-34500D02*
X67000Y-33500D01*
X67000Y-33500D02*
X67000Y-32500D01*
X67000Y-36500D02*
X67000Y-35500D01*
X67000Y-35500D02*
X67000Y-34500D01*
X68000Y-32500D02*
X68000Y-33500D01*
X68000Y-35500D02*
X68000Y-36500D01*
X68000Y-34500D02*
X68000Y-35500D01*
X68000Y-33500D02*
X68000Y-34500D01*
X69000Y-35500D02*
X69000Y-34500D01*
X69000Y-36500D02*
X69000Y-35500D01*
X69000Y-33500D02*
X69000Y-32500D01*
X69000Y-34500D02*
X69000Y-33500D01*
X70000Y-35500D02*
X70000Y-36500D01*
X70000Y-34500D02*
X70000Y-35500D01*
X70000Y-33500D02*
X70000Y-34500D01*
X70000Y-32500D02*
X70000Y-33500D01*
X55000Y-35500D02*
X55000Y-36500D01*
X55000Y-32500D02*
X55000Y-33500D01*
X55000Y-33500D02*
X55000Y-34500D01*
X55000Y-34500D02*
X55000Y-35500D01*
X56000Y-36500D02*
X56000Y-35500D01*
X56000Y-35500D02*
X56000Y-34500D01*
X56000Y-33500D02*
X56000Y-32500D01*
X56000Y-34500D02*
X56000Y-33500D01*
X57000Y-35500D02*
X57000Y-36500D01*
X57000Y-34500D02*
X57000Y-35500D01*
X57000Y-33500D02*
X57000Y-34500D01*
X57000Y-32500D02*
X57000Y-33500D01*
X58000Y-34500D02*
X58000Y-33500D01*
X58000Y-36500D02*
X58000Y-35500D01*
X58000Y-35500D02*
X58000Y-34500D01*
X58000Y-33500D02*
X58000Y-32500D01*
X59000Y-32500D02*
X59000Y-33500D01*
X59000Y-34500D02*
X59000Y-35500D01*
X59000Y-35500D02*
X59000Y-36500D01*
X59000Y-33500D02*
X59000Y-34500D01*
X60000Y-36500D02*
X60000Y-35500D01*
X60000Y-34500D02*
X60000Y-33500D01*
X60000Y-33500D02*
X60000Y-32500D01*
X60000Y-35500D02*
X60000Y-34500D01*
X61000Y-33500D02*
X61000Y-34500D01*
X61000Y-32500D02*
X61000Y-33500D01*
X61000Y-34500D02*
X61000Y-35500D01*
X61000Y-35500D02*
X61000Y-36500D01*
X62000Y-34500D02*
X62000Y-33500D01*
X62000Y-33500D02*
X62000Y-32500D01*
X62000Y-36500D02*
X62000Y-35500D01*
X62000Y-35500D02*
X62000Y-34500D01*
X54000Y-43500D02*
X54000Y-42500D01*
X54000Y-42500D02*
X54000Y-41500D01*
X54000Y-41500D02*
X54000Y-40500D01*
X54000Y-40500D02*
X54000Y-39500D01*
X63000Y-43500D02*
X63000Y-42500D01*
X63000Y-42500D02*
X63000Y-41500D01*
X63000Y-41500D02*
X63000Y-40500D01*
X63000Y-40500D02*
X63000Y-39500D01*
X64000Y-39500D02*
X64000Y-40500D01*
X64000Y-40500D02*
X64000Y-41500D01*
X64000Y-41500D02*
X64000Y-42500D01*
X64000Y-42500D02*
X64000Y-43500D01*
X65000Y-43500D02*
X65000Y-42500D01*
X65000Y-42500D02*
X65000Y-41500D01*
X65000Y-41500D02*
X65000Y-40500D01*
X65000Y-40500D02*
X65000Y-39500D01*
X66000Y-41500D02*
X66000Y-42500D01*
X66000Y-39500D02*
X66000Y-40500D01*
X66000Y-40500D02*
X66000Y-41500D01*
X66000Y-42500D02*
X66000Y-43500D01*
X67000Y-42500D02*
X67000Y-41500D01*
X67000Y-43500D02*
X67000Y-42500D01*
X67000Y-40500D02*
X67000Y-39500D01*
X67000Y-41500D02*
X67000Y-40500D01*
X68000Y-43500D02*
X68000Y-42500D01*
X68000Y-42500D02*
X68000Y-41500D01*
X68000Y-40500D02*
X68000Y-39500D01*
X68000Y-41500D02*
X68000Y-40500D01*
X69000Y-39500D02*
X69000Y-40500D01*
X69000Y-40500D02*
X69000Y-41500D01*
X69000Y-41500D02*
X69000Y-42500D01*
X69000Y-42500D02*
X69000Y-43500D01*
X70000Y-43500D02*
X70000Y-42500D01*
X70000Y-42500D02*
X70000Y-41500D01*
X70000Y-41500D02*
X70000Y-40500D01*
X70000Y-40500D02*
X70000Y-39500D01*
X55000Y-41500D02*
X55000Y-42500D01*
X55000Y-39500D02*
X55000Y-40500D01*
X55000Y-40500D02*
X55000Y-41500D01*
X55000Y-42500D02*
X55000Y-43500D01*
X56000Y-43500D02*
X56000Y-42500D01*
X56000Y-42500D02*
X56000Y-41500D01*
X56000Y-41500D02*
X56000Y-40500D01*
X56000Y-40500D02*
X56000Y-39500D01*
X57000Y-42500D02*
X57000Y-43500D01*
X57000Y-41500D02*
X57000Y-42500D01*
X57000Y-40500D02*
X57000Y-41500D01*
X57000Y-39500D02*
X57000Y-40500D01*
X58000Y-42500D02*
X58000Y-43500D01*
X58000Y-40500D02*
X58000Y-41500D01*
X58000Y-39500D02*
X58000Y-40500D01*
X58000Y-41500D02*
X58000Y-42500D01*
X59000Y-42500D02*
X59000Y-41500D01*
X59000Y-41500D02*
X59000Y-40500D01*
X59000Y-40500D02*
X59000Y-39500D01*
X59000Y-43500D02*
X59000Y-42500D01*
X60000Y-39500D02*
X60000Y-40500D01*
X60000Y-42500D02*
X60000Y-43500D01*
X60000Y-41500D02*
X60000Y-42500D01*
X60000Y-40500D02*
X60000Y-41500D01*
X61000Y-41500D02*
X61000Y-40500D01*
X61000Y-40500D02*
X61000Y-39500D01*
X61000Y-42500D02*
X61000Y-41500D01*
X61000Y-43500D02*
X61000Y-42500D01*
X62000Y-39500D02*
X62000Y-40500D01*
X62000Y-40500D02*
X62000Y-41000D01*
X62000Y-41000D02*
X62000Y-41500D01*
X62000Y-41500D02*
X62000Y-42500D01*
X62000Y-42500D02*
X62000Y-43500D01*
G54D10*
G36*
X71278Y-45477D02*
X71195Y-45891D01*
X70972Y-46225D01*
X70897Y-46274D01*
X70897Y-38179D01*
X70897Y-37822D01*
X70761Y-37492D01*
X70508Y-37240D01*
X70493Y-37233D01*
X70493Y-36500D01*
X70493Y-35500D01*
X70493Y-34500D01*
X70493Y-33500D01*
X70493Y-32500D01*
X70492Y-32495D01*
X70492Y-32402D01*
X70455Y-32314D01*
X70455Y-32311D01*
X70453Y-32308D01*
X70417Y-32221D01*
X70352Y-32156D01*
X70349Y-32151D01*
X70343Y-32147D01*
X70279Y-32083D01*
X70191Y-32046D01*
X70189Y-32045D01*
X70185Y-32044D01*
X70098Y-32008D01*
X70005Y-32008D01*
X70005Y-30071D01*
X69994Y-29873D01*
X69940Y-29741D01*
X69865Y-29704D01*
X69796Y-29773D01*
X69796Y-29635D01*
X69759Y-29560D01*
X69571Y-29495D01*
X69373Y-29506D01*
X69241Y-29560D01*
X69204Y-29635D01*
X69500Y-29931D01*
X69796Y-29635D01*
X69796Y-29773D01*
X69569Y-30000D01*
X69865Y-30296D01*
X69940Y-30259D01*
X70005Y-30071D01*
X70005Y-32008D01*
X70004Y-32008D01*
X70000Y-32007D01*
X69995Y-32008D01*
X69902Y-32008D01*
X69814Y-32044D01*
X69811Y-32045D01*
X69808Y-32046D01*
X69796Y-32051D01*
X69796Y-30365D01*
X69500Y-30069D01*
X69431Y-30138D01*
X69431Y-30000D01*
X69135Y-29704D01*
X69060Y-29741D01*
X68996Y-29923D01*
X68994Y-29873D01*
X68940Y-29741D01*
X68865Y-29704D01*
X68796Y-29773D01*
X68796Y-29635D01*
X68759Y-29560D01*
X68571Y-29495D01*
X68373Y-29506D01*
X68241Y-29560D01*
X68204Y-29635D01*
X68500Y-29931D01*
X68796Y-29635D01*
X68796Y-29773D01*
X68569Y-30000D01*
X68865Y-30296D01*
X68940Y-30259D01*
X69003Y-30076D01*
X69006Y-30127D01*
X69060Y-30259D01*
X69135Y-30296D01*
X69431Y-30000D01*
X69431Y-30138D01*
X69204Y-30365D01*
X69241Y-30440D01*
X69429Y-30505D01*
X69627Y-30494D01*
X69759Y-30440D01*
X69796Y-30365D01*
X69796Y-32051D01*
X69721Y-32083D01*
X69656Y-32147D01*
X69651Y-32151D01*
X69647Y-32156D01*
X69583Y-32221D01*
X69546Y-32308D01*
X69545Y-32311D01*
X69544Y-32314D01*
X69508Y-32402D01*
X69508Y-32495D01*
X69507Y-32500D01*
X69507Y-33500D01*
X69507Y-34500D01*
X69507Y-35500D01*
X69507Y-36500D01*
X69508Y-36504D01*
X69508Y-36598D01*
X69544Y-36685D01*
X69545Y-36689D01*
X69546Y-36691D01*
X69583Y-36779D01*
X69647Y-36843D01*
X69651Y-36849D01*
X69656Y-36852D01*
X69721Y-36917D01*
X69808Y-36953D01*
X69811Y-36955D01*
X69814Y-36955D01*
X69902Y-36992D01*
X69995Y-36992D01*
X70000Y-36993D01*
X70004Y-36992D01*
X70098Y-36992D01*
X70185Y-36955D01*
X70189Y-36955D01*
X70191Y-36953D01*
X70279Y-36917D01*
X70343Y-36852D01*
X70349Y-36849D01*
X70352Y-36843D01*
X70417Y-36779D01*
X70453Y-36691D01*
X70455Y-36689D01*
X70455Y-36685D01*
X70492Y-36598D01*
X70492Y-36504D01*
X70493Y-36500D01*
X70493Y-37233D01*
X70179Y-37103D01*
X69822Y-37103D01*
X69493Y-37238D01*
X69493Y-36500D01*
X69493Y-35500D01*
X69493Y-34500D01*
X69493Y-33500D01*
X69493Y-32500D01*
X69492Y-32495D01*
X69492Y-32402D01*
X69455Y-32314D01*
X69455Y-32311D01*
X69453Y-32308D01*
X69417Y-32221D01*
X69352Y-32156D01*
X69349Y-32151D01*
X69343Y-32147D01*
X69279Y-32083D01*
X69191Y-32046D01*
X69189Y-32045D01*
X69185Y-32044D01*
X69098Y-32008D01*
X69004Y-32008D01*
X69000Y-32007D01*
X68995Y-32008D01*
X68902Y-32008D01*
X68814Y-32044D01*
X68811Y-32045D01*
X68808Y-32046D01*
X68796Y-32051D01*
X68796Y-30365D01*
X68500Y-30069D01*
X68431Y-30138D01*
X68431Y-30000D01*
X68135Y-29704D01*
X68060Y-29741D01*
X67996Y-29923D01*
X67994Y-29873D01*
X67940Y-29741D01*
X67865Y-29704D01*
X67796Y-29773D01*
X67796Y-29635D01*
X67759Y-29560D01*
X67571Y-29495D01*
X67373Y-29506D01*
X67241Y-29560D01*
X67204Y-29635D01*
X67500Y-29931D01*
X67796Y-29635D01*
X67796Y-29773D01*
X67569Y-30000D01*
X67865Y-30296D01*
X67940Y-30259D01*
X68003Y-30076D01*
X68006Y-30127D01*
X68060Y-30259D01*
X68135Y-30296D01*
X68431Y-30000D01*
X68431Y-30138D01*
X68204Y-30365D01*
X68241Y-30440D01*
X68429Y-30505D01*
X68627Y-30494D01*
X68759Y-30440D01*
X68796Y-30365D01*
X68796Y-32051D01*
X68721Y-32083D01*
X68656Y-32147D01*
X68651Y-32151D01*
X68647Y-32156D01*
X68583Y-32221D01*
X68546Y-32308D01*
X68545Y-32311D01*
X68544Y-32314D01*
X68508Y-32402D01*
X68508Y-32495D01*
X68507Y-32500D01*
X68507Y-33500D01*
X68507Y-34500D01*
X68507Y-35500D01*
X68507Y-36500D01*
X68508Y-36504D01*
X68508Y-36598D01*
X68544Y-36685D01*
X68545Y-36689D01*
X68546Y-36691D01*
X68583Y-36779D01*
X68647Y-36843D01*
X68651Y-36849D01*
X68656Y-36852D01*
X68721Y-36917D01*
X68808Y-36953D01*
X68811Y-36955D01*
X68814Y-36955D01*
X68902Y-36992D01*
X68995Y-36992D01*
X69000Y-36993D01*
X69004Y-36992D01*
X69098Y-36992D01*
X69185Y-36955D01*
X69189Y-36955D01*
X69191Y-36953D01*
X69279Y-36917D01*
X69343Y-36852D01*
X69349Y-36849D01*
X69352Y-36843D01*
X69417Y-36779D01*
X69453Y-36691D01*
X69455Y-36689D01*
X69455Y-36685D01*
X69492Y-36598D01*
X69492Y-36504D01*
X69493Y-36500D01*
X69493Y-37238D01*
X69492Y-37239D01*
X69240Y-37492D01*
X69103Y-37821D01*
X69103Y-38178D01*
X69239Y-38508D01*
X69492Y-38760D01*
X69821Y-38897D01*
X70178Y-38897D01*
X70508Y-38761D01*
X70760Y-38508D01*
X70897Y-38179D01*
X70897Y-46274D01*
X70639Y-46446D01*
X70493Y-46475D01*
X70493Y-43500D01*
X70493Y-42500D01*
X70493Y-41500D01*
X70493Y-40500D01*
X70493Y-39500D01*
X70492Y-39495D01*
X70492Y-39402D01*
X70455Y-39314D01*
X70455Y-39311D01*
X70453Y-39308D01*
X70417Y-39221D01*
X70352Y-39156D01*
X70349Y-39151D01*
X70343Y-39147D01*
X70279Y-39083D01*
X70191Y-39046D01*
X70189Y-39045D01*
X70185Y-39044D01*
X70098Y-39008D01*
X70004Y-39008D01*
X70000Y-39007D01*
X69995Y-39008D01*
X69902Y-39008D01*
X69814Y-39044D01*
X69811Y-39045D01*
X69808Y-39046D01*
X69721Y-39083D01*
X69656Y-39147D01*
X69651Y-39151D01*
X69647Y-39156D01*
X69583Y-39221D01*
X69546Y-39308D01*
X69545Y-39311D01*
X69544Y-39314D01*
X69508Y-39402D01*
X69508Y-39495D01*
X69507Y-39500D01*
X69507Y-40500D01*
X69507Y-41500D01*
X69507Y-42500D01*
X69507Y-43500D01*
X69508Y-43504D01*
X69508Y-43598D01*
X69544Y-43685D01*
X69545Y-43689D01*
X69546Y-43691D01*
X69583Y-43779D01*
X69647Y-43843D01*
X69651Y-43849D01*
X69656Y-43852D01*
X69721Y-43917D01*
X69808Y-43953D01*
X69811Y-43955D01*
X69814Y-43955D01*
X69902Y-43992D01*
X69995Y-43992D01*
X70000Y-43993D01*
X70004Y-43992D01*
X70098Y-43992D01*
X70185Y-43955D01*
X70189Y-43955D01*
X70191Y-43953D01*
X70279Y-43917D01*
X70343Y-43852D01*
X70349Y-43849D01*
X70352Y-43843D01*
X70417Y-43779D01*
X70453Y-43691D01*
X70455Y-43689D01*
X70455Y-43685D01*
X70492Y-43598D01*
X70492Y-43504D01*
X70493Y-43500D01*
X70493Y-46475D01*
X70227Y-46528D01*
X69992Y-46528D01*
X69992Y-46098D01*
X69992Y-45902D01*
X69917Y-45721D01*
X69779Y-45583D01*
X69598Y-45508D01*
X69493Y-45508D01*
X69493Y-43500D01*
X69493Y-42500D01*
X69493Y-41500D01*
X69493Y-40500D01*
X69493Y-39500D01*
X69492Y-39495D01*
X69492Y-39402D01*
X69455Y-39314D01*
X69455Y-39311D01*
X69453Y-39308D01*
X69417Y-39221D01*
X69352Y-39156D01*
X69349Y-39151D01*
X69343Y-39147D01*
X69279Y-39083D01*
X69191Y-39046D01*
X69189Y-39045D01*
X69185Y-39044D01*
X69098Y-39008D01*
X69004Y-39008D01*
X69000Y-39007D01*
X68995Y-39008D01*
X68902Y-39008D01*
X68814Y-39044D01*
X68811Y-39045D01*
X68808Y-39046D01*
X68721Y-39083D01*
X68656Y-39147D01*
X68651Y-39151D01*
X68647Y-39156D01*
X68583Y-39221D01*
X68546Y-39308D01*
X68545Y-39311D01*
X68544Y-39314D01*
X68508Y-39402D01*
X68508Y-39495D01*
X68507Y-39500D01*
X68507Y-40500D01*
X68507Y-41500D01*
X68507Y-42500D01*
X68507Y-43500D01*
X68508Y-43504D01*
X68508Y-43598D01*
X68544Y-43685D01*
X68545Y-43689D01*
X68546Y-43691D01*
X68583Y-43779D01*
X68647Y-43843D01*
X68651Y-43849D01*
X68656Y-43852D01*
X68721Y-43917D01*
X68808Y-43953D01*
X68811Y-43955D01*
X68814Y-43955D01*
X68902Y-43992D01*
X68995Y-43992D01*
X69000Y-43993D01*
X69004Y-43992D01*
X69098Y-43992D01*
X69185Y-43955D01*
X69189Y-43955D01*
X69191Y-43953D01*
X69279Y-43917D01*
X69343Y-43852D01*
X69349Y-43849D01*
X69352Y-43843D01*
X69417Y-43779D01*
X69453Y-43691D01*
X69455Y-43689D01*
X69455Y-43685D01*
X69492Y-43598D01*
X69492Y-43504D01*
X69493Y-43500D01*
X69493Y-45508D01*
X69402Y-45508D01*
X69221Y-45583D01*
X69083Y-45721D01*
X69008Y-45902D01*
X69008Y-46098D01*
X69083Y-46279D01*
X69221Y-46417D01*
X69402Y-46492D01*
X69598Y-46492D01*
X69779Y-46417D01*
X69917Y-46279D01*
X69992Y-46098D01*
X69992Y-46528D01*
X68992Y-46528D01*
X68992Y-46098D01*
X68992Y-45902D01*
X68917Y-45721D01*
X68779Y-45583D01*
X68598Y-45508D01*
X68493Y-45508D01*
X68493Y-43500D01*
X68493Y-42500D01*
X68493Y-41500D01*
X68493Y-40500D01*
X68493Y-39500D01*
X68493Y-36500D01*
X68493Y-35500D01*
X68493Y-34500D01*
X68493Y-33500D01*
X68493Y-32500D01*
X68492Y-32495D01*
X68492Y-32402D01*
X68455Y-32314D01*
X68455Y-32311D01*
X68453Y-32308D01*
X68417Y-32221D01*
X68352Y-32156D01*
X68349Y-32151D01*
X68343Y-32147D01*
X68279Y-32083D01*
X68191Y-32046D01*
X68189Y-32045D01*
X68185Y-32044D01*
X68098Y-32008D01*
X68004Y-32008D01*
X68000Y-32007D01*
X67995Y-32008D01*
X67902Y-32008D01*
X67814Y-32044D01*
X67811Y-32045D01*
X67808Y-32046D01*
X67796Y-32051D01*
X67796Y-30365D01*
X67500Y-30069D01*
X67431Y-30138D01*
X67431Y-30000D01*
X67135Y-29704D01*
X67060Y-29741D01*
X66996Y-29923D01*
X66994Y-29873D01*
X66940Y-29741D01*
X66865Y-29704D01*
X66796Y-29773D01*
X66796Y-29635D01*
X66759Y-29560D01*
X66571Y-29495D01*
X66373Y-29506D01*
X66241Y-29560D01*
X66204Y-29635D01*
X66500Y-29931D01*
X66796Y-29635D01*
X66796Y-29773D01*
X66569Y-30000D01*
X66865Y-30296D01*
X66940Y-30259D01*
X67003Y-30076D01*
X67006Y-30127D01*
X67060Y-30259D01*
X67135Y-30296D01*
X67431Y-30000D01*
X67431Y-30138D01*
X67204Y-30365D01*
X67241Y-30440D01*
X67429Y-30505D01*
X67627Y-30494D01*
X67759Y-30440D01*
X67796Y-30365D01*
X67796Y-32051D01*
X67721Y-32083D01*
X67656Y-32147D01*
X67651Y-32151D01*
X67647Y-32156D01*
X67583Y-32221D01*
X67546Y-32308D01*
X67545Y-32311D01*
X67544Y-32314D01*
X67508Y-32402D01*
X67508Y-32495D01*
X67507Y-32500D01*
X67507Y-33500D01*
X67507Y-34500D01*
X67507Y-35500D01*
X67507Y-36500D01*
X67508Y-36504D01*
X67508Y-36598D01*
X67544Y-36685D01*
X67545Y-36689D01*
X67546Y-36691D01*
X67583Y-36779D01*
X67647Y-36843D01*
X67651Y-36849D01*
X67656Y-36852D01*
X67721Y-36917D01*
X67808Y-36953D01*
X67811Y-36955D01*
X67814Y-36955D01*
X67902Y-36992D01*
X67995Y-36992D01*
X68000Y-36993D01*
X68004Y-36992D01*
X68098Y-36992D01*
X68185Y-36955D01*
X68189Y-36955D01*
X68191Y-36953D01*
X68279Y-36917D01*
X68343Y-36852D01*
X68349Y-36849D01*
X68352Y-36843D01*
X68417Y-36779D01*
X68453Y-36691D01*
X68455Y-36689D01*
X68455Y-36685D01*
X68492Y-36598D01*
X68492Y-36504D01*
X68493Y-36500D01*
X68493Y-39500D01*
X68492Y-39495D01*
X68492Y-39402D01*
X68455Y-39314D01*
X68455Y-39311D01*
X68453Y-39308D01*
X68417Y-39221D01*
X68352Y-39156D01*
X68349Y-39151D01*
X68343Y-39147D01*
X68279Y-39083D01*
X68191Y-39046D01*
X68189Y-39045D01*
X68185Y-39044D01*
X68098Y-39008D01*
X68004Y-39008D01*
X68000Y-39007D01*
X67995Y-39008D01*
X67902Y-39008D01*
X67814Y-39044D01*
X67811Y-39045D01*
X67808Y-39046D01*
X67721Y-39083D01*
X67656Y-39147D01*
X67651Y-39151D01*
X67647Y-39156D01*
X67583Y-39221D01*
X67546Y-39308D01*
X67545Y-39311D01*
X67544Y-39314D01*
X67508Y-39402D01*
X67508Y-39495D01*
X67507Y-39500D01*
X67507Y-40500D01*
X67507Y-41500D01*
X67507Y-42500D01*
X67507Y-43500D01*
X67508Y-43504D01*
X67508Y-43598D01*
X67544Y-43685D01*
X67545Y-43689D01*
X67546Y-43691D01*
X67583Y-43779D01*
X67647Y-43843D01*
X67651Y-43849D01*
X67656Y-43852D01*
X67721Y-43917D01*
X67808Y-43953D01*
X67811Y-43955D01*
X67814Y-43955D01*
X67902Y-43992D01*
X67995Y-43992D01*
X68000Y-43993D01*
X68004Y-43992D01*
X68098Y-43992D01*
X68185Y-43955D01*
X68189Y-43955D01*
X68191Y-43953D01*
X68279Y-43917D01*
X68343Y-43852D01*
X68349Y-43849D01*
X68352Y-43843D01*
X68417Y-43779D01*
X68453Y-43691D01*
X68455Y-43689D01*
X68455Y-43685D01*
X68492Y-43598D01*
X68492Y-43504D01*
X68493Y-43500D01*
X68493Y-45508D01*
X68402Y-45508D01*
X68221Y-45583D01*
X68083Y-45721D01*
X68008Y-45902D01*
X68008Y-46098D01*
X68083Y-46279D01*
X68221Y-46417D01*
X68402Y-46492D01*
X68598Y-46492D01*
X68779Y-46417D01*
X68917Y-46279D01*
X68992Y-46098D01*
X68992Y-46528D01*
X67992Y-46528D01*
X67992Y-46098D01*
X67992Y-45902D01*
X67917Y-45721D01*
X67779Y-45583D01*
X67598Y-45508D01*
X67493Y-45508D01*
X67493Y-43500D01*
X67493Y-42500D01*
X67493Y-41500D01*
X67493Y-40500D01*
X67493Y-39500D01*
X67493Y-36500D01*
X67493Y-35500D01*
X67493Y-34500D01*
X67493Y-33500D01*
X67493Y-32500D01*
X67492Y-32495D01*
X67492Y-32402D01*
X67455Y-32314D01*
X67455Y-32311D01*
X67453Y-32308D01*
X67417Y-32221D01*
X67352Y-32156D01*
X67349Y-32151D01*
X67343Y-32147D01*
X67279Y-32083D01*
X67191Y-32046D01*
X67189Y-32045D01*
X67185Y-32044D01*
X67098Y-32008D01*
X67004Y-32008D01*
X67000Y-32007D01*
X66995Y-32008D01*
X66902Y-32008D01*
X66814Y-32044D01*
X66811Y-32045D01*
X66808Y-32046D01*
X66796Y-32051D01*
X66796Y-30365D01*
X66500Y-30069D01*
X66431Y-30138D01*
X66431Y-30000D01*
X66135Y-29704D01*
X66060Y-29741D01*
X65996Y-29923D01*
X65994Y-29873D01*
X65940Y-29741D01*
X65865Y-29704D01*
X65796Y-29773D01*
X65796Y-29635D01*
X65759Y-29560D01*
X65571Y-29495D01*
X65373Y-29506D01*
X65241Y-29560D01*
X65204Y-29635D01*
X65500Y-29931D01*
X65796Y-29635D01*
X65796Y-29773D01*
X65569Y-30000D01*
X65865Y-30296D01*
X65940Y-30259D01*
X66003Y-30076D01*
X66006Y-30127D01*
X66060Y-30259D01*
X66135Y-30296D01*
X66431Y-30000D01*
X66431Y-30138D01*
X66204Y-30365D01*
X66241Y-30440D01*
X66429Y-30505D01*
X66627Y-30494D01*
X66759Y-30440D01*
X66796Y-30365D01*
X66796Y-32051D01*
X66721Y-32083D01*
X66656Y-32147D01*
X66651Y-32151D01*
X66647Y-32156D01*
X66583Y-32221D01*
X66546Y-32308D01*
X66545Y-32311D01*
X66544Y-32314D01*
X66508Y-32402D01*
X66508Y-32495D01*
X66507Y-32500D01*
X66507Y-33500D01*
X66507Y-34500D01*
X66507Y-35500D01*
X66507Y-36500D01*
X66508Y-36504D01*
X66508Y-36598D01*
X66544Y-36685D01*
X66545Y-36689D01*
X66546Y-36691D01*
X66583Y-36779D01*
X66647Y-36843D01*
X66651Y-36849D01*
X66656Y-36852D01*
X66721Y-36917D01*
X66808Y-36953D01*
X66811Y-36955D01*
X66814Y-36955D01*
X66902Y-36992D01*
X66995Y-36992D01*
X67000Y-36993D01*
X67004Y-36992D01*
X67098Y-36992D01*
X67185Y-36955D01*
X67189Y-36955D01*
X67191Y-36953D01*
X67279Y-36917D01*
X67343Y-36852D01*
X67349Y-36849D01*
X67352Y-36843D01*
X67417Y-36779D01*
X67453Y-36691D01*
X67455Y-36689D01*
X67455Y-36685D01*
X67492Y-36598D01*
X67492Y-36504D01*
X67493Y-36500D01*
X67493Y-39500D01*
X67492Y-39495D01*
X67492Y-39402D01*
X67455Y-39314D01*
X67455Y-39311D01*
X67453Y-39308D01*
X67417Y-39221D01*
X67352Y-39156D01*
X67349Y-39151D01*
X67343Y-39147D01*
X67279Y-39083D01*
X67191Y-39046D01*
X67189Y-39045D01*
X67185Y-39044D01*
X67098Y-39008D01*
X67004Y-39008D01*
X67000Y-39007D01*
X66995Y-39008D01*
X66902Y-39008D01*
X66814Y-39044D01*
X66811Y-39045D01*
X66808Y-39046D01*
X66721Y-39083D01*
X66656Y-39147D01*
X66651Y-39151D01*
X66647Y-39156D01*
X66583Y-39221D01*
X66546Y-39308D01*
X66545Y-39311D01*
X66544Y-39314D01*
X66508Y-39402D01*
X66508Y-39495D01*
X66507Y-39500D01*
X66507Y-40500D01*
X66507Y-41500D01*
X66507Y-42500D01*
X66507Y-43500D01*
X66508Y-43504D01*
X66508Y-43598D01*
X66544Y-43685D01*
X66545Y-43689D01*
X66546Y-43691D01*
X66583Y-43779D01*
X66647Y-43843D01*
X66651Y-43849D01*
X66656Y-43852D01*
X66721Y-43917D01*
X66808Y-43953D01*
X66811Y-43955D01*
X66814Y-43955D01*
X66902Y-43992D01*
X66995Y-43992D01*
X67000Y-43993D01*
X67004Y-43992D01*
X67098Y-43992D01*
X67185Y-43955D01*
X67189Y-43955D01*
X67191Y-43953D01*
X67279Y-43917D01*
X67343Y-43852D01*
X67349Y-43849D01*
X67352Y-43843D01*
X67417Y-43779D01*
X67453Y-43691D01*
X67455Y-43689D01*
X67455Y-43685D01*
X67492Y-43598D01*
X67492Y-43504D01*
X67493Y-43500D01*
X67493Y-45508D01*
X67402Y-45508D01*
X67221Y-45583D01*
X67083Y-45721D01*
X67008Y-45902D01*
X67008Y-46098D01*
X67083Y-46279D01*
X67221Y-46417D01*
X67402Y-46492D01*
X67598Y-46492D01*
X67779Y-46417D01*
X67917Y-46279D01*
X67992Y-46098D01*
X67992Y-46528D01*
X66992Y-46528D01*
X66992Y-46098D01*
X66992Y-45902D01*
X66917Y-45721D01*
X66779Y-45583D01*
X66598Y-45508D01*
X66493Y-45508D01*
X66493Y-43500D01*
X66493Y-42500D01*
X66493Y-41500D01*
X66493Y-40500D01*
X66493Y-39500D01*
X66493Y-36500D01*
X66493Y-35500D01*
X66493Y-34500D01*
X66493Y-33500D01*
X66493Y-32500D01*
X66492Y-32495D01*
X66492Y-32402D01*
X66455Y-32314D01*
X66455Y-32311D01*
X66453Y-32308D01*
X66417Y-32221D01*
X66352Y-32156D01*
X66349Y-32151D01*
X66343Y-32147D01*
X66279Y-32083D01*
X66191Y-32046D01*
X66189Y-32045D01*
X66185Y-32044D01*
X66098Y-32008D01*
X66004Y-32008D01*
X66000Y-32007D01*
X65995Y-32008D01*
X65902Y-32008D01*
X65814Y-32044D01*
X65811Y-32045D01*
X65808Y-32046D01*
X65796Y-32051D01*
X65796Y-30365D01*
X65500Y-30069D01*
X65431Y-30138D01*
X65431Y-30000D01*
X65135Y-29704D01*
X65060Y-29741D01*
X64995Y-29929D01*
X65006Y-30127D01*
X65060Y-30259D01*
X65135Y-30296D01*
X65431Y-30000D01*
X65431Y-30138D01*
X65204Y-30365D01*
X65241Y-30440D01*
X65429Y-30505D01*
X65627Y-30494D01*
X65759Y-30440D01*
X65796Y-30365D01*
X65796Y-32051D01*
X65721Y-32083D01*
X65656Y-32147D01*
X65651Y-32151D01*
X65647Y-32156D01*
X65583Y-32221D01*
X65546Y-32308D01*
X65545Y-32311D01*
X65544Y-32314D01*
X65508Y-32402D01*
X65508Y-32495D01*
X65507Y-32500D01*
X65507Y-33500D01*
X65507Y-34500D01*
X65507Y-35500D01*
X65507Y-36500D01*
X65508Y-36504D01*
X65508Y-36598D01*
X65544Y-36685D01*
X65545Y-36689D01*
X65546Y-36691D01*
X65583Y-36779D01*
X65647Y-36843D01*
X65651Y-36849D01*
X65656Y-36852D01*
X65721Y-36917D01*
X65808Y-36953D01*
X65811Y-36955D01*
X65814Y-36955D01*
X65902Y-36992D01*
X65995Y-36992D01*
X66000Y-36993D01*
X66004Y-36992D01*
X66098Y-36992D01*
X66185Y-36955D01*
X66189Y-36955D01*
X66191Y-36953D01*
X66279Y-36917D01*
X66343Y-36852D01*
X66349Y-36849D01*
X66352Y-36843D01*
X66417Y-36779D01*
X66453Y-36691D01*
X66455Y-36689D01*
X66455Y-36685D01*
X66492Y-36598D01*
X66492Y-36504D01*
X66493Y-36500D01*
X66493Y-39500D01*
X66492Y-39495D01*
X66492Y-39402D01*
X66455Y-39314D01*
X66455Y-39311D01*
X66453Y-39308D01*
X66417Y-39221D01*
X66352Y-39156D01*
X66349Y-39151D01*
X66343Y-39147D01*
X66279Y-39083D01*
X66191Y-39046D01*
X66189Y-39045D01*
X66185Y-39044D01*
X66098Y-39008D01*
X66004Y-39008D01*
X66000Y-39007D01*
X65995Y-39008D01*
X65902Y-39008D01*
X65814Y-39044D01*
X65811Y-39045D01*
X65808Y-39046D01*
X65721Y-39083D01*
X65656Y-39147D01*
X65651Y-39151D01*
X65647Y-39156D01*
X65583Y-39221D01*
X65546Y-39308D01*
X65545Y-39311D01*
X65544Y-39314D01*
X65508Y-39402D01*
X65508Y-39495D01*
X65507Y-39500D01*
X65507Y-40500D01*
X65507Y-41500D01*
X65507Y-42500D01*
X65507Y-43500D01*
X65508Y-43504D01*
X65508Y-43598D01*
X65544Y-43685D01*
X65545Y-43689D01*
X65546Y-43691D01*
X65583Y-43779D01*
X65647Y-43843D01*
X65651Y-43849D01*
X65656Y-43852D01*
X65721Y-43917D01*
X65808Y-43953D01*
X65811Y-43955D01*
X65814Y-43955D01*
X65902Y-43992D01*
X65995Y-43992D01*
X66000Y-43993D01*
X66004Y-43992D01*
X66098Y-43992D01*
X66185Y-43955D01*
X66189Y-43955D01*
X66191Y-43953D01*
X66279Y-43917D01*
X66343Y-43852D01*
X66349Y-43849D01*
X66352Y-43843D01*
X66417Y-43779D01*
X66453Y-43691D01*
X66455Y-43689D01*
X66455Y-43685D01*
X66492Y-43598D01*
X66492Y-43504D01*
X66493Y-43500D01*
X66493Y-45508D01*
X66402Y-45508D01*
X66221Y-45583D01*
X66083Y-45721D01*
X66008Y-45902D01*
X66008Y-46098D01*
X66083Y-46279D01*
X66221Y-46417D01*
X66402Y-46492D01*
X66598Y-46492D01*
X66779Y-46417D01*
X66917Y-46279D01*
X66992Y-46098D01*
X66992Y-46528D01*
X65992Y-46528D01*
X65992Y-46098D01*
X65992Y-45902D01*
X65917Y-45721D01*
X65779Y-45583D01*
X65598Y-45508D01*
X65493Y-45508D01*
X65493Y-43500D01*
X65493Y-42500D01*
X65493Y-41500D01*
X65493Y-40500D01*
X65493Y-39500D01*
X65493Y-36500D01*
X65493Y-35500D01*
X65493Y-34500D01*
X65493Y-33500D01*
X65493Y-32500D01*
X65492Y-32495D01*
X65492Y-32402D01*
X65455Y-32314D01*
X65455Y-32311D01*
X65453Y-32308D01*
X65417Y-32221D01*
X65352Y-32156D01*
X65349Y-32151D01*
X65343Y-32147D01*
X65279Y-32083D01*
X65191Y-32046D01*
X65189Y-32045D01*
X65185Y-32044D01*
X65098Y-32008D01*
X65004Y-32008D01*
X65000Y-32007D01*
X64995Y-32008D01*
X64902Y-32008D01*
X64814Y-32044D01*
X64811Y-32045D01*
X64808Y-32046D01*
X64721Y-32083D01*
X64656Y-32147D01*
X64651Y-32151D01*
X64647Y-32156D01*
X64583Y-32221D01*
X64546Y-32308D01*
X64545Y-32311D01*
X64544Y-32314D01*
X64508Y-32402D01*
X64508Y-32495D01*
X64507Y-32500D01*
X64507Y-33500D01*
X64507Y-34500D01*
X64507Y-35500D01*
X64507Y-36500D01*
X64508Y-36504D01*
X64508Y-36598D01*
X64544Y-36685D01*
X64545Y-36689D01*
X64546Y-36691D01*
X64583Y-36779D01*
X64647Y-36843D01*
X64651Y-36849D01*
X64656Y-36852D01*
X64721Y-36917D01*
X64808Y-36953D01*
X64811Y-36955D01*
X64814Y-36955D01*
X64902Y-36992D01*
X64995Y-36992D01*
X65000Y-36993D01*
X65004Y-36992D01*
X65098Y-36992D01*
X65185Y-36955D01*
X65189Y-36955D01*
X65191Y-36953D01*
X65279Y-36917D01*
X65343Y-36852D01*
X65349Y-36849D01*
X65352Y-36843D01*
X65417Y-36779D01*
X65453Y-36691D01*
X65455Y-36689D01*
X65455Y-36685D01*
X65492Y-36598D01*
X65492Y-36504D01*
X65493Y-36500D01*
X65493Y-39500D01*
X65492Y-39495D01*
X65492Y-39402D01*
X65455Y-39314D01*
X65455Y-39311D01*
X65453Y-39308D01*
X65417Y-39221D01*
X65352Y-39156D01*
X65349Y-39151D01*
X65343Y-39147D01*
X65279Y-39083D01*
X65191Y-39046D01*
X65189Y-39045D01*
X65185Y-39044D01*
X65098Y-39008D01*
X65004Y-39008D01*
X65000Y-39007D01*
X64995Y-39008D01*
X64902Y-39008D01*
X64814Y-39044D01*
X64811Y-39045D01*
X64808Y-39046D01*
X64721Y-39083D01*
X64656Y-39147D01*
X64651Y-39151D01*
X64647Y-39156D01*
X64583Y-39221D01*
X64546Y-39308D01*
X64545Y-39311D01*
X64544Y-39314D01*
X64508Y-39402D01*
X64508Y-39495D01*
X64507Y-39500D01*
X64507Y-40500D01*
X64507Y-41500D01*
X64507Y-42500D01*
X64507Y-43500D01*
X64508Y-43504D01*
X64508Y-43598D01*
X64544Y-43685D01*
X64545Y-43689D01*
X64546Y-43691D01*
X64583Y-43779D01*
X64647Y-43843D01*
X64651Y-43849D01*
X64656Y-43852D01*
X64721Y-43917D01*
X64808Y-43953D01*
X64811Y-43955D01*
X64814Y-43955D01*
X64902Y-43992D01*
X64995Y-43992D01*
X65000Y-43993D01*
X65004Y-43992D01*
X65098Y-43992D01*
X65185Y-43955D01*
X65189Y-43955D01*
X65191Y-43953D01*
X65279Y-43917D01*
X65343Y-43852D01*
X65349Y-43849D01*
X65352Y-43843D01*
X65417Y-43779D01*
X65453Y-43691D01*
X65455Y-43689D01*
X65455Y-43685D01*
X65492Y-43598D01*
X65492Y-43504D01*
X65493Y-43500D01*
X65493Y-45508D01*
X65402Y-45508D01*
X65221Y-45583D01*
X65083Y-45721D01*
X65008Y-45902D01*
X65008Y-46098D01*
X65083Y-46279D01*
X65221Y-46417D01*
X65402Y-46492D01*
X65598Y-46492D01*
X65779Y-46417D01*
X65917Y-46279D01*
X65992Y-46098D01*
X65992Y-46528D01*
X64493Y-46528D01*
X64493Y-43500D01*
X64493Y-42500D01*
X64493Y-41500D01*
X64493Y-40500D01*
X64493Y-39500D01*
X64493Y-36500D01*
X64493Y-35500D01*
X64493Y-34500D01*
X64493Y-33500D01*
X64493Y-32500D01*
X64492Y-32495D01*
X64492Y-32402D01*
X64455Y-32314D01*
X64455Y-32311D01*
X64453Y-32308D01*
X64417Y-32221D01*
X64352Y-32156D01*
X64349Y-32151D01*
X64343Y-32147D01*
X64279Y-32083D01*
X64191Y-32046D01*
X64189Y-32045D01*
X64185Y-32044D01*
X64098Y-32008D01*
X64005Y-32008D01*
X64005Y-30071D01*
X63994Y-29873D01*
X63940Y-29741D01*
X63865Y-29704D01*
X63796Y-29773D01*
X63796Y-29635D01*
X63759Y-29560D01*
X63571Y-29495D01*
X63373Y-29506D01*
X63241Y-29560D01*
X63204Y-29635D01*
X63500Y-29931D01*
X63796Y-29635D01*
X63796Y-29773D01*
X63569Y-30000D01*
X63865Y-30296D01*
X63940Y-30259D01*
X64005Y-30071D01*
X64005Y-32008D01*
X64004Y-32008D01*
X64000Y-32007D01*
X63995Y-32008D01*
X63902Y-32008D01*
X63814Y-32044D01*
X63811Y-32045D01*
X63808Y-32046D01*
X63796Y-32051D01*
X63796Y-30365D01*
X63500Y-30069D01*
X63431Y-30138D01*
X63431Y-30000D01*
X63135Y-29704D01*
X63060Y-29741D01*
X62996Y-29923D01*
X62994Y-29873D01*
X62940Y-29741D01*
X62865Y-29704D01*
X62796Y-29773D01*
X62796Y-29635D01*
X62759Y-29560D01*
X62571Y-29495D01*
X62373Y-29506D01*
X62241Y-29560D01*
X62204Y-29635D01*
X62500Y-29931D01*
X62796Y-29635D01*
X62796Y-29773D01*
X62569Y-30000D01*
X62865Y-30296D01*
X62940Y-30259D01*
X63003Y-30076D01*
X63006Y-30127D01*
X63060Y-30259D01*
X63135Y-30296D01*
X63431Y-30000D01*
X63431Y-30138D01*
X63204Y-30365D01*
X63241Y-30440D01*
X63429Y-30505D01*
X63627Y-30494D01*
X63759Y-30440D01*
X63796Y-30365D01*
X63796Y-32051D01*
X63721Y-32083D01*
X63656Y-32147D01*
X63651Y-32151D01*
X63647Y-32156D01*
X63583Y-32221D01*
X63546Y-32308D01*
X63545Y-32311D01*
X63544Y-32314D01*
X63508Y-32402D01*
X63508Y-32495D01*
X63507Y-32500D01*
X63507Y-33500D01*
X63507Y-34500D01*
X63507Y-35500D01*
X63507Y-36500D01*
X63508Y-36504D01*
X63508Y-36598D01*
X63544Y-36685D01*
X63545Y-36689D01*
X63546Y-36691D01*
X63583Y-36779D01*
X63647Y-36843D01*
X63651Y-36849D01*
X63656Y-36852D01*
X63721Y-36917D01*
X63808Y-36953D01*
X63811Y-36955D01*
X63814Y-36955D01*
X63902Y-36992D01*
X63995Y-36992D01*
X64000Y-36993D01*
X64004Y-36992D01*
X64098Y-36992D01*
X64185Y-36955D01*
X64189Y-36955D01*
X64191Y-36953D01*
X64279Y-36917D01*
X64343Y-36852D01*
X64349Y-36849D01*
X64352Y-36843D01*
X64417Y-36779D01*
X64453Y-36691D01*
X64455Y-36689D01*
X64455Y-36685D01*
X64492Y-36598D01*
X64492Y-36504D01*
X64493Y-36500D01*
X64493Y-39500D01*
X64492Y-39495D01*
X64492Y-39402D01*
X64455Y-39314D01*
X64455Y-39311D01*
X64453Y-39308D01*
X64417Y-39221D01*
X64352Y-39156D01*
X64349Y-39151D01*
X64343Y-39147D01*
X64279Y-39083D01*
X64191Y-39046D01*
X64189Y-39045D01*
X64185Y-39044D01*
X64098Y-39008D01*
X64004Y-39008D01*
X64000Y-39007D01*
X63995Y-39008D01*
X63902Y-39008D01*
X63814Y-39044D01*
X63811Y-39045D01*
X63808Y-39046D01*
X63721Y-39083D01*
X63656Y-39147D01*
X63651Y-39151D01*
X63647Y-39156D01*
X63583Y-39221D01*
X63546Y-39308D01*
X63545Y-39311D01*
X63544Y-39314D01*
X63508Y-39402D01*
X63508Y-39495D01*
X63507Y-39500D01*
X63507Y-40500D01*
X63507Y-41500D01*
X63507Y-42500D01*
X63507Y-43500D01*
X63508Y-43504D01*
X63508Y-43598D01*
X63544Y-43685D01*
X63545Y-43689D01*
X63546Y-43691D01*
X63583Y-43779D01*
X63647Y-43843D01*
X63651Y-43849D01*
X63656Y-43852D01*
X63721Y-43917D01*
X63808Y-43953D01*
X63811Y-43955D01*
X63814Y-43955D01*
X63902Y-43992D01*
X63995Y-43992D01*
X64000Y-43993D01*
X64004Y-43992D01*
X64098Y-43992D01*
X64185Y-43955D01*
X64189Y-43955D01*
X64191Y-43953D01*
X64279Y-43917D01*
X64343Y-43852D01*
X64349Y-43849D01*
X64352Y-43843D01*
X64417Y-43779D01*
X64453Y-43691D01*
X64455Y-43689D01*
X64455Y-43685D01*
X64492Y-43598D01*
X64492Y-43504D01*
X64493Y-43500D01*
X64493Y-46528D01*
X63992Y-46528D01*
X63992Y-46098D01*
X63992Y-45902D01*
X63917Y-45721D01*
X63779Y-45583D01*
X63598Y-45508D01*
X63493Y-45508D01*
X63493Y-43500D01*
X63493Y-42500D01*
X63493Y-41500D01*
X63493Y-40500D01*
X63493Y-39500D01*
X63493Y-36500D01*
X63493Y-35500D01*
X63493Y-34500D01*
X63493Y-33500D01*
X63493Y-32500D01*
X63492Y-32495D01*
X63492Y-32402D01*
X63455Y-32314D01*
X63455Y-32311D01*
X63453Y-32308D01*
X63417Y-32221D01*
X63352Y-32156D01*
X63349Y-32151D01*
X63343Y-32147D01*
X63279Y-32083D01*
X63191Y-32046D01*
X63189Y-32045D01*
X63185Y-32044D01*
X63098Y-32008D01*
X63004Y-32008D01*
X63000Y-32007D01*
X62995Y-32008D01*
X62902Y-32008D01*
X62814Y-32044D01*
X62811Y-32045D01*
X62808Y-32046D01*
X62796Y-32051D01*
X62796Y-30365D01*
X62500Y-30069D01*
X62431Y-30138D01*
X62431Y-30000D01*
X62135Y-29704D01*
X62060Y-29741D01*
X61996Y-29923D01*
X61994Y-29873D01*
X61940Y-29741D01*
X61865Y-29704D01*
X61796Y-29773D01*
X61796Y-29635D01*
X61759Y-29560D01*
X61571Y-29495D01*
X61373Y-29506D01*
X61241Y-29560D01*
X61204Y-29635D01*
X61500Y-29931D01*
X61796Y-29635D01*
X61796Y-29773D01*
X61569Y-30000D01*
X61865Y-30296D01*
X61940Y-30259D01*
X62003Y-30076D01*
X62006Y-30127D01*
X62060Y-30259D01*
X62135Y-30296D01*
X62431Y-30000D01*
X62431Y-30138D01*
X62204Y-30365D01*
X62241Y-30440D01*
X62429Y-30505D01*
X62627Y-30494D01*
X62759Y-30440D01*
X62796Y-30365D01*
X62796Y-32051D01*
X62721Y-32083D01*
X62656Y-32147D01*
X62651Y-32151D01*
X62647Y-32156D01*
X62583Y-32221D01*
X62546Y-32308D01*
X62545Y-32311D01*
X62544Y-32314D01*
X62508Y-32402D01*
X62508Y-32495D01*
X62507Y-32500D01*
X62507Y-33500D01*
X62507Y-34500D01*
X62507Y-35500D01*
X62507Y-36500D01*
X62508Y-36504D01*
X62508Y-36598D01*
X62544Y-36685D01*
X62545Y-36689D01*
X62546Y-36691D01*
X62583Y-36779D01*
X62647Y-36843D01*
X62651Y-36849D01*
X62656Y-36852D01*
X62721Y-36917D01*
X62808Y-36953D01*
X62811Y-36955D01*
X62814Y-36955D01*
X62902Y-36992D01*
X62995Y-36992D01*
X63000Y-36993D01*
X63004Y-36992D01*
X63098Y-36992D01*
X63185Y-36955D01*
X63189Y-36955D01*
X63191Y-36953D01*
X63279Y-36917D01*
X63343Y-36852D01*
X63349Y-36849D01*
X63352Y-36843D01*
X63417Y-36779D01*
X63453Y-36691D01*
X63455Y-36689D01*
X63455Y-36685D01*
X63492Y-36598D01*
X63492Y-36504D01*
X63493Y-36500D01*
X63493Y-39500D01*
X63492Y-39495D01*
X63492Y-39402D01*
X63455Y-39314D01*
X63455Y-39311D01*
X63453Y-39308D01*
X63417Y-39221D01*
X63352Y-39156D01*
X63349Y-39151D01*
X63343Y-39147D01*
X63279Y-39083D01*
X63191Y-39046D01*
X63189Y-39045D01*
X63185Y-39044D01*
X63098Y-39008D01*
X63004Y-39008D01*
X63000Y-39007D01*
X62995Y-39008D01*
X62902Y-39008D01*
X62814Y-39044D01*
X62811Y-39045D01*
X62808Y-39046D01*
X62721Y-39083D01*
X62656Y-39147D01*
X62651Y-39151D01*
X62647Y-39156D01*
X62583Y-39221D01*
X62546Y-39308D01*
X62545Y-39311D01*
X62544Y-39314D01*
X62508Y-39402D01*
X62508Y-39495D01*
X62507Y-39500D01*
X62507Y-40500D01*
X62507Y-41500D01*
X62507Y-42500D01*
X62507Y-43500D01*
X62508Y-43504D01*
X62508Y-43598D01*
X62544Y-43685D01*
X62545Y-43689D01*
X62546Y-43691D01*
X62583Y-43779D01*
X62647Y-43843D01*
X62651Y-43849D01*
X62656Y-43852D01*
X62721Y-43917D01*
X62808Y-43953D01*
X62811Y-43955D01*
X62814Y-43955D01*
X62902Y-43992D01*
X62995Y-43992D01*
X63000Y-43993D01*
X63004Y-43992D01*
X63098Y-43992D01*
X63185Y-43955D01*
X63189Y-43955D01*
X63191Y-43953D01*
X63279Y-43917D01*
X63343Y-43852D01*
X63349Y-43849D01*
X63352Y-43843D01*
X63417Y-43779D01*
X63453Y-43691D01*
X63455Y-43689D01*
X63455Y-43685D01*
X63492Y-43598D01*
X63492Y-43504D01*
X63493Y-43500D01*
X63493Y-45508D01*
X63402Y-45508D01*
X63221Y-45583D01*
X63083Y-45721D01*
X63008Y-45902D01*
X63008Y-46098D01*
X63083Y-46279D01*
X63221Y-46417D01*
X63402Y-46492D01*
X63598Y-46492D01*
X63779Y-46417D01*
X63917Y-46279D01*
X63992Y-46098D01*
X63992Y-46528D01*
X62992Y-46528D01*
X62992Y-46098D01*
X62992Y-45902D01*
X62917Y-45721D01*
X62779Y-45583D01*
X62598Y-45508D01*
X62493Y-45508D01*
X62493Y-43500D01*
X62493Y-42500D01*
X62493Y-41500D01*
X62493Y-41000D01*
X62493Y-40500D01*
X62493Y-39500D01*
X62493Y-36500D01*
X62493Y-35500D01*
X62493Y-34500D01*
X62493Y-33500D01*
X62493Y-32500D01*
X62492Y-32495D01*
X62492Y-32402D01*
X62455Y-32314D01*
X62455Y-32311D01*
X62453Y-32308D01*
X62417Y-32221D01*
X62352Y-32156D01*
X62349Y-32151D01*
X62343Y-32147D01*
X62279Y-32083D01*
X62191Y-32046D01*
X62189Y-32045D01*
X62185Y-32044D01*
X62098Y-32008D01*
X62004Y-32008D01*
X62000Y-32007D01*
X61995Y-32008D01*
X61902Y-32008D01*
X61814Y-32044D01*
X61811Y-32045D01*
X61808Y-32046D01*
X61796Y-32051D01*
X61796Y-30365D01*
X61500Y-30069D01*
X61431Y-30138D01*
X61431Y-30000D01*
X61135Y-29704D01*
X61060Y-29741D01*
X60996Y-29923D01*
X60994Y-29873D01*
X60940Y-29741D01*
X60865Y-29704D01*
X60796Y-29773D01*
X60796Y-29635D01*
X60759Y-29560D01*
X60571Y-29495D01*
X60373Y-29506D01*
X60241Y-29560D01*
X60204Y-29635D01*
X60500Y-29931D01*
X60796Y-29635D01*
X60796Y-29773D01*
X60569Y-30000D01*
X60865Y-30296D01*
X60940Y-30259D01*
X61003Y-30076D01*
X61006Y-30127D01*
X61060Y-30259D01*
X61135Y-30296D01*
X61431Y-30000D01*
X61431Y-30138D01*
X61204Y-30365D01*
X61241Y-30440D01*
X61429Y-30505D01*
X61627Y-30494D01*
X61759Y-30440D01*
X61796Y-30365D01*
X61796Y-32051D01*
X61721Y-32083D01*
X61656Y-32147D01*
X61651Y-32151D01*
X61647Y-32156D01*
X61583Y-32221D01*
X61546Y-32308D01*
X61545Y-32311D01*
X61544Y-32314D01*
X61508Y-32402D01*
X61508Y-32495D01*
X61507Y-32500D01*
X61507Y-33500D01*
X61507Y-34500D01*
X61507Y-35500D01*
X61507Y-36500D01*
X61508Y-36504D01*
X61508Y-36598D01*
X61544Y-36685D01*
X61545Y-36689D01*
X61546Y-36691D01*
X61583Y-36779D01*
X61647Y-36843D01*
X61651Y-36849D01*
X61656Y-36852D01*
X61721Y-36917D01*
X61808Y-36953D01*
X61811Y-36955D01*
X61814Y-36955D01*
X61902Y-36992D01*
X61995Y-36992D01*
X62000Y-36993D01*
X62004Y-36992D01*
X62098Y-36992D01*
X62185Y-36955D01*
X62189Y-36955D01*
X62191Y-36953D01*
X62279Y-36917D01*
X62343Y-36852D01*
X62349Y-36849D01*
X62352Y-36843D01*
X62417Y-36779D01*
X62453Y-36691D01*
X62455Y-36689D01*
X62455Y-36685D01*
X62492Y-36598D01*
X62492Y-36504D01*
X62493Y-36500D01*
X62493Y-39500D01*
X62492Y-39495D01*
X62492Y-39402D01*
X62455Y-39314D01*
X62455Y-39311D01*
X62453Y-39308D01*
X62417Y-39221D01*
X62352Y-39156D01*
X62349Y-39151D01*
X62343Y-39147D01*
X62279Y-39083D01*
X62191Y-39046D01*
X62189Y-39045D01*
X62185Y-39044D01*
X62098Y-39008D01*
X62004Y-39008D01*
X62000Y-39007D01*
X61995Y-39008D01*
X61902Y-39008D01*
X61814Y-39044D01*
X61811Y-39045D01*
X61808Y-39046D01*
X61721Y-39083D01*
X61656Y-39147D01*
X61651Y-39151D01*
X61647Y-39156D01*
X61583Y-39221D01*
X61546Y-39308D01*
X61545Y-39311D01*
X61544Y-39314D01*
X61508Y-39402D01*
X61508Y-39495D01*
X61507Y-39500D01*
X61507Y-40500D01*
X61507Y-41000D01*
X61507Y-41500D01*
X61507Y-42500D01*
X61507Y-43500D01*
X61508Y-43504D01*
X61508Y-43598D01*
X61544Y-43685D01*
X61545Y-43689D01*
X61546Y-43691D01*
X61583Y-43779D01*
X61647Y-43843D01*
X61651Y-43849D01*
X61656Y-43852D01*
X61721Y-43917D01*
X61808Y-43953D01*
X61811Y-43955D01*
X61814Y-43955D01*
X61902Y-43992D01*
X61995Y-43992D01*
X62000Y-43993D01*
X62004Y-43992D01*
X62098Y-43992D01*
X62185Y-43955D01*
X62189Y-43955D01*
X62191Y-43953D01*
X62279Y-43917D01*
X62343Y-43852D01*
X62349Y-43849D01*
X62352Y-43843D01*
X62417Y-43779D01*
X62453Y-43691D01*
X62455Y-43689D01*
X62455Y-43685D01*
X62492Y-43598D01*
X62492Y-43504D01*
X62493Y-43500D01*
X62493Y-45508D01*
X62402Y-45508D01*
X62221Y-45583D01*
X62083Y-45721D01*
X62008Y-45902D01*
X62008Y-46098D01*
X62083Y-46279D01*
X62221Y-46417D01*
X62402Y-46492D01*
X62598Y-46492D01*
X62779Y-46417D01*
X62917Y-46279D01*
X62992Y-46098D01*
X62992Y-46528D01*
X61992Y-46528D01*
X61992Y-46098D01*
X61992Y-45902D01*
X61917Y-45721D01*
X61779Y-45583D01*
X61598Y-45508D01*
X61493Y-45508D01*
X61493Y-43500D01*
X61493Y-42500D01*
X61493Y-41500D01*
X61493Y-40500D01*
X61493Y-39500D01*
X61493Y-36500D01*
X61493Y-35500D01*
X61493Y-34500D01*
X61493Y-33500D01*
X61493Y-32500D01*
X61492Y-32495D01*
X61492Y-32402D01*
X61455Y-32314D01*
X61455Y-32311D01*
X61453Y-32308D01*
X61417Y-32221D01*
X61352Y-32156D01*
X61349Y-32151D01*
X61343Y-32147D01*
X61279Y-32083D01*
X61191Y-32046D01*
X61189Y-32045D01*
X61185Y-32044D01*
X61098Y-32008D01*
X61004Y-32008D01*
X61000Y-32007D01*
X60995Y-32008D01*
X60902Y-32008D01*
X60814Y-32044D01*
X60811Y-32045D01*
X60808Y-32046D01*
X60796Y-32051D01*
X60796Y-30365D01*
X60500Y-30069D01*
X60431Y-30138D01*
X60431Y-30000D01*
X60135Y-29704D01*
X60060Y-29741D01*
X59995Y-29929D01*
X60006Y-30127D01*
X60060Y-30259D01*
X60135Y-30296D01*
X60431Y-30000D01*
X60431Y-30138D01*
X60204Y-30365D01*
X60241Y-30440D01*
X60429Y-30505D01*
X60627Y-30494D01*
X60759Y-30440D01*
X60796Y-30365D01*
X60796Y-32051D01*
X60721Y-32083D01*
X60656Y-32147D01*
X60651Y-32151D01*
X60647Y-32156D01*
X60583Y-32221D01*
X60546Y-32308D01*
X60545Y-32311D01*
X60544Y-32314D01*
X60508Y-32402D01*
X60508Y-32495D01*
X60507Y-32500D01*
X60507Y-33500D01*
X60507Y-34500D01*
X60507Y-35500D01*
X60507Y-36500D01*
X60508Y-36504D01*
X60508Y-36598D01*
X60544Y-36685D01*
X60545Y-36689D01*
X60546Y-36691D01*
X60583Y-36779D01*
X60647Y-36843D01*
X60651Y-36849D01*
X60656Y-36852D01*
X60721Y-36917D01*
X60808Y-36953D01*
X60811Y-36955D01*
X60814Y-36955D01*
X60902Y-36992D01*
X60995Y-36992D01*
X61000Y-36993D01*
X61004Y-36992D01*
X61098Y-36992D01*
X61185Y-36955D01*
X61189Y-36955D01*
X61191Y-36953D01*
X61279Y-36917D01*
X61343Y-36852D01*
X61349Y-36849D01*
X61352Y-36843D01*
X61417Y-36779D01*
X61453Y-36691D01*
X61455Y-36689D01*
X61455Y-36685D01*
X61492Y-36598D01*
X61492Y-36504D01*
X61493Y-36500D01*
X61493Y-39500D01*
X61492Y-39495D01*
X61492Y-39402D01*
X61455Y-39314D01*
X61455Y-39311D01*
X61453Y-39308D01*
X61417Y-39221D01*
X61352Y-39156D01*
X61349Y-39151D01*
X61343Y-39147D01*
X61279Y-39083D01*
X61191Y-39046D01*
X61189Y-39045D01*
X61185Y-39044D01*
X61098Y-39008D01*
X61004Y-39008D01*
X61000Y-39007D01*
X60995Y-39008D01*
X60902Y-39008D01*
X60814Y-39044D01*
X60811Y-39045D01*
X60808Y-39046D01*
X60721Y-39083D01*
X60656Y-39147D01*
X60651Y-39151D01*
X60647Y-39156D01*
X60583Y-39221D01*
X60546Y-39308D01*
X60545Y-39311D01*
X60544Y-39314D01*
X60508Y-39402D01*
X60508Y-39495D01*
X60507Y-39500D01*
X60507Y-40500D01*
X60507Y-41500D01*
X60507Y-42500D01*
X60507Y-43500D01*
X60508Y-43504D01*
X60508Y-43598D01*
X60544Y-43685D01*
X60545Y-43689D01*
X60546Y-43691D01*
X60583Y-43779D01*
X60647Y-43843D01*
X60651Y-43849D01*
X60656Y-43852D01*
X60721Y-43917D01*
X60808Y-43953D01*
X60811Y-43955D01*
X60814Y-43955D01*
X60902Y-43992D01*
X60995Y-43992D01*
X61000Y-43993D01*
X61004Y-43992D01*
X61098Y-43992D01*
X61185Y-43955D01*
X61189Y-43955D01*
X61191Y-43953D01*
X61279Y-43917D01*
X61343Y-43852D01*
X61349Y-43849D01*
X61352Y-43843D01*
X61417Y-43779D01*
X61453Y-43691D01*
X61455Y-43689D01*
X61455Y-43685D01*
X61492Y-43598D01*
X61492Y-43504D01*
X61493Y-43500D01*
X61493Y-45508D01*
X61402Y-45508D01*
X61221Y-45583D01*
X61083Y-45721D01*
X61008Y-45902D01*
X61008Y-46098D01*
X61083Y-46279D01*
X61221Y-46417D01*
X61402Y-46492D01*
X61598Y-46492D01*
X61779Y-46417D01*
X61917Y-46279D01*
X61992Y-46098D01*
X61992Y-46528D01*
X60992Y-46528D01*
X60992Y-46098D01*
X60992Y-45902D01*
X60917Y-45721D01*
X60779Y-45583D01*
X60598Y-45508D01*
X60493Y-45508D01*
X60493Y-43500D01*
X60493Y-42500D01*
X60493Y-41500D01*
X60493Y-40500D01*
X60493Y-39500D01*
X60493Y-36500D01*
X60493Y-35500D01*
X60493Y-34500D01*
X60493Y-33500D01*
X60493Y-32500D01*
X60492Y-32495D01*
X60492Y-32402D01*
X60455Y-32314D01*
X60455Y-32311D01*
X60453Y-32308D01*
X60417Y-32221D01*
X60352Y-32156D01*
X60349Y-32151D01*
X60343Y-32147D01*
X60279Y-32083D01*
X60191Y-32046D01*
X60189Y-32045D01*
X60185Y-32044D01*
X60098Y-32008D01*
X60004Y-32008D01*
X60000Y-32007D01*
X59995Y-32008D01*
X59902Y-32008D01*
X59814Y-32044D01*
X59811Y-32045D01*
X59808Y-32046D01*
X59721Y-32083D01*
X59656Y-32147D01*
X59651Y-32151D01*
X59647Y-32156D01*
X59583Y-32221D01*
X59546Y-32308D01*
X59545Y-32311D01*
X59544Y-32314D01*
X59508Y-32402D01*
X59508Y-32495D01*
X59507Y-32500D01*
X59507Y-33500D01*
X59507Y-34500D01*
X59507Y-35500D01*
X59507Y-36500D01*
X59508Y-36504D01*
X59508Y-36598D01*
X59544Y-36685D01*
X59545Y-36689D01*
X59546Y-36691D01*
X59583Y-36779D01*
X59647Y-36843D01*
X59651Y-36849D01*
X59656Y-36852D01*
X59721Y-36917D01*
X59808Y-36953D01*
X59811Y-36955D01*
X59814Y-36955D01*
X59902Y-36992D01*
X59995Y-36992D01*
X60000Y-36993D01*
X60004Y-36992D01*
X60098Y-36992D01*
X60185Y-36955D01*
X60189Y-36955D01*
X60191Y-36953D01*
X60279Y-36917D01*
X60343Y-36852D01*
X60349Y-36849D01*
X60352Y-36843D01*
X60417Y-36779D01*
X60453Y-36691D01*
X60455Y-36689D01*
X60455Y-36685D01*
X60492Y-36598D01*
X60492Y-36504D01*
X60493Y-36500D01*
X60493Y-39500D01*
X60492Y-39495D01*
X60492Y-39402D01*
X60455Y-39314D01*
X60455Y-39311D01*
X60453Y-39308D01*
X60417Y-39221D01*
X60352Y-39156D01*
X60349Y-39151D01*
X60343Y-39147D01*
X60279Y-39083D01*
X60191Y-39046D01*
X60189Y-39045D01*
X60185Y-39044D01*
X60098Y-39008D01*
X60004Y-39008D01*
X60000Y-39007D01*
X59995Y-39008D01*
X59902Y-39008D01*
X59814Y-39044D01*
X59811Y-39045D01*
X59808Y-39046D01*
X59721Y-39083D01*
X59656Y-39147D01*
X59651Y-39151D01*
X59647Y-39156D01*
X59583Y-39221D01*
X59546Y-39308D01*
X59545Y-39311D01*
X59544Y-39314D01*
X59508Y-39402D01*
X59508Y-39495D01*
X59507Y-39500D01*
X59507Y-40500D01*
X59507Y-41500D01*
X59507Y-42500D01*
X59507Y-43500D01*
X59508Y-43504D01*
X59508Y-43598D01*
X59544Y-43685D01*
X59545Y-43689D01*
X59546Y-43691D01*
X59583Y-43779D01*
X59647Y-43843D01*
X59651Y-43849D01*
X59656Y-43852D01*
X59721Y-43917D01*
X59808Y-43953D01*
X59811Y-43955D01*
X59814Y-43955D01*
X59902Y-43992D01*
X59995Y-43992D01*
X60000Y-43993D01*
X60004Y-43992D01*
X60098Y-43992D01*
X60185Y-43955D01*
X60189Y-43955D01*
X60191Y-43953D01*
X60279Y-43917D01*
X60343Y-43852D01*
X60349Y-43849D01*
X60352Y-43843D01*
X60417Y-43779D01*
X60453Y-43691D01*
X60455Y-43689D01*
X60455Y-43685D01*
X60492Y-43598D01*
X60492Y-43504D01*
X60493Y-43500D01*
X60493Y-45508D01*
X60402Y-45508D01*
X60221Y-45583D01*
X60083Y-45721D01*
X60008Y-45902D01*
X60008Y-46098D01*
X60083Y-46279D01*
X60221Y-46417D01*
X60402Y-46492D01*
X60598Y-46492D01*
X60779Y-46417D01*
X60917Y-46279D01*
X60992Y-46098D01*
X60992Y-46528D01*
X59493Y-46528D01*
X59493Y-43500D01*
X59493Y-42500D01*
X59493Y-41500D01*
X59493Y-40500D01*
X59493Y-39500D01*
X59493Y-36500D01*
X59493Y-35500D01*
X59493Y-34500D01*
X59493Y-33500D01*
X59493Y-32500D01*
X59492Y-32495D01*
X59492Y-32402D01*
X59455Y-32314D01*
X59455Y-32311D01*
X59453Y-32308D01*
X59417Y-32221D01*
X59352Y-32156D01*
X59349Y-32151D01*
X59343Y-32147D01*
X59279Y-32083D01*
X59191Y-32046D01*
X59189Y-32045D01*
X59185Y-32044D01*
X59098Y-32008D01*
X59005Y-32008D01*
X59005Y-30071D01*
X58994Y-29873D01*
X58940Y-29741D01*
X58865Y-29704D01*
X58796Y-29773D01*
X58796Y-29635D01*
X58759Y-29560D01*
X58571Y-29495D01*
X58373Y-29506D01*
X58241Y-29560D01*
X58204Y-29635D01*
X58500Y-29931D01*
X58796Y-29635D01*
X58796Y-29773D01*
X58569Y-30000D01*
X58865Y-30296D01*
X58940Y-30259D01*
X59005Y-30071D01*
X59005Y-32008D01*
X59004Y-32008D01*
X59000Y-32007D01*
X58995Y-32008D01*
X58902Y-32008D01*
X58814Y-32044D01*
X58811Y-32045D01*
X58808Y-32046D01*
X58796Y-32051D01*
X58796Y-30365D01*
X58500Y-30069D01*
X58431Y-30138D01*
X58431Y-30000D01*
X58135Y-29704D01*
X58060Y-29741D01*
X57996Y-29923D01*
X57994Y-29873D01*
X57940Y-29741D01*
X57865Y-29704D01*
X57796Y-29773D01*
X57796Y-29635D01*
X57759Y-29560D01*
X57571Y-29495D01*
X57373Y-29506D01*
X57241Y-29560D01*
X57204Y-29635D01*
X57500Y-29931D01*
X57796Y-29635D01*
X57796Y-29773D01*
X57569Y-30000D01*
X57865Y-30296D01*
X57940Y-30259D01*
X58003Y-30076D01*
X58006Y-30127D01*
X58060Y-30259D01*
X58135Y-30296D01*
X58431Y-30000D01*
X58431Y-30138D01*
X58204Y-30365D01*
X58241Y-30440D01*
X58429Y-30505D01*
X58627Y-30494D01*
X58759Y-30440D01*
X58796Y-30365D01*
X58796Y-32051D01*
X58721Y-32083D01*
X58656Y-32147D01*
X58651Y-32151D01*
X58647Y-32156D01*
X58583Y-32221D01*
X58546Y-32308D01*
X58545Y-32311D01*
X58544Y-32314D01*
X58508Y-32402D01*
X58508Y-32495D01*
X58507Y-32500D01*
X58507Y-33500D01*
X58507Y-34500D01*
X58507Y-35500D01*
X58507Y-36500D01*
X58508Y-36504D01*
X58508Y-36598D01*
X58544Y-36685D01*
X58545Y-36689D01*
X58546Y-36691D01*
X58583Y-36779D01*
X58647Y-36843D01*
X58651Y-36849D01*
X58656Y-36852D01*
X58721Y-36917D01*
X58808Y-36953D01*
X58811Y-36955D01*
X58814Y-36955D01*
X58902Y-36992D01*
X58995Y-36992D01*
X59000Y-36993D01*
X59004Y-36992D01*
X59098Y-36992D01*
X59185Y-36955D01*
X59189Y-36955D01*
X59191Y-36953D01*
X59279Y-36917D01*
X59343Y-36852D01*
X59349Y-36849D01*
X59352Y-36843D01*
X59417Y-36779D01*
X59453Y-36691D01*
X59455Y-36689D01*
X59455Y-36685D01*
X59492Y-36598D01*
X59492Y-36504D01*
X59493Y-36500D01*
X59493Y-39500D01*
X59492Y-39495D01*
X59492Y-39402D01*
X59455Y-39314D01*
X59455Y-39311D01*
X59453Y-39308D01*
X59417Y-39221D01*
X59352Y-39156D01*
X59349Y-39151D01*
X59343Y-39147D01*
X59279Y-39083D01*
X59191Y-39046D01*
X59189Y-39045D01*
X59185Y-39044D01*
X59098Y-39008D01*
X59004Y-39008D01*
X59000Y-39007D01*
X58995Y-39008D01*
X58902Y-39008D01*
X58814Y-39044D01*
X58811Y-39045D01*
X58808Y-39046D01*
X58721Y-39083D01*
X58656Y-39147D01*
X58651Y-39151D01*
X58647Y-39156D01*
X58583Y-39221D01*
X58546Y-39308D01*
X58545Y-39311D01*
X58544Y-39314D01*
X58508Y-39402D01*
X58508Y-39495D01*
X58507Y-39500D01*
X58507Y-40500D01*
X58507Y-41500D01*
X58507Y-42500D01*
X58507Y-43500D01*
X58508Y-43504D01*
X58508Y-43598D01*
X58544Y-43685D01*
X58545Y-43689D01*
X58546Y-43691D01*
X58583Y-43779D01*
X58647Y-43843D01*
X58651Y-43849D01*
X58656Y-43852D01*
X58721Y-43917D01*
X58808Y-43953D01*
X58811Y-43955D01*
X58814Y-43955D01*
X58902Y-43992D01*
X58995Y-43992D01*
X59000Y-43993D01*
X59004Y-43992D01*
X59098Y-43992D01*
X59185Y-43955D01*
X59189Y-43955D01*
X59191Y-43953D01*
X59279Y-43917D01*
X59343Y-43852D01*
X59349Y-43849D01*
X59352Y-43843D01*
X59417Y-43779D01*
X59453Y-43691D01*
X59455Y-43689D01*
X59455Y-43685D01*
X59492Y-43598D01*
X59492Y-43504D01*
X59493Y-43500D01*
X59493Y-46528D01*
X58992Y-46528D01*
X58992Y-46098D01*
X58992Y-45902D01*
X58917Y-45721D01*
X58779Y-45583D01*
X58598Y-45508D01*
X58493Y-45508D01*
X58493Y-43500D01*
X58493Y-42500D01*
X58493Y-41500D01*
X58493Y-40500D01*
X58493Y-39500D01*
X58493Y-36500D01*
X58493Y-35500D01*
X58493Y-34500D01*
X58493Y-33500D01*
X58493Y-32500D01*
X58492Y-32495D01*
X58492Y-32402D01*
X58455Y-32314D01*
X58455Y-32311D01*
X58453Y-32308D01*
X58417Y-32221D01*
X58352Y-32156D01*
X58349Y-32151D01*
X58343Y-32147D01*
X58279Y-32083D01*
X58191Y-32046D01*
X58189Y-32045D01*
X58185Y-32044D01*
X58098Y-32008D01*
X58004Y-32008D01*
X58000Y-32007D01*
X57995Y-32008D01*
X57902Y-32008D01*
X57814Y-32044D01*
X57811Y-32045D01*
X57808Y-32046D01*
X57796Y-32051D01*
X57796Y-30365D01*
X57500Y-30069D01*
X57431Y-30138D01*
X57431Y-30000D01*
X57135Y-29704D01*
X57060Y-29741D01*
X56996Y-29923D01*
X56994Y-29873D01*
X56940Y-29741D01*
X56865Y-29704D01*
X56796Y-29773D01*
X56796Y-29635D01*
X56759Y-29560D01*
X56571Y-29495D01*
X56373Y-29506D01*
X56241Y-29560D01*
X56204Y-29635D01*
X56500Y-29931D01*
X56796Y-29635D01*
X56796Y-29773D01*
X56569Y-30000D01*
X56865Y-30296D01*
X56940Y-30259D01*
X57003Y-30076D01*
X57006Y-30127D01*
X57060Y-30259D01*
X57135Y-30296D01*
X57431Y-30000D01*
X57431Y-30138D01*
X57204Y-30365D01*
X57241Y-30440D01*
X57429Y-30505D01*
X57627Y-30494D01*
X57759Y-30440D01*
X57796Y-30365D01*
X57796Y-32051D01*
X57721Y-32083D01*
X57656Y-32147D01*
X57651Y-32151D01*
X57647Y-32156D01*
X57583Y-32221D01*
X57546Y-32308D01*
X57545Y-32311D01*
X57544Y-32314D01*
X57508Y-32402D01*
X57508Y-32495D01*
X57507Y-32500D01*
X57507Y-33500D01*
X57507Y-34500D01*
X57507Y-35500D01*
X57507Y-36500D01*
X57508Y-36504D01*
X57508Y-36598D01*
X57544Y-36685D01*
X57545Y-36689D01*
X57546Y-36691D01*
X57583Y-36779D01*
X57647Y-36843D01*
X57651Y-36849D01*
X57656Y-36852D01*
X57721Y-36917D01*
X57808Y-36953D01*
X57811Y-36955D01*
X57814Y-36955D01*
X57902Y-36992D01*
X57995Y-36992D01*
X58000Y-36993D01*
X58004Y-36992D01*
X58098Y-36992D01*
X58185Y-36955D01*
X58189Y-36955D01*
X58191Y-36953D01*
X58279Y-36917D01*
X58343Y-36852D01*
X58349Y-36849D01*
X58352Y-36843D01*
X58417Y-36779D01*
X58453Y-36691D01*
X58455Y-36689D01*
X58455Y-36685D01*
X58492Y-36598D01*
X58492Y-36504D01*
X58493Y-36500D01*
X58493Y-39500D01*
X58492Y-39495D01*
X58492Y-39402D01*
X58455Y-39314D01*
X58455Y-39311D01*
X58453Y-39308D01*
X58417Y-39221D01*
X58352Y-39156D01*
X58349Y-39151D01*
X58343Y-39147D01*
X58279Y-39083D01*
X58191Y-39046D01*
X58189Y-39045D01*
X58185Y-39044D01*
X58098Y-39008D01*
X58004Y-39008D01*
X58000Y-39007D01*
X57995Y-39008D01*
X57902Y-39008D01*
X57814Y-39044D01*
X57811Y-39045D01*
X57808Y-39046D01*
X57721Y-39083D01*
X57656Y-39147D01*
X57651Y-39151D01*
X57647Y-39156D01*
X57583Y-39221D01*
X57546Y-39308D01*
X57545Y-39311D01*
X57544Y-39314D01*
X57508Y-39402D01*
X57508Y-39495D01*
X57507Y-39500D01*
X57507Y-40500D01*
X57507Y-41500D01*
X57507Y-42500D01*
X57507Y-43500D01*
X57508Y-43504D01*
X57508Y-43598D01*
X57544Y-43685D01*
X57545Y-43689D01*
X57546Y-43691D01*
X57583Y-43779D01*
X57647Y-43843D01*
X57651Y-43849D01*
X57656Y-43852D01*
X57721Y-43917D01*
X57808Y-43953D01*
X57811Y-43955D01*
X57814Y-43955D01*
X57902Y-43992D01*
X57995Y-43992D01*
X58000Y-43993D01*
X58004Y-43992D01*
X58098Y-43992D01*
X58185Y-43955D01*
X58189Y-43955D01*
X58191Y-43953D01*
X58279Y-43917D01*
X58343Y-43852D01*
X58349Y-43849D01*
X58352Y-43843D01*
X58417Y-43779D01*
X58453Y-43691D01*
X58455Y-43689D01*
X58455Y-43685D01*
X58492Y-43598D01*
X58492Y-43504D01*
X58493Y-43500D01*
X58493Y-45508D01*
X58402Y-45508D01*
X58221Y-45583D01*
X58083Y-45721D01*
X58008Y-45902D01*
X58008Y-46098D01*
X58083Y-46279D01*
X58221Y-46417D01*
X58402Y-46492D01*
X58598Y-46492D01*
X58779Y-46417D01*
X58917Y-46279D01*
X58992Y-46098D01*
X58992Y-46528D01*
X57992Y-46528D01*
X57992Y-46098D01*
X57992Y-45902D01*
X57917Y-45721D01*
X57779Y-45583D01*
X57598Y-45508D01*
X57493Y-45508D01*
X57493Y-43500D01*
X57493Y-42500D01*
X57493Y-41500D01*
X57493Y-40500D01*
X57493Y-39500D01*
X57493Y-36500D01*
X57493Y-35500D01*
X57493Y-34500D01*
X57493Y-33500D01*
X57493Y-32500D01*
X57492Y-32495D01*
X57492Y-32402D01*
X57455Y-32314D01*
X57455Y-32311D01*
X57453Y-32308D01*
X57417Y-32221D01*
X57352Y-32156D01*
X57349Y-32151D01*
X57343Y-32147D01*
X57279Y-32083D01*
X57191Y-32046D01*
X57189Y-32045D01*
X57185Y-32044D01*
X57098Y-32008D01*
X57004Y-32008D01*
X57000Y-32007D01*
X56995Y-32008D01*
X56902Y-32008D01*
X56814Y-32044D01*
X56811Y-32045D01*
X56808Y-32046D01*
X56796Y-32051D01*
X56796Y-30365D01*
X56500Y-30069D01*
X56431Y-30138D01*
X56431Y-30000D01*
X56135Y-29704D01*
X56060Y-29741D01*
X55996Y-29923D01*
X55994Y-29873D01*
X55940Y-29741D01*
X55865Y-29704D01*
X55796Y-29773D01*
X55796Y-29635D01*
X55759Y-29560D01*
X55571Y-29495D01*
X55373Y-29506D01*
X55241Y-29560D01*
X55204Y-29635D01*
X55500Y-29931D01*
X55796Y-29635D01*
X55796Y-29773D01*
X55569Y-30000D01*
X55865Y-30296D01*
X55940Y-30259D01*
X56003Y-30076D01*
X56006Y-30127D01*
X56060Y-30259D01*
X56135Y-30296D01*
X56431Y-30000D01*
X56431Y-30138D01*
X56204Y-30365D01*
X56241Y-30440D01*
X56429Y-30505D01*
X56627Y-30494D01*
X56759Y-30440D01*
X56796Y-30365D01*
X56796Y-32051D01*
X56721Y-32083D01*
X56656Y-32147D01*
X56651Y-32151D01*
X56647Y-32156D01*
X56583Y-32221D01*
X56546Y-32308D01*
X56545Y-32311D01*
X56544Y-32314D01*
X56508Y-32402D01*
X56508Y-32495D01*
X56507Y-32500D01*
X56507Y-33500D01*
X56507Y-34500D01*
X56507Y-35500D01*
X56507Y-36500D01*
X56508Y-36504D01*
X56508Y-36598D01*
X56544Y-36685D01*
X56545Y-36689D01*
X56546Y-36691D01*
X56583Y-36779D01*
X56647Y-36843D01*
X56651Y-36849D01*
X56656Y-36852D01*
X56721Y-36917D01*
X56808Y-36953D01*
X56811Y-36955D01*
X56814Y-36955D01*
X56902Y-36992D01*
X56995Y-36992D01*
X57000Y-36993D01*
X57004Y-36992D01*
X57098Y-36992D01*
X57185Y-36955D01*
X57189Y-36955D01*
X57191Y-36953D01*
X57279Y-36917D01*
X57343Y-36852D01*
X57349Y-36849D01*
X57352Y-36843D01*
X57417Y-36779D01*
X57453Y-36691D01*
X57455Y-36689D01*
X57455Y-36685D01*
X57492Y-36598D01*
X57492Y-36504D01*
X57493Y-36500D01*
X57493Y-39500D01*
X57492Y-39495D01*
X57492Y-39402D01*
X57455Y-39314D01*
X57455Y-39311D01*
X57453Y-39308D01*
X57417Y-39221D01*
X57352Y-39156D01*
X57349Y-39151D01*
X57343Y-39147D01*
X57279Y-39083D01*
X57191Y-39046D01*
X57189Y-39045D01*
X57185Y-39044D01*
X57098Y-39008D01*
X57004Y-39008D01*
X57000Y-39007D01*
X56995Y-39008D01*
X56902Y-39008D01*
X56814Y-39044D01*
X56811Y-39045D01*
X56808Y-39046D01*
X56721Y-39083D01*
X56656Y-39147D01*
X56651Y-39151D01*
X56647Y-39156D01*
X56583Y-39221D01*
X56546Y-39308D01*
X56545Y-39311D01*
X56544Y-39314D01*
X56508Y-39402D01*
X56508Y-39495D01*
X56507Y-39500D01*
X56507Y-40500D01*
X56507Y-41500D01*
X56507Y-42500D01*
X56507Y-43500D01*
X56508Y-43504D01*
X56508Y-43598D01*
X56544Y-43685D01*
X56545Y-43689D01*
X56546Y-43691D01*
X56583Y-43779D01*
X56647Y-43843D01*
X56651Y-43849D01*
X56656Y-43852D01*
X56721Y-43917D01*
X56808Y-43953D01*
X56811Y-43955D01*
X56814Y-43955D01*
X56902Y-43992D01*
X56995Y-43992D01*
X57000Y-43993D01*
X57004Y-43992D01*
X57098Y-43992D01*
X57185Y-43955D01*
X57189Y-43955D01*
X57191Y-43953D01*
X57279Y-43917D01*
X57343Y-43852D01*
X57349Y-43849D01*
X57352Y-43843D01*
X57417Y-43779D01*
X57453Y-43691D01*
X57455Y-43689D01*
X57455Y-43685D01*
X57492Y-43598D01*
X57492Y-43504D01*
X57493Y-43500D01*
X57493Y-45508D01*
X57402Y-45508D01*
X57221Y-45583D01*
X57083Y-45721D01*
X57008Y-45902D01*
X57008Y-46098D01*
X57083Y-46279D01*
X57221Y-46417D01*
X57402Y-46492D01*
X57598Y-46492D01*
X57779Y-46417D01*
X57917Y-46279D01*
X57992Y-46098D01*
X57992Y-46528D01*
X56992Y-46528D01*
X56992Y-46098D01*
X56992Y-45902D01*
X56917Y-45721D01*
X56779Y-45583D01*
X56598Y-45508D01*
X56493Y-45508D01*
X56493Y-43500D01*
X56493Y-42500D01*
X56493Y-41500D01*
X56493Y-40500D01*
X56493Y-39500D01*
X56493Y-36500D01*
X56493Y-35500D01*
X56493Y-34500D01*
X56493Y-33500D01*
X56493Y-32500D01*
X56492Y-32495D01*
X56492Y-32402D01*
X56455Y-32314D01*
X56455Y-32311D01*
X56453Y-32308D01*
X56417Y-32221D01*
X56352Y-32156D01*
X56349Y-32151D01*
X56343Y-32147D01*
X56279Y-32083D01*
X56191Y-32046D01*
X56189Y-32045D01*
X56185Y-32044D01*
X56098Y-32008D01*
X56004Y-32008D01*
X56000Y-32007D01*
X55995Y-32008D01*
X55902Y-32008D01*
X55814Y-32044D01*
X55811Y-32045D01*
X55808Y-32046D01*
X55796Y-32051D01*
X55796Y-30365D01*
X55500Y-30069D01*
X55431Y-30138D01*
X55431Y-30000D01*
X55135Y-29704D01*
X55060Y-29741D01*
X54996Y-29923D01*
X54994Y-29873D01*
X54940Y-29741D01*
X54865Y-29704D01*
X54796Y-29773D01*
X54796Y-29635D01*
X54759Y-29560D01*
X54571Y-29495D01*
X54373Y-29506D01*
X54241Y-29560D01*
X54204Y-29635D01*
X54500Y-29931D01*
X54796Y-29635D01*
X54796Y-29773D01*
X54569Y-30000D01*
X54865Y-30296D01*
X54940Y-30259D01*
X55003Y-30076D01*
X55006Y-30127D01*
X55060Y-30259D01*
X55135Y-30296D01*
X55431Y-30000D01*
X55431Y-30138D01*
X55204Y-30365D01*
X55241Y-30440D01*
X55429Y-30505D01*
X55627Y-30494D01*
X55759Y-30440D01*
X55796Y-30365D01*
X55796Y-32051D01*
X55721Y-32083D01*
X55656Y-32147D01*
X55651Y-32151D01*
X55647Y-32156D01*
X55583Y-32221D01*
X55546Y-32308D01*
X55545Y-32311D01*
X55544Y-32314D01*
X55508Y-32402D01*
X55508Y-32495D01*
X55507Y-32500D01*
X55507Y-33500D01*
X55507Y-34500D01*
X55507Y-35500D01*
X55507Y-36500D01*
X55508Y-36504D01*
X55508Y-36598D01*
X55544Y-36685D01*
X55545Y-36689D01*
X55546Y-36691D01*
X55583Y-36779D01*
X55647Y-36843D01*
X55651Y-36849D01*
X55656Y-36852D01*
X55721Y-36917D01*
X55808Y-36953D01*
X55811Y-36955D01*
X55814Y-36955D01*
X55902Y-36992D01*
X55995Y-36992D01*
X56000Y-36993D01*
X56004Y-36992D01*
X56098Y-36992D01*
X56185Y-36955D01*
X56189Y-36955D01*
X56191Y-36953D01*
X56279Y-36917D01*
X56343Y-36852D01*
X56349Y-36849D01*
X56352Y-36843D01*
X56417Y-36779D01*
X56453Y-36691D01*
X56455Y-36689D01*
X56455Y-36685D01*
X56492Y-36598D01*
X56492Y-36504D01*
X56493Y-36500D01*
X56493Y-39500D01*
X56492Y-39495D01*
X56492Y-39402D01*
X56455Y-39314D01*
X56455Y-39311D01*
X56453Y-39308D01*
X56417Y-39221D01*
X56352Y-39156D01*
X56349Y-39151D01*
X56343Y-39147D01*
X56279Y-39083D01*
X56191Y-39046D01*
X56189Y-39045D01*
X56185Y-39044D01*
X56098Y-39008D01*
X56004Y-39008D01*
X56000Y-39007D01*
X55995Y-39008D01*
X55902Y-39008D01*
X55814Y-39044D01*
X55811Y-39045D01*
X55808Y-39046D01*
X55721Y-39083D01*
X55656Y-39147D01*
X55651Y-39151D01*
X55647Y-39156D01*
X55583Y-39221D01*
X55546Y-39308D01*
X55545Y-39311D01*
X55544Y-39314D01*
X55508Y-39402D01*
X55508Y-39495D01*
X55507Y-39500D01*
X55507Y-40500D01*
X55507Y-41500D01*
X55507Y-42500D01*
X55507Y-43500D01*
X55508Y-43504D01*
X55508Y-43598D01*
X55544Y-43685D01*
X55545Y-43689D01*
X55546Y-43691D01*
X55583Y-43779D01*
X55647Y-43843D01*
X55651Y-43849D01*
X55656Y-43852D01*
X55721Y-43917D01*
X55808Y-43953D01*
X55811Y-43955D01*
X55814Y-43955D01*
X55902Y-43992D01*
X55995Y-43992D01*
X56000Y-43993D01*
X56004Y-43992D01*
X56098Y-43992D01*
X56185Y-43955D01*
X56189Y-43955D01*
X56191Y-43953D01*
X56279Y-43917D01*
X56343Y-43852D01*
X56349Y-43849D01*
X56352Y-43843D01*
X56417Y-43779D01*
X56453Y-43691D01*
X56455Y-43689D01*
X56455Y-43685D01*
X56492Y-43598D01*
X56492Y-43504D01*
X56493Y-43500D01*
X56493Y-45508D01*
X56402Y-45508D01*
X56221Y-45583D01*
X56083Y-45721D01*
X56008Y-45902D01*
X56008Y-46098D01*
X56083Y-46279D01*
X56221Y-46417D01*
X56402Y-46492D01*
X56598Y-46492D01*
X56779Y-46417D01*
X56917Y-46279D01*
X56992Y-46098D01*
X56992Y-46528D01*
X55992Y-46528D01*
X55992Y-46098D01*
X55992Y-45902D01*
X55917Y-45721D01*
X55779Y-45583D01*
X55598Y-45508D01*
X55493Y-45508D01*
X55493Y-43500D01*
X55493Y-42500D01*
X55493Y-41500D01*
X55493Y-40500D01*
X55493Y-39500D01*
X55493Y-36500D01*
X55493Y-35500D01*
X55493Y-34500D01*
X55493Y-33500D01*
X55493Y-32500D01*
X55492Y-32495D01*
X55492Y-32402D01*
X55455Y-32314D01*
X55455Y-32311D01*
X55453Y-32308D01*
X55417Y-32221D01*
X55352Y-32156D01*
X55349Y-32151D01*
X55343Y-32147D01*
X55279Y-32083D01*
X55191Y-32046D01*
X55189Y-32045D01*
X55185Y-32044D01*
X55098Y-32008D01*
X55004Y-32008D01*
X55000Y-32007D01*
X54995Y-32008D01*
X54902Y-32008D01*
X54814Y-32044D01*
X54811Y-32045D01*
X54808Y-32046D01*
X54796Y-32051D01*
X54796Y-30365D01*
X54500Y-30069D01*
X54431Y-30138D01*
X54431Y-30000D01*
X54135Y-29704D01*
X54060Y-29741D01*
X53995Y-29929D01*
X54006Y-30127D01*
X54060Y-30259D01*
X54135Y-30296D01*
X54431Y-30000D01*
X54431Y-30138D01*
X54204Y-30365D01*
X54241Y-30440D01*
X54429Y-30505D01*
X54627Y-30494D01*
X54759Y-30440D01*
X54796Y-30365D01*
X54796Y-32051D01*
X54721Y-32083D01*
X54656Y-32147D01*
X54651Y-32151D01*
X54647Y-32156D01*
X54583Y-32221D01*
X54546Y-32308D01*
X54545Y-32311D01*
X54544Y-32314D01*
X54508Y-32402D01*
X54508Y-32495D01*
X54507Y-32500D01*
X54507Y-33500D01*
X54507Y-34500D01*
X54507Y-35500D01*
X54507Y-36500D01*
X54508Y-36504D01*
X54508Y-36598D01*
X54544Y-36685D01*
X54545Y-36689D01*
X54546Y-36691D01*
X54583Y-36779D01*
X54647Y-36843D01*
X54651Y-36849D01*
X54656Y-36852D01*
X54721Y-36917D01*
X54808Y-36953D01*
X54811Y-36955D01*
X54814Y-36955D01*
X54902Y-36992D01*
X54995Y-36992D01*
X55000Y-36993D01*
X55004Y-36992D01*
X55098Y-36992D01*
X55185Y-36955D01*
X55189Y-36955D01*
X55191Y-36953D01*
X55279Y-36917D01*
X55343Y-36852D01*
X55349Y-36849D01*
X55352Y-36843D01*
X55417Y-36779D01*
X55453Y-36691D01*
X55455Y-36689D01*
X55455Y-36685D01*
X55492Y-36598D01*
X55492Y-36504D01*
X55493Y-36500D01*
X55493Y-39500D01*
X55492Y-39495D01*
X55492Y-39402D01*
X55455Y-39314D01*
X55455Y-39311D01*
X55453Y-39308D01*
X55417Y-39221D01*
X55352Y-39156D01*
X55349Y-39151D01*
X55343Y-39147D01*
X55279Y-39083D01*
X55191Y-39046D01*
X55189Y-39045D01*
X55185Y-39044D01*
X55098Y-39008D01*
X55004Y-39008D01*
X55000Y-39007D01*
X54995Y-39008D01*
X54902Y-39008D01*
X54897Y-39010D01*
X54897Y-38179D01*
X54897Y-37822D01*
X54761Y-37492D01*
X54508Y-37240D01*
X54493Y-37233D01*
X54493Y-36500D01*
X54493Y-35500D01*
X54493Y-34500D01*
X54493Y-33500D01*
X54493Y-32500D01*
X54492Y-32495D01*
X54492Y-32402D01*
X54455Y-32314D01*
X54455Y-32311D01*
X54453Y-32308D01*
X54417Y-32221D01*
X54352Y-32156D01*
X54349Y-32151D01*
X54343Y-32147D01*
X54279Y-32083D01*
X54191Y-32046D01*
X54189Y-32045D01*
X54185Y-32044D01*
X54098Y-32008D01*
X54004Y-32008D01*
X54000Y-32007D01*
X53995Y-32008D01*
X53902Y-32008D01*
X53814Y-32044D01*
X53811Y-32045D01*
X53808Y-32046D01*
X53721Y-32083D01*
X53656Y-32147D01*
X53651Y-32151D01*
X53647Y-32156D01*
X53583Y-32221D01*
X53546Y-32308D01*
X53545Y-32311D01*
X53544Y-32314D01*
X53508Y-32402D01*
X53508Y-32495D01*
X53507Y-32500D01*
X53507Y-33500D01*
X53507Y-34500D01*
X53507Y-35500D01*
X53507Y-36500D01*
X53508Y-36504D01*
X53508Y-36598D01*
X53544Y-36685D01*
X53545Y-36689D01*
X53546Y-36691D01*
X53583Y-36779D01*
X53647Y-36843D01*
X53651Y-36849D01*
X53656Y-36852D01*
X53721Y-36917D01*
X53808Y-36953D01*
X53811Y-36955D01*
X53814Y-36955D01*
X53902Y-36992D01*
X53995Y-36992D01*
X54000Y-36993D01*
X54004Y-36992D01*
X54098Y-36992D01*
X54185Y-36955D01*
X54189Y-36955D01*
X54191Y-36953D01*
X54279Y-36917D01*
X54343Y-36852D01*
X54349Y-36849D01*
X54352Y-36843D01*
X54417Y-36779D01*
X54453Y-36691D01*
X54455Y-36689D01*
X54455Y-36685D01*
X54492Y-36598D01*
X54492Y-36504D01*
X54493Y-36500D01*
X54493Y-37233D01*
X54179Y-37103D01*
X53822Y-37103D01*
X53492Y-37239D01*
X53240Y-37492D01*
X53103Y-37821D01*
X53103Y-38178D01*
X53239Y-38508D01*
X53492Y-38760D01*
X53821Y-38897D01*
X54178Y-38897D01*
X54508Y-38761D01*
X54760Y-38508D01*
X54897Y-38179D01*
X54897Y-39010D01*
X54814Y-39044D01*
X54811Y-39045D01*
X54808Y-39046D01*
X54721Y-39083D01*
X54656Y-39147D01*
X54651Y-39151D01*
X54647Y-39156D01*
X54583Y-39221D01*
X54546Y-39308D01*
X54545Y-39311D01*
X54544Y-39314D01*
X54508Y-39402D01*
X54508Y-39495D01*
X54507Y-39500D01*
X54507Y-40500D01*
X54507Y-41500D01*
X54507Y-42500D01*
X54507Y-43500D01*
X54508Y-43504D01*
X54508Y-43598D01*
X54544Y-43685D01*
X54545Y-43689D01*
X54546Y-43691D01*
X54583Y-43779D01*
X54647Y-43843D01*
X54651Y-43849D01*
X54656Y-43852D01*
X54721Y-43917D01*
X54808Y-43953D01*
X54811Y-43955D01*
X54814Y-43955D01*
X54902Y-43992D01*
X54995Y-43992D01*
X55000Y-43993D01*
X55004Y-43992D01*
X55098Y-43992D01*
X55185Y-43955D01*
X55189Y-43955D01*
X55191Y-43953D01*
X55279Y-43917D01*
X55343Y-43852D01*
X55349Y-43849D01*
X55352Y-43843D01*
X55417Y-43779D01*
X55453Y-43691D01*
X55455Y-43689D01*
X55455Y-43685D01*
X55492Y-43598D01*
X55492Y-43504D01*
X55493Y-43500D01*
X55493Y-45508D01*
X55402Y-45508D01*
X55221Y-45583D01*
X55083Y-45721D01*
X55008Y-45902D01*
X55008Y-46098D01*
X55083Y-46279D01*
X55221Y-46417D01*
X55402Y-46492D01*
X55598Y-46492D01*
X55779Y-46417D01*
X55917Y-46279D01*
X55992Y-46098D01*
X55992Y-46528D01*
X54992Y-46528D01*
X54992Y-46098D01*
X54992Y-45902D01*
X54917Y-45721D01*
X54779Y-45583D01*
X54598Y-45508D01*
X54493Y-45508D01*
X54493Y-43500D01*
X54493Y-42500D01*
X54493Y-41500D01*
X54493Y-40500D01*
X54493Y-39500D01*
X54492Y-39495D01*
X54492Y-39402D01*
X54455Y-39314D01*
X54455Y-39311D01*
X54453Y-39308D01*
X54417Y-39221D01*
X54352Y-39156D01*
X54349Y-39151D01*
X54343Y-39147D01*
X54279Y-39083D01*
X54191Y-39046D01*
X54189Y-39045D01*
X54185Y-39044D01*
X54098Y-39008D01*
X54004Y-39008D01*
X54000Y-39007D01*
X53995Y-39008D01*
X53902Y-39008D01*
X53814Y-39044D01*
X53811Y-39045D01*
X53808Y-39046D01*
X53721Y-39083D01*
X53656Y-39147D01*
X53651Y-39151D01*
X53647Y-39156D01*
X53583Y-39221D01*
X53546Y-39308D01*
X53545Y-39311D01*
X53544Y-39314D01*
X53508Y-39402D01*
X53508Y-39495D01*
X53507Y-39500D01*
X53507Y-40500D01*
X53507Y-41500D01*
X53507Y-42500D01*
X53507Y-43500D01*
X53508Y-43504D01*
X53508Y-43598D01*
X53544Y-43685D01*
X53545Y-43689D01*
X53546Y-43691D01*
X53583Y-43779D01*
X53647Y-43843D01*
X53651Y-43849D01*
X53656Y-43852D01*
X53721Y-43917D01*
X53808Y-43953D01*
X53811Y-43955D01*
X53814Y-43955D01*
X53902Y-43992D01*
X53995Y-43992D01*
X54000Y-43993D01*
X54004Y-43992D01*
X54098Y-43992D01*
X54185Y-43955D01*
X54189Y-43955D01*
X54191Y-43953D01*
X54279Y-43917D01*
X54343Y-43852D01*
X54349Y-43849D01*
X54352Y-43843D01*
X54417Y-43779D01*
X54453Y-43691D01*
X54455Y-43689D01*
X54455Y-43685D01*
X54492Y-43598D01*
X54492Y-43504D01*
X54493Y-43500D01*
X54493Y-45508D01*
X54402Y-45508D01*
X54221Y-45583D01*
X54083Y-45721D01*
X54008Y-45902D01*
X54008Y-46098D01*
X54083Y-46279D01*
X54221Y-46417D01*
X54402Y-46492D01*
X54598Y-46492D01*
X54779Y-46417D01*
X54917Y-46279D01*
X54992Y-46098D01*
X54992Y-46528D01*
X53772Y-46528D01*
X53358Y-46445D01*
X53024Y-46222D01*
X52803Y-45889D01*
X52722Y-45477D01*
X52722Y-30522D01*
X52803Y-30110D01*
X53024Y-29777D01*
X53358Y-29554D01*
X53772Y-29472D01*
X70227Y-29472D01*
X70639Y-29553D01*
X70972Y-29774D01*
X71195Y-30108D01*
X71278Y-30522D01*
X71278Y-45477D01*
X71278Y-45477D01*
G37*
G54D15*
X71278Y-45477D02*
X71195Y-45891D01*
X70972Y-46225D01*
X70897Y-46274D01*
X70897Y-38179D01*
X70897Y-37822D01*
X70761Y-37492D01*
X70508Y-37240D01*
X70493Y-37233D01*
X70493Y-36500D01*
X70493Y-35500D01*
X70493Y-34500D01*
X70493Y-33500D01*
X70493Y-32500D01*
X70492Y-32495D01*
X70492Y-32402D01*
X70455Y-32314D01*
X70455Y-32311D01*
X70453Y-32308D01*
X70417Y-32221D01*
X70352Y-32156D01*
X70349Y-32151D01*
X70343Y-32147D01*
X70279Y-32083D01*
X70191Y-32046D01*
X70189Y-32045D01*
X70185Y-32044D01*
X70098Y-32008D01*
X70005Y-32008D01*
X70005Y-30071D01*
X69994Y-29873D01*
X69940Y-29741D01*
X69865Y-29704D01*
X69796Y-29773D01*
X69796Y-29635D01*
X69759Y-29560D01*
X69571Y-29495D01*
X69373Y-29506D01*
X69241Y-29560D01*
X69204Y-29635D01*
X69500Y-29931D01*
X69796Y-29635D01*
X69796Y-29773D01*
X69569Y-30000D01*
X69865Y-30296D01*
X69940Y-30259D01*
X70005Y-30071D01*
X70005Y-32008D01*
X70004Y-32008D01*
X70000Y-32007D01*
X69995Y-32008D01*
X69902Y-32008D01*
X69814Y-32044D01*
X69811Y-32045D01*
X69808Y-32046D01*
X69796Y-32051D01*
X69796Y-30365D01*
X69500Y-30069D01*
X69431Y-30138D01*
X69431Y-30000D01*
X69135Y-29704D01*
X69060Y-29741D01*
X68996Y-29923D01*
X68994Y-29873D01*
X68940Y-29741D01*
X68865Y-29704D01*
X68796Y-29773D01*
X68796Y-29635D01*
X68759Y-29560D01*
X68571Y-29495D01*
X68373Y-29506D01*
X68241Y-29560D01*
X68204Y-29635D01*
X68500Y-29931D01*
X68796Y-29635D01*
X68796Y-29773D01*
X68569Y-30000D01*
X68865Y-30296D01*
X68940Y-30259D01*
X69003Y-30076D01*
X69006Y-30127D01*
X69060Y-30259D01*
X69135Y-30296D01*
X69431Y-30000D01*
X69431Y-30138D01*
X69204Y-30365D01*
X69241Y-30440D01*
X69429Y-30505D01*
X69627Y-30494D01*
X69759Y-30440D01*
X69796Y-30365D01*
X69796Y-32051D01*
X69721Y-32083D01*
X69656Y-32147D01*
X69651Y-32151D01*
X69647Y-32156D01*
X69583Y-32221D01*
X69546Y-32308D01*
X69545Y-32311D01*
X69544Y-32314D01*
X69508Y-32402D01*
X69508Y-32495D01*
X69507Y-32500D01*
X69507Y-33500D01*
X69507Y-34500D01*
X69507Y-35500D01*
X69507Y-36500D01*
X69508Y-36504D01*
X69508Y-36598D01*
X69544Y-36685D01*
X69545Y-36689D01*
X69546Y-36691D01*
X69583Y-36779D01*
X69647Y-36843D01*
X69651Y-36849D01*
X69656Y-36852D01*
X69721Y-36917D01*
X69808Y-36953D01*
X69811Y-36955D01*
X69814Y-36955D01*
X69902Y-36992D01*
X69995Y-36992D01*
X70000Y-36993D01*
X70004Y-36992D01*
X70098Y-36992D01*
X70185Y-36955D01*
X70189Y-36955D01*
X70191Y-36953D01*
X70279Y-36917D01*
X70343Y-36852D01*
X70349Y-36849D01*
X70352Y-36843D01*
X70417Y-36779D01*
X70453Y-36691D01*
X70455Y-36689D01*
X70455Y-36685D01*
X70492Y-36598D01*
X70492Y-36504D01*
X70493Y-36500D01*
X70493Y-37233D01*
X70179Y-37103D01*
X69822Y-37103D01*
X69493Y-37238D01*
X69493Y-36500D01*
X69493Y-35500D01*
X69493Y-34500D01*
X69493Y-33500D01*
X69493Y-32500D01*
X69492Y-32495D01*
X69492Y-32402D01*
X69455Y-32314D01*
X69455Y-32311D01*
X69453Y-32308D01*
X69417Y-32221D01*
X69352Y-32156D01*
X69349Y-32151D01*
X69343Y-32147D01*
X69279Y-32083D01*
X69191Y-32046D01*
X69189Y-32045D01*
X69185Y-32044D01*
X69098Y-32008D01*
X69004Y-32008D01*
X69000Y-32007D01*
X68995Y-32008D01*
X68902Y-32008D01*
X68814Y-32044D01*
X68811Y-32045D01*
X68808Y-32046D01*
X68796Y-32051D01*
X68796Y-30365D01*
X68500Y-30069D01*
X68431Y-30138D01*
X68431Y-30000D01*
X68135Y-29704D01*
X68060Y-29741D01*
X67996Y-29923D01*
X67994Y-29873D01*
X67940Y-29741D01*
X67865Y-29704D01*
X67796Y-29773D01*
X67796Y-29635D01*
X67759Y-29560D01*
X67571Y-29495D01*
X67373Y-29506D01*
X67241Y-29560D01*
X67204Y-29635D01*
X67500Y-29931D01*
X67796Y-29635D01*
X67796Y-29773D01*
X67569Y-30000D01*
X67865Y-30296D01*
X67940Y-30259D01*
X68003Y-30076D01*
X68006Y-30127D01*
X68060Y-30259D01*
X68135Y-30296D01*
X68431Y-30000D01*
X68431Y-30138D01*
X68204Y-30365D01*
X68241Y-30440D01*
X68429Y-30505D01*
X68627Y-30494D01*
X68759Y-30440D01*
X68796Y-30365D01*
X68796Y-32051D01*
X68721Y-32083D01*
X68656Y-32147D01*
X68651Y-32151D01*
X68647Y-32156D01*
X68583Y-32221D01*
X68546Y-32308D01*
X68545Y-32311D01*
X68544Y-32314D01*
X68508Y-32402D01*
X68508Y-32495D01*
X68507Y-32500D01*
X68507Y-33500D01*
X68507Y-34500D01*
X68507Y-35500D01*
X68507Y-36500D01*
X68508Y-36504D01*
X68508Y-36598D01*
X68544Y-36685D01*
X68545Y-36689D01*
X68546Y-36691D01*
X68583Y-36779D01*
X68647Y-36843D01*
X68651Y-36849D01*
X68656Y-36852D01*
X68721Y-36917D01*
X68808Y-36953D01*
X68811Y-36955D01*
X68814Y-36955D01*
X68902Y-36992D01*
X68995Y-36992D01*
X69000Y-36993D01*
X69004Y-36992D01*
X69098Y-36992D01*
X69185Y-36955D01*
X69189Y-36955D01*
X69191Y-36953D01*
X69279Y-36917D01*
X69343Y-36852D01*
X69349Y-36849D01*
X69352Y-36843D01*
X69417Y-36779D01*
X69453Y-36691D01*
X69455Y-36689D01*
X69455Y-36685D01*
X69492Y-36598D01*
X69492Y-36504D01*
X69493Y-36500D01*
X69493Y-37238D01*
X69492Y-37239D01*
X69240Y-37492D01*
X69103Y-37821D01*
X69103Y-38178D01*
X69239Y-38508D01*
X69492Y-38760D01*
X69821Y-38897D01*
X70178Y-38897D01*
X70508Y-38761D01*
X70760Y-38508D01*
X70897Y-38179D01*
X70897Y-46274D01*
X70639Y-46446D01*
X70493Y-46475D01*
X70493Y-43500D01*
X70493Y-42500D01*
X70493Y-41500D01*
X70493Y-40500D01*
X70493Y-39500D01*
X70492Y-39495D01*
X70492Y-39402D01*
X70455Y-39314D01*
X70455Y-39311D01*
X70453Y-39308D01*
X70417Y-39221D01*
X70352Y-39156D01*
X70349Y-39151D01*
X70343Y-39147D01*
X70279Y-39083D01*
X70191Y-39046D01*
X70189Y-39045D01*
X70185Y-39044D01*
X70098Y-39008D01*
X70004Y-39008D01*
X70000Y-39007D01*
X69995Y-39008D01*
X69902Y-39008D01*
X69814Y-39044D01*
X69811Y-39045D01*
X69808Y-39046D01*
X69721Y-39083D01*
X69656Y-39147D01*
X69651Y-39151D01*
X69647Y-39156D01*
X69583Y-39221D01*
X69546Y-39308D01*
X69545Y-39311D01*
X69544Y-39314D01*
X69508Y-39402D01*
X69508Y-39495D01*
X69507Y-39500D01*
X69507Y-40500D01*
X69507Y-41500D01*
X69507Y-42500D01*
X69507Y-43500D01*
X69508Y-43504D01*
X69508Y-43598D01*
X69544Y-43685D01*
X69545Y-43689D01*
X69546Y-43691D01*
X69583Y-43779D01*
X69647Y-43843D01*
X69651Y-43849D01*
X69656Y-43852D01*
X69721Y-43917D01*
X69808Y-43953D01*
X69811Y-43955D01*
X69814Y-43955D01*
X69902Y-43992D01*
X69995Y-43992D01*
X70000Y-43993D01*
X70004Y-43992D01*
X70098Y-43992D01*
X70185Y-43955D01*
X70189Y-43955D01*
X70191Y-43953D01*
X70279Y-43917D01*
X70343Y-43852D01*
X70349Y-43849D01*
X70352Y-43843D01*
X70417Y-43779D01*
X70453Y-43691D01*
X70455Y-43689D01*
X70455Y-43685D01*
X70492Y-43598D01*
X70492Y-43504D01*
X70493Y-43500D01*
X70493Y-46475D01*
X70227Y-46528D01*
X69992Y-46528D01*
X69992Y-46098D01*
X69992Y-45902D01*
X69917Y-45721D01*
X69779Y-45583D01*
X69598Y-45508D01*
X69493Y-45508D01*
X69493Y-43500D01*
X69493Y-42500D01*
X69493Y-41500D01*
X69493Y-40500D01*
X69493Y-39500D01*
X69492Y-39495D01*
X69492Y-39402D01*
X69455Y-39314D01*
X69455Y-39311D01*
X69453Y-39308D01*
X69417Y-39221D01*
X69352Y-39156D01*
X69349Y-39151D01*
X69343Y-39147D01*
X69279Y-39083D01*
X69191Y-39046D01*
X69189Y-39045D01*
X69185Y-39044D01*
X69098Y-39008D01*
X69004Y-39008D01*
X69000Y-39007D01*
X68995Y-39008D01*
X68902Y-39008D01*
X68814Y-39044D01*
X68811Y-39045D01*
X68808Y-39046D01*
X68721Y-39083D01*
X68656Y-39147D01*
X68651Y-39151D01*
X68647Y-39156D01*
X68583Y-39221D01*
X68546Y-39308D01*
X68545Y-39311D01*
X68544Y-39314D01*
X68508Y-39402D01*
X68508Y-39495D01*
X68507Y-39500D01*
X68507Y-40500D01*
X68507Y-41500D01*
X68507Y-42500D01*
X68507Y-43500D01*
X68508Y-43504D01*
X68508Y-43598D01*
X68544Y-43685D01*
X68545Y-43689D01*
X68546Y-43691D01*
X68583Y-43779D01*
X68647Y-43843D01*
X68651Y-43849D01*
X68656Y-43852D01*
X68721Y-43917D01*
X68808Y-43953D01*
X68811Y-43955D01*
X68814Y-43955D01*
X68902Y-43992D01*
X68995Y-43992D01*
X69000Y-43993D01*
X69004Y-43992D01*
X69098Y-43992D01*
X69185Y-43955D01*
X69189Y-43955D01*
X69191Y-43953D01*
X69279Y-43917D01*
X69343Y-43852D01*
X69349Y-43849D01*
X69352Y-43843D01*
X69417Y-43779D01*
X69453Y-43691D01*
X69455Y-43689D01*
X69455Y-43685D01*
X69492Y-43598D01*
X69492Y-43504D01*
X69493Y-43500D01*
X69493Y-45508D01*
X69402Y-45508D01*
X69221Y-45583D01*
X69083Y-45721D01*
X69008Y-45902D01*
X69008Y-46098D01*
X69083Y-46279D01*
X69221Y-46417D01*
X69402Y-46492D01*
X69598Y-46492D01*
X69779Y-46417D01*
X69917Y-46279D01*
X69992Y-46098D01*
X69992Y-46528D01*
X68992Y-46528D01*
X68992Y-46098D01*
X68992Y-45902D01*
X68917Y-45721D01*
X68779Y-45583D01*
X68598Y-45508D01*
X68493Y-45508D01*
X68493Y-43500D01*
X68493Y-42500D01*
X68493Y-41500D01*
X68493Y-40500D01*
X68493Y-39500D01*
X68493Y-36500D01*
X68493Y-35500D01*
X68493Y-34500D01*
X68493Y-33500D01*
X68493Y-32500D01*
X68492Y-32495D01*
X68492Y-32402D01*
X68455Y-32314D01*
X68455Y-32311D01*
X68453Y-32308D01*
X68417Y-32221D01*
X68352Y-32156D01*
X68349Y-32151D01*
X68343Y-32147D01*
X68279Y-32083D01*
X68191Y-32046D01*
X68189Y-32045D01*
X68185Y-32044D01*
X68098Y-32008D01*
X68004Y-32008D01*
X68000Y-32007D01*
X67995Y-32008D01*
X67902Y-32008D01*
X67814Y-32044D01*
X67811Y-32045D01*
X67808Y-32046D01*
X67796Y-32051D01*
X67796Y-30365D01*
X67500Y-30069D01*
X67431Y-30138D01*
X67431Y-30000D01*
X67135Y-29704D01*
X67060Y-29741D01*
X66996Y-29923D01*
X66994Y-29873D01*
X66940Y-29741D01*
X66865Y-29704D01*
X66796Y-29773D01*
X66796Y-29635D01*
X66759Y-29560D01*
X66571Y-29495D01*
X66373Y-29506D01*
X66241Y-29560D01*
X66204Y-29635D01*
X66500Y-29931D01*
X66796Y-29635D01*
X66796Y-29773D01*
X66569Y-30000D01*
X66865Y-30296D01*
X66940Y-30259D01*
X67003Y-30076D01*
X67006Y-30127D01*
X67060Y-30259D01*
X67135Y-30296D01*
X67431Y-30000D01*
X67431Y-30138D01*
X67204Y-30365D01*
X67241Y-30440D01*
X67429Y-30505D01*
X67627Y-30494D01*
X67759Y-30440D01*
X67796Y-30365D01*
X67796Y-32051D01*
X67721Y-32083D01*
X67656Y-32147D01*
X67651Y-32151D01*
X67647Y-32156D01*
X67583Y-32221D01*
X67546Y-32308D01*
X67545Y-32311D01*
X67544Y-32314D01*
X67508Y-32402D01*
X67508Y-32495D01*
X67507Y-32500D01*
X67507Y-33500D01*
X67507Y-34500D01*
X67507Y-35500D01*
X67507Y-36500D01*
X67508Y-36504D01*
X67508Y-36598D01*
X67544Y-36685D01*
X67545Y-36689D01*
X67546Y-36691D01*
X67583Y-36779D01*
X67647Y-36843D01*
X67651Y-36849D01*
X67656Y-36852D01*
X67721Y-36917D01*
X67808Y-36953D01*
X67811Y-36955D01*
X67814Y-36955D01*
X67902Y-36992D01*
X67995Y-36992D01*
X68000Y-36993D01*
X68004Y-36992D01*
X68098Y-36992D01*
X68185Y-36955D01*
X68189Y-36955D01*
X68191Y-36953D01*
X68279Y-36917D01*
X68343Y-36852D01*
X68349Y-36849D01*
X68352Y-36843D01*
X68417Y-36779D01*
X68453Y-36691D01*
X68455Y-36689D01*
X68455Y-36685D01*
X68492Y-36598D01*
X68492Y-36504D01*
X68493Y-36500D01*
X68493Y-39500D01*
X68492Y-39495D01*
X68492Y-39402D01*
X68455Y-39314D01*
X68455Y-39311D01*
X68453Y-39308D01*
X68417Y-39221D01*
X68352Y-39156D01*
X68349Y-39151D01*
X68343Y-39147D01*
X68279Y-39083D01*
X68191Y-39046D01*
X68189Y-39045D01*
X68185Y-39044D01*
X68098Y-39008D01*
X68004Y-39008D01*
X68000Y-39007D01*
X67995Y-39008D01*
X67902Y-39008D01*
X67814Y-39044D01*
X67811Y-39045D01*
X67808Y-39046D01*
X67721Y-39083D01*
X67656Y-39147D01*
X67651Y-39151D01*
X67647Y-39156D01*
X67583Y-39221D01*
X67546Y-39308D01*
X67545Y-39311D01*
X67544Y-39314D01*
X67508Y-39402D01*
X67508Y-39495D01*
X67507Y-39500D01*
X67507Y-40500D01*
X67507Y-41500D01*
X67507Y-42500D01*
X67507Y-43500D01*
X67508Y-43504D01*
X67508Y-43598D01*
X67544Y-43685D01*
X67545Y-43689D01*
X67546Y-43691D01*
X67583Y-43779D01*
X67647Y-43843D01*
X67651Y-43849D01*
X67656Y-43852D01*
X67721Y-43917D01*
X67808Y-43953D01*
X67811Y-43955D01*
X67814Y-43955D01*
X67902Y-43992D01*
X67995Y-43992D01*
X68000Y-43993D01*
X68004Y-43992D01*
X68098Y-43992D01*
X68185Y-43955D01*
X68189Y-43955D01*
X68191Y-43953D01*
X68279Y-43917D01*
X68343Y-43852D01*
X68349Y-43849D01*
X68352Y-43843D01*
X68417Y-43779D01*
X68453Y-43691D01*
X68455Y-43689D01*
X68455Y-43685D01*
X68492Y-43598D01*
X68492Y-43504D01*
X68493Y-43500D01*
X68493Y-45508D01*
X68402Y-45508D01*
X68221Y-45583D01*
X68083Y-45721D01*
X68008Y-45902D01*
X68008Y-46098D01*
X68083Y-46279D01*
X68221Y-46417D01*
X68402Y-46492D01*
X68598Y-46492D01*
X68779Y-46417D01*
X68917Y-46279D01*
X68992Y-46098D01*
X68992Y-46528D01*
X67992Y-46528D01*
X67992Y-46098D01*
X67992Y-45902D01*
X67917Y-45721D01*
X67779Y-45583D01*
X67598Y-45508D01*
X67493Y-45508D01*
X67493Y-43500D01*
X67493Y-42500D01*
X67493Y-41500D01*
X67493Y-40500D01*
X67493Y-39500D01*
X67493Y-36500D01*
X67493Y-35500D01*
X67493Y-34500D01*
X67493Y-33500D01*
X67493Y-32500D01*
X67492Y-32495D01*
X67492Y-32402D01*
X67455Y-32314D01*
X67455Y-32311D01*
X67453Y-32308D01*
X67417Y-32221D01*
X67352Y-32156D01*
X67349Y-32151D01*
X67343Y-32147D01*
X67279Y-32083D01*
X67191Y-32046D01*
X67189Y-32045D01*
X67185Y-32044D01*
X67098Y-32008D01*
X67004Y-32008D01*
X67000Y-32007D01*
X66995Y-32008D01*
X66902Y-32008D01*
X66814Y-32044D01*
X66811Y-32045D01*
X66808Y-32046D01*
X66796Y-32051D01*
X66796Y-30365D01*
X66500Y-30069D01*
X66431Y-30138D01*
X66431Y-30000D01*
X66135Y-29704D01*
X66060Y-29741D01*
X65996Y-29923D01*
X65994Y-29873D01*
X65940Y-29741D01*
X65865Y-29704D01*
X65796Y-29773D01*
X65796Y-29635D01*
X65759Y-29560D01*
X65571Y-29495D01*
X65373Y-29506D01*
X65241Y-29560D01*
X65204Y-29635D01*
X65500Y-29931D01*
X65796Y-29635D01*
X65796Y-29773D01*
X65569Y-30000D01*
X65865Y-30296D01*
X65940Y-30259D01*
X66003Y-30076D01*
X66006Y-30127D01*
X66060Y-30259D01*
X66135Y-30296D01*
X66431Y-30000D01*
X66431Y-30138D01*
X66204Y-30365D01*
X66241Y-30440D01*
X66429Y-30505D01*
X66627Y-30494D01*
X66759Y-30440D01*
X66796Y-30365D01*
X66796Y-32051D01*
X66721Y-32083D01*
X66656Y-32147D01*
X66651Y-32151D01*
X66647Y-32156D01*
X66583Y-32221D01*
X66546Y-32308D01*
X66545Y-32311D01*
X66544Y-32314D01*
X66508Y-32402D01*
X66508Y-32495D01*
X66507Y-32500D01*
X66507Y-33500D01*
X66507Y-34500D01*
X66507Y-35500D01*
X66507Y-36500D01*
X66508Y-36504D01*
X66508Y-36598D01*
X66544Y-36685D01*
X66545Y-36689D01*
X66546Y-36691D01*
X66583Y-36779D01*
X66647Y-36843D01*
X66651Y-36849D01*
X66656Y-36852D01*
X66721Y-36917D01*
X66808Y-36953D01*
X66811Y-36955D01*
X66814Y-36955D01*
X66902Y-36992D01*
X66995Y-36992D01*
X67000Y-36993D01*
X67004Y-36992D01*
X67098Y-36992D01*
X67185Y-36955D01*
X67189Y-36955D01*
X67191Y-36953D01*
X67279Y-36917D01*
X67343Y-36852D01*
X67349Y-36849D01*
X67352Y-36843D01*
X67417Y-36779D01*
X67453Y-36691D01*
X67455Y-36689D01*
X67455Y-36685D01*
X67492Y-36598D01*
X67492Y-36504D01*
X67493Y-36500D01*
X67493Y-39500D01*
X67492Y-39495D01*
X67492Y-39402D01*
X67455Y-39314D01*
X67455Y-39311D01*
X67453Y-39308D01*
X67417Y-39221D01*
X67352Y-39156D01*
X67349Y-39151D01*
X67343Y-39147D01*
X67279Y-39083D01*
X67191Y-39046D01*
X67189Y-39045D01*
X67185Y-39044D01*
X67098Y-39008D01*
X67004Y-39008D01*
X67000Y-39007D01*
X66995Y-39008D01*
X66902Y-39008D01*
X66814Y-39044D01*
X66811Y-39045D01*
X66808Y-39046D01*
X66721Y-39083D01*
X66656Y-39147D01*
X66651Y-39151D01*
X66647Y-39156D01*
X66583Y-39221D01*
X66546Y-39308D01*
X66545Y-39311D01*
X66544Y-39314D01*
X66508Y-39402D01*
X66508Y-39495D01*
X66507Y-39500D01*
X66507Y-40500D01*
X66507Y-41500D01*
X66507Y-42500D01*
X66507Y-43500D01*
X66508Y-43504D01*
X66508Y-43598D01*
X66544Y-43685D01*
X66545Y-43689D01*
X66546Y-43691D01*
X66583Y-43779D01*
X66647Y-43843D01*
X66651Y-43849D01*
X66656Y-43852D01*
X66721Y-43917D01*
X66808Y-43953D01*
X66811Y-43955D01*
X66814Y-43955D01*
X66902Y-43992D01*
X66995Y-43992D01*
X67000Y-43993D01*
X67004Y-43992D01*
X67098Y-43992D01*
X67185Y-43955D01*
X67189Y-43955D01*
X67191Y-43953D01*
X67279Y-43917D01*
X67343Y-43852D01*
X67349Y-43849D01*
X67352Y-43843D01*
X67417Y-43779D01*
X67453Y-43691D01*
X67455Y-43689D01*
X67455Y-43685D01*
X67492Y-43598D01*
X67492Y-43504D01*
X67493Y-43500D01*
X67493Y-45508D01*
X67402Y-45508D01*
X67221Y-45583D01*
X67083Y-45721D01*
X67008Y-45902D01*
X67008Y-46098D01*
X67083Y-46279D01*
X67221Y-46417D01*
X67402Y-46492D01*
X67598Y-46492D01*
X67779Y-46417D01*
X67917Y-46279D01*
X67992Y-46098D01*
X67992Y-46528D01*
X66992Y-46528D01*
X66992Y-46098D01*
X66992Y-45902D01*
X66917Y-45721D01*
X66779Y-45583D01*
X66598Y-45508D01*
X66493Y-45508D01*
X66493Y-43500D01*
X66493Y-42500D01*
X66493Y-41500D01*
X66493Y-40500D01*
X66493Y-39500D01*
X66493Y-36500D01*
X66493Y-35500D01*
X66493Y-34500D01*
X66493Y-33500D01*
X66493Y-32500D01*
X66492Y-32495D01*
X66492Y-32402D01*
X66455Y-32314D01*
X66455Y-32311D01*
X66453Y-32308D01*
X66417Y-32221D01*
X66352Y-32156D01*
X66349Y-32151D01*
X66343Y-32147D01*
X66279Y-32083D01*
X66191Y-32046D01*
X66189Y-32045D01*
X66185Y-32044D01*
X66098Y-32008D01*
X66004Y-32008D01*
X66000Y-32007D01*
X65995Y-32008D01*
X65902Y-32008D01*
X65814Y-32044D01*
X65811Y-32045D01*
X65808Y-32046D01*
X65796Y-32051D01*
X65796Y-30365D01*
X65500Y-30069D01*
X65431Y-30138D01*
X65431Y-30000D01*
X65135Y-29704D01*
X65060Y-29741D01*
X64995Y-29929D01*
X65006Y-30127D01*
X65060Y-30259D01*
X65135Y-30296D01*
X65431Y-30000D01*
X65431Y-30138D01*
X65204Y-30365D01*
X65241Y-30440D01*
X65429Y-30505D01*
X65627Y-30494D01*
X65759Y-30440D01*
X65796Y-30365D01*
X65796Y-32051D01*
X65721Y-32083D01*
X65656Y-32147D01*
X65651Y-32151D01*
X65647Y-32156D01*
X65583Y-32221D01*
X65546Y-32308D01*
X65545Y-32311D01*
X65544Y-32314D01*
X65508Y-32402D01*
X65508Y-32495D01*
X65507Y-32500D01*
X65507Y-33500D01*
X65507Y-34500D01*
X65507Y-35500D01*
X65507Y-36500D01*
X65508Y-36504D01*
X65508Y-36598D01*
X65544Y-36685D01*
X65545Y-36689D01*
X65546Y-36691D01*
X65583Y-36779D01*
X65647Y-36843D01*
X65651Y-36849D01*
X65656Y-36852D01*
X65721Y-36917D01*
X65808Y-36953D01*
X65811Y-36955D01*
X65814Y-36955D01*
X65902Y-36992D01*
X65995Y-36992D01*
X66000Y-36993D01*
X66004Y-36992D01*
X66098Y-36992D01*
X66185Y-36955D01*
X66189Y-36955D01*
X66191Y-36953D01*
X66279Y-36917D01*
X66343Y-36852D01*
X66349Y-36849D01*
X66352Y-36843D01*
X66417Y-36779D01*
X66453Y-36691D01*
X66455Y-36689D01*
X66455Y-36685D01*
X66492Y-36598D01*
X66492Y-36504D01*
X66493Y-36500D01*
X66493Y-39500D01*
X66492Y-39495D01*
X66492Y-39402D01*
X66455Y-39314D01*
X66455Y-39311D01*
X66453Y-39308D01*
X66417Y-39221D01*
X66352Y-39156D01*
X66349Y-39151D01*
X66343Y-39147D01*
X66279Y-39083D01*
X66191Y-39046D01*
X66189Y-39045D01*
X66185Y-39044D01*
X66098Y-39008D01*
X66004Y-39008D01*
X66000Y-39007D01*
X65995Y-39008D01*
X65902Y-39008D01*
X65814Y-39044D01*
X65811Y-39045D01*
X65808Y-39046D01*
X65721Y-39083D01*
X65656Y-39147D01*
X65651Y-39151D01*
X65647Y-39156D01*
X65583Y-39221D01*
X65546Y-39308D01*
X65545Y-39311D01*
X65544Y-39314D01*
X65508Y-39402D01*
X65508Y-39495D01*
X65507Y-39500D01*
X65507Y-40500D01*
X65507Y-41500D01*
X65507Y-42500D01*
X65507Y-43500D01*
X65508Y-43504D01*
X65508Y-43598D01*
X65544Y-43685D01*
X65545Y-43689D01*
X65546Y-43691D01*
X65583Y-43779D01*
X65647Y-43843D01*
X65651Y-43849D01*
X65656Y-43852D01*
X65721Y-43917D01*
X65808Y-43953D01*
X65811Y-43955D01*
X65814Y-43955D01*
X65902Y-43992D01*
X65995Y-43992D01*
X66000Y-43993D01*
X66004Y-43992D01*
X66098Y-43992D01*
X66185Y-43955D01*
X66189Y-43955D01*
X66191Y-43953D01*
X66279Y-43917D01*
X66343Y-43852D01*
X66349Y-43849D01*
X66352Y-43843D01*
X66417Y-43779D01*
X66453Y-43691D01*
X66455Y-43689D01*
X66455Y-43685D01*
X66492Y-43598D01*
X66492Y-43504D01*
X66493Y-43500D01*
X66493Y-45508D01*
X66402Y-45508D01*
X66221Y-45583D01*
X66083Y-45721D01*
X66008Y-45902D01*
X66008Y-46098D01*
X66083Y-46279D01*
X66221Y-46417D01*
X66402Y-46492D01*
X66598Y-46492D01*
X66779Y-46417D01*
X66917Y-46279D01*
X66992Y-46098D01*
X66992Y-46528D01*
X65992Y-46528D01*
X65992Y-46098D01*
X65992Y-45902D01*
X65917Y-45721D01*
X65779Y-45583D01*
X65598Y-45508D01*
X65493Y-45508D01*
X65493Y-43500D01*
X65493Y-42500D01*
X65493Y-41500D01*
X65493Y-40500D01*
X65493Y-39500D01*
X65493Y-36500D01*
X65493Y-35500D01*
X65493Y-34500D01*
X65493Y-33500D01*
X65493Y-32500D01*
X65492Y-32495D01*
X65492Y-32402D01*
X65455Y-32314D01*
X65455Y-32311D01*
X65453Y-32308D01*
X65417Y-32221D01*
X65352Y-32156D01*
X65349Y-32151D01*
X65343Y-32147D01*
X65279Y-32083D01*
X65191Y-32046D01*
X65189Y-32045D01*
X65185Y-32044D01*
X65098Y-32008D01*
X65004Y-32008D01*
X65000Y-32007D01*
X64995Y-32008D01*
X64902Y-32008D01*
X64814Y-32044D01*
X64811Y-32045D01*
X64808Y-32046D01*
X64721Y-32083D01*
X64656Y-32147D01*
X64651Y-32151D01*
X64647Y-32156D01*
X64583Y-32221D01*
X64546Y-32308D01*
X64545Y-32311D01*
X64544Y-32314D01*
X64508Y-32402D01*
X64508Y-32495D01*
X64507Y-32500D01*
X64507Y-33500D01*
X64507Y-34500D01*
X64507Y-35500D01*
X64507Y-36500D01*
X64508Y-36504D01*
X64508Y-36598D01*
X64544Y-36685D01*
X64545Y-36689D01*
X64546Y-36691D01*
X64583Y-36779D01*
X64647Y-36843D01*
X64651Y-36849D01*
X64656Y-36852D01*
X64721Y-36917D01*
X64808Y-36953D01*
X64811Y-36955D01*
X64814Y-36955D01*
X64902Y-36992D01*
X64995Y-36992D01*
X65000Y-36993D01*
X65004Y-36992D01*
X65098Y-36992D01*
X65185Y-36955D01*
X65189Y-36955D01*
X65191Y-36953D01*
X65279Y-36917D01*
X65343Y-36852D01*
X65349Y-36849D01*
X65352Y-36843D01*
X65417Y-36779D01*
X65453Y-36691D01*
X65455Y-36689D01*
X65455Y-36685D01*
X65492Y-36598D01*
X65492Y-36504D01*
X65493Y-36500D01*
X65493Y-39500D01*
X65492Y-39495D01*
X65492Y-39402D01*
X65455Y-39314D01*
X65455Y-39311D01*
X65453Y-39308D01*
X65417Y-39221D01*
X65352Y-39156D01*
X65349Y-39151D01*
X65343Y-39147D01*
X65279Y-39083D01*
X65191Y-39046D01*
X65189Y-39045D01*
X65185Y-39044D01*
X65098Y-39008D01*
X65004Y-39008D01*
X65000Y-39007D01*
X64995Y-39008D01*
X64902Y-39008D01*
X64814Y-39044D01*
X64811Y-39045D01*
X64808Y-39046D01*
X64721Y-39083D01*
X64656Y-39147D01*
X64651Y-39151D01*
X64647Y-39156D01*
X64583Y-39221D01*
X64546Y-39308D01*
X64545Y-39311D01*
X64544Y-39314D01*
X64508Y-39402D01*
X64508Y-39495D01*
X64507Y-39500D01*
X64507Y-40500D01*
X64507Y-41500D01*
X64507Y-42500D01*
X64507Y-43500D01*
X64508Y-43504D01*
X64508Y-43598D01*
X64544Y-43685D01*
X64545Y-43689D01*
X64546Y-43691D01*
X64583Y-43779D01*
X64647Y-43843D01*
X64651Y-43849D01*
X64656Y-43852D01*
X64721Y-43917D01*
X64808Y-43953D01*
X64811Y-43955D01*
X64814Y-43955D01*
X64902Y-43992D01*
X64995Y-43992D01*
X65000Y-43993D01*
X65004Y-43992D01*
X65098Y-43992D01*
X65185Y-43955D01*
X65189Y-43955D01*
X65191Y-43953D01*
X65279Y-43917D01*
X65343Y-43852D01*
X65349Y-43849D01*
X65352Y-43843D01*
X65417Y-43779D01*
X65453Y-43691D01*
X65455Y-43689D01*
X65455Y-43685D01*
X65492Y-43598D01*
X65492Y-43504D01*
X65493Y-43500D01*
X65493Y-45508D01*
X65402Y-45508D01*
X65221Y-45583D01*
X65083Y-45721D01*
X65008Y-45902D01*
X65008Y-46098D01*
X65083Y-46279D01*
X65221Y-46417D01*
X65402Y-46492D01*
X65598Y-46492D01*
X65779Y-46417D01*
X65917Y-46279D01*
X65992Y-46098D01*
X65992Y-46528D01*
X64493Y-46528D01*
X64493Y-43500D01*
X64493Y-42500D01*
X64493Y-41500D01*
X64493Y-40500D01*
X64493Y-39500D01*
X64493Y-36500D01*
X64493Y-35500D01*
X64493Y-34500D01*
X64493Y-33500D01*
X64493Y-32500D01*
X64492Y-32495D01*
X64492Y-32402D01*
X64455Y-32314D01*
X64455Y-32311D01*
X64453Y-32308D01*
X64417Y-32221D01*
X64352Y-32156D01*
X64349Y-32151D01*
X64343Y-32147D01*
X64279Y-32083D01*
X64191Y-32046D01*
X64189Y-32045D01*
X64185Y-32044D01*
X64098Y-32008D01*
X64005Y-32008D01*
X64005Y-30071D01*
X63994Y-29873D01*
X63940Y-29741D01*
X63865Y-29704D01*
X63796Y-29773D01*
X63796Y-29635D01*
X63759Y-29560D01*
X63571Y-29495D01*
X63373Y-29506D01*
X63241Y-29560D01*
X63204Y-29635D01*
X63500Y-29931D01*
X63796Y-29635D01*
X63796Y-29773D01*
X63569Y-30000D01*
X63865Y-30296D01*
X63940Y-30259D01*
X64005Y-30071D01*
X64005Y-32008D01*
X64004Y-32008D01*
X64000Y-32007D01*
X63995Y-32008D01*
X63902Y-32008D01*
X63814Y-32044D01*
X63811Y-32045D01*
X63808Y-32046D01*
X63796Y-32051D01*
X63796Y-30365D01*
X63500Y-30069D01*
X63431Y-30138D01*
X63431Y-30000D01*
X63135Y-29704D01*
X63060Y-29741D01*
X62996Y-29923D01*
X62994Y-29873D01*
X62940Y-29741D01*
X62865Y-29704D01*
X62796Y-29773D01*
X62796Y-29635D01*
X62759Y-29560D01*
X62571Y-29495D01*
X62373Y-29506D01*
X62241Y-29560D01*
X62204Y-29635D01*
X62500Y-29931D01*
X62796Y-29635D01*
X62796Y-29773D01*
X62569Y-30000D01*
X62865Y-30296D01*
X62940Y-30259D01*
X63003Y-30076D01*
X63006Y-30127D01*
X63060Y-30259D01*
X63135Y-30296D01*
X63431Y-30000D01*
X63431Y-30138D01*
X63204Y-30365D01*
X63241Y-30440D01*
X63429Y-30505D01*
X63627Y-30494D01*
X63759Y-30440D01*
X63796Y-30365D01*
X63796Y-32051D01*
X63721Y-32083D01*
X63656Y-32147D01*
X63651Y-32151D01*
X63647Y-32156D01*
X63583Y-32221D01*
X63546Y-32308D01*
X63545Y-32311D01*
X63544Y-32314D01*
X63508Y-32402D01*
X63508Y-32495D01*
X63507Y-32500D01*
X63507Y-33500D01*
X63507Y-34500D01*
X63507Y-35500D01*
X63507Y-36500D01*
X63508Y-36504D01*
X63508Y-36598D01*
X63544Y-36685D01*
X63545Y-36689D01*
X63546Y-36691D01*
X63583Y-36779D01*
X63647Y-36843D01*
X63651Y-36849D01*
X63656Y-36852D01*
X63721Y-36917D01*
X63808Y-36953D01*
X63811Y-36955D01*
X63814Y-36955D01*
X63902Y-36992D01*
X63995Y-36992D01*
X64000Y-36993D01*
X64004Y-36992D01*
X64098Y-36992D01*
X64185Y-36955D01*
X64189Y-36955D01*
X64191Y-36953D01*
X64279Y-36917D01*
X64343Y-36852D01*
X64349Y-36849D01*
X64352Y-36843D01*
X64417Y-36779D01*
X64453Y-36691D01*
X64455Y-36689D01*
X64455Y-36685D01*
X64492Y-36598D01*
X64492Y-36504D01*
X64493Y-36500D01*
X64493Y-39500D01*
X64492Y-39495D01*
X64492Y-39402D01*
X64455Y-39314D01*
X64455Y-39311D01*
X64453Y-39308D01*
X64417Y-39221D01*
X64352Y-39156D01*
X64349Y-39151D01*
X64343Y-39147D01*
X64279Y-39083D01*
X64191Y-39046D01*
X64189Y-39045D01*
X64185Y-39044D01*
X64098Y-39008D01*
X64004Y-39008D01*
X64000Y-39007D01*
X63995Y-39008D01*
X63902Y-39008D01*
X63814Y-39044D01*
X63811Y-39045D01*
X63808Y-39046D01*
X63721Y-39083D01*
X63656Y-39147D01*
X63651Y-39151D01*
X63647Y-39156D01*
X63583Y-39221D01*
X63546Y-39308D01*
X63545Y-39311D01*
X63544Y-39314D01*
X63508Y-39402D01*
X63508Y-39495D01*
X63507Y-39500D01*
X63507Y-40500D01*
X63507Y-41500D01*
X63507Y-42500D01*
X63507Y-43500D01*
X63508Y-43504D01*
X63508Y-43598D01*
X63544Y-43685D01*
X63545Y-43689D01*
X63546Y-43691D01*
X63583Y-43779D01*
X63647Y-43843D01*
X63651Y-43849D01*
X63656Y-43852D01*
X63721Y-43917D01*
X63808Y-43953D01*
X63811Y-43955D01*
X63814Y-43955D01*
X63902Y-43992D01*
X63995Y-43992D01*
X64000Y-43993D01*
X64004Y-43992D01*
X64098Y-43992D01*
X64185Y-43955D01*
X64189Y-43955D01*
X64191Y-43953D01*
X64279Y-43917D01*
X64343Y-43852D01*
X64349Y-43849D01*
X64352Y-43843D01*
X64417Y-43779D01*
X64453Y-43691D01*
X64455Y-43689D01*
X64455Y-43685D01*
X64492Y-43598D01*
X64492Y-43504D01*
X64493Y-43500D01*
X64493Y-46528D01*
X63992Y-46528D01*
X63992Y-46098D01*
X63992Y-45902D01*
X63917Y-45721D01*
X63779Y-45583D01*
X63598Y-45508D01*
X63493Y-45508D01*
X63493Y-43500D01*
X63493Y-42500D01*
X63493Y-41500D01*
X63493Y-40500D01*
X63493Y-39500D01*
X63493Y-36500D01*
X63493Y-35500D01*
X63493Y-34500D01*
X63493Y-33500D01*
X63493Y-32500D01*
X63492Y-32495D01*
X63492Y-32402D01*
X63455Y-32314D01*
X63455Y-32311D01*
X63453Y-32308D01*
X63417Y-32221D01*
X63352Y-32156D01*
X63349Y-32151D01*
X63343Y-32147D01*
X63279Y-32083D01*
X63191Y-32046D01*
X63189Y-32045D01*
X63185Y-32044D01*
X63098Y-32008D01*
X63004Y-32008D01*
X63000Y-32007D01*
X62995Y-32008D01*
X62902Y-32008D01*
X62814Y-32044D01*
X62811Y-32045D01*
X62808Y-32046D01*
X62796Y-32051D01*
X62796Y-30365D01*
X62500Y-30069D01*
X62431Y-30138D01*
X62431Y-30000D01*
X62135Y-29704D01*
X62060Y-29741D01*
X61996Y-29923D01*
X61994Y-29873D01*
X61940Y-29741D01*
X61865Y-29704D01*
X61796Y-29773D01*
X61796Y-29635D01*
X61759Y-29560D01*
X61571Y-29495D01*
X61373Y-29506D01*
X61241Y-29560D01*
X61204Y-29635D01*
X61500Y-29931D01*
X61796Y-29635D01*
X61796Y-29773D01*
X61569Y-30000D01*
X61865Y-30296D01*
X61940Y-30259D01*
X62003Y-30076D01*
X62006Y-30127D01*
X62060Y-30259D01*
X62135Y-30296D01*
X62431Y-30000D01*
X62431Y-30138D01*
X62204Y-30365D01*
X62241Y-30440D01*
X62429Y-30505D01*
X62627Y-30494D01*
X62759Y-30440D01*
X62796Y-30365D01*
X62796Y-32051D01*
X62721Y-32083D01*
X62656Y-32147D01*
X62651Y-32151D01*
X62647Y-32156D01*
X62583Y-32221D01*
X62546Y-32308D01*
X62545Y-32311D01*
X62544Y-32314D01*
X62508Y-32402D01*
X62508Y-32495D01*
X62507Y-32500D01*
X62507Y-33500D01*
X62507Y-34500D01*
X62507Y-35500D01*
X62507Y-36500D01*
X62508Y-36504D01*
X62508Y-36598D01*
X62544Y-36685D01*
X62545Y-36689D01*
X62546Y-36691D01*
X62583Y-36779D01*
X62647Y-36843D01*
X62651Y-36849D01*
X62656Y-36852D01*
X62721Y-36917D01*
X62808Y-36953D01*
X62811Y-36955D01*
X62814Y-36955D01*
X62902Y-36992D01*
X62995Y-36992D01*
X63000Y-36993D01*
X63004Y-36992D01*
X63098Y-36992D01*
X63185Y-36955D01*
X63189Y-36955D01*
X63191Y-36953D01*
X63279Y-36917D01*
X63343Y-36852D01*
X63349Y-36849D01*
X63352Y-36843D01*
X63417Y-36779D01*
X63453Y-36691D01*
X63455Y-36689D01*
X63455Y-36685D01*
X63492Y-36598D01*
X63492Y-36504D01*
X63493Y-36500D01*
X63493Y-39500D01*
X63492Y-39495D01*
X63492Y-39402D01*
X63455Y-39314D01*
X63455Y-39311D01*
X63453Y-39308D01*
X63417Y-39221D01*
X63352Y-39156D01*
X63349Y-39151D01*
X63343Y-39147D01*
X63279Y-39083D01*
X63191Y-39046D01*
X63189Y-39045D01*
X63185Y-39044D01*
X63098Y-39008D01*
X63004Y-39008D01*
X63000Y-39007D01*
X62995Y-39008D01*
X62902Y-39008D01*
X62814Y-39044D01*
X62811Y-39045D01*
X62808Y-39046D01*
X62721Y-39083D01*
X62656Y-39147D01*
X62651Y-39151D01*
X62647Y-39156D01*
X62583Y-39221D01*
X62546Y-39308D01*
X62545Y-39311D01*
X62544Y-39314D01*
X62508Y-39402D01*
X62508Y-39495D01*
X62507Y-39500D01*
X62507Y-40500D01*
X62507Y-41500D01*
X62507Y-42500D01*
X62507Y-43500D01*
X62508Y-43504D01*
X62508Y-43598D01*
X62544Y-43685D01*
X62545Y-43689D01*
X62546Y-43691D01*
X62583Y-43779D01*
X62647Y-43843D01*
X62651Y-43849D01*
X62656Y-43852D01*
X62721Y-43917D01*
X62808Y-43953D01*
X62811Y-43955D01*
X62814Y-43955D01*
X62902Y-43992D01*
X62995Y-43992D01*
X63000Y-43993D01*
X63004Y-43992D01*
X63098Y-43992D01*
X63185Y-43955D01*
X63189Y-43955D01*
X63191Y-43953D01*
X63279Y-43917D01*
X63343Y-43852D01*
X63349Y-43849D01*
X63352Y-43843D01*
X63417Y-43779D01*
X63453Y-43691D01*
X63455Y-43689D01*
X63455Y-43685D01*
X63492Y-43598D01*
X63492Y-43504D01*
X63493Y-43500D01*
X63493Y-45508D01*
X63402Y-45508D01*
X63221Y-45583D01*
X63083Y-45721D01*
X63008Y-45902D01*
X63008Y-46098D01*
X63083Y-46279D01*
X63221Y-46417D01*
X63402Y-46492D01*
X63598Y-46492D01*
X63779Y-46417D01*
X63917Y-46279D01*
X63992Y-46098D01*
X63992Y-46528D01*
X62992Y-46528D01*
X62992Y-46098D01*
X62992Y-45902D01*
X62917Y-45721D01*
X62779Y-45583D01*
X62598Y-45508D01*
X62493Y-45508D01*
X62493Y-43500D01*
X62493Y-42500D01*
X62493Y-41500D01*
X62493Y-41000D01*
X62493Y-40500D01*
X62493Y-39500D01*
X62493Y-36500D01*
X62493Y-35500D01*
X62493Y-34500D01*
X62493Y-33500D01*
X62493Y-32500D01*
X62492Y-32495D01*
X62492Y-32402D01*
X62455Y-32314D01*
X62455Y-32311D01*
X62453Y-32308D01*
X62417Y-32221D01*
X62352Y-32156D01*
X62349Y-32151D01*
X62343Y-32147D01*
X62279Y-32083D01*
X62191Y-32046D01*
X62189Y-32045D01*
X62185Y-32044D01*
X62098Y-32008D01*
X62004Y-32008D01*
X62000Y-32007D01*
X61995Y-32008D01*
X61902Y-32008D01*
X61814Y-32044D01*
X61811Y-32045D01*
X61808Y-32046D01*
X61796Y-32051D01*
X61796Y-30365D01*
X61500Y-30069D01*
X61431Y-30138D01*
X61431Y-30000D01*
X61135Y-29704D01*
X61060Y-29741D01*
X60996Y-29923D01*
X60994Y-29873D01*
X60940Y-29741D01*
X60865Y-29704D01*
X60796Y-29773D01*
X60796Y-29635D01*
X60759Y-29560D01*
X60571Y-29495D01*
X60373Y-29506D01*
X60241Y-29560D01*
X60204Y-29635D01*
X60500Y-29931D01*
X60796Y-29635D01*
X60796Y-29773D01*
X60569Y-30000D01*
X60865Y-30296D01*
X60940Y-30259D01*
X61003Y-30076D01*
X61006Y-30127D01*
X61060Y-30259D01*
X61135Y-30296D01*
X61431Y-30000D01*
X61431Y-30138D01*
X61204Y-30365D01*
X61241Y-30440D01*
X61429Y-30505D01*
X61627Y-30494D01*
X61759Y-30440D01*
X61796Y-30365D01*
X61796Y-32051D01*
X61721Y-32083D01*
X61656Y-32147D01*
X61651Y-32151D01*
X61647Y-32156D01*
X61583Y-32221D01*
X61546Y-32308D01*
X61545Y-32311D01*
X61544Y-32314D01*
X61508Y-32402D01*
X61508Y-32495D01*
X61507Y-32500D01*
X61507Y-33500D01*
X61507Y-34500D01*
X61507Y-35500D01*
X61507Y-36500D01*
X61508Y-36504D01*
X61508Y-36598D01*
X61544Y-36685D01*
X61545Y-36689D01*
X61546Y-36691D01*
X61583Y-36779D01*
X61647Y-36843D01*
X61651Y-36849D01*
X61656Y-36852D01*
X61721Y-36917D01*
X61808Y-36953D01*
X61811Y-36955D01*
X61814Y-36955D01*
X61902Y-36992D01*
X61995Y-36992D01*
X62000Y-36993D01*
X62004Y-36992D01*
X62098Y-36992D01*
X62185Y-36955D01*
X62189Y-36955D01*
X62191Y-36953D01*
X62279Y-36917D01*
X62343Y-36852D01*
X62349Y-36849D01*
X62352Y-36843D01*
X62417Y-36779D01*
X62453Y-36691D01*
X62455Y-36689D01*
X62455Y-36685D01*
X62492Y-36598D01*
X62492Y-36504D01*
X62493Y-36500D01*
X62493Y-39500D01*
X62492Y-39495D01*
X62492Y-39402D01*
X62455Y-39314D01*
X62455Y-39311D01*
X62453Y-39308D01*
X62417Y-39221D01*
X62352Y-39156D01*
X62349Y-39151D01*
X62343Y-39147D01*
X62279Y-39083D01*
X62191Y-39046D01*
X62189Y-39045D01*
X62185Y-39044D01*
X62098Y-39008D01*
X62004Y-39008D01*
X62000Y-39007D01*
X61995Y-39008D01*
X61902Y-39008D01*
X61814Y-39044D01*
X61811Y-39045D01*
X61808Y-39046D01*
X61721Y-39083D01*
X61656Y-39147D01*
X61651Y-39151D01*
X61647Y-39156D01*
X61583Y-39221D01*
X61546Y-39308D01*
X61545Y-39311D01*
X61544Y-39314D01*
X61508Y-39402D01*
X61508Y-39495D01*
X61507Y-39500D01*
X61507Y-40500D01*
X61507Y-41000D01*
X61507Y-41500D01*
X61507Y-42500D01*
X61507Y-43500D01*
X61508Y-43504D01*
X61508Y-43598D01*
X61544Y-43685D01*
X61545Y-43689D01*
X61546Y-43691D01*
X61583Y-43779D01*
X61647Y-43843D01*
X61651Y-43849D01*
X61656Y-43852D01*
X61721Y-43917D01*
X61808Y-43953D01*
X61811Y-43955D01*
X61814Y-43955D01*
X61902Y-43992D01*
X61995Y-43992D01*
X62000Y-43993D01*
X62004Y-43992D01*
X62098Y-43992D01*
X62185Y-43955D01*
X62189Y-43955D01*
X62191Y-43953D01*
X62279Y-43917D01*
X62343Y-43852D01*
X62349Y-43849D01*
X62352Y-43843D01*
X62417Y-43779D01*
X62453Y-43691D01*
X62455Y-43689D01*
X62455Y-43685D01*
X62492Y-43598D01*
X62492Y-43504D01*
X62493Y-43500D01*
X62493Y-45508D01*
X62402Y-45508D01*
X62221Y-45583D01*
X62083Y-45721D01*
X62008Y-45902D01*
X62008Y-46098D01*
X62083Y-46279D01*
X62221Y-46417D01*
X62402Y-46492D01*
X62598Y-46492D01*
X62779Y-46417D01*
X62917Y-46279D01*
X62992Y-46098D01*
X62992Y-46528D01*
X61992Y-46528D01*
X61992Y-46098D01*
X61992Y-45902D01*
X61917Y-45721D01*
X61779Y-45583D01*
X61598Y-45508D01*
X61493Y-45508D01*
X61493Y-43500D01*
X61493Y-42500D01*
X61493Y-41500D01*
X61493Y-40500D01*
X61493Y-39500D01*
X61493Y-36500D01*
X61493Y-35500D01*
X61493Y-34500D01*
X61493Y-33500D01*
X61493Y-32500D01*
X61492Y-32495D01*
X61492Y-32402D01*
X61455Y-32314D01*
X61455Y-32311D01*
X61453Y-32308D01*
X61417Y-32221D01*
X61352Y-32156D01*
X61349Y-32151D01*
X61343Y-32147D01*
X61279Y-32083D01*
X61191Y-32046D01*
X61189Y-32045D01*
X61185Y-32044D01*
X61098Y-32008D01*
X61004Y-32008D01*
X61000Y-32007D01*
X60995Y-32008D01*
X60902Y-32008D01*
X60814Y-32044D01*
X60811Y-32045D01*
X60808Y-32046D01*
X60796Y-32051D01*
X60796Y-30365D01*
X60500Y-30069D01*
X60431Y-30138D01*
X60431Y-30000D01*
X60135Y-29704D01*
X60060Y-29741D01*
X59995Y-29929D01*
X60006Y-30127D01*
X60060Y-30259D01*
X60135Y-30296D01*
X60431Y-30000D01*
X60431Y-30138D01*
X60204Y-30365D01*
X60241Y-30440D01*
X60429Y-30505D01*
X60627Y-30494D01*
X60759Y-30440D01*
X60796Y-30365D01*
X60796Y-32051D01*
X60721Y-32083D01*
X60656Y-32147D01*
X60651Y-32151D01*
X60647Y-32156D01*
X60583Y-32221D01*
X60546Y-32308D01*
X60545Y-32311D01*
X60544Y-32314D01*
X60508Y-32402D01*
X60508Y-32495D01*
X60507Y-32500D01*
X60507Y-33500D01*
X60507Y-34500D01*
X60507Y-35500D01*
X60507Y-36500D01*
X60508Y-36504D01*
X60508Y-36598D01*
X60544Y-36685D01*
X60545Y-36689D01*
X60546Y-36691D01*
X60583Y-36779D01*
X60647Y-36843D01*
X60651Y-36849D01*
X60656Y-36852D01*
X60721Y-36917D01*
X60808Y-36953D01*
X60811Y-36955D01*
X60814Y-36955D01*
X60902Y-36992D01*
X60995Y-36992D01*
X61000Y-36993D01*
X61004Y-36992D01*
X61098Y-36992D01*
X61185Y-36955D01*
X61189Y-36955D01*
X61191Y-36953D01*
X61279Y-36917D01*
X61343Y-36852D01*
X61349Y-36849D01*
X61352Y-36843D01*
X61417Y-36779D01*
X61453Y-36691D01*
X61455Y-36689D01*
X61455Y-36685D01*
X61492Y-36598D01*
X61492Y-36504D01*
X61493Y-36500D01*
X61493Y-39500D01*
X61492Y-39495D01*
X61492Y-39402D01*
X61455Y-39314D01*
X61455Y-39311D01*
X61453Y-39308D01*
X61417Y-39221D01*
X61352Y-39156D01*
X61349Y-39151D01*
X61343Y-39147D01*
X61279Y-39083D01*
X61191Y-39046D01*
X61189Y-39045D01*
X61185Y-39044D01*
X61098Y-39008D01*
X61004Y-39008D01*
X61000Y-39007D01*
X60995Y-39008D01*
X60902Y-39008D01*
X60814Y-39044D01*
X60811Y-39045D01*
X60808Y-39046D01*
X60721Y-39083D01*
X60656Y-39147D01*
X60651Y-39151D01*
X60647Y-39156D01*
X60583Y-39221D01*
X60546Y-39308D01*
X60545Y-39311D01*
X60544Y-39314D01*
X60508Y-39402D01*
X60508Y-39495D01*
X60507Y-39500D01*
X60507Y-40500D01*
X60507Y-41500D01*
X60507Y-42500D01*
X60507Y-43500D01*
X60508Y-43504D01*
X60508Y-43598D01*
X60544Y-43685D01*
X60545Y-43689D01*
X60546Y-43691D01*
X60583Y-43779D01*
X60647Y-43843D01*
X60651Y-43849D01*
X60656Y-43852D01*
X60721Y-43917D01*
X60808Y-43953D01*
X60811Y-43955D01*
X60814Y-43955D01*
X60902Y-43992D01*
X60995Y-43992D01*
X61000Y-43993D01*
X61004Y-43992D01*
X61098Y-43992D01*
X61185Y-43955D01*
X61189Y-43955D01*
X61191Y-43953D01*
X61279Y-43917D01*
X61343Y-43852D01*
X61349Y-43849D01*
X61352Y-43843D01*
X61417Y-43779D01*
X61453Y-43691D01*
X61455Y-43689D01*
X61455Y-43685D01*
X61492Y-43598D01*
X61492Y-43504D01*
X61493Y-43500D01*
X61493Y-45508D01*
X61402Y-45508D01*
X61221Y-45583D01*
X61083Y-45721D01*
X61008Y-45902D01*
X61008Y-46098D01*
X61083Y-46279D01*
X61221Y-46417D01*
X61402Y-46492D01*
X61598Y-46492D01*
X61779Y-46417D01*
X61917Y-46279D01*
X61992Y-46098D01*
X61992Y-46528D01*
X60992Y-46528D01*
X60992Y-46098D01*
X60992Y-45902D01*
X60917Y-45721D01*
X60779Y-45583D01*
X60598Y-45508D01*
X60493Y-45508D01*
X60493Y-43500D01*
X60493Y-42500D01*
X60493Y-41500D01*
X60493Y-40500D01*
X60493Y-39500D01*
X60493Y-36500D01*
X60493Y-35500D01*
X60493Y-34500D01*
X60493Y-33500D01*
X60493Y-32500D01*
X60492Y-32495D01*
X60492Y-32402D01*
X60455Y-32314D01*
X60455Y-32311D01*
X60453Y-32308D01*
X60417Y-32221D01*
X60352Y-32156D01*
X60349Y-32151D01*
X60343Y-32147D01*
X60279Y-32083D01*
X60191Y-32046D01*
X60189Y-32045D01*
X60185Y-32044D01*
X60098Y-32008D01*
X60004Y-32008D01*
X60000Y-32007D01*
X59995Y-32008D01*
X59902Y-32008D01*
X59814Y-32044D01*
X59811Y-32045D01*
X59808Y-32046D01*
X59721Y-32083D01*
X59656Y-32147D01*
X59651Y-32151D01*
X59647Y-32156D01*
X59583Y-32221D01*
X59546Y-32308D01*
X59545Y-32311D01*
X59544Y-32314D01*
X59508Y-32402D01*
X59508Y-32495D01*
X59507Y-32500D01*
X59507Y-33500D01*
X59507Y-34500D01*
X59507Y-35500D01*
X59507Y-36500D01*
X59508Y-36504D01*
X59508Y-36598D01*
X59544Y-36685D01*
X59545Y-36689D01*
X59546Y-36691D01*
X59583Y-36779D01*
X59647Y-36843D01*
X59651Y-36849D01*
X59656Y-36852D01*
X59721Y-36917D01*
X59808Y-36953D01*
X59811Y-36955D01*
X59814Y-36955D01*
X59902Y-36992D01*
X59995Y-36992D01*
X60000Y-36993D01*
X60004Y-36992D01*
X60098Y-36992D01*
X60185Y-36955D01*
X60189Y-36955D01*
X60191Y-36953D01*
X60279Y-36917D01*
X60343Y-36852D01*
X60349Y-36849D01*
X60352Y-36843D01*
X60417Y-36779D01*
X60453Y-36691D01*
X60455Y-36689D01*
X60455Y-36685D01*
X60492Y-36598D01*
X60492Y-36504D01*
X60493Y-36500D01*
X60493Y-39500D01*
X60492Y-39495D01*
X60492Y-39402D01*
X60455Y-39314D01*
X60455Y-39311D01*
X60453Y-39308D01*
X60417Y-39221D01*
X60352Y-39156D01*
X60349Y-39151D01*
X60343Y-39147D01*
X60279Y-39083D01*
X60191Y-39046D01*
X60189Y-39045D01*
X60185Y-39044D01*
X60098Y-39008D01*
X60004Y-39008D01*
X60000Y-39007D01*
X59995Y-39008D01*
X59902Y-39008D01*
X59814Y-39044D01*
X59811Y-39045D01*
X59808Y-39046D01*
X59721Y-39083D01*
X59656Y-39147D01*
X59651Y-39151D01*
X59647Y-39156D01*
X59583Y-39221D01*
X59546Y-39308D01*
X59545Y-39311D01*
X59544Y-39314D01*
X59508Y-39402D01*
X59508Y-39495D01*
X59507Y-39500D01*
X59507Y-40500D01*
X59507Y-41500D01*
X59507Y-42500D01*
X59507Y-43500D01*
X59508Y-43504D01*
X59508Y-43598D01*
X59544Y-43685D01*
X59545Y-43689D01*
X59546Y-43691D01*
X59583Y-43779D01*
X59647Y-43843D01*
X59651Y-43849D01*
X59656Y-43852D01*
X59721Y-43917D01*
X59808Y-43953D01*
X59811Y-43955D01*
X59814Y-43955D01*
X59902Y-43992D01*
X59995Y-43992D01*
X60000Y-43993D01*
X60004Y-43992D01*
X60098Y-43992D01*
X60185Y-43955D01*
X60189Y-43955D01*
X60191Y-43953D01*
X60279Y-43917D01*
X60343Y-43852D01*
X60349Y-43849D01*
X60352Y-43843D01*
X60417Y-43779D01*
X60453Y-43691D01*
X60455Y-43689D01*
X60455Y-43685D01*
X60492Y-43598D01*
X60492Y-43504D01*
X60493Y-43500D01*
X60493Y-45508D01*
X60402Y-45508D01*
X60221Y-45583D01*
X60083Y-45721D01*
X60008Y-45902D01*
X60008Y-46098D01*
X60083Y-46279D01*
X60221Y-46417D01*
X60402Y-46492D01*
X60598Y-46492D01*
X60779Y-46417D01*
X60917Y-46279D01*
X60992Y-46098D01*
X60992Y-46528D01*
X59493Y-46528D01*
X59493Y-43500D01*
X59493Y-42500D01*
X59493Y-41500D01*
X59493Y-40500D01*
X59493Y-39500D01*
X59493Y-36500D01*
X59493Y-35500D01*
X59493Y-34500D01*
X59493Y-33500D01*
X59493Y-32500D01*
X59492Y-32495D01*
X59492Y-32402D01*
X59455Y-32314D01*
X59455Y-32311D01*
X59453Y-32308D01*
X59417Y-32221D01*
X59352Y-32156D01*
X59349Y-32151D01*
X59343Y-32147D01*
X59279Y-32083D01*
X59191Y-32046D01*
X59189Y-32045D01*
X59185Y-32044D01*
X59098Y-32008D01*
X59005Y-32008D01*
X59005Y-30071D01*
X58994Y-29873D01*
X58940Y-29741D01*
X58865Y-29704D01*
X58796Y-29773D01*
X58796Y-29635D01*
X58759Y-29560D01*
X58571Y-29495D01*
X58373Y-29506D01*
X58241Y-29560D01*
X58204Y-29635D01*
X58500Y-29931D01*
X58796Y-29635D01*
X58796Y-29773D01*
X58569Y-30000D01*
X58865Y-30296D01*
X58940Y-30259D01*
X59005Y-30071D01*
X59005Y-32008D01*
X59004Y-32008D01*
X59000Y-32007D01*
X58995Y-32008D01*
X58902Y-32008D01*
X58814Y-32044D01*
X58811Y-32045D01*
X58808Y-32046D01*
X58796Y-32051D01*
X58796Y-30365D01*
X58500Y-30069D01*
X58431Y-30138D01*
X58431Y-30000D01*
X58135Y-29704D01*
X58060Y-29741D01*
X57996Y-29923D01*
X57994Y-29873D01*
X57940Y-29741D01*
X57865Y-29704D01*
X57796Y-29773D01*
X57796Y-29635D01*
X57759Y-29560D01*
X57571Y-29495D01*
X57373Y-29506D01*
X57241Y-29560D01*
X57204Y-29635D01*
X57500Y-29931D01*
X57796Y-29635D01*
X57796Y-29773D01*
X57569Y-30000D01*
X57865Y-30296D01*
X57940Y-30259D01*
X58003Y-30076D01*
X58006Y-30127D01*
X58060Y-30259D01*
X58135Y-30296D01*
X58431Y-30000D01*
X58431Y-30138D01*
X58204Y-30365D01*
X58241Y-30440D01*
X58429Y-30505D01*
X58627Y-30494D01*
X58759Y-30440D01*
X58796Y-30365D01*
X58796Y-32051D01*
X58721Y-32083D01*
X58656Y-32147D01*
X58651Y-32151D01*
X58647Y-32156D01*
X58583Y-32221D01*
X58546Y-32308D01*
X58545Y-32311D01*
X58544Y-32314D01*
X58508Y-32402D01*
X58508Y-32495D01*
X58507Y-32500D01*
X58507Y-33500D01*
X58507Y-34500D01*
X58507Y-35500D01*
X58507Y-36500D01*
X58508Y-36504D01*
X58508Y-36598D01*
X58544Y-36685D01*
X58545Y-36689D01*
X58546Y-36691D01*
X58583Y-36779D01*
X58647Y-36843D01*
X58651Y-36849D01*
X58656Y-36852D01*
X58721Y-36917D01*
X58808Y-36953D01*
X58811Y-36955D01*
X58814Y-36955D01*
X58902Y-36992D01*
X58995Y-36992D01*
X59000Y-36993D01*
X59004Y-36992D01*
X59098Y-36992D01*
X59185Y-36955D01*
X59189Y-36955D01*
X59191Y-36953D01*
X59279Y-36917D01*
X59343Y-36852D01*
X59349Y-36849D01*
X59352Y-36843D01*
X59417Y-36779D01*
X59453Y-36691D01*
X59455Y-36689D01*
X59455Y-36685D01*
X59492Y-36598D01*
X59492Y-36504D01*
X59493Y-36500D01*
X59493Y-39500D01*
X59492Y-39495D01*
X59492Y-39402D01*
X59455Y-39314D01*
X59455Y-39311D01*
X59453Y-39308D01*
X59417Y-39221D01*
X59352Y-39156D01*
X59349Y-39151D01*
X59343Y-39147D01*
X59279Y-39083D01*
X59191Y-39046D01*
X59189Y-39045D01*
X59185Y-39044D01*
X59098Y-39008D01*
X59004Y-39008D01*
X59000Y-39007D01*
X58995Y-39008D01*
X58902Y-39008D01*
X58814Y-39044D01*
X58811Y-39045D01*
X58808Y-39046D01*
X58721Y-39083D01*
X58656Y-39147D01*
X58651Y-39151D01*
X58647Y-39156D01*
X58583Y-39221D01*
X58546Y-39308D01*
X58545Y-39311D01*
X58544Y-39314D01*
X58508Y-39402D01*
X58508Y-39495D01*
X58507Y-39500D01*
X58507Y-40500D01*
X58507Y-41500D01*
X58507Y-42500D01*
X58507Y-43500D01*
X58508Y-43504D01*
X58508Y-43598D01*
X58544Y-43685D01*
X58545Y-43689D01*
X58546Y-43691D01*
X58583Y-43779D01*
X58647Y-43843D01*
X58651Y-43849D01*
X58656Y-43852D01*
X58721Y-43917D01*
X58808Y-43953D01*
X58811Y-43955D01*
X58814Y-43955D01*
X58902Y-43992D01*
X58995Y-43992D01*
X59000Y-43993D01*
X59004Y-43992D01*
X59098Y-43992D01*
X59185Y-43955D01*
X59189Y-43955D01*
X59191Y-43953D01*
X59279Y-43917D01*
X59343Y-43852D01*
X59349Y-43849D01*
X59352Y-43843D01*
X59417Y-43779D01*
X59453Y-43691D01*
X59455Y-43689D01*
X59455Y-43685D01*
X59492Y-43598D01*
X59492Y-43504D01*
X59493Y-43500D01*
X59493Y-46528D01*
X58992Y-46528D01*
X58992Y-46098D01*
X58992Y-45902D01*
X58917Y-45721D01*
X58779Y-45583D01*
X58598Y-45508D01*
X58493Y-45508D01*
X58493Y-43500D01*
X58493Y-42500D01*
X58493Y-41500D01*
X58493Y-40500D01*
X58493Y-39500D01*
X58493Y-36500D01*
X58493Y-35500D01*
X58493Y-34500D01*
X58493Y-33500D01*
X58493Y-32500D01*
X58492Y-32495D01*
X58492Y-32402D01*
X58455Y-32314D01*
X58455Y-32311D01*
X58453Y-32308D01*
X58417Y-32221D01*
X58352Y-32156D01*
X58349Y-32151D01*
X58343Y-32147D01*
X58279Y-32083D01*
X58191Y-32046D01*
X58189Y-32045D01*
X58185Y-32044D01*
X58098Y-32008D01*
X58004Y-32008D01*
X58000Y-32007D01*
X57995Y-32008D01*
X57902Y-32008D01*
X57814Y-32044D01*
X57811Y-32045D01*
X57808Y-32046D01*
X57796Y-32051D01*
X57796Y-30365D01*
X57500Y-30069D01*
X57431Y-30138D01*
X57431Y-30000D01*
X57135Y-29704D01*
X57060Y-29741D01*
X56996Y-29923D01*
X56994Y-29873D01*
X56940Y-29741D01*
X56865Y-29704D01*
X56796Y-29773D01*
X56796Y-29635D01*
X56759Y-29560D01*
X56571Y-29495D01*
X56373Y-29506D01*
X56241Y-29560D01*
X56204Y-29635D01*
X56500Y-29931D01*
X56796Y-29635D01*
X56796Y-29773D01*
X56569Y-30000D01*
X56865Y-30296D01*
X56940Y-30259D01*
X57003Y-30076D01*
X57006Y-30127D01*
X57060Y-30259D01*
X57135Y-30296D01*
X57431Y-30000D01*
X57431Y-30138D01*
X57204Y-30365D01*
X57241Y-30440D01*
X57429Y-30505D01*
X57627Y-30494D01*
X57759Y-30440D01*
X57796Y-30365D01*
X57796Y-32051D01*
X57721Y-32083D01*
X57656Y-32147D01*
X57651Y-32151D01*
X57647Y-32156D01*
X57583Y-32221D01*
X57546Y-32308D01*
X57545Y-32311D01*
X57544Y-32314D01*
X57508Y-32402D01*
X57508Y-32495D01*
X57507Y-32500D01*
X57507Y-33500D01*
X57507Y-34500D01*
X57507Y-35500D01*
X57507Y-36500D01*
X57508Y-36504D01*
X57508Y-36598D01*
X57544Y-36685D01*
X57545Y-36689D01*
X57546Y-36691D01*
X57583Y-36779D01*
X57647Y-36843D01*
X57651Y-36849D01*
X57656Y-36852D01*
X57721Y-36917D01*
X57808Y-36953D01*
X57811Y-36955D01*
X57814Y-36955D01*
X57902Y-36992D01*
X57995Y-36992D01*
X58000Y-36993D01*
X58004Y-36992D01*
X58098Y-36992D01*
X58185Y-36955D01*
X58189Y-36955D01*
X58191Y-36953D01*
X58279Y-36917D01*
X58343Y-36852D01*
X58349Y-36849D01*
X58352Y-36843D01*
X58417Y-36779D01*
X58453Y-36691D01*
X58455Y-36689D01*
X58455Y-36685D01*
X58492Y-36598D01*
X58492Y-36504D01*
X58493Y-36500D01*
X58493Y-39500D01*
X58492Y-39495D01*
X58492Y-39402D01*
X58455Y-39314D01*
X58455Y-39311D01*
X58453Y-39308D01*
X58417Y-39221D01*
X58352Y-39156D01*
X58349Y-39151D01*
X58343Y-39147D01*
X58279Y-39083D01*
X58191Y-39046D01*
X58189Y-39045D01*
X58185Y-39044D01*
X58098Y-39008D01*
X58004Y-39008D01*
X58000Y-39007D01*
X57995Y-39008D01*
X57902Y-39008D01*
X57814Y-39044D01*
X57811Y-39045D01*
X57808Y-39046D01*
X57721Y-39083D01*
X57656Y-39147D01*
X57651Y-39151D01*
X57647Y-39156D01*
X57583Y-39221D01*
X57546Y-39308D01*
X57545Y-39311D01*
X57544Y-39314D01*
X57508Y-39402D01*
X57508Y-39495D01*
X57507Y-39500D01*
X57507Y-40500D01*
X57507Y-41500D01*
X57507Y-42500D01*
X57507Y-43500D01*
X57508Y-43504D01*
X57508Y-43598D01*
X57544Y-43685D01*
X57545Y-43689D01*
X57546Y-43691D01*
X57583Y-43779D01*
X57647Y-43843D01*
X57651Y-43849D01*
X57656Y-43852D01*
X57721Y-43917D01*
X57808Y-43953D01*
X57811Y-43955D01*
X57814Y-43955D01*
X57902Y-43992D01*
X57995Y-43992D01*
X58000Y-43993D01*
X58004Y-43992D01*
X58098Y-43992D01*
X58185Y-43955D01*
X58189Y-43955D01*
X58191Y-43953D01*
X58279Y-43917D01*
X58343Y-43852D01*
X58349Y-43849D01*
X58352Y-43843D01*
X58417Y-43779D01*
X58453Y-43691D01*
X58455Y-43689D01*
X58455Y-43685D01*
X58492Y-43598D01*
X58492Y-43504D01*
X58493Y-43500D01*
X58493Y-45508D01*
X58402Y-45508D01*
X58221Y-45583D01*
X58083Y-45721D01*
X58008Y-45902D01*
X58008Y-46098D01*
X58083Y-46279D01*
X58221Y-46417D01*
X58402Y-46492D01*
X58598Y-46492D01*
X58779Y-46417D01*
X58917Y-46279D01*
X58992Y-46098D01*
X58992Y-46528D01*
X57992Y-46528D01*
X57992Y-46098D01*
X57992Y-45902D01*
X57917Y-45721D01*
X57779Y-45583D01*
X57598Y-45508D01*
X57493Y-45508D01*
X57493Y-43500D01*
X57493Y-42500D01*
X57493Y-41500D01*
X57493Y-40500D01*
X57493Y-39500D01*
X57493Y-36500D01*
X57493Y-35500D01*
X57493Y-34500D01*
X57493Y-33500D01*
X57493Y-32500D01*
X57492Y-32495D01*
X57492Y-32402D01*
X57455Y-32314D01*
X57455Y-32311D01*
X57453Y-32308D01*
X57417Y-32221D01*
X57352Y-32156D01*
X57349Y-32151D01*
X57343Y-32147D01*
X57279Y-32083D01*
X57191Y-32046D01*
X57189Y-32045D01*
X57185Y-32044D01*
X57098Y-32008D01*
X57004Y-32008D01*
X57000Y-32007D01*
X56995Y-32008D01*
X56902Y-32008D01*
X56814Y-32044D01*
X56811Y-32045D01*
X56808Y-32046D01*
X56796Y-32051D01*
X56796Y-30365D01*
X56500Y-30069D01*
X56431Y-30138D01*
X56431Y-30000D01*
X56135Y-29704D01*
X56060Y-29741D01*
X55996Y-29923D01*
X55994Y-29873D01*
X55940Y-29741D01*
X55865Y-29704D01*
X55796Y-29773D01*
X55796Y-29635D01*
X55759Y-29560D01*
X55571Y-29495D01*
X55373Y-29506D01*
X55241Y-29560D01*
X55204Y-29635D01*
X55500Y-29931D01*
X55796Y-29635D01*
X55796Y-29773D01*
X55569Y-30000D01*
X55865Y-30296D01*
X55940Y-30259D01*
X56003Y-30076D01*
X56006Y-30127D01*
X56060Y-30259D01*
X56135Y-30296D01*
X56431Y-30000D01*
X56431Y-30138D01*
X56204Y-30365D01*
X56241Y-30440D01*
X56429Y-30505D01*
X56627Y-30494D01*
X56759Y-30440D01*
X56796Y-30365D01*
X56796Y-32051D01*
X56721Y-32083D01*
X56656Y-32147D01*
X56651Y-32151D01*
X56647Y-32156D01*
X56583Y-32221D01*
X56546Y-32308D01*
X56545Y-32311D01*
X56544Y-32314D01*
X56508Y-32402D01*
X56508Y-32495D01*
X56507Y-32500D01*
X56507Y-33500D01*
X56507Y-34500D01*
X56507Y-35500D01*
X56507Y-36500D01*
X56508Y-36504D01*
X56508Y-36598D01*
X56544Y-36685D01*
X56545Y-36689D01*
X56546Y-36691D01*
X56583Y-36779D01*
X56647Y-36843D01*
X56651Y-36849D01*
X56656Y-36852D01*
X56721Y-36917D01*
X56808Y-36953D01*
X56811Y-36955D01*
X56814Y-36955D01*
X56902Y-36992D01*
X56995Y-36992D01*
X57000Y-36993D01*
X57004Y-36992D01*
X57098Y-36992D01*
X57185Y-36955D01*
X57189Y-36955D01*
X57191Y-36953D01*
X57279Y-36917D01*
X57343Y-36852D01*
X57349Y-36849D01*
X57352Y-36843D01*
X57417Y-36779D01*
X57453Y-36691D01*
X57455Y-36689D01*
X57455Y-36685D01*
X57492Y-36598D01*
X57492Y-36504D01*
X57493Y-36500D01*
X57493Y-39500D01*
X57492Y-39495D01*
X57492Y-39402D01*
X57455Y-39314D01*
X57455Y-39311D01*
X57453Y-39308D01*
X57417Y-39221D01*
X57352Y-39156D01*
X57349Y-39151D01*
X57343Y-39147D01*
X57279Y-39083D01*
X57191Y-39046D01*
X57189Y-39045D01*
X57185Y-39044D01*
X57098Y-39008D01*
X57004Y-39008D01*
X57000Y-39007D01*
X56995Y-39008D01*
X56902Y-39008D01*
X56814Y-39044D01*
X56811Y-39045D01*
X56808Y-39046D01*
X56721Y-39083D01*
X56656Y-39147D01*
X56651Y-39151D01*
X56647Y-39156D01*
X56583Y-39221D01*
X56546Y-39308D01*
X56545Y-39311D01*
X56544Y-39314D01*
X56508Y-39402D01*
X56508Y-39495D01*
X56507Y-39500D01*
X56507Y-40500D01*
X56507Y-41500D01*
X56507Y-42500D01*
X56507Y-43500D01*
X56508Y-43504D01*
X56508Y-43598D01*
X56544Y-43685D01*
X56545Y-43689D01*
X56546Y-43691D01*
X56583Y-43779D01*
X56647Y-43843D01*
X56651Y-43849D01*
X56656Y-43852D01*
X56721Y-43917D01*
X56808Y-43953D01*
X56811Y-43955D01*
X56814Y-43955D01*
X56902Y-43992D01*
X56995Y-43992D01*
X57000Y-43993D01*
X57004Y-43992D01*
X57098Y-43992D01*
X57185Y-43955D01*
X57189Y-43955D01*
X57191Y-43953D01*
X57279Y-43917D01*
X57343Y-43852D01*
X57349Y-43849D01*
X57352Y-43843D01*
X57417Y-43779D01*
X57453Y-43691D01*
X57455Y-43689D01*
X57455Y-43685D01*
X57492Y-43598D01*
X57492Y-43504D01*
X57493Y-43500D01*
X57493Y-45508D01*
X57402Y-45508D01*
X57221Y-45583D01*
X57083Y-45721D01*
X57008Y-45902D01*
X57008Y-46098D01*
X57083Y-46279D01*
X57221Y-46417D01*
X57402Y-46492D01*
X57598Y-46492D01*
X57779Y-46417D01*
X57917Y-46279D01*
X57992Y-46098D01*
X57992Y-46528D01*
X56992Y-46528D01*
X56992Y-46098D01*
X56992Y-45902D01*
X56917Y-45721D01*
X56779Y-45583D01*
X56598Y-45508D01*
X56493Y-45508D01*
X56493Y-43500D01*
X56493Y-42500D01*
X56493Y-41500D01*
X56493Y-40500D01*
X56493Y-39500D01*
X56493Y-36500D01*
X56493Y-35500D01*
X56493Y-34500D01*
X56493Y-33500D01*
X56493Y-32500D01*
X56492Y-32495D01*
X56492Y-32402D01*
X56455Y-32314D01*
X56455Y-32311D01*
X56453Y-32308D01*
X56417Y-32221D01*
X56352Y-32156D01*
X56349Y-32151D01*
X56343Y-32147D01*
X56279Y-32083D01*
X56191Y-32046D01*
X56189Y-32045D01*
X56185Y-32044D01*
X56098Y-32008D01*
X56004Y-32008D01*
X56000Y-32007D01*
X55995Y-32008D01*
X55902Y-32008D01*
X55814Y-32044D01*
X55811Y-32045D01*
X55808Y-32046D01*
X55796Y-32051D01*
X55796Y-30365D01*
X55500Y-30069D01*
X55431Y-30138D01*
X55431Y-30000D01*
X55135Y-29704D01*
X55060Y-29741D01*
X54996Y-29923D01*
X54994Y-29873D01*
X54940Y-29741D01*
X54865Y-29704D01*
X54796Y-29773D01*
X54796Y-29635D01*
X54759Y-29560D01*
X54571Y-29495D01*
X54373Y-29506D01*
X54241Y-29560D01*
X54204Y-29635D01*
X54500Y-29931D01*
X54796Y-29635D01*
X54796Y-29773D01*
X54569Y-30000D01*
X54865Y-30296D01*
X54940Y-30259D01*
X55003Y-30076D01*
X55006Y-30127D01*
X55060Y-30259D01*
X55135Y-30296D01*
X55431Y-30000D01*
X55431Y-30138D01*
X55204Y-30365D01*
X55241Y-30440D01*
X55429Y-30505D01*
X55627Y-30494D01*
X55759Y-30440D01*
X55796Y-30365D01*
X55796Y-32051D01*
X55721Y-32083D01*
X55656Y-32147D01*
X55651Y-32151D01*
X55647Y-32156D01*
X55583Y-32221D01*
X55546Y-32308D01*
X55545Y-32311D01*
X55544Y-32314D01*
X55508Y-32402D01*
X55508Y-32495D01*
X55507Y-32500D01*
X55507Y-33500D01*
X55507Y-34500D01*
X55507Y-35500D01*
X55507Y-36500D01*
X55508Y-36504D01*
X55508Y-36598D01*
X55544Y-36685D01*
X55545Y-36689D01*
X55546Y-36691D01*
X55583Y-36779D01*
X55647Y-36843D01*
X55651Y-36849D01*
X55656Y-36852D01*
X55721Y-36917D01*
X55808Y-36953D01*
X55811Y-36955D01*
X55814Y-36955D01*
X55902Y-36992D01*
X55995Y-36992D01*
X56000Y-36993D01*
X56004Y-36992D01*
X56098Y-36992D01*
X56185Y-36955D01*
X56189Y-36955D01*
X56191Y-36953D01*
X56279Y-36917D01*
X56343Y-36852D01*
X56349Y-36849D01*
X56352Y-36843D01*
X56417Y-36779D01*
X56453Y-36691D01*
X56455Y-36689D01*
X56455Y-36685D01*
X56492Y-36598D01*
X56492Y-36504D01*
X56493Y-36500D01*
X56493Y-39500D01*
X56492Y-39495D01*
X56492Y-39402D01*
X56455Y-39314D01*
X56455Y-39311D01*
X56453Y-39308D01*
X56417Y-39221D01*
X56352Y-39156D01*
X56349Y-39151D01*
X56343Y-39147D01*
X56279Y-39083D01*
X56191Y-39046D01*
X56189Y-39045D01*
X56185Y-39044D01*
X56098Y-39008D01*
X56004Y-39008D01*
X56000Y-39007D01*
X55995Y-39008D01*
X55902Y-39008D01*
X55814Y-39044D01*
X55811Y-39045D01*
X55808Y-39046D01*
X55721Y-39083D01*
X55656Y-39147D01*
X55651Y-39151D01*
X55647Y-39156D01*
X55583Y-39221D01*
X55546Y-39308D01*
X55545Y-39311D01*
X55544Y-39314D01*
X55508Y-39402D01*
X55508Y-39495D01*
X55507Y-39500D01*
X55507Y-40500D01*
X55507Y-41500D01*
X55507Y-42500D01*
X55507Y-43500D01*
X55508Y-43504D01*
X55508Y-43598D01*
X55544Y-43685D01*
X55545Y-43689D01*
X55546Y-43691D01*
X55583Y-43779D01*
X55647Y-43843D01*
X55651Y-43849D01*
X55656Y-43852D01*
X55721Y-43917D01*
X55808Y-43953D01*
X55811Y-43955D01*
X55814Y-43955D01*
X55902Y-43992D01*
X55995Y-43992D01*
X56000Y-43993D01*
X56004Y-43992D01*
X56098Y-43992D01*
X56185Y-43955D01*
X56189Y-43955D01*
X56191Y-43953D01*
X56279Y-43917D01*
X56343Y-43852D01*
X56349Y-43849D01*
X56352Y-43843D01*
X56417Y-43779D01*
X56453Y-43691D01*
X56455Y-43689D01*
X56455Y-43685D01*
X56492Y-43598D01*
X56492Y-43504D01*
X56493Y-43500D01*
X56493Y-45508D01*
X56402Y-45508D01*
X56221Y-45583D01*
X56083Y-45721D01*
X56008Y-45902D01*
X56008Y-46098D01*
X56083Y-46279D01*
X56221Y-46417D01*
X56402Y-46492D01*
X56598Y-46492D01*
X56779Y-46417D01*
X56917Y-46279D01*
X56992Y-46098D01*
X56992Y-46528D01*
X55992Y-46528D01*
X55992Y-46098D01*
X55992Y-45902D01*
X55917Y-45721D01*
X55779Y-45583D01*
X55598Y-45508D01*
X55493Y-45508D01*
X55493Y-43500D01*
X55493Y-42500D01*
X55493Y-41500D01*
X55493Y-40500D01*
X55493Y-39500D01*
X55493Y-36500D01*
X55493Y-35500D01*
X55493Y-34500D01*
X55493Y-33500D01*
X55493Y-32500D01*
X55492Y-32495D01*
X55492Y-32402D01*
X55455Y-32314D01*
X55455Y-32311D01*
X55453Y-32308D01*
X55417Y-32221D01*
X55352Y-32156D01*
X55349Y-32151D01*
X55343Y-32147D01*
X55279Y-32083D01*
X55191Y-32046D01*
X55189Y-32045D01*
X55185Y-32044D01*
X55098Y-32008D01*
X55004Y-32008D01*
X55000Y-32007D01*
X54995Y-32008D01*
X54902Y-32008D01*
X54814Y-32044D01*
X54811Y-32045D01*
X54808Y-32046D01*
X54796Y-32051D01*
X54796Y-30365D01*
X54500Y-30069D01*
X54431Y-30138D01*
X54431Y-30000D01*
X54135Y-29704D01*
X54060Y-29741D01*
X53995Y-29929D01*
X54006Y-30127D01*
X54060Y-30259D01*
X54135Y-30296D01*
X54431Y-30000D01*
X54431Y-30138D01*
X54204Y-30365D01*
X54241Y-30440D01*
X54429Y-30505D01*
X54627Y-30494D01*
X54759Y-30440D01*
X54796Y-30365D01*
X54796Y-32051D01*
X54721Y-32083D01*
X54656Y-32147D01*
X54651Y-32151D01*
X54647Y-32156D01*
X54583Y-32221D01*
X54546Y-32308D01*
X54545Y-32311D01*
X54544Y-32314D01*
X54508Y-32402D01*
X54508Y-32495D01*
X54507Y-32500D01*
X54507Y-33500D01*
X54507Y-34500D01*
X54507Y-35500D01*
X54507Y-36500D01*
X54508Y-36504D01*
X54508Y-36598D01*
X54544Y-36685D01*
X54545Y-36689D01*
X54546Y-36691D01*
X54583Y-36779D01*
X54647Y-36843D01*
X54651Y-36849D01*
X54656Y-36852D01*
X54721Y-36917D01*
X54808Y-36953D01*
X54811Y-36955D01*
X54814Y-36955D01*
X54902Y-36992D01*
X54995Y-36992D01*
X55000Y-36993D01*
X55004Y-36992D01*
X55098Y-36992D01*
X55185Y-36955D01*
X55189Y-36955D01*
X55191Y-36953D01*
X55279Y-36917D01*
X55343Y-36852D01*
X55349Y-36849D01*
X55352Y-36843D01*
X55417Y-36779D01*
X55453Y-36691D01*
X55455Y-36689D01*
X55455Y-36685D01*
X55492Y-36598D01*
X55492Y-36504D01*
X55493Y-36500D01*
X55493Y-39500D01*
X55492Y-39495D01*
X55492Y-39402D01*
X55455Y-39314D01*
X55455Y-39311D01*
X55453Y-39308D01*
X55417Y-39221D01*
X55352Y-39156D01*
X55349Y-39151D01*
X55343Y-39147D01*
X55279Y-39083D01*
X55191Y-39046D01*
X55189Y-39045D01*
X55185Y-39044D01*
X55098Y-39008D01*
X55004Y-39008D01*
X55000Y-39007D01*
X54995Y-39008D01*
X54902Y-39008D01*
X54897Y-39010D01*
X54897Y-38179D01*
X54897Y-37822D01*
X54761Y-37492D01*
X54508Y-37240D01*
X54493Y-37233D01*
X54493Y-36500D01*
X54493Y-35500D01*
X54493Y-34500D01*
X54493Y-33500D01*
X54493Y-32500D01*
X54492Y-32495D01*
X54492Y-32402D01*
X54455Y-32314D01*
X54455Y-32311D01*
X54453Y-32308D01*
X54417Y-32221D01*
X54352Y-32156D01*
X54349Y-32151D01*
X54343Y-32147D01*
X54279Y-32083D01*
X54191Y-32046D01*
X54189Y-32045D01*
X54185Y-32044D01*
X54098Y-32008D01*
X54004Y-32008D01*
X54000Y-32007D01*
X53995Y-32008D01*
X53902Y-32008D01*
X53814Y-32044D01*
X53811Y-32045D01*
X53808Y-32046D01*
X53721Y-32083D01*
X53656Y-32147D01*
X53651Y-32151D01*
X53647Y-32156D01*
X53583Y-32221D01*
X53546Y-32308D01*
X53545Y-32311D01*
X53544Y-32314D01*
X53508Y-32402D01*
X53508Y-32495D01*
X53507Y-32500D01*
X53507Y-33500D01*
X53507Y-34500D01*
X53507Y-35500D01*
X53507Y-36500D01*
X53508Y-36504D01*
X53508Y-36598D01*
X53544Y-36685D01*
X53545Y-36689D01*
X53546Y-36691D01*
X53583Y-36779D01*
X53647Y-36843D01*
X53651Y-36849D01*
X53656Y-36852D01*
X53721Y-36917D01*
X53808Y-36953D01*
X53811Y-36955D01*
X53814Y-36955D01*
X53902Y-36992D01*
X53995Y-36992D01*
X54000Y-36993D01*
X54004Y-36992D01*
X54098Y-36992D01*
X54185Y-36955D01*
X54189Y-36955D01*
X54191Y-36953D01*
X54279Y-36917D01*
X54343Y-36852D01*
X54349Y-36849D01*
X54352Y-36843D01*
X54417Y-36779D01*
X54453Y-36691D01*
X54455Y-36689D01*
X54455Y-36685D01*
X54492Y-36598D01*
X54492Y-36504D01*
X54493Y-36500D01*
X54493Y-37233D01*
X54179Y-37103D01*
X53822Y-37103D01*
X53492Y-37239D01*
X53240Y-37492D01*
X53103Y-37821D01*
X53103Y-38178D01*
X53239Y-38508D01*
X53492Y-38760D01*
X53821Y-38897D01*
X54178Y-38897D01*
X54508Y-38761D01*
X54760Y-38508D01*
X54897Y-38179D01*
X54897Y-39010D01*
X54814Y-39044D01*
X54811Y-39045D01*
X54808Y-39046D01*
X54721Y-39083D01*
X54656Y-39147D01*
X54651Y-39151D01*
X54647Y-39156D01*
X54583Y-39221D01*
X54546Y-39308D01*
X54545Y-39311D01*
X54544Y-39314D01*
X54508Y-39402D01*
X54508Y-39495D01*
X54507Y-39500D01*
X54507Y-40500D01*
X54507Y-41500D01*
X54507Y-42500D01*
X54507Y-43500D01*
X54508Y-43504D01*
X54508Y-43598D01*
X54544Y-43685D01*
X54545Y-43689D01*
X54546Y-43691D01*
X54583Y-43779D01*
X54647Y-43843D01*
X54651Y-43849D01*
X54656Y-43852D01*
X54721Y-43917D01*
X54808Y-43953D01*
X54811Y-43955D01*
X54814Y-43955D01*
X54902Y-43992D01*
X54995Y-43992D01*
X55000Y-43993D01*
X55004Y-43992D01*
X55098Y-43992D01*
X55185Y-43955D01*
X55189Y-43955D01*
X55191Y-43953D01*
X55279Y-43917D01*
X55343Y-43852D01*
X55349Y-43849D01*
X55352Y-43843D01*
X55417Y-43779D01*
X55453Y-43691D01*
X55455Y-43689D01*
X55455Y-43685D01*
X55492Y-43598D01*
X55492Y-43504D01*
X55493Y-43500D01*
X55493Y-45508D01*
X55402Y-45508D01*
X55221Y-45583D01*
X55083Y-45721D01*
X55008Y-45902D01*
X55008Y-46098D01*
X55083Y-46279D01*
X55221Y-46417D01*
X55402Y-46492D01*
X55598Y-46492D01*
X55779Y-46417D01*
X55917Y-46279D01*
X55992Y-46098D01*
X55992Y-46528D01*
X54992Y-46528D01*
X54992Y-46098D01*
X54992Y-45902D01*
X54917Y-45721D01*
X54779Y-45583D01*
X54598Y-45508D01*
X54493Y-45508D01*
X54493Y-43500D01*
X54493Y-42500D01*
X54493Y-41500D01*
X54493Y-40500D01*
X54493Y-39500D01*
X54492Y-39495D01*
X54492Y-39402D01*
X54455Y-39314D01*
X54455Y-39311D01*
X54453Y-39308D01*
X54417Y-39221D01*
X54352Y-39156D01*
X54349Y-39151D01*
X54343Y-39147D01*
X54279Y-39083D01*
X54191Y-39046D01*
X54189Y-39045D01*
X54185Y-39044D01*
X54098Y-39008D01*
X54004Y-39008D01*
X54000Y-39007D01*
X53995Y-39008D01*
X53902Y-39008D01*
X53814Y-39044D01*
X53811Y-39045D01*
X53808Y-39046D01*
X53721Y-39083D01*
X53656Y-39147D01*
X53651Y-39151D01*
X53647Y-39156D01*
X53583Y-39221D01*
X53546Y-39308D01*
X53545Y-39311D01*
X53544Y-39314D01*
X53508Y-39402D01*
X53508Y-39495D01*
X53507Y-39500D01*
X53507Y-40500D01*
X53507Y-41500D01*
X53507Y-42500D01*
X53507Y-43500D01*
X53508Y-43504D01*
X53508Y-43598D01*
X53544Y-43685D01*
X53545Y-43689D01*
X53546Y-43691D01*
X53583Y-43779D01*
X53647Y-43843D01*
X53651Y-43849D01*
X53656Y-43852D01*
X53721Y-43917D01*
X53808Y-43953D01*
X53811Y-43955D01*
X53814Y-43955D01*
X53902Y-43992D01*
X53995Y-43992D01*
X54000Y-43993D01*
X54004Y-43992D01*
X54098Y-43992D01*
X54185Y-43955D01*
X54189Y-43955D01*
X54191Y-43953D01*
X54279Y-43917D01*
X54343Y-43852D01*
X54349Y-43849D01*
X54352Y-43843D01*
X54417Y-43779D01*
X54453Y-43691D01*
X54455Y-43689D01*
X54455Y-43685D01*
X54492Y-43598D01*
X54492Y-43504D01*
X54493Y-43500D01*
X54493Y-45508D01*
X54402Y-45508D01*
X54221Y-45583D01*
X54083Y-45721D01*
X54008Y-45902D01*
X54008Y-46098D01*
X54083Y-46279D01*
X54221Y-46417D01*
X54402Y-46492D01*
X54598Y-46492D01*
X54779Y-46417D01*
X54917Y-46279D01*
X54992Y-46098D01*
X54992Y-46528D01*
X53772Y-46528D01*
X53358Y-46445D01*
X53024Y-46222D01*
X52803Y-45889D01*
X52722Y-45477D01*
X52722Y-30522D01*
X52803Y-30110D01*
X53024Y-29777D01*
X53358Y-29554D01*
X53772Y-29472D01*
X70227Y-29472D01*
X70639Y-29553D01*
X70972Y-29774D01*
X71195Y-30108D01*
X71278Y-30522D01*
X71278Y-45477D01*
M02*
