G04 (created by PCBNEW-RS274X (2012-01-19 BZR 3256)-stable) date 2/13/2012 4:38:25 PM*
G01*
G70*
G90*
%MOIN*%
G04 Gerber Fmt 3.4, Leading zero omitted, Abs format*
%FSLAX34Y34*%
G04 APERTURE LIST*
%ADD10C,0.006000*%
%ADD11C,0.015000*%
%ADD12C,0.068900*%
%ADD13C,0.149600*%
%ADD14C,0.068900*%
%ADD15C,0.009800*%
G04 APERTURE END LIST*
G54D10*
G54D11*
X53750Y-46750D02*
X70250Y-46750D01*
X52500Y-30500D02*
X52500Y-45500D01*
X70250Y-29250D02*
X53750Y-29250D01*
X71500Y-45500D02*
X71500Y-30500D01*
X70250Y-46750D02*
X70358Y-46745D01*
X70467Y-46731D01*
X70573Y-46707D01*
X70677Y-46674D01*
X70778Y-46632D01*
X70875Y-46582D01*
X70966Y-46523D01*
X71053Y-46457D01*
X71133Y-46383D01*
X71207Y-46303D01*
X71273Y-46216D01*
X71332Y-46124D01*
X71382Y-46028D01*
X71424Y-45927D01*
X71457Y-45823D01*
X71481Y-45717D01*
X71495Y-45608D01*
X71500Y-45500D01*
X52500Y-45500D02*
X52505Y-45608D01*
X52519Y-45717D01*
X52543Y-45823D01*
X52576Y-45927D01*
X52618Y-46028D01*
X52668Y-46124D01*
X52727Y-46216D01*
X52793Y-46303D01*
X52867Y-46383D01*
X52947Y-46457D01*
X53034Y-46523D01*
X53126Y-46582D01*
X53222Y-46632D01*
X53323Y-46674D01*
X53427Y-46707D01*
X53533Y-46731D01*
X53642Y-46745D01*
X53750Y-46750D01*
X53750Y-29250D02*
X53642Y-29255D01*
X53533Y-29269D01*
X53427Y-29293D01*
X53323Y-29326D01*
X53222Y-29368D01*
X53126Y-29418D01*
X53034Y-29477D01*
X52947Y-29543D01*
X52867Y-29617D01*
X52793Y-29697D01*
X52727Y-29784D01*
X52668Y-29876D01*
X52618Y-29972D01*
X52576Y-30073D01*
X52543Y-30177D01*
X52519Y-30283D01*
X52505Y-30392D01*
X52500Y-30500D01*
X71500Y-30500D02*
X71495Y-30392D01*
X71481Y-30283D01*
X71457Y-30177D01*
X71424Y-30073D01*
X71382Y-29972D01*
X71332Y-29876D01*
X71273Y-29784D01*
X71207Y-29697D01*
X71133Y-29617D01*
X71053Y-29543D01*
X70966Y-29477D01*
X70875Y-29418D01*
X70778Y-29368D01*
X70677Y-29326D01*
X70573Y-29293D01*
X70467Y-29269D01*
X70358Y-29255D01*
X70250Y-29250D01*
G54D12*
X54000Y-36500D03*
X55000Y-36500D03*
X56000Y-36500D03*
X57000Y-36500D03*
X58000Y-36500D03*
X59000Y-36500D03*
X60000Y-36500D03*
X61000Y-36500D03*
X62000Y-36500D03*
X63000Y-36500D03*
X64000Y-36500D03*
X65000Y-36500D03*
X66000Y-36500D03*
X67000Y-36500D03*
X68000Y-36500D03*
X69000Y-36500D03*
X70000Y-36500D03*
X54000Y-35500D03*
X55000Y-35500D03*
X56000Y-35500D03*
X57000Y-35500D03*
X58000Y-35500D03*
X59000Y-35500D03*
X60000Y-35500D03*
X61000Y-35500D03*
X62000Y-35500D03*
X63000Y-35500D03*
X64000Y-35500D03*
X65000Y-35500D03*
X66000Y-35500D03*
X67000Y-35500D03*
X68000Y-35500D03*
X69000Y-35500D03*
X70000Y-35500D03*
X54000Y-34500D03*
X55000Y-34500D03*
X56000Y-34500D03*
X57000Y-34500D03*
X58000Y-34500D03*
X59000Y-34500D03*
X60000Y-34500D03*
X61000Y-34500D03*
X62000Y-34500D03*
X63000Y-34500D03*
X64000Y-34500D03*
X65000Y-34500D03*
X66000Y-34500D03*
X67000Y-34500D03*
X68000Y-34500D03*
X69000Y-34500D03*
X70000Y-34500D03*
X54000Y-33500D03*
X55000Y-33500D03*
X56000Y-33500D03*
X57000Y-33500D03*
X58000Y-33500D03*
X59000Y-33500D03*
X60000Y-33500D03*
X61000Y-33500D03*
X62000Y-33500D03*
X63000Y-33500D03*
X64000Y-33500D03*
X65000Y-33500D03*
X66000Y-33500D03*
X67000Y-33500D03*
X68000Y-33500D03*
X69000Y-33500D03*
X70000Y-33500D03*
X54000Y-32500D03*
X55000Y-32500D03*
X56000Y-32500D03*
X57000Y-32500D03*
X58000Y-32500D03*
X59000Y-32500D03*
X60000Y-32500D03*
X61000Y-32500D03*
X62000Y-32500D03*
X63000Y-32500D03*
X64000Y-32500D03*
X65000Y-32500D03*
X66000Y-32500D03*
X67000Y-32500D03*
X68000Y-32500D03*
X69000Y-32500D03*
X70000Y-32500D03*
X54000Y-39500D03*
X55000Y-39500D03*
X56000Y-39500D03*
X57000Y-39500D03*
X58000Y-39500D03*
X59000Y-39500D03*
X60000Y-39500D03*
X61000Y-39500D03*
X62000Y-39500D03*
X63000Y-39500D03*
X64000Y-39500D03*
X65000Y-39500D03*
X66000Y-39500D03*
X67000Y-39500D03*
X68000Y-39500D03*
X69000Y-39500D03*
X70000Y-39500D03*
X54000Y-40500D03*
X55000Y-40500D03*
X56000Y-40500D03*
X57000Y-40500D03*
X58000Y-40500D03*
X59000Y-40500D03*
X60000Y-40500D03*
X61000Y-40500D03*
X62000Y-40500D03*
X63000Y-40500D03*
X64000Y-40500D03*
X65000Y-40500D03*
X66000Y-40500D03*
X67000Y-40500D03*
X68000Y-40500D03*
X69000Y-40500D03*
X70000Y-40500D03*
X54000Y-41500D03*
X55000Y-41500D03*
X56000Y-41500D03*
X57000Y-41500D03*
X58000Y-41500D03*
X59000Y-41500D03*
X60000Y-41500D03*
X61000Y-41500D03*
X62000Y-41500D03*
X63000Y-41500D03*
X64000Y-41500D03*
X65000Y-41500D03*
X66000Y-41500D03*
X67000Y-41500D03*
X68000Y-41500D03*
X69000Y-41500D03*
X70000Y-41500D03*
X54000Y-42500D03*
X55000Y-42500D03*
X56000Y-42500D03*
X57000Y-42500D03*
X58000Y-42500D03*
X59000Y-42500D03*
X60000Y-42500D03*
X61000Y-42500D03*
X62000Y-42500D03*
X63000Y-42500D03*
X64000Y-42500D03*
X65000Y-42500D03*
X66000Y-42500D03*
X67000Y-42500D03*
X68000Y-42500D03*
X69000Y-42500D03*
X70000Y-42500D03*
X54000Y-43500D03*
X55000Y-43500D03*
X56000Y-43500D03*
X57000Y-43500D03*
X58000Y-43500D03*
X59000Y-43500D03*
X60000Y-43500D03*
X61000Y-43500D03*
X62000Y-43500D03*
X63000Y-43500D03*
X64000Y-43500D03*
X65000Y-43500D03*
X66000Y-43500D03*
X67000Y-43500D03*
X68000Y-43500D03*
X69000Y-43500D03*
X70000Y-43500D03*
X54500Y-30000D03*
X55500Y-30000D03*
X56500Y-30000D03*
X57500Y-30000D03*
X58500Y-30000D03*
X60500Y-30000D03*
X61500Y-30000D03*
X62500Y-30000D03*
X63500Y-30000D03*
X65500Y-30000D03*
X66500Y-30000D03*
X67500Y-30000D03*
X68500Y-30000D03*
X69500Y-30000D03*
X54500Y-46000D03*
X55500Y-46000D03*
X56500Y-46000D03*
X57500Y-46000D03*
X58500Y-46000D03*
X60500Y-46000D03*
X61500Y-46000D03*
X62500Y-46000D03*
X63500Y-46000D03*
X65500Y-46000D03*
X66500Y-46000D03*
X67500Y-46000D03*
X68500Y-46000D03*
X69500Y-46000D03*
G54D13*
X54000Y-38000D03*
X70000Y-38000D03*
G54D14*
X54500Y-46000D02*
X55500Y-46000D01*
X62500Y-46000D02*
X63500Y-46000D01*
X61500Y-46000D02*
X62500Y-46000D01*
X67500Y-46000D02*
X68500Y-46000D01*
X63500Y-46000D02*
X65500Y-46000D01*
X65500Y-46000D02*
X66500Y-46000D01*
X55500Y-46000D02*
X56500Y-46000D01*
X60500Y-46000D02*
X61500Y-46000D01*
X66500Y-46000D02*
X67500Y-46000D01*
X56500Y-46000D02*
X57500Y-46000D01*
X57500Y-46000D02*
X58500Y-46000D01*
X58500Y-46000D02*
X60500Y-46000D01*
X68500Y-46000D02*
X69500Y-46000D01*
G54D10*
G36*
X71278Y-45477D02*
X71195Y-45891D01*
X70972Y-46225D01*
X70897Y-46274D01*
X70897Y-38179D01*
X70897Y-37822D01*
X70761Y-37492D01*
X70508Y-37240D01*
X70492Y-37233D01*
X70492Y-36598D01*
X70492Y-36402D01*
X70492Y-35598D01*
X70492Y-35402D01*
X70492Y-34598D01*
X70492Y-34402D01*
X70492Y-33598D01*
X70492Y-33402D01*
X70492Y-32598D01*
X70492Y-32402D01*
X70417Y-32221D01*
X70279Y-32083D01*
X70098Y-32008D01*
X69992Y-32008D01*
X69992Y-30098D01*
X69992Y-29902D01*
X69917Y-29721D01*
X69779Y-29583D01*
X69598Y-29508D01*
X69402Y-29508D01*
X69221Y-29583D01*
X69083Y-29721D01*
X69008Y-29902D01*
X69008Y-30098D01*
X69083Y-30279D01*
X69221Y-30417D01*
X69402Y-30492D01*
X69598Y-30492D01*
X69779Y-30417D01*
X69917Y-30279D01*
X69992Y-30098D01*
X69992Y-32008D01*
X69902Y-32008D01*
X69721Y-32083D01*
X69583Y-32221D01*
X69508Y-32402D01*
X69508Y-32598D01*
X69583Y-32779D01*
X69721Y-32917D01*
X69902Y-32992D01*
X70098Y-32992D01*
X70279Y-32917D01*
X70417Y-32779D01*
X70492Y-32598D01*
X70492Y-33402D01*
X70417Y-33221D01*
X70279Y-33083D01*
X70098Y-33008D01*
X69902Y-33008D01*
X69721Y-33083D01*
X69583Y-33221D01*
X69508Y-33402D01*
X69508Y-33598D01*
X69583Y-33779D01*
X69721Y-33917D01*
X69902Y-33992D01*
X70098Y-33992D01*
X70279Y-33917D01*
X70417Y-33779D01*
X70492Y-33598D01*
X70492Y-34402D01*
X70417Y-34221D01*
X70279Y-34083D01*
X70098Y-34008D01*
X69902Y-34008D01*
X69721Y-34083D01*
X69583Y-34221D01*
X69508Y-34402D01*
X69508Y-34598D01*
X69583Y-34779D01*
X69721Y-34917D01*
X69902Y-34992D01*
X70098Y-34992D01*
X70279Y-34917D01*
X70417Y-34779D01*
X70492Y-34598D01*
X70492Y-35402D01*
X70417Y-35221D01*
X70279Y-35083D01*
X70098Y-35008D01*
X69902Y-35008D01*
X69721Y-35083D01*
X69583Y-35221D01*
X69508Y-35402D01*
X69508Y-35598D01*
X69583Y-35779D01*
X69721Y-35917D01*
X69902Y-35992D01*
X70098Y-35992D01*
X70279Y-35917D01*
X70417Y-35779D01*
X70492Y-35598D01*
X70492Y-36402D01*
X70417Y-36221D01*
X70279Y-36083D01*
X70098Y-36008D01*
X69902Y-36008D01*
X69721Y-36083D01*
X69583Y-36221D01*
X69508Y-36402D01*
X69508Y-36598D01*
X69583Y-36779D01*
X69721Y-36917D01*
X69902Y-36992D01*
X70098Y-36992D01*
X70279Y-36917D01*
X70417Y-36779D01*
X70492Y-36598D01*
X70492Y-37233D01*
X70179Y-37103D01*
X69822Y-37103D01*
X69492Y-37239D01*
X69492Y-36598D01*
X69492Y-36402D01*
X69492Y-35598D01*
X69492Y-35402D01*
X69492Y-34598D01*
X69492Y-34402D01*
X69492Y-33598D01*
X69492Y-33402D01*
X69492Y-32598D01*
X69492Y-32402D01*
X69417Y-32221D01*
X69279Y-32083D01*
X69098Y-32008D01*
X68992Y-32008D01*
X68992Y-30098D01*
X68992Y-29902D01*
X68917Y-29721D01*
X68779Y-29583D01*
X68598Y-29508D01*
X68402Y-29508D01*
X68221Y-29583D01*
X68083Y-29721D01*
X68008Y-29902D01*
X68008Y-30098D01*
X68083Y-30279D01*
X68221Y-30417D01*
X68402Y-30492D01*
X68598Y-30492D01*
X68779Y-30417D01*
X68917Y-30279D01*
X68992Y-30098D01*
X68992Y-32008D01*
X68902Y-32008D01*
X68721Y-32083D01*
X68583Y-32221D01*
X68508Y-32402D01*
X68508Y-32598D01*
X68583Y-32779D01*
X68721Y-32917D01*
X68902Y-32992D01*
X69098Y-32992D01*
X69279Y-32917D01*
X69417Y-32779D01*
X69492Y-32598D01*
X69492Y-33402D01*
X69417Y-33221D01*
X69279Y-33083D01*
X69098Y-33008D01*
X68902Y-33008D01*
X68721Y-33083D01*
X68583Y-33221D01*
X68508Y-33402D01*
X68508Y-33598D01*
X68583Y-33779D01*
X68721Y-33917D01*
X68902Y-33992D01*
X69098Y-33992D01*
X69279Y-33917D01*
X69417Y-33779D01*
X69492Y-33598D01*
X69492Y-34402D01*
X69417Y-34221D01*
X69279Y-34083D01*
X69098Y-34008D01*
X68902Y-34008D01*
X68721Y-34083D01*
X68583Y-34221D01*
X68508Y-34402D01*
X68508Y-34598D01*
X68583Y-34779D01*
X68721Y-34917D01*
X68902Y-34992D01*
X69098Y-34992D01*
X69279Y-34917D01*
X69417Y-34779D01*
X69492Y-34598D01*
X69492Y-35402D01*
X69417Y-35221D01*
X69279Y-35083D01*
X69098Y-35008D01*
X68902Y-35008D01*
X68721Y-35083D01*
X68583Y-35221D01*
X68508Y-35402D01*
X68508Y-35598D01*
X68583Y-35779D01*
X68721Y-35917D01*
X68902Y-35992D01*
X69098Y-35992D01*
X69279Y-35917D01*
X69417Y-35779D01*
X69492Y-35598D01*
X69492Y-36402D01*
X69417Y-36221D01*
X69279Y-36083D01*
X69098Y-36008D01*
X68902Y-36008D01*
X68721Y-36083D01*
X68583Y-36221D01*
X68508Y-36402D01*
X68508Y-36598D01*
X68583Y-36779D01*
X68721Y-36917D01*
X68902Y-36992D01*
X69098Y-36992D01*
X69279Y-36917D01*
X69417Y-36779D01*
X69492Y-36598D01*
X69492Y-37239D01*
X69240Y-37492D01*
X69103Y-37821D01*
X69103Y-38178D01*
X69239Y-38508D01*
X69492Y-38760D01*
X69821Y-38897D01*
X70178Y-38897D01*
X70508Y-38761D01*
X70760Y-38508D01*
X70897Y-38179D01*
X70897Y-46274D01*
X70639Y-46446D01*
X70492Y-46475D01*
X70492Y-43598D01*
X70492Y-43402D01*
X70492Y-42598D01*
X70492Y-42402D01*
X70492Y-41598D01*
X70492Y-41402D01*
X70492Y-40598D01*
X70492Y-40402D01*
X70492Y-39598D01*
X70492Y-39402D01*
X70417Y-39221D01*
X70279Y-39083D01*
X70098Y-39008D01*
X69902Y-39008D01*
X69721Y-39083D01*
X69583Y-39221D01*
X69508Y-39402D01*
X69508Y-39598D01*
X69583Y-39779D01*
X69721Y-39917D01*
X69902Y-39992D01*
X70098Y-39992D01*
X70279Y-39917D01*
X70417Y-39779D01*
X70492Y-39598D01*
X70492Y-40402D01*
X70417Y-40221D01*
X70279Y-40083D01*
X70098Y-40008D01*
X69902Y-40008D01*
X69721Y-40083D01*
X69583Y-40221D01*
X69508Y-40402D01*
X69508Y-40598D01*
X69583Y-40779D01*
X69721Y-40917D01*
X69902Y-40992D01*
X70098Y-40992D01*
X70279Y-40917D01*
X70417Y-40779D01*
X70492Y-40598D01*
X70492Y-41402D01*
X70417Y-41221D01*
X70279Y-41083D01*
X70098Y-41008D01*
X69902Y-41008D01*
X69721Y-41083D01*
X69583Y-41221D01*
X69508Y-41402D01*
X69508Y-41598D01*
X69583Y-41779D01*
X69721Y-41917D01*
X69902Y-41992D01*
X70098Y-41992D01*
X70279Y-41917D01*
X70417Y-41779D01*
X70492Y-41598D01*
X70492Y-42402D01*
X70417Y-42221D01*
X70279Y-42083D01*
X70098Y-42008D01*
X69902Y-42008D01*
X69721Y-42083D01*
X69583Y-42221D01*
X69508Y-42402D01*
X69508Y-42598D01*
X69583Y-42779D01*
X69721Y-42917D01*
X69902Y-42992D01*
X70098Y-42992D01*
X70279Y-42917D01*
X70417Y-42779D01*
X70492Y-42598D01*
X70492Y-43402D01*
X70417Y-43221D01*
X70279Y-43083D01*
X70098Y-43008D01*
X69902Y-43008D01*
X69721Y-43083D01*
X69583Y-43221D01*
X69508Y-43402D01*
X69508Y-43598D01*
X69583Y-43779D01*
X69721Y-43917D01*
X69902Y-43992D01*
X70098Y-43992D01*
X70279Y-43917D01*
X70417Y-43779D01*
X70492Y-43598D01*
X70492Y-46475D01*
X70227Y-46528D01*
X70005Y-46528D01*
X70005Y-46071D01*
X69994Y-45873D01*
X69940Y-45741D01*
X69865Y-45704D01*
X69796Y-45773D01*
X69796Y-45635D01*
X69759Y-45560D01*
X69571Y-45495D01*
X69492Y-45499D01*
X69492Y-43598D01*
X69492Y-43402D01*
X69492Y-42598D01*
X69492Y-42402D01*
X69492Y-41598D01*
X69492Y-41402D01*
X69492Y-40598D01*
X69492Y-40402D01*
X69492Y-39598D01*
X69492Y-39402D01*
X69417Y-39221D01*
X69279Y-39083D01*
X69098Y-39008D01*
X68902Y-39008D01*
X68721Y-39083D01*
X68583Y-39221D01*
X68508Y-39402D01*
X68508Y-39598D01*
X68583Y-39779D01*
X68721Y-39917D01*
X68902Y-39992D01*
X69098Y-39992D01*
X69279Y-39917D01*
X69417Y-39779D01*
X69492Y-39598D01*
X69492Y-40402D01*
X69417Y-40221D01*
X69279Y-40083D01*
X69098Y-40008D01*
X68902Y-40008D01*
X68721Y-40083D01*
X68583Y-40221D01*
X68508Y-40402D01*
X68508Y-40598D01*
X68583Y-40779D01*
X68721Y-40917D01*
X68902Y-40992D01*
X69098Y-40992D01*
X69279Y-40917D01*
X69417Y-40779D01*
X69492Y-40598D01*
X69492Y-41402D01*
X69417Y-41221D01*
X69279Y-41083D01*
X69098Y-41008D01*
X68902Y-41008D01*
X68721Y-41083D01*
X68583Y-41221D01*
X68508Y-41402D01*
X68508Y-41598D01*
X68583Y-41779D01*
X68721Y-41917D01*
X68902Y-41992D01*
X69098Y-41992D01*
X69279Y-41917D01*
X69417Y-41779D01*
X69492Y-41598D01*
X69492Y-42402D01*
X69417Y-42221D01*
X69279Y-42083D01*
X69098Y-42008D01*
X68902Y-42008D01*
X68721Y-42083D01*
X68583Y-42221D01*
X68508Y-42402D01*
X68508Y-42598D01*
X68583Y-42779D01*
X68721Y-42917D01*
X68902Y-42992D01*
X69098Y-42992D01*
X69279Y-42917D01*
X69417Y-42779D01*
X69492Y-42598D01*
X69492Y-43402D01*
X69417Y-43221D01*
X69279Y-43083D01*
X69098Y-43008D01*
X68902Y-43008D01*
X68721Y-43083D01*
X68583Y-43221D01*
X68508Y-43402D01*
X68508Y-43598D01*
X68583Y-43779D01*
X68721Y-43917D01*
X68902Y-43992D01*
X69098Y-43992D01*
X69279Y-43917D01*
X69417Y-43779D01*
X69492Y-43598D01*
X69492Y-45499D01*
X69373Y-45506D01*
X69241Y-45560D01*
X69204Y-45635D01*
X69500Y-45931D01*
X69796Y-45635D01*
X69796Y-45773D01*
X69569Y-46000D01*
X69865Y-46296D01*
X69940Y-46259D01*
X70005Y-46071D01*
X70005Y-46528D01*
X69796Y-46528D01*
X69796Y-46365D01*
X69500Y-46069D01*
X69431Y-46138D01*
X69431Y-46000D01*
X69135Y-45704D01*
X69060Y-45741D01*
X68996Y-45923D01*
X68994Y-45873D01*
X68940Y-45741D01*
X68865Y-45704D01*
X68796Y-45773D01*
X68796Y-45635D01*
X68759Y-45560D01*
X68571Y-45495D01*
X68492Y-45499D01*
X68492Y-43598D01*
X68492Y-43402D01*
X68492Y-42598D01*
X68492Y-42402D01*
X68492Y-41598D01*
X68492Y-41402D01*
X68492Y-40598D01*
X68492Y-40402D01*
X68492Y-39598D01*
X68492Y-39402D01*
X68492Y-36598D01*
X68492Y-36402D01*
X68492Y-35598D01*
X68492Y-35402D01*
X68492Y-34598D01*
X68492Y-34402D01*
X68492Y-33598D01*
X68492Y-33402D01*
X68492Y-32598D01*
X68492Y-32402D01*
X68417Y-32221D01*
X68279Y-32083D01*
X68098Y-32008D01*
X67992Y-32008D01*
X67992Y-30098D01*
X67992Y-29902D01*
X67917Y-29721D01*
X67779Y-29583D01*
X67598Y-29508D01*
X67402Y-29508D01*
X67221Y-29583D01*
X67083Y-29721D01*
X67008Y-29902D01*
X67008Y-30098D01*
X67083Y-30279D01*
X67221Y-30417D01*
X67402Y-30492D01*
X67598Y-30492D01*
X67779Y-30417D01*
X67917Y-30279D01*
X67992Y-30098D01*
X67992Y-32008D01*
X67902Y-32008D01*
X67721Y-32083D01*
X67583Y-32221D01*
X67508Y-32402D01*
X67508Y-32598D01*
X67583Y-32779D01*
X67721Y-32917D01*
X67902Y-32992D01*
X68098Y-32992D01*
X68279Y-32917D01*
X68417Y-32779D01*
X68492Y-32598D01*
X68492Y-33402D01*
X68417Y-33221D01*
X68279Y-33083D01*
X68098Y-33008D01*
X67902Y-33008D01*
X67721Y-33083D01*
X67583Y-33221D01*
X67508Y-33402D01*
X67508Y-33598D01*
X67583Y-33779D01*
X67721Y-33917D01*
X67902Y-33992D01*
X68098Y-33992D01*
X68279Y-33917D01*
X68417Y-33779D01*
X68492Y-33598D01*
X68492Y-34402D01*
X68417Y-34221D01*
X68279Y-34083D01*
X68098Y-34008D01*
X67902Y-34008D01*
X67721Y-34083D01*
X67583Y-34221D01*
X67508Y-34402D01*
X67508Y-34598D01*
X67583Y-34779D01*
X67721Y-34917D01*
X67902Y-34992D01*
X68098Y-34992D01*
X68279Y-34917D01*
X68417Y-34779D01*
X68492Y-34598D01*
X68492Y-35402D01*
X68417Y-35221D01*
X68279Y-35083D01*
X68098Y-35008D01*
X67902Y-35008D01*
X67721Y-35083D01*
X67583Y-35221D01*
X67508Y-35402D01*
X67508Y-35598D01*
X67583Y-35779D01*
X67721Y-35917D01*
X67902Y-35992D01*
X68098Y-35992D01*
X68279Y-35917D01*
X68417Y-35779D01*
X68492Y-35598D01*
X68492Y-36402D01*
X68417Y-36221D01*
X68279Y-36083D01*
X68098Y-36008D01*
X67902Y-36008D01*
X67721Y-36083D01*
X67583Y-36221D01*
X67508Y-36402D01*
X67508Y-36598D01*
X67583Y-36779D01*
X67721Y-36917D01*
X67902Y-36992D01*
X68098Y-36992D01*
X68279Y-36917D01*
X68417Y-36779D01*
X68492Y-36598D01*
X68492Y-39402D01*
X68417Y-39221D01*
X68279Y-39083D01*
X68098Y-39008D01*
X67902Y-39008D01*
X67721Y-39083D01*
X67583Y-39221D01*
X67508Y-39402D01*
X67508Y-39598D01*
X67583Y-39779D01*
X67721Y-39917D01*
X67902Y-39992D01*
X68098Y-39992D01*
X68279Y-39917D01*
X68417Y-39779D01*
X68492Y-39598D01*
X68492Y-40402D01*
X68417Y-40221D01*
X68279Y-40083D01*
X68098Y-40008D01*
X67902Y-40008D01*
X67721Y-40083D01*
X67583Y-40221D01*
X67508Y-40402D01*
X67508Y-40598D01*
X67583Y-40779D01*
X67721Y-40917D01*
X67902Y-40992D01*
X68098Y-40992D01*
X68279Y-40917D01*
X68417Y-40779D01*
X68492Y-40598D01*
X68492Y-41402D01*
X68417Y-41221D01*
X68279Y-41083D01*
X68098Y-41008D01*
X67902Y-41008D01*
X67721Y-41083D01*
X67583Y-41221D01*
X67508Y-41402D01*
X67508Y-41598D01*
X67583Y-41779D01*
X67721Y-41917D01*
X67902Y-41992D01*
X68098Y-41992D01*
X68279Y-41917D01*
X68417Y-41779D01*
X68492Y-41598D01*
X68492Y-42402D01*
X68417Y-42221D01*
X68279Y-42083D01*
X68098Y-42008D01*
X67902Y-42008D01*
X67721Y-42083D01*
X67583Y-42221D01*
X67508Y-42402D01*
X67508Y-42598D01*
X67583Y-42779D01*
X67721Y-42917D01*
X67902Y-42992D01*
X68098Y-42992D01*
X68279Y-42917D01*
X68417Y-42779D01*
X68492Y-42598D01*
X68492Y-43402D01*
X68417Y-43221D01*
X68279Y-43083D01*
X68098Y-43008D01*
X67902Y-43008D01*
X67721Y-43083D01*
X67583Y-43221D01*
X67508Y-43402D01*
X67508Y-43598D01*
X67583Y-43779D01*
X67721Y-43917D01*
X67902Y-43992D01*
X68098Y-43992D01*
X68279Y-43917D01*
X68417Y-43779D01*
X68492Y-43598D01*
X68492Y-45499D01*
X68373Y-45506D01*
X68241Y-45560D01*
X68204Y-45635D01*
X68500Y-45931D01*
X68796Y-45635D01*
X68796Y-45773D01*
X68569Y-46000D01*
X68865Y-46296D01*
X68940Y-46259D01*
X69003Y-46076D01*
X69006Y-46127D01*
X69060Y-46259D01*
X69135Y-46296D01*
X69431Y-46000D01*
X69431Y-46138D01*
X69204Y-46365D01*
X69241Y-46440D01*
X69429Y-46505D01*
X69627Y-46494D01*
X69759Y-46440D01*
X69796Y-46365D01*
X69796Y-46528D01*
X68796Y-46528D01*
X68796Y-46365D01*
X68500Y-46069D01*
X68431Y-46138D01*
X68431Y-46000D01*
X68135Y-45704D01*
X68060Y-45741D01*
X67996Y-45923D01*
X67994Y-45873D01*
X67940Y-45741D01*
X67865Y-45704D01*
X67796Y-45773D01*
X67796Y-45635D01*
X67759Y-45560D01*
X67571Y-45495D01*
X67492Y-45499D01*
X67492Y-43598D01*
X67492Y-43402D01*
X67492Y-42598D01*
X67492Y-42402D01*
X67492Y-41598D01*
X67492Y-41402D01*
X67492Y-40598D01*
X67492Y-40402D01*
X67492Y-39598D01*
X67492Y-39402D01*
X67492Y-36598D01*
X67492Y-36402D01*
X67492Y-35598D01*
X67492Y-35402D01*
X67492Y-34598D01*
X67492Y-34402D01*
X67492Y-33598D01*
X67492Y-33402D01*
X67492Y-32598D01*
X67492Y-32402D01*
X67417Y-32221D01*
X67279Y-32083D01*
X67098Y-32008D01*
X66992Y-32008D01*
X66992Y-30098D01*
X66992Y-29902D01*
X66917Y-29721D01*
X66779Y-29583D01*
X66598Y-29508D01*
X66402Y-29508D01*
X66221Y-29583D01*
X66083Y-29721D01*
X66008Y-29902D01*
X66008Y-30098D01*
X66083Y-30279D01*
X66221Y-30417D01*
X66402Y-30492D01*
X66598Y-30492D01*
X66779Y-30417D01*
X66917Y-30279D01*
X66992Y-30098D01*
X66992Y-32008D01*
X66902Y-32008D01*
X66721Y-32083D01*
X66583Y-32221D01*
X66508Y-32402D01*
X66508Y-32598D01*
X66583Y-32779D01*
X66721Y-32917D01*
X66902Y-32992D01*
X67098Y-32992D01*
X67279Y-32917D01*
X67417Y-32779D01*
X67492Y-32598D01*
X67492Y-33402D01*
X67417Y-33221D01*
X67279Y-33083D01*
X67098Y-33008D01*
X66902Y-33008D01*
X66721Y-33083D01*
X66583Y-33221D01*
X66508Y-33402D01*
X66508Y-33598D01*
X66583Y-33779D01*
X66721Y-33917D01*
X66902Y-33992D01*
X67098Y-33992D01*
X67279Y-33917D01*
X67417Y-33779D01*
X67492Y-33598D01*
X67492Y-34402D01*
X67417Y-34221D01*
X67279Y-34083D01*
X67098Y-34008D01*
X66902Y-34008D01*
X66721Y-34083D01*
X66583Y-34221D01*
X66508Y-34402D01*
X66508Y-34598D01*
X66583Y-34779D01*
X66721Y-34917D01*
X66902Y-34992D01*
X67098Y-34992D01*
X67279Y-34917D01*
X67417Y-34779D01*
X67492Y-34598D01*
X67492Y-35402D01*
X67417Y-35221D01*
X67279Y-35083D01*
X67098Y-35008D01*
X66902Y-35008D01*
X66721Y-35083D01*
X66583Y-35221D01*
X66508Y-35402D01*
X66508Y-35598D01*
X66583Y-35779D01*
X66721Y-35917D01*
X66902Y-35992D01*
X67098Y-35992D01*
X67279Y-35917D01*
X67417Y-35779D01*
X67492Y-35598D01*
X67492Y-36402D01*
X67417Y-36221D01*
X67279Y-36083D01*
X67098Y-36008D01*
X66902Y-36008D01*
X66721Y-36083D01*
X66583Y-36221D01*
X66508Y-36402D01*
X66508Y-36598D01*
X66583Y-36779D01*
X66721Y-36917D01*
X66902Y-36992D01*
X67098Y-36992D01*
X67279Y-36917D01*
X67417Y-36779D01*
X67492Y-36598D01*
X67492Y-39402D01*
X67417Y-39221D01*
X67279Y-39083D01*
X67098Y-39008D01*
X66902Y-39008D01*
X66721Y-39083D01*
X66583Y-39221D01*
X66508Y-39402D01*
X66508Y-39598D01*
X66583Y-39779D01*
X66721Y-39917D01*
X66902Y-39992D01*
X67098Y-39992D01*
X67279Y-39917D01*
X67417Y-39779D01*
X67492Y-39598D01*
X67492Y-40402D01*
X67417Y-40221D01*
X67279Y-40083D01*
X67098Y-40008D01*
X66902Y-40008D01*
X66721Y-40083D01*
X66583Y-40221D01*
X66508Y-40402D01*
X66508Y-40598D01*
X66583Y-40779D01*
X66721Y-40917D01*
X66902Y-40992D01*
X67098Y-40992D01*
X67279Y-40917D01*
X67417Y-40779D01*
X67492Y-40598D01*
X67492Y-41402D01*
X67417Y-41221D01*
X67279Y-41083D01*
X67098Y-41008D01*
X66902Y-41008D01*
X66721Y-41083D01*
X66583Y-41221D01*
X66508Y-41402D01*
X66508Y-41598D01*
X66583Y-41779D01*
X66721Y-41917D01*
X66902Y-41992D01*
X67098Y-41992D01*
X67279Y-41917D01*
X67417Y-41779D01*
X67492Y-41598D01*
X67492Y-42402D01*
X67417Y-42221D01*
X67279Y-42083D01*
X67098Y-42008D01*
X66902Y-42008D01*
X66721Y-42083D01*
X66583Y-42221D01*
X66508Y-42402D01*
X66508Y-42598D01*
X66583Y-42779D01*
X66721Y-42917D01*
X66902Y-42992D01*
X67098Y-42992D01*
X67279Y-42917D01*
X67417Y-42779D01*
X67492Y-42598D01*
X67492Y-43402D01*
X67417Y-43221D01*
X67279Y-43083D01*
X67098Y-43008D01*
X66902Y-43008D01*
X66721Y-43083D01*
X66583Y-43221D01*
X66508Y-43402D01*
X66508Y-43598D01*
X66583Y-43779D01*
X66721Y-43917D01*
X66902Y-43992D01*
X67098Y-43992D01*
X67279Y-43917D01*
X67417Y-43779D01*
X67492Y-43598D01*
X67492Y-45499D01*
X67373Y-45506D01*
X67241Y-45560D01*
X67204Y-45635D01*
X67500Y-45931D01*
X67796Y-45635D01*
X67796Y-45773D01*
X67569Y-46000D01*
X67865Y-46296D01*
X67940Y-46259D01*
X68003Y-46076D01*
X68006Y-46127D01*
X68060Y-46259D01*
X68135Y-46296D01*
X68431Y-46000D01*
X68431Y-46138D01*
X68204Y-46365D01*
X68241Y-46440D01*
X68429Y-46505D01*
X68627Y-46494D01*
X68759Y-46440D01*
X68796Y-46365D01*
X68796Y-46528D01*
X67796Y-46528D01*
X67796Y-46365D01*
X67500Y-46069D01*
X67431Y-46138D01*
X67431Y-46000D01*
X67135Y-45704D01*
X67060Y-45741D01*
X66996Y-45923D01*
X66994Y-45873D01*
X66940Y-45741D01*
X66865Y-45704D01*
X66796Y-45773D01*
X66796Y-45635D01*
X66759Y-45560D01*
X66571Y-45495D01*
X66492Y-45499D01*
X66492Y-43598D01*
X66492Y-43402D01*
X66492Y-42598D01*
X66492Y-42402D01*
X66492Y-41598D01*
X66492Y-41402D01*
X66492Y-40598D01*
X66492Y-40402D01*
X66492Y-39598D01*
X66492Y-39402D01*
X66492Y-36598D01*
X66492Y-36402D01*
X66492Y-35598D01*
X66492Y-35402D01*
X66492Y-34598D01*
X66492Y-34402D01*
X66492Y-33598D01*
X66492Y-33402D01*
X66492Y-32598D01*
X66492Y-32402D01*
X66417Y-32221D01*
X66279Y-32083D01*
X66098Y-32008D01*
X65992Y-32008D01*
X65992Y-30098D01*
X65992Y-29902D01*
X65917Y-29721D01*
X65779Y-29583D01*
X65598Y-29508D01*
X65402Y-29508D01*
X65221Y-29583D01*
X65083Y-29721D01*
X65008Y-29902D01*
X65008Y-30098D01*
X65083Y-30279D01*
X65221Y-30417D01*
X65402Y-30492D01*
X65598Y-30492D01*
X65779Y-30417D01*
X65917Y-30279D01*
X65992Y-30098D01*
X65992Y-32008D01*
X65902Y-32008D01*
X65721Y-32083D01*
X65583Y-32221D01*
X65508Y-32402D01*
X65508Y-32598D01*
X65583Y-32779D01*
X65721Y-32917D01*
X65902Y-32992D01*
X66098Y-32992D01*
X66279Y-32917D01*
X66417Y-32779D01*
X66492Y-32598D01*
X66492Y-33402D01*
X66417Y-33221D01*
X66279Y-33083D01*
X66098Y-33008D01*
X65902Y-33008D01*
X65721Y-33083D01*
X65583Y-33221D01*
X65508Y-33402D01*
X65508Y-33598D01*
X65583Y-33779D01*
X65721Y-33917D01*
X65902Y-33992D01*
X66098Y-33992D01*
X66279Y-33917D01*
X66417Y-33779D01*
X66492Y-33598D01*
X66492Y-34402D01*
X66417Y-34221D01*
X66279Y-34083D01*
X66098Y-34008D01*
X65902Y-34008D01*
X65721Y-34083D01*
X65583Y-34221D01*
X65508Y-34402D01*
X65508Y-34598D01*
X65583Y-34779D01*
X65721Y-34917D01*
X65902Y-34992D01*
X66098Y-34992D01*
X66279Y-34917D01*
X66417Y-34779D01*
X66492Y-34598D01*
X66492Y-35402D01*
X66417Y-35221D01*
X66279Y-35083D01*
X66098Y-35008D01*
X65902Y-35008D01*
X65721Y-35083D01*
X65583Y-35221D01*
X65508Y-35402D01*
X65508Y-35598D01*
X65583Y-35779D01*
X65721Y-35917D01*
X65902Y-35992D01*
X66098Y-35992D01*
X66279Y-35917D01*
X66417Y-35779D01*
X66492Y-35598D01*
X66492Y-36402D01*
X66417Y-36221D01*
X66279Y-36083D01*
X66098Y-36008D01*
X65902Y-36008D01*
X65721Y-36083D01*
X65583Y-36221D01*
X65508Y-36402D01*
X65508Y-36598D01*
X65583Y-36779D01*
X65721Y-36917D01*
X65902Y-36992D01*
X66098Y-36992D01*
X66279Y-36917D01*
X66417Y-36779D01*
X66492Y-36598D01*
X66492Y-39402D01*
X66417Y-39221D01*
X66279Y-39083D01*
X66098Y-39008D01*
X65902Y-39008D01*
X65721Y-39083D01*
X65583Y-39221D01*
X65508Y-39402D01*
X65508Y-39598D01*
X65583Y-39779D01*
X65721Y-39917D01*
X65902Y-39992D01*
X66098Y-39992D01*
X66279Y-39917D01*
X66417Y-39779D01*
X66492Y-39598D01*
X66492Y-40402D01*
X66417Y-40221D01*
X66279Y-40083D01*
X66098Y-40008D01*
X65902Y-40008D01*
X65721Y-40083D01*
X65583Y-40221D01*
X65508Y-40402D01*
X65508Y-40598D01*
X65583Y-40779D01*
X65721Y-40917D01*
X65902Y-40992D01*
X66098Y-40992D01*
X66279Y-40917D01*
X66417Y-40779D01*
X66492Y-40598D01*
X66492Y-41402D01*
X66417Y-41221D01*
X66279Y-41083D01*
X66098Y-41008D01*
X65902Y-41008D01*
X65721Y-41083D01*
X65583Y-41221D01*
X65508Y-41402D01*
X65508Y-41598D01*
X65583Y-41779D01*
X65721Y-41917D01*
X65902Y-41992D01*
X66098Y-41992D01*
X66279Y-41917D01*
X66417Y-41779D01*
X66492Y-41598D01*
X66492Y-42402D01*
X66417Y-42221D01*
X66279Y-42083D01*
X66098Y-42008D01*
X65902Y-42008D01*
X65721Y-42083D01*
X65583Y-42221D01*
X65508Y-42402D01*
X65508Y-42598D01*
X65583Y-42779D01*
X65721Y-42917D01*
X65902Y-42992D01*
X66098Y-42992D01*
X66279Y-42917D01*
X66417Y-42779D01*
X66492Y-42598D01*
X66492Y-43402D01*
X66417Y-43221D01*
X66279Y-43083D01*
X66098Y-43008D01*
X65902Y-43008D01*
X65721Y-43083D01*
X65583Y-43221D01*
X65508Y-43402D01*
X65508Y-43598D01*
X65583Y-43779D01*
X65721Y-43917D01*
X65902Y-43992D01*
X66098Y-43992D01*
X66279Y-43917D01*
X66417Y-43779D01*
X66492Y-43598D01*
X66492Y-45499D01*
X66373Y-45506D01*
X66241Y-45560D01*
X66204Y-45635D01*
X66500Y-45931D01*
X66796Y-45635D01*
X66796Y-45773D01*
X66569Y-46000D01*
X66865Y-46296D01*
X66940Y-46259D01*
X67003Y-46076D01*
X67006Y-46127D01*
X67060Y-46259D01*
X67135Y-46296D01*
X67431Y-46000D01*
X67431Y-46138D01*
X67204Y-46365D01*
X67241Y-46440D01*
X67429Y-46505D01*
X67627Y-46494D01*
X67759Y-46440D01*
X67796Y-46365D01*
X67796Y-46528D01*
X66796Y-46528D01*
X66796Y-46365D01*
X66500Y-46069D01*
X66431Y-46138D01*
X66431Y-46000D01*
X66135Y-45704D01*
X66060Y-45741D01*
X65996Y-45923D01*
X65994Y-45873D01*
X65940Y-45741D01*
X65865Y-45704D01*
X65796Y-45773D01*
X65796Y-45635D01*
X65759Y-45560D01*
X65571Y-45495D01*
X65492Y-45499D01*
X65492Y-43598D01*
X65492Y-43402D01*
X65492Y-42598D01*
X65492Y-42402D01*
X65492Y-41598D01*
X65492Y-41402D01*
X65492Y-40598D01*
X65492Y-40402D01*
X65492Y-39598D01*
X65492Y-39402D01*
X65492Y-36598D01*
X65492Y-36402D01*
X65492Y-35598D01*
X65492Y-35402D01*
X65492Y-34598D01*
X65492Y-34402D01*
X65492Y-33598D01*
X65492Y-33402D01*
X65492Y-32598D01*
X65492Y-32402D01*
X65417Y-32221D01*
X65279Y-32083D01*
X65098Y-32008D01*
X64902Y-32008D01*
X64721Y-32083D01*
X64583Y-32221D01*
X64508Y-32402D01*
X64508Y-32598D01*
X64583Y-32779D01*
X64721Y-32917D01*
X64902Y-32992D01*
X65098Y-32992D01*
X65279Y-32917D01*
X65417Y-32779D01*
X65492Y-32598D01*
X65492Y-33402D01*
X65417Y-33221D01*
X65279Y-33083D01*
X65098Y-33008D01*
X64902Y-33008D01*
X64721Y-33083D01*
X64583Y-33221D01*
X64508Y-33402D01*
X64508Y-33598D01*
X64583Y-33779D01*
X64721Y-33917D01*
X64902Y-33992D01*
X65098Y-33992D01*
X65279Y-33917D01*
X65417Y-33779D01*
X65492Y-33598D01*
X65492Y-34402D01*
X65417Y-34221D01*
X65279Y-34083D01*
X65098Y-34008D01*
X64902Y-34008D01*
X64721Y-34083D01*
X64583Y-34221D01*
X64508Y-34402D01*
X64508Y-34598D01*
X64583Y-34779D01*
X64721Y-34917D01*
X64902Y-34992D01*
X65098Y-34992D01*
X65279Y-34917D01*
X65417Y-34779D01*
X65492Y-34598D01*
X65492Y-35402D01*
X65417Y-35221D01*
X65279Y-35083D01*
X65098Y-35008D01*
X64902Y-35008D01*
X64721Y-35083D01*
X64583Y-35221D01*
X64508Y-35402D01*
X64508Y-35598D01*
X64583Y-35779D01*
X64721Y-35917D01*
X64902Y-35992D01*
X65098Y-35992D01*
X65279Y-35917D01*
X65417Y-35779D01*
X65492Y-35598D01*
X65492Y-36402D01*
X65417Y-36221D01*
X65279Y-36083D01*
X65098Y-36008D01*
X64902Y-36008D01*
X64721Y-36083D01*
X64583Y-36221D01*
X64508Y-36402D01*
X64508Y-36598D01*
X64583Y-36779D01*
X64721Y-36917D01*
X64902Y-36992D01*
X65098Y-36992D01*
X65279Y-36917D01*
X65417Y-36779D01*
X65492Y-36598D01*
X65492Y-39402D01*
X65417Y-39221D01*
X65279Y-39083D01*
X65098Y-39008D01*
X64902Y-39008D01*
X64721Y-39083D01*
X64583Y-39221D01*
X64508Y-39402D01*
X64508Y-39598D01*
X64583Y-39779D01*
X64721Y-39917D01*
X64902Y-39992D01*
X65098Y-39992D01*
X65279Y-39917D01*
X65417Y-39779D01*
X65492Y-39598D01*
X65492Y-40402D01*
X65417Y-40221D01*
X65279Y-40083D01*
X65098Y-40008D01*
X64902Y-40008D01*
X64721Y-40083D01*
X64583Y-40221D01*
X64508Y-40402D01*
X64508Y-40598D01*
X64583Y-40779D01*
X64721Y-40917D01*
X64902Y-40992D01*
X65098Y-40992D01*
X65279Y-40917D01*
X65417Y-40779D01*
X65492Y-40598D01*
X65492Y-41402D01*
X65417Y-41221D01*
X65279Y-41083D01*
X65098Y-41008D01*
X64902Y-41008D01*
X64721Y-41083D01*
X64583Y-41221D01*
X64508Y-41402D01*
X64508Y-41598D01*
X64583Y-41779D01*
X64721Y-41917D01*
X64902Y-41992D01*
X65098Y-41992D01*
X65279Y-41917D01*
X65417Y-41779D01*
X65492Y-41598D01*
X65492Y-42402D01*
X65417Y-42221D01*
X65279Y-42083D01*
X65098Y-42008D01*
X64902Y-42008D01*
X64721Y-42083D01*
X64583Y-42221D01*
X64508Y-42402D01*
X64508Y-42598D01*
X64583Y-42779D01*
X64721Y-42917D01*
X64902Y-42992D01*
X65098Y-42992D01*
X65279Y-42917D01*
X65417Y-42779D01*
X65492Y-42598D01*
X65492Y-43402D01*
X65417Y-43221D01*
X65279Y-43083D01*
X65098Y-43008D01*
X64902Y-43008D01*
X64721Y-43083D01*
X64583Y-43221D01*
X64508Y-43402D01*
X64508Y-43598D01*
X64583Y-43779D01*
X64721Y-43917D01*
X64902Y-43992D01*
X65098Y-43992D01*
X65279Y-43917D01*
X65417Y-43779D01*
X65492Y-43598D01*
X65492Y-45499D01*
X65373Y-45506D01*
X65241Y-45560D01*
X65204Y-45635D01*
X65500Y-45931D01*
X65796Y-45635D01*
X65796Y-45773D01*
X65569Y-46000D01*
X65865Y-46296D01*
X65940Y-46259D01*
X66003Y-46076D01*
X66006Y-46127D01*
X66060Y-46259D01*
X66135Y-46296D01*
X66431Y-46000D01*
X66431Y-46138D01*
X66204Y-46365D01*
X66241Y-46440D01*
X66429Y-46505D01*
X66627Y-46494D01*
X66759Y-46440D01*
X66796Y-46365D01*
X66796Y-46528D01*
X65796Y-46528D01*
X65796Y-46365D01*
X65500Y-46069D01*
X65431Y-46138D01*
X65431Y-46000D01*
X65135Y-45704D01*
X65060Y-45741D01*
X64995Y-45929D01*
X65006Y-46127D01*
X65060Y-46259D01*
X65135Y-46296D01*
X65431Y-46000D01*
X65431Y-46138D01*
X65204Y-46365D01*
X65241Y-46440D01*
X65429Y-46505D01*
X65627Y-46494D01*
X65759Y-46440D01*
X65796Y-46365D01*
X65796Y-46528D01*
X64492Y-46528D01*
X64492Y-43598D01*
X64492Y-43402D01*
X64492Y-42598D01*
X64492Y-42402D01*
X64492Y-41598D01*
X64492Y-41402D01*
X64492Y-40598D01*
X64492Y-40402D01*
X64492Y-39598D01*
X64492Y-39402D01*
X64492Y-36598D01*
X64492Y-36402D01*
X64492Y-35598D01*
X64492Y-35402D01*
X64492Y-34598D01*
X64492Y-34402D01*
X64492Y-33598D01*
X64492Y-33402D01*
X64492Y-32598D01*
X64492Y-32402D01*
X64417Y-32221D01*
X64279Y-32083D01*
X64098Y-32008D01*
X63992Y-32008D01*
X63992Y-30098D01*
X63992Y-29902D01*
X63917Y-29721D01*
X63779Y-29583D01*
X63598Y-29508D01*
X63402Y-29508D01*
X63221Y-29583D01*
X63083Y-29721D01*
X63008Y-29902D01*
X63008Y-30098D01*
X63083Y-30279D01*
X63221Y-30417D01*
X63402Y-30492D01*
X63598Y-30492D01*
X63779Y-30417D01*
X63917Y-30279D01*
X63992Y-30098D01*
X63992Y-32008D01*
X63902Y-32008D01*
X63721Y-32083D01*
X63583Y-32221D01*
X63508Y-32402D01*
X63508Y-32598D01*
X63583Y-32779D01*
X63721Y-32917D01*
X63902Y-32992D01*
X64098Y-32992D01*
X64279Y-32917D01*
X64417Y-32779D01*
X64492Y-32598D01*
X64492Y-33402D01*
X64417Y-33221D01*
X64279Y-33083D01*
X64098Y-33008D01*
X63902Y-33008D01*
X63721Y-33083D01*
X63583Y-33221D01*
X63508Y-33402D01*
X63508Y-33598D01*
X63583Y-33779D01*
X63721Y-33917D01*
X63902Y-33992D01*
X64098Y-33992D01*
X64279Y-33917D01*
X64417Y-33779D01*
X64492Y-33598D01*
X64492Y-34402D01*
X64417Y-34221D01*
X64279Y-34083D01*
X64098Y-34008D01*
X63902Y-34008D01*
X63721Y-34083D01*
X63583Y-34221D01*
X63508Y-34402D01*
X63508Y-34598D01*
X63583Y-34779D01*
X63721Y-34917D01*
X63902Y-34992D01*
X64098Y-34992D01*
X64279Y-34917D01*
X64417Y-34779D01*
X64492Y-34598D01*
X64492Y-35402D01*
X64417Y-35221D01*
X64279Y-35083D01*
X64098Y-35008D01*
X63902Y-35008D01*
X63721Y-35083D01*
X63583Y-35221D01*
X63508Y-35402D01*
X63508Y-35598D01*
X63583Y-35779D01*
X63721Y-35917D01*
X63902Y-35992D01*
X64098Y-35992D01*
X64279Y-35917D01*
X64417Y-35779D01*
X64492Y-35598D01*
X64492Y-36402D01*
X64417Y-36221D01*
X64279Y-36083D01*
X64098Y-36008D01*
X63902Y-36008D01*
X63721Y-36083D01*
X63583Y-36221D01*
X63508Y-36402D01*
X63508Y-36598D01*
X63583Y-36779D01*
X63721Y-36917D01*
X63902Y-36992D01*
X64098Y-36992D01*
X64279Y-36917D01*
X64417Y-36779D01*
X64492Y-36598D01*
X64492Y-39402D01*
X64417Y-39221D01*
X64279Y-39083D01*
X64098Y-39008D01*
X63902Y-39008D01*
X63721Y-39083D01*
X63583Y-39221D01*
X63508Y-39402D01*
X63508Y-39598D01*
X63583Y-39779D01*
X63721Y-39917D01*
X63902Y-39992D01*
X64098Y-39992D01*
X64279Y-39917D01*
X64417Y-39779D01*
X64492Y-39598D01*
X64492Y-40402D01*
X64417Y-40221D01*
X64279Y-40083D01*
X64098Y-40008D01*
X63902Y-40008D01*
X63721Y-40083D01*
X63583Y-40221D01*
X63508Y-40402D01*
X63508Y-40598D01*
X63583Y-40779D01*
X63721Y-40917D01*
X63902Y-40992D01*
X64098Y-40992D01*
X64279Y-40917D01*
X64417Y-40779D01*
X64492Y-40598D01*
X64492Y-41402D01*
X64417Y-41221D01*
X64279Y-41083D01*
X64098Y-41008D01*
X63902Y-41008D01*
X63721Y-41083D01*
X63583Y-41221D01*
X63508Y-41402D01*
X63508Y-41598D01*
X63583Y-41779D01*
X63721Y-41917D01*
X63902Y-41992D01*
X64098Y-41992D01*
X64279Y-41917D01*
X64417Y-41779D01*
X64492Y-41598D01*
X64492Y-42402D01*
X64417Y-42221D01*
X64279Y-42083D01*
X64098Y-42008D01*
X63902Y-42008D01*
X63721Y-42083D01*
X63583Y-42221D01*
X63508Y-42402D01*
X63508Y-42598D01*
X63583Y-42779D01*
X63721Y-42917D01*
X63902Y-42992D01*
X64098Y-42992D01*
X64279Y-42917D01*
X64417Y-42779D01*
X64492Y-42598D01*
X64492Y-43402D01*
X64417Y-43221D01*
X64279Y-43083D01*
X64098Y-43008D01*
X63902Y-43008D01*
X63721Y-43083D01*
X63583Y-43221D01*
X63508Y-43402D01*
X63508Y-43598D01*
X63583Y-43779D01*
X63721Y-43917D01*
X63902Y-43992D01*
X64098Y-43992D01*
X64279Y-43917D01*
X64417Y-43779D01*
X64492Y-43598D01*
X64492Y-46528D01*
X64005Y-46528D01*
X64005Y-46071D01*
X63994Y-45873D01*
X63940Y-45741D01*
X63865Y-45704D01*
X63796Y-45773D01*
X63796Y-45635D01*
X63759Y-45560D01*
X63571Y-45495D01*
X63492Y-45499D01*
X63492Y-43598D01*
X63492Y-43402D01*
X63492Y-42598D01*
X63492Y-42402D01*
X63492Y-41598D01*
X63492Y-41402D01*
X63492Y-40598D01*
X63492Y-40402D01*
X63492Y-39598D01*
X63492Y-39402D01*
X63492Y-36598D01*
X63492Y-36402D01*
X63492Y-35598D01*
X63492Y-35402D01*
X63492Y-34598D01*
X63492Y-34402D01*
X63492Y-33598D01*
X63492Y-33402D01*
X63492Y-32598D01*
X63492Y-32402D01*
X63417Y-32221D01*
X63279Y-32083D01*
X63098Y-32008D01*
X62992Y-32008D01*
X62992Y-30098D01*
X62992Y-29902D01*
X62917Y-29721D01*
X62779Y-29583D01*
X62598Y-29508D01*
X62402Y-29508D01*
X62221Y-29583D01*
X62083Y-29721D01*
X62008Y-29902D01*
X62008Y-30098D01*
X62083Y-30279D01*
X62221Y-30417D01*
X62402Y-30492D01*
X62598Y-30492D01*
X62779Y-30417D01*
X62917Y-30279D01*
X62992Y-30098D01*
X62992Y-32008D01*
X62902Y-32008D01*
X62721Y-32083D01*
X62583Y-32221D01*
X62508Y-32402D01*
X62508Y-32598D01*
X62583Y-32779D01*
X62721Y-32917D01*
X62902Y-32992D01*
X63098Y-32992D01*
X63279Y-32917D01*
X63417Y-32779D01*
X63492Y-32598D01*
X63492Y-33402D01*
X63417Y-33221D01*
X63279Y-33083D01*
X63098Y-33008D01*
X62902Y-33008D01*
X62721Y-33083D01*
X62583Y-33221D01*
X62508Y-33402D01*
X62508Y-33598D01*
X62583Y-33779D01*
X62721Y-33917D01*
X62902Y-33992D01*
X63098Y-33992D01*
X63279Y-33917D01*
X63417Y-33779D01*
X63492Y-33598D01*
X63492Y-34402D01*
X63417Y-34221D01*
X63279Y-34083D01*
X63098Y-34008D01*
X62902Y-34008D01*
X62721Y-34083D01*
X62583Y-34221D01*
X62508Y-34402D01*
X62508Y-34598D01*
X62583Y-34779D01*
X62721Y-34917D01*
X62902Y-34992D01*
X63098Y-34992D01*
X63279Y-34917D01*
X63417Y-34779D01*
X63492Y-34598D01*
X63492Y-35402D01*
X63417Y-35221D01*
X63279Y-35083D01*
X63098Y-35008D01*
X62902Y-35008D01*
X62721Y-35083D01*
X62583Y-35221D01*
X62508Y-35402D01*
X62508Y-35598D01*
X62583Y-35779D01*
X62721Y-35917D01*
X62902Y-35992D01*
X63098Y-35992D01*
X63279Y-35917D01*
X63417Y-35779D01*
X63492Y-35598D01*
X63492Y-36402D01*
X63417Y-36221D01*
X63279Y-36083D01*
X63098Y-36008D01*
X62902Y-36008D01*
X62721Y-36083D01*
X62583Y-36221D01*
X62508Y-36402D01*
X62508Y-36598D01*
X62583Y-36779D01*
X62721Y-36917D01*
X62902Y-36992D01*
X63098Y-36992D01*
X63279Y-36917D01*
X63417Y-36779D01*
X63492Y-36598D01*
X63492Y-39402D01*
X63417Y-39221D01*
X63279Y-39083D01*
X63098Y-39008D01*
X62902Y-39008D01*
X62721Y-39083D01*
X62583Y-39221D01*
X62508Y-39402D01*
X62508Y-39598D01*
X62583Y-39779D01*
X62721Y-39917D01*
X62902Y-39992D01*
X63098Y-39992D01*
X63279Y-39917D01*
X63417Y-39779D01*
X63492Y-39598D01*
X63492Y-40402D01*
X63417Y-40221D01*
X63279Y-40083D01*
X63098Y-40008D01*
X62902Y-40008D01*
X62721Y-40083D01*
X62583Y-40221D01*
X62508Y-40402D01*
X62508Y-40598D01*
X62583Y-40779D01*
X62721Y-40917D01*
X62902Y-40992D01*
X63098Y-40992D01*
X63279Y-40917D01*
X63417Y-40779D01*
X63492Y-40598D01*
X63492Y-41402D01*
X63417Y-41221D01*
X63279Y-41083D01*
X63098Y-41008D01*
X62902Y-41008D01*
X62721Y-41083D01*
X62583Y-41221D01*
X62508Y-41402D01*
X62508Y-41598D01*
X62583Y-41779D01*
X62721Y-41917D01*
X62902Y-41992D01*
X63098Y-41992D01*
X63279Y-41917D01*
X63417Y-41779D01*
X63492Y-41598D01*
X63492Y-42402D01*
X63417Y-42221D01*
X63279Y-42083D01*
X63098Y-42008D01*
X62902Y-42008D01*
X62721Y-42083D01*
X62583Y-42221D01*
X62508Y-42402D01*
X62508Y-42598D01*
X62583Y-42779D01*
X62721Y-42917D01*
X62902Y-42992D01*
X63098Y-42992D01*
X63279Y-42917D01*
X63417Y-42779D01*
X63492Y-42598D01*
X63492Y-43402D01*
X63417Y-43221D01*
X63279Y-43083D01*
X63098Y-43008D01*
X62902Y-43008D01*
X62721Y-43083D01*
X62583Y-43221D01*
X62508Y-43402D01*
X62508Y-43598D01*
X62583Y-43779D01*
X62721Y-43917D01*
X62902Y-43992D01*
X63098Y-43992D01*
X63279Y-43917D01*
X63417Y-43779D01*
X63492Y-43598D01*
X63492Y-45499D01*
X63373Y-45506D01*
X63241Y-45560D01*
X63204Y-45635D01*
X63500Y-45931D01*
X63796Y-45635D01*
X63796Y-45773D01*
X63569Y-46000D01*
X63865Y-46296D01*
X63940Y-46259D01*
X64005Y-46071D01*
X64005Y-46528D01*
X63796Y-46528D01*
X63796Y-46365D01*
X63500Y-46069D01*
X63431Y-46138D01*
X63431Y-46000D01*
X63135Y-45704D01*
X63060Y-45741D01*
X62996Y-45923D01*
X62994Y-45873D01*
X62940Y-45741D01*
X62865Y-45704D01*
X62796Y-45773D01*
X62796Y-45635D01*
X62759Y-45560D01*
X62571Y-45495D01*
X62492Y-45499D01*
X62492Y-43598D01*
X62492Y-43402D01*
X62492Y-42598D01*
X62492Y-42402D01*
X62492Y-41598D01*
X62492Y-41402D01*
X62492Y-40598D01*
X62492Y-40402D01*
X62492Y-39598D01*
X62492Y-39402D01*
X62492Y-36598D01*
X62492Y-36402D01*
X62492Y-35598D01*
X62492Y-35402D01*
X62492Y-34598D01*
X62492Y-34402D01*
X62492Y-33598D01*
X62492Y-33402D01*
X62492Y-32598D01*
X62492Y-32402D01*
X62417Y-32221D01*
X62279Y-32083D01*
X62098Y-32008D01*
X61992Y-32008D01*
X61992Y-30098D01*
X61992Y-29902D01*
X61917Y-29721D01*
X61779Y-29583D01*
X61598Y-29508D01*
X61402Y-29508D01*
X61221Y-29583D01*
X61083Y-29721D01*
X61008Y-29902D01*
X61008Y-30098D01*
X61083Y-30279D01*
X61221Y-30417D01*
X61402Y-30492D01*
X61598Y-30492D01*
X61779Y-30417D01*
X61917Y-30279D01*
X61992Y-30098D01*
X61992Y-32008D01*
X61902Y-32008D01*
X61721Y-32083D01*
X61583Y-32221D01*
X61508Y-32402D01*
X61508Y-32598D01*
X61583Y-32779D01*
X61721Y-32917D01*
X61902Y-32992D01*
X62098Y-32992D01*
X62279Y-32917D01*
X62417Y-32779D01*
X62492Y-32598D01*
X62492Y-33402D01*
X62417Y-33221D01*
X62279Y-33083D01*
X62098Y-33008D01*
X61902Y-33008D01*
X61721Y-33083D01*
X61583Y-33221D01*
X61508Y-33402D01*
X61508Y-33598D01*
X61583Y-33779D01*
X61721Y-33917D01*
X61902Y-33992D01*
X62098Y-33992D01*
X62279Y-33917D01*
X62417Y-33779D01*
X62492Y-33598D01*
X62492Y-34402D01*
X62417Y-34221D01*
X62279Y-34083D01*
X62098Y-34008D01*
X61902Y-34008D01*
X61721Y-34083D01*
X61583Y-34221D01*
X61508Y-34402D01*
X61508Y-34598D01*
X61583Y-34779D01*
X61721Y-34917D01*
X61902Y-34992D01*
X62098Y-34992D01*
X62279Y-34917D01*
X62417Y-34779D01*
X62492Y-34598D01*
X62492Y-35402D01*
X62417Y-35221D01*
X62279Y-35083D01*
X62098Y-35008D01*
X61902Y-35008D01*
X61721Y-35083D01*
X61583Y-35221D01*
X61508Y-35402D01*
X61508Y-35598D01*
X61583Y-35779D01*
X61721Y-35917D01*
X61902Y-35992D01*
X62098Y-35992D01*
X62279Y-35917D01*
X62417Y-35779D01*
X62492Y-35598D01*
X62492Y-36402D01*
X62417Y-36221D01*
X62279Y-36083D01*
X62098Y-36008D01*
X61902Y-36008D01*
X61721Y-36083D01*
X61583Y-36221D01*
X61508Y-36402D01*
X61508Y-36598D01*
X61583Y-36779D01*
X61721Y-36917D01*
X61902Y-36992D01*
X62098Y-36992D01*
X62279Y-36917D01*
X62417Y-36779D01*
X62492Y-36598D01*
X62492Y-39402D01*
X62417Y-39221D01*
X62279Y-39083D01*
X62098Y-39008D01*
X61902Y-39008D01*
X61721Y-39083D01*
X61583Y-39221D01*
X61508Y-39402D01*
X61508Y-39598D01*
X61583Y-39779D01*
X61721Y-39917D01*
X61902Y-39992D01*
X62098Y-39992D01*
X62279Y-39917D01*
X62417Y-39779D01*
X62492Y-39598D01*
X62492Y-40402D01*
X62417Y-40221D01*
X62279Y-40083D01*
X62098Y-40008D01*
X61902Y-40008D01*
X61721Y-40083D01*
X61583Y-40221D01*
X61508Y-40402D01*
X61508Y-40598D01*
X61583Y-40779D01*
X61721Y-40917D01*
X61902Y-40992D01*
X62098Y-40992D01*
X62279Y-40917D01*
X62417Y-40779D01*
X62492Y-40598D01*
X62492Y-41402D01*
X62417Y-41221D01*
X62279Y-41083D01*
X62098Y-41008D01*
X61902Y-41008D01*
X61721Y-41083D01*
X61583Y-41221D01*
X61508Y-41402D01*
X61508Y-41598D01*
X61583Y-41779D01*
X61721Y-41917D01*
X61902Y-41992D01*
X62098Y-41992D01*
X62279Y-41917D01*
X62417Y-41779D01*
X62492Y-41598D01*
X62492Y-42402D01*
X62417Y-42221D01*
X62279Y-42083D01*
X62098Y-42008D01*
X61902Y-42008D01*
X61721Y-42083D01*
X61583Y-42221D01*
X61508Y-42402D01*
X61508Y-42598D01*
X61583Y-42779D01*
X61721Y-42917D01*
X61902Y-42992D01*
X62098Y-42992D01*
X62279Y-42917D01*
X62417Y-42779D01*
X62492Y-42598D01*
X62492Y-43402D01*
X62417Y-43221D01*
X62279Y-43083D01*
X62098Y-43008D01*
X61902Y-43008D01*
X61721Y-43083D01*
X61583Y-43221D01*
X61508Y-43402D01*
X61508Y-43598D01*
X61583Y-43779D01*
X61721Y-43917D01*
X61902Y-43992D01*
X62098Y-43992D01*
X62279Y-43917D01*
X62417Y-43779D01*
X62492Y-43598D01*
X62492Y-45499D01*
X62373Y-45506D01*
X62241Y-45560D01*
X62204Y-45635D01*
X62500Y-45931D01*
X62796Y-45635D01*
X62796Y-45773D01*
X62569Y-46000D01*
X62865Y-46296D01*
X62940Y-46259D01*
X63003Y-46076D01*
X63006Y-46127D01*
X63060Y-46259D01*
X63135Y-46296D01*
X63431Y-46000D01*
X63431Y-46138D01*
X63204Y-46365D01*
X63241Y-46440D01*
X63429Y-46505D01*
X63627Y-46494D01*
X63759Y-46440D01*
X63796Y-46365D01*
X63796Y-46528D01*
X62796Y-46528D01*
X62796Y-46365D01*
X62500Y-46069D01*
X62431Y-46138D01*
X62431Y-46000D01*
X62135Y-45704D01*
X62060Y-45741D01*
X61996Y-45923D01*
X61994Y-45873D01*
X61940Y-45741D01*
X61865Y-45704D01*
X61796Y-45773D01*
X61796Y-45635D01*
X61759Y-45560D01*
X61571Y-45495D01*
X61492Y-45499D01*
X61492Y-43598D01*
X61492Y-43402D01*
X61492Y-42598D01*
X61492Y-42402D01*
X61492Y-41598D01*
X61492Y-41402D01*
X61492Y-40598D01*
X61492Y-40402D01*
X61492Y-39598D01*
X61492Y-39402D01*
X61492Y-36598D01*
X61492Y-36402D01*
X61492Y-35598D01*
X61492Y-35402D01*
X61492Y-34598D01*
X61492Y-34402D01*
X61492Y-33598D01*
X61492Y-33402D01*
X61492Y-32598D01*
X61492Y-32402D01*
X61417Y-32221D01*
X61279Y-32083D01*
X61098Y-32008D01*
X60992Y-32008D01*
X60992Y-30098D01*
X60992Y-29902D01*
X60917Y-29721D01*
X60779Y-29583D01*
X60598Y-29508D01*
X60402Y-29508D01*
X60221Y-29583D01*
X60083Y-29721D01*
X60008Y-29902D01*
X60008Y-30098D01*
X60083Y-30279D01*
X60221Y-30417D01*
X60402Y-30492D01*
X60598Y-30492D01*
X60779Y-30417D01*
X60917Y-30279D01*
X60992Y-30098D01*
X60992Y-32008D01*
X60902Y-32008D01*
X60721Y-32083D01*
X60583Y-32221D01*
X60508Y-32402D01*
X60508Y-32598D01*
X60583Y-32779D01*
X60721Y-32917D01*
X60902Y-32992D01*
X61098Y-32992D01*
X61279Y-32917D01*
X61417Y-32779D01*
X61492Y-32598D01*
X61492Y-33402D01*
X61417Y-33221D01*
X61279Y-33083D01*
X61098Y-33008D01*
X60902Y-33008D01*
X60721Y-33083D01*
X60583Y-33221D01*
X60508Y-33402D01*
X60508Y-33598D01*
X60583Y-33779D01*
X60721Y-33917D01*
X60902Y-33992D01*
X61098Y-33992D01*
X61279Y-33917D01*
X61417Y-33779D01*
X61492Y-33598D01*
X61492Y-34402D01*
X61417Y-34221D01*
X61279Y-34083D01*
X61098Y-34008D01*
X60902Y-34008D01*
X60721Y-34083D01*
X60583Y-34221D01*
X60508Y-34402D01*
X60508Y-34598D01*
X60583Y-34779D01*
X60721Y-34917D01*
X60902Y-34992D01*
X61098Y-34992D01*
X61279Y-34917D01*
X61417Y-34779D01*
X61492Y-34598D01*
X61492Y-35402D01*
X61417Y-35221D01*
X61279Y-35083D01*
X61098Y-35008D01*
X60902Y-35008D01*
X60721Y-35083D01*
X60583Y-35221D01*
X60508Y-35402D01*
X60508Y-35598D01*
X60583Y-35779D01*
X60721Y-35917D01*
X60902Y-35992D01*
X61098Y-35992D01*
X61279Y-35917D01*
X61417Y-35779D01*
X61492Y-35598D01*
X61492Y-36402D01*
X61417Y-36221D01*
X61279Y-36083D01*
X61098Y-36008D01*
X60902Y-36008D01*
X60721Y-36083D01*
X60583Y-36221D01*
X60508Y-36402D01*
X60508Y-36598D01*
X60583Y-36779D01*
X60721Y-36917D01*
X60902Y-36992D01*
X61098Y-36992D01*
X61279Y-36917D01*
X61417Y-36779D01*
X61492Y-36598D01*
X61492Y-39402D01*
X61417Y-39221D01*
X61279Y-39083D01*
X61098Y-39008D01*
X60902Y-39008D01*
X60721Y-39083D01*
X60583Y-39221D01*
X60508Y-39402D01*
X60508Y-39598D01*
X60583Y-39779D01*
X60721Y-39917D01*
X60902Y-39992D01*
X61098Y-39992D01*
X61279Y-39917D01*
X61417Y-39779D01*
X61492Y-39598D01*
X61492Y-40402D01*
X61417Y-40221D01*
X61279Y-40083D01*
X61098Y-40008D01*
X60902Y-40008D01*
X60721Y-40083D01*
X60583Y-40221D01*
X60508Y-40402D01*
X60508Y-40598D01*
X60583Y-40779D01*
X60721Y-40917D01*
X60902Y-40992D01*
X61098Y-40992D01*
X61279Y-40917D01*
X61417Y-40779D01*
X61492Y-40598D01*
X61492Y-41402D01*
X61417Y-41221D01*
X61279Y-41083D01*
X61098Y-41008D01*
X60902Y-41008D01*
X60721Y-41083D01*
X60583Y-41221D01*
X60508Y-41402D01*
X60508Y-41598D01*
X60583Y-41779D01*
X60721Y-41917D01*
X60902Y-41992D01*
X61098Y-41992D01*
X61279Y-41917D01*
X61417Y-41779D01*
X61492Y-41598D01*
X61492Y-42402D01*
X61417Y-42221D01*
X61279Y-42083D01*
X61098Y-42008D01*
X60902Y-42008D01*
X60721Y-42083D01*
X60583Y-42221D01*
X60508Y-42402D01*
X60508Y-42598D01*
X60583Y-42779D01*
X60721Y-42917D01*
X60902Y-42992D01*
X61098Y-42992D01*
X61279Y-42917D01*
X61417Y-42779D01*
X61492Y-42598D01*
X61492Y-43402D01*
X61417Y-43221D01*
X61279Y-43083D01*
X61098Y-43008D01*
X60902Y-43008D01*
X60721Y-43083D01*
X60583Y-43221D01*
X60508Y-43402D01*
X60508Y-43598D01*
X60583Y-43779D01*
X60721Y-43917D01*
X60902Y-43992D01*
X61098Y-43992D01*
X61279Y-43917D01*
X61417Y-43779D01*
X61492Y-43598D01*
X61492Y-45499D01*
X61373Y-45506D01*
X61241Y-45560D01*
X61204Y-45635D01*
X61500Y-45931D01*
X61796Y-45635D01*
X61796Y-45773D01*
X61569Y-46000D01*
X61865Y-46296D01*
X61940Y-46259D01*
X62003Y-46076D01*
X62006Y-46127D01*
X62060Y-46259D01*
X62135Y-46296D01*
X62431Y-46000D01*
X62431Y-46138D01*
X62204Y-46365D01*
X62241Y-46440D01*
X62429Y-46505D01*
X62627Y-46494D01*
X62759Y-46440D01*
X62796Y-46365D01*
X62796Y-46528D01*
X61796Y-46528D01*
X61796Y-46365D01*
X61500Y-46069D01*
X61431Y-46138D01*
X61431Y-46000D01*
X61135Y-45704D01*
X61060Y-45741D01*
X60996Y-45923D01*
X60994Y-45873D01*
X60940Y-45741D01*
X60865Y-45704D01*
X60796Y-45773D01*
X60796Y-45635D01*
X60759Y-45560D01*
X60571Y-45495D01*
X60492Y-45499D01*
X60492Y-43598D01*
X60492Y-43402D01*
X60492Y-42598D01*
X60492Y-42402D01*
X60492Y-41598D01*
X60492Y-41402D01*
X60492Y-40598D01*
X60492Y-40402D01*
X60492Y-39598D01*
X60492Y-39402D01*
X60492Y-36598D01*
X60492Y-36402D01*
X60492Y-35598D01*
X60492Y-35402D01*
X60492Y-34598D01*
X60492Y-34402D01*
X60492Y-33598D01*
X60492Y-33402D01*
X60492Y-32598D01*
X60492Y-32402D01*
X60417Y-32221D01*
X60279Y-32083D01*
X60098Y-32008D01*
X59902Y-32008D01*
X59721Y-32083D01*
X59583Y-32221D01*
X59508Y-32402D01*
X59508Y-32598D01*
X59583Y-32779D01*
X59721Y-32917D01*
X59902Y-32992D01*
X60098Y-32992D01*
X60279Y-32917D01*
X60417Y-32779D01*
X60492Y-32598D01*
X60492Y-33402D01*
X60417Y-33221D01*
X60279Y-33083D01*
X60098Y-33008D01*
X59902Y-33008D01*
X59721Y-33083D01*
X59583Y-33221D01*
X59508Y-33402D01*
X59508Y-33598D01*
X59583Y-33779D01*
X59721Y-33917D01*
X59902Y-33992D01*
X60098Y-33992D01*
X60279Y-33917D01*
X60417Y-33779D01*
X60492Y-33598D01*
X60492Y-34402D01*
X60417Y-34221D01*
X60279Y-34083D01*
X60098Y-34008D01*
X59902Y-34008D01*
X59721Y-34083D01*
X59583Y-34221D01*
X59508Y-34402D01*
X59508Y-34598D01*
X59583Y-34779D01*
X59721Y-34917D01*
X59902Y-34992D01*
X60098Y-34992D01*
X60279Y-34917D01*
X60417Y-34779D01*
X60492Y-34598D01*
X60492Y-35402D01*
X60417Y-35221D01*
X60279Y-35083D01*
X60098Y-35008D01*
X59902Y-35008D01*
X59721Y-35083D01*
X59583Y-35221D01*
X59508Y-35402D01*
X59508Y-35598D01*
X59583Y-35779D01*
X59721Y-35917D01*
X59902Y-35992D01*
X60098Y-35992D01*
X60279Y-35917D01*
X60417Y-35779D01*
X60492Y-35598D01*
X60492Y-36402D01*
X60417Y-36221D01*
X60279Y-36083D01*
X60098Y-36008D01*
X59902Y-36008D01*
X59721Y-36083D01*
X59583Y-36221D01*
X59508Y-36402D01*
X59508Y-36598D01*
X59583Y-36779D01*
X59721Y-36917D01*
X59902Y-36992D01*
X60098Y-36992D01*
X60279Y-36917D01*
X60417Y-36779D01*
X60492Y-36598D01*
X60492Y-39402D01*
X60417Y-39221D01*
X60279Y-39083D01*
X60098Y-39008D01*
X59902Y-39008D01*
X59721Y-39083D01*
X59583Y-39221D01*
X59508Y-39402D01*
X59508Y-39598D01*
X59583Y-39779D01*
X59721Y-39917D01*
X59902Y-39992D01*
X60098Y-39992D01*
X60279Y-39917D01*
X60417Y-39779D01*
X60492Y-39598D01*
X60492Y-40402D01*
X60417Y-40221D01*
X60279Y-40083D01*
X60098Y-40008D01*
X59902Y-40008D01*
X59721Y-40083D01*
X59583Y-40221D01*
X59508Y-40402D01*
X59508Y-40598D01*
X59583Y-40779D01*
X59721Y-40917D01*
X59902Y-40992D01*
X60098Y-40992D01*
X60279Y-40917D01*
X60417Y-40779D01*
X60492Y-40598D01*
X60492Y-41402D01*
X60417Y-41221D01*
X60279Y-41083D01*
X60098Y-41008D01*
X59902Y-41008D01*
X59721Y-41083D01*
X59583Y-41221D01*
X59508Y-41402D01*
X59508Y-41598D01*
X59583Y-41779D01*
X59721Y-41917D01*
X59902Y-41992D01*
X60098Y-41992D01*
X60279Y-41917D01*
X60417Y-41779D01*
X60492Y-41598D01*
X60492Y-42402D01*
X60417Y-42221D01*
X60279Y-42083D01*
X60098Y-42008D01*
X59902Y-42008D01*
X59721Y-42083D01*
X59583Y-42221D01*
X59508Y-42402D01*
X59508Y-42598D01*
X59583Y-42779D01*
X59721Y-42917D01*
X59902Y-42992D01*
X60098Y-42992D01*
X60279Y-42917D01*
X60417Y-42779D01*
X60492Y-42598D01*
X60492Y-43402D01*
X60417Y-43221D01*
X60279Y-43083D01*
X60098Y-43008D01*
X59902Y-43008D01*
X59721Y-43083D01*
X59583Y-43221D01*
X59508Y-43402D01*
X59508Y-43598D01*
X59583Y-43779D01*
X59721Y-43917D01*
X59902Y-43992D01*
X60098Y-43992D01*
X60279Y-43917D01*
X60417Y-43779D01*
X60492Y-43598D01*
X60492Y-45499D01*
X60373Y-45506D01*
X60241Y-45560D01*
X60204Y-45635D01*
X60500Y-45931D01*
X60796Y-45635D01*
X60796Y-45773D01*
X60569Y-46000D01*
X60865Y-46296D01*
X60940Y-46259D01*
X61003Y-46076D01*
X61006Y-46127D01*
X61060Y-46259D01*
X61135Y-46296D01*
X61431Y-46000D01*
X61431Y-46138D01*
X61204Y-46365D01*
X61241Y-46440D01*
X61429Y-46505D01*
X61627Y-46494D01*
X61759Y-46440D01*
X61796Y-46365D01*
X61796Y-46528D01*
X60796Y-46528D01*
X60796Y-46365D01*
X60500Y-46069D01*
X60431Y-46138D01*
X60431Y-46000D01*
X60135Y-45704D01*
X60060Y-45741D01*
X59995Y-45929D01*
X60006Y-46127D01*
X60060Y-46259D01*
X60135Y-46296D01*
X60431Y-46000D01*
X60431Y-46138D01*
X60204Y-46365D01*
X60241Y-46440D01*
X60429Y-46505D01*
X60627Y-46494D01*
X60759Y-46440D01*
X60796Y-46365D01*
X60796Y-46528D01*
X59492Y-46528D01*
X59492Y-43598D01*
X59492Y-43402D01*
X59492Y-42598D01*
X59492Y-42402D01*
X59492Y-41598D01*
X59492Y-41402D01*
X59492Y-40598D01*
X59492Y-40402D01*
X59492Y-39598D01*
X59492Y-39402D01*
X59492Y-36598D01*
X59492Y-36402D01*
X59492Y-35598D01*
X59492Y-35402D01*
X59492Y-34598D01*
X59492Y-34402D01*
X59492Y-33598D01*
X59492Y-33402D01*
X59492Y-32598D01*
X59492Y-32402D01*
X59417Y-32221D01*
X59279Y-32083D01*
X59098Y-32008D01*
X58992Y-32008D01*
X58992Y-30098D01*
X58992Y-29902D01*
X58917Y-29721D01*
X58779Y-29583D01*
X58598Y-29508D01*
X58402Y-29508D01*
X58221Y-29583D01*
X58083Y-29721D01*
X58008Y-29902D01*
X58008Y-30098D01*
X58083Y-30279D01*
X58221Y-30417D01*
X58402Y-30492D01*
X58598Y-30492D01*
X58779Y-30417D01*
X58917Y-30279D01*
X58992Y-30098D01*
X58992Y-32008D01*
X58902Y-32008D01*
X58721Y-32083D01*
X58583Y-32221D01*
X58508Y-32402D01*
X58508Y-32598D01*
X58583Y-32779D01*
X58721Y-32917D01*
X58902Y-32992D01*
X59098Y-32992D01*
X59279Y-32917D01*
X59417Y-32779D01*
X59492Y-32598D01*
X59492Y-33402D01*
X59417Y-33221D01*
X59279Y-33083D01*
X59098Y-33008D01*
X58902Y-33008D01*
X58721Y-33083D01*
X58583Y-33221D01*
X58508Y-33402D01*
X58508Y-33598D01*
X58583Y-33779D01*
X58721Y-33917D01*
X58902Y-33992D01*
X59098Y-33992D01*
X59279Y-33917D01*
X59417Y-33779D01*
X59492Y-33598D01*
X59492Y-34402D01*
X59417Y-34221D01*
X59279Y-34083D01*
X59098Y-34008D01*
X58902Y-34008D01*
X58721Y-34083D01*
X58583Y-34221D01*
X58508Y-34402D01*
X58508Y-34598D01*
X58583Y-34779D01*
X58721Y-34917D01*
X58902Y-34992D01*
X59098Y-34992D01*
X59279Y-34917D01*
X59417Y-34779D01*
X59492Y-34598D01*
X59492Y-35402D01*
X59417Y-35221D01*
X59279Y-35083D01*
X59098Y-35008D01*
X58902Y-35008D01*
X58721Y-35083D01*
X58583Y-35221D01*
X58508Y-35402D01*
X58508Y-35598D01*
X58583Y-35779D01*
X58721Y-35917D01*
X58902Y-35992D01*
X59098Y-35992D01*
X59279Y-35917D01*
X59417Y-35779D01*
X59492Y-35598D01*
X59492Y-36402D01*
X59417Y-36221D01*
X59279Y-36083D01*
X59098Y-36008D01*
X58902Y-36008D01*
X58721Y-36083D01*
X58583Y-36221D01*
X58508Y-36402D01*
X58508Y-36598D01*
X58583Y-36779D01*
X58721Y-36917D01*
X58902Y-36992D01*
X59098Y-36992D01*
X59279Y-36917D01*
X59417Y-36779D01*
X59492Y-36598D01*
X59492Y-39402D01*
X59417Y-39221D01*
X59279Y-39083D01*
X59098Y-39008D01*
X58902Y-39008D01*
X58721Y-39083D01*
X58583Y-39221D01*
X58508Y-39402D01*
X58508Y-39598D01*
X58583Y-39779D01*
X58721Y-39917D01*
X58902Y-39992D01*
X59098Y-39992D01*
X59279Y-39917D01*
X59417Y-39779D01*
X59492Y-39598D01*
X59492Y-40402D01*
X59417Y-40221D01*
X59279Y-40083D01*
X59098Y-40008D01*
X58902Y-40008D01*
X58721Y-40083D01*
X58583Y-40221D01*
X58508Y-40402D01*
X58508Y-40598D01*
X58583Y-40779D01*
X58721Y-40917D01*
X58902Y-40992D01*
X59098Y-40992D01*
X59279Y-40917D01*
X59417Y-40779D01*
X59492Y-40598D01*
X59492Y-41402D01*
X59417Y-41221D01*
X59279Y-41083D01*
X59098Y-41008D01*
X58902Y-41008D01*
X58721Y-41083D01*
X58583Y-41221D01*
X58508Y-41402D01*
X58508Y-41598D01*
X58583Y-41779D01*
X58721Y-41917D01*
X58902Y-41992D01*
X59098Y-41992D01*
X59279Y-41917D01*
X59417Y-41779D01*
X59492Y-41598D01*
X59492Y-42402D01*
X59417Y-42221D01*
X59279Y-42083D01*
X59098Y-42008D01*
X58902Y-42008D01*
X58721Y-42083D01*
X58583Y-42221D01*
X58508Y-42402D01*
X58508Y-42598D01*
X58583Y-42779D01*
X58721Y-42917D01*
X58902Y-42992D01*
X59098Y-42992D01*
X59279Y-42917D01*
X59417Y-42779D01*
X59492Y-42598D01*
X59492Y-43402D01*
X59417Y-43221D01*
X59279Y-43083D01*
X59098Y-43008D01*
X58902Y-43008D01*
X58721Y-43083D01*
X58583Y-43221D01*
X58508Y-43402D01*
X58508Y-43598D01*
X58583Y-43779D01*
X58721Y-43917D01*
X58902Y-43992D01*
X59098Y-43992D01*
X59279Y-43917D01*
X59417Y-43779D01*
X59492Y-43598D01*
X59492Y-46528D01*
X59005Y-46528D01*
X59005Y-46071D01*
X58994Y-45873D01*
X58940Y-45741D01*
X58865Y-45704D01*
X58796Y-45773D01*
X58796Y-45635D01*
X58759Y-45560D01*
X58571Y-45495D01*
X58492Y-45499D01*
X58492Y-43598D01*
X58492Y-43402D01*
X58492Y-42598D01*
X58492Y-42402D01*
X58492Y-41598D01*
X58492Y-41402D01*
X58492Y-40598D01*
X58492Y-40402D01*
X58492Y-39598D01*
X58492Y-39402D01*
X58492Y-36598D01*
X58492Y-36402D01*
X58492Y-35598D01*
X58492Y-35402D01*
X58492Y-34598D01*
X58492Y-34402D01*
X58492Y-33598D01*
X58492Y-33402D01*
X58492Y-32598D01*
X58492Y-32402D01*
X58417Y-32221D01*
X58279Y-32083D01*
X58098Y-32008D01*
X57992Y-32008D01*
X57992Y-30098D01*
X57992Y-29902D01*
X57917Y-29721D01*
X57779Y-29583D01*
X57598Y-29508D01*
X57402Y-29508D01*
X57221Y-29583D01*
X57083Y-29721D01*
X57008Y-29902D01*
X57008Y-30098D01*
X57083Y-30279D01*
X57221Y-30417D01*
X57402Y-30492D01*
X57598Y-30492D01*
X57779Y-30417D01*
X57917Y-30279D01*
X57992Y-30098D01*
X57992Y-32008D01*
X57902Y-32008D01*
X57721Y-32083D01*
X57583Y-32221D01*
X57508Y-32402D01*
X57508Y-32598D01*
X57583Y-32779D01*
X57721Y-32917D01*
X57902Y-32992D01*
X58098Y-32992D01*
X58279Y-32917D01*
X58417Y-32779D01*
X58492Y-32598D01*
X58492Y-33402D01*
X58417Y-33221D01*
X58279Y-33083D01*
X58098Y-33008D01*
X57902Y-33008D01*
X57721Y-33083D01*
X57583Y-33221D01*
X57508Y-33402D01*
X57508Y-33598D01*
X57583Y-33779D01*
X57721Y-33917D01*
X57902Y-33992D01*
X58098Y-33992D01*
X58279Y-33917D01*
X58417Y-33779D01*
X58492Y-33598D01*
X58492Y-34402D01*
X58417Y-34221D01*
X58279Y-34083D01*
X58098Y-34008D01*
X57902Y-34008D01*
X57721Y-34083D01*
X57583Y-34221D01*
X57508Y-34402D01*
X57508Y-34598D01*
X57583Y-34779D01*
X57721Y-34917D01*
X57902Y-34992D01*
X58098Y-34992D01*
X58279Y-34917D01*
X58417Y-34779D01*
X58492Y-34598D01*
X58492Y-35402D01*
X58417Y-35221D01*
X58279Y-35083D01*
X58098Y-35008D01*
X57902Y-35008D01*
X57721Y-35083D01*
X57583Y-35221D01*
X57508Y-35402D01*
X57508Y-35598D01*
X57583Y-35779D01*
X57721Y-35917D01*
X57902Y-35992D01*
X58098Y-35992D01*
X58279Y-35917D01*
X58417Y-35779D01*
X58492Y-35598D01*
X58492Y-36402D01*
X58417Y-36221D01*
X58279Y-36083D01*
X58098Y-36008D01*
X57902Y-36008D01*
X57721Y-36083D01*
X57583Y-36221D01*
X57508Y-36402D01*
X57508Y-36598D01*
X57583Y-36779D01*
X57721Y-36917D01*
X57902Y-36992D01*
X58098Y-36992D01*
X58279Y-36917D01*
X58417Y-36779D01*
X58492Y-36598D01*
X58492Y-39402D01*
X58417Y-39221D01*
X58279Y-39083D01*
X58098Y-39008D01*
X57902Y-39008D01*
X57721Y-39083D01*
X57583Y-39221D01*
X57508Y-39402D01*
X57508Y-39598D01*
X57583Y-39779D01*
X57721Y-39917D01*
X57902Y-39992D01*
X58098Y-39992D01*
X58279Y-39917D01*
X58417Y-39779D01*
X58492Y-39598D01*
X58492Y-40402D01*
X58417Y-40221D01*
X58279Y-40083D01*
X58098Y-40008D01*
X57902Y-40008D01*
X57721Y-40083D01*
X57583Y-40221D01*
X57508Y-40402D01*
X57508Y-40598D01*
X57583Y-40779D01*
X57721Y-40917D01*
X57902Y-40992D01*
X58098Y-40992D01*
X58279Y-40917D01*
X58417Y-40779D01*
X58492Y-40598D01*
X58492Y-41402D01*
X58417Y-41221D01*
X58279Y-41083D01*
X58098Y-41008D01*
X57902Y-41008D01*
X57721Y-41083D01*
X57583Y-41221D01*
X57508Y-41402D01*
X57508Y-41598D01*
X57583Y-41779D01*
X57721Y-41917D01*
X57902Y-41992D01*
X58098Y-41992D01*
X58279Y-41917D01*
X58417Y-41779D01*
X58492Y-41598D01*
X58492Y-42402D01*
X58417Y-42221D01*
X58279Y-42083D01*
X58098Y-42008D01*
X57902Y-42008D01*
X57721Y-42083D01*
X57583Y-42221D01*
X57508Y-42402D01*
X57508Y-42598D01*
X57583Y-42779D01*
X57721Y-42917D01*
X57902Y-42992D01*
X58098Y-42992D01*
X58279Y-42917D01*
X58417Y-42779D01*
X58492Y-42598D01*
X58492Y-43402D01*
X58417Y-43221D01*
X58279Y-43083D01*
X58098Y-43008D01*
X57902Y-43008D01*
X57721Y-43083D01*
X57583Y-43221D01*
X57508Y-43402D01*
X57508Y-43598D01*
X57583Y-43779D01*
X57721Y-43917D01*
X57902Y-43992D01*
X58098Y-43992D01*
X58279Y-43917D01*
X58417Y-43779D01*
X58492Y-43598D01*
X58492Y-45499D01*
X58373Y-45506D01*
X58241Y-45560D01*
X58204Y-45635D01*
X58500Y-45931D01*
X58796Y-45635D01*
X58796Y-45773D01*
X58569Y-46000D01*
X58865Y-46296D01*
X58940Y-46259D01*
X59005Y-46071D01*
X59005Y-46528D01*
X58796Y-46528D01*
X58796Y-46365D01*
X58500Y-46069D01*
X58431Y-46138D01*
X58431Y-46000D01*
X58135Y-45704D01*
X58060Y-45741D01*
X57996Y-45923D01*
X57994Y-45873D01*
X57940Y-45741D01*
X57865Y-45704D01*
X57796Y-45773D01*
X57796Y-45635D01*
X57759Y-45560D01*
X57571Y-45495D01*
X57492Y-45499D01*
X57492Y-43598D01*
X57492Y-43402D01*
X57492Y-42598D01*
X57492Y-42402D01*
X57492Y-41598D01*
X57492Y-41402D01*
X57492Y-40598D01*
X57492Y-40402D01*
X57492Y-39598D01*
X57492Y-39402D01*
X57492Y-36598D01*
X57492Y-36402D01*
X57492Y-35598D01*
X57492Y-35402D01*
X57492Y-34598D01*
X57492Y-34402D01*
X57492Y-33598D01*
X57492Y-33402D01*
X57492Y-32598D01*
X57492Y-32402D01*
X57417Y-32221D01*
X57279Y-32083D01*
X57098Y-32008D01*
X56992Y-32008D01*
X56992Y-30098D01*
X56992Y-29902D01*
X56917Y-29721D01*
X56779Y-29583D01*
X56598Y-29508D01*
X56402Y-29508D01*
X56221Y-29583D01*
X56083Y-29721D01*
X56008Y-29902D01*
X56008Y-30098D01*
X56083Y-30279D01*
X56221Y-30417D01*
X56402Y-30492D01*
X56598Y-30492D01*
X56779Y-30417D01*
X56917Y-30279D01*
X56992Y-30098D01*
X56992Y-32008D01*
X56902Y-32008D01*
X56721Y-32083D01*
X56583Y-32221D01*
X56508Y-32402D01*
X56508Y-32598D01*
X56583Y-32779D01*
X56721Y-32917D01*
X56902Y-32992D01*
X57098Y-32992D01*
X57279Y-32917D01*
X57417Y-32779D01*
X57492Y-32598D01*
X57492Y-33402D01*
X57417Y-33221D01*
X57279Y-33083D01*
X57098Y-33008D01*
X56902Y-33008D01*
X56721Y-33083D01*
X56583Y-33221D01*
X56508Y-33402D01*
X56508Y-33598D01*
X56583Y-33779D01*
X56721Y-33917D01*
X56902Y-33992D01*
X57098Y-33992D01*
X57279Y-33917D01*
X57417Y-33779D01*
X57492Y-33598D01*
X57492Y-34402D01*
X57417Y-34221D01*
X57279Y-34083D01*
X57098Y-34008D01*
X56902Y-34008D01*
X56721Y-34083D01*
X56583Y-34221D01*
X56508Y-34402D01*
X56508Y-34598D01*
X56583Y-34779D01*
X56721Y-34917D01*
X56902Y-34992D01*
X57098Y-34992D01*
X57279Y-34917D01*
X57417Y-34779D01*
X57492Y-34598D01*
X57492Y-35402D01*
X57417Y-35221D01*
X57279Y-35083D01*
X57098Y-35008D01*
X56902Y-35008D01*
X56721Y-35083D01*
X56583Y-35221D01*
X56508Y-35402D01*
X56508Y-35598D01*
X56583Y-35779D01*
X56721Y-35917D01*
X56902Y-35992D01*
X57098Y-35992D01*
X57279Y-35917D01*
X57417Y-35779D01*
X57492Y-35598D01*
X57492Y-36402D01*
X57417Y-36221D01*
X57279Y-36083D01*
X57098Y-36008D01*
X56902Y-36008D01*
X56721Y-36083D01*
X56583Y-36221D01*
X56508Y-36402D01*
X56508Y-36598D01*
X56583Y-36779D01*
X56721Y-36917D01*
X56902Y-36992D01*
X57098Y-36992D01*
X57279Y-36917D01*
X57417Y-36779D01*
X57492Y-36598D01*
X57492Y-39402D01*
X57417Y-39221D01*
X57279Y-39083D01*
X57098Y-39008D01*
X56902Y-39008D01*
X56721Y-39083D01*
X56583Y-39221D01*
X56508Y-39402D01*
X56508Y-39598D01*
X56583Y-39779D01*
X56721Y-39917D01*
X56902Y-39992D01*
X57098Y-39992D01*
X57279Y-39917D01*
X57417Y-39779D01*
X57492Y-39598D01*
X57492Y-40402D01*
X57417Y-40221D01*
X57279Y-40083D01*
X57098Y-40008D01*
X56902Y-40008D01*
X56721Y-40083D01*
X56583Y-40221D01*
X56508Y-40402D01*
X56508Y-40598D01*
X56583Y-40779D01*
X56721Y-40917D01*
X56902Y-40992D01*
X57098Y-40992D01*
X57279Y-40917D01*
X57417Y-40779D01*
X57492Y-40598D01*
X57492Y-41402D01*
X57417Y-41221D01*
X57279Y-41083D01*
X57098Y-41008D01*
X56902Y-41008D01*
X56721Y-41083D01*
X56583Y-41221D01*
X56508Y-41402D01*
X56508Y-41598D01*
X56583Y-41779D01*
X56721Y-41917D01*
X56902Y-41992D01*
X57098Y-41992D01*
X57279Y-41917D01*
X57417Y-41779D01*
X57492Y-41598D01*
X57492Y-42402D01*
X57417Y-42221D01*
X57279Y-42083D01*
X57098Y-42008D01*
X56902Y-42008D01*
X56721Y-42083D01*
X56583Y-42221D01*
X56508Y-42402D01*
X56508Y-42598D01*
X56583Y-42779D01*
X56721Y-42917D01*
X56902Y-42992D01*
X57098Y-42992D01*
X57279Y-42917D01*
X57417Y-42779D01*
X57492Y-42598D01*
X57492Y-43402D01*
X57417Y-43221D01*
X57279Y-43083D01*
X57098Y-43008D01*
X56902Y-43008D01*
X56721Y-43083D01*
X56583Y-43221D01*
X56508Y-43402D01*
X56508Y-43598D01*
X56583Y-43779D01*
X56721Y-43917D01*
X56902Y-43992D01*
X57098Y-43992D01*
X57279Y-43917D01*
X57417Y-43779D01*
X57492Y-43598D01*
X57492Y-45499D01*
X57373Y-45506D01*
X57241Y-45560D01*
X57204Y-45635D01*
X57500Y-45931D01*
X57796Y-45635D01*
X57796Y-45773D01*
X57569Y-46000D01*
X57865Y-46296D01*
X57940Y-46259D01*
X58003Y-46076D01*
X58006Y-46127D01*
X58060Y-46259D01*
X58135Y-46296D01*
X58431Y-46000D01*
X58431Y-46138D01*
X58204Y-46365D01*
X58241Y-46440D01*
X58429Y-46505D01*
X58627Y-46494D01*
X58759Y-46440D01*
X58796Y-46365D01*
X58796Y-46528D01*
X57796Y-46528D01*
X57796Y-46365D01*
X57500Y-46069D01*
X57431Y-46138D01*
X57431Y-46000D01*
X57135Y-45704D01*
X57060Y-45741D01*
X56996Y-45923D01*
X56994Y-45873D01*
X56940Y-45741D01*
X56865Y-45704D01*
X56796Y-45773D01*
X56796Y-45635D01*
X56759Y-45560D01*
X56571Y-45495D01*
X56492Y-45499D01*
X56492Y-43598D01*
X56492Y-43402D01*
X56492Y-42598D01*
X56492Y-42402D01*
X56492Y-41598D01*
X56492Y-41402D01*
X56492Y-40598D01*
X56492Y-40402D01*
X56492Y-39598D01*
X56492Y-39402D01*
X56492Y-36598D01*
X56492Y-36402D01*
X56492Y-35598D01*
X56492Y-35402D01*
X56492Y-34598D01*
X56492Y-34402D01*
X56492Y-33598D01*
X56492Y-33402D01*
X56492Y-32598D01*
X56492Y-32402D01*
X56417Y-32221D01*
X56279Y-32083D01*
X56098Y-32008D01*
X55992Y-32008D01*
X55992Y-30098D01*
X55992Y-29902D01*
X55917Y-29721D01*
X55779Y-29583D01*
X55598Y-29508D01*
X55402Y-29508D01*
X55221Y-29583D01*
X55083Y-29721D01*
X55008Y-29902D01*
X55008Y-30098D01*
X55083Y-30279D01*
X55221Y-30417D01*
X55402Y-30492D01*
X55598Y-30492D01*
X55779Y-30417D01*
X55917Y-30279D01*
X55992Y-30098D01*
X55992Y-32008D01*
X55902Y-32008D01*
X55721Y-32083D01*
X55583Y-32221D01*
X55508Y-32402D01*
X55508Y-32598D01*
X55583Y-32779D01*
X55721Y-32917D01*
X55902Y-32992D01*
X56098Y-32992D01*
X56279Y-32917D01*
X56417Y-32779D01*
X56492Y-32598D01*
X56492Y-33402D01*
X56417Y-33221D01*
X56279Y-33083D01*
X56098Y-33008D01*
X55902Y-33008D01*
X55721Y-33083D01*
X55583Y-33221D01*
X55508Y-33402D01*
X55508Y-33598D01*
X55583Y-33779D01*
X55721Y-33917D01*
X55902Y-33992D01*
X56098Y-33992D01*
X56279Y-33917D01*
X56417Y-33779D01*
X56492Y-33598D01*
X56492Y-34402D01*
X56417Y-34221D01*
X56279Y-34083D01*
X56098Y-34008D01*
X55902Y-34008D01*
X55721Y-34083D01*
X55583Y-34221D01*
X55508Y-34402D01*
X55508Y-34598D01*
X55583Y-34779D01*
X55721Y-34917D01*
X55902Y-34992D01*
X56098Y-34992D01*
X56279Y-34917D01*
X56417Y-34779D01*
X56492Y-34598D01*
X56492Y-35402D01*
X56417Y-35221D01*
X56279Y-35083D01*
X56098Y-35008D01*
X55902Y-35008D01*
X55721Y-35083D01*
X55583Y-35221D01*
X55508Y-35402D01*
X55508Y-35598D01*
X55583Y-35779D01*
X55721Y-35917D01*
X55902Y-35992D01*
X56098Y-35992D01*
X56279Y-35917D01*
X56417Y-35779D01*
X56492Y-35598D01*
X56492Y-36402D01*
X56417Y-36221D01*
X56279Y-36083D01*
X56098Y-36008D01*
X55902Y-36008D01*
X55721Y-36083D01*
X55583Y-36221D01*
X55508Y-36402D01*
X55508Y-36598D01*
X55583Y-36779D01*
X55721Y-36917D01*
X55902Y-36992D01*
X56098Y-36992D01*
X56279Y-36917D01*
X56417Y-36779D01*
X56492Y-36598D01*
X56492Y-39402D01*
X56417Y-39221D01*
X56279Y-39083D01*
X56098Y-39008D01*
X55902Y-39008D01*
X55721Y-39083D01*
X55583Y-39221D01*
X55508Y-39402D01*
X55508Y-39598D01*
X55583Y-39779D01*
X55721Y-39917D01*
X55902Y-39992D01*
X56098Y-39992D01*
X56279Y-39917D01*
X56417Y-39779D01*
X56492Y-39598D01*
X56492Y-40402D01*
X56417Y-40221D01*
X56279Y-40083D01*
X56098Y-40008D01*
X55902Y-40008D01*
X55721Y-40083D01*
X55583Y-40221D01*
X55508Y-40402D01*
X55508Y-40598D01*
X55583Y-40779D01*
X55721Y-40917D01*
X55902Y-40992D01*
X56098Y-40992D01*
X56279Y-40917D01*
X56417Y-40779D01*
X56492Y-40598D01*
X56492Y-41402D01*
X56417Y-41221D01*
X56279Y-41083D01*
X56098Y-41008D01*
X55902Y-41008D01*
X55721Y-41083D01*
X55583Y-41221D01*
X55508Y-41402D01*
X55508Y-41598D01*
X55583Y-41779D01*
X55721Y-41917D01*
X55902Y-41992D01*
X56098Y-41992D01*
X56279Y-41917D01*
X56417Y-41779D01*
X56492Y-41598D01*
X56492Y-42402D01*
X56417Y-42221D01*
X56279Y-42083D01*
X56098Y-42008D01*
X55902Y-42008D01*
X55721Y-42083D01*
X55583Y-42221D01*
X55508Y-42402D01*
X55508Y-42598D01*
X55583Y-42779D01*
X55721Y-42917D01*
X55902Y-42992D01*
X56098Y-42992D01*
X56279Y-42917D01*
X56417Y-42779D01*
X56492Y-42598D01*
X56492Y-43402D01*
X56417Y-43221D01*
X56279Y-43083D01*
X56098Y-43008D01*
X55902Y-43008D01*
X55721Y-43083D01*
X55583Y-43221D01*
X55508Y-43402D01*
X55508Y-43598D01*
X55583Y-43779D01*
X55721Y-43917D01*
X55902Y-43992D01*
X56098Y-43992D01*
X56279Y-43917D01*
X56417Y-43779D01*
X56492Y-43598D01*
X56492Y-45499D01*
X56373Y-45506D01*
X56241Y-45560D01*
X56204Y-45635D01*
X56500Y-45931D01*
X56796Y-45635D01*
X56796Y-45773D01*
X56569Y-46000D01*
X56865Y-46296D01*
X56940Y-46259D01*
X57003Y-46076D01*
X57006Y-46127D01*
X57060Y-46259D01*
X57135Y-46296D01*
X57431Y-46000D01*
X57431Y-46138D01*
X57204Y-46365D01*
X57241Y-46440D01*
X57429Y-46505D01*
X57627Y-46494D01*
X57759Y-46440D01*
X57796Y-46365D01*
X57796Y-46528D01*
X56796Y-46528D01*
X56796Y-46365D01*
X56500Y-46069D01*
X56431Y-46138D01*
X56431Y-46000D01*
X56135Y-45704D01*
X56060Y-45741D01*
X55996Y-45923D01*
X55994Y-45873D01*
X55940Y-45741D01*
X55865Y-45704D01*
X55796Y-45773D01*
X55796Y-45635D01*
X55759Y-45560D01*
X55571Y-45495D01*
X55492Y-45499D01*
X55492Y-43598D01*
X55492Y-43402D01*
X55492Y-42598D01*
X55492Y-42402D01*
X55492Y-41598D01*
X55492Y-41402D01*
X55492Y-40598D01*
X55492Y-40402D01*
X55492Y-39598D01*
X55492Y-39402D01*
X55492Y-36598D01*
X55492Y-36402D01*
X55492Y-35598D01*
X55492Y-35402D01*
X55492Y-34598D01*
X55492Y-34402D01*
X55492Y-33598D01*
X55492Y-33402D01*
X55492Y-32598D01*
X55492Y-32402D01*
X55417Y-32221D01*
X55279Y-32083D01*
X55098Y-32008D01*
X54992Y-32008D01*
X54992Y-30098D01*
X54992Y-29902D01*
X54917Y-29721D01*
X54779Y-29583D01*
X54598Y-29508D01*
X54402Y-29508D01*
X54221Y-29583D01*
X54083Y-29721D01*
X54008Y-29902D01*
X54008Y-30098D01*
X54083Y-30279D01*
X54221Y-30417D01*
X54402Y-30492D01*
X54598Y-30492D01*
X54779Y-30417D01*
X54917Y-30279D01*
X54992Y-30098D01*
X54992Y-32008D01*
X54902Y-32008D01*
X54721Y-32083D01*
X54583Y-32221D01*
X54508Y-32402D01*
X54508Y-32598D01*
X54583Y-32779D01*
X54721Y-32917D01*
X54902Y-32992D01*
X55098Y-32992D01*
X55279Y-32917D01*
X55417Y-32779D01*
X55492Y-32598D01*
X55492Y-33402D01*
X55417Y-33221D01*
X55279Y-33083D01*
X55098Y-33008D01*
X54902Y-33008D01*
X54721Y-33083D01*
X54583Y-33221D01*
X54508Y-33402D01*
X54508Y-33598D01*
X54583Y-33779D01*
X54721Y-33917D01*
X54902Y-33992D01*
X55098Y-33992D01*
X55279Y-33917D01*
X55417Y-33779D01*
X55492Y-33598D01*
X55492Y-34402D01*
X55417Y-34221D01*
X55279Y-34083D01*
X55098Y-34008D01*
X54902Y-34008D01*
X54721Y-34083D01*
X54583Y-34221D01*
X54508Y-34402D01*
X54508Y-34598D01*
X54583Y-34779D01*
X54721Y-34917D01*
X54902Y-34992D01*
X55098Y-34992D01*
X55279Y-34917D01*
X55417Y-34779D01*
X55492Y-34598D01*
X55492Y-35402D01*
X55417Y-35221D01*
X55279Y-35083D01*
X55098Y-35008D01*
X54902Y-35008D01*
X54721Y-35083D01*
X54583Y-35221D01*
X54508Y-35402D01*
X54508Y-35598D01*
X54583Y-35779D01*
X54721Y-35917D01*
X54902Y-35992D01*
X55098Y-35992D01*
X55279Y-35917D01*
X55417Y-35779D01*
X55492Y-35598D01*
X55492Y-36402D01*
X55417Y-36221D01*
X55279Y-36083D01*
X55098Y-36008D01*
X54902Y-36008D01*
X54721Y-36083D01*
X54583Y-36221D01*
X54508Y-36402D01*
X54508Y-36598D01*
X54583Y-36779D01*
X54721Y-36917D01*
X54902Y-36992D01*
X55098Y-36992D01*
X55279Y-36917D01*
X55417Y-36779D01*
X55492Y-36598D01*
X55492Y-39402D01*
X55417Y-39221D01*
X55279Y-39083D01*
X55098Y-39008D01*
X54902Y-39008D01*
X54897Y-39010D01*
X54897Y-38179D01*
X54897Y-37822D01*
X54761Y-37492D01*
X54508Y-37240D01*
X54492Y-37233D01*
X54492Y-36598D01*
X54492Y-36402D01*
X54492Y-35598D01*
X54492Y-35402D01*
X54492Y-34598D01*
X54492Y-34402D01*
X54492Y-33598D01*
X54492Y-33402D01*
X54492Y-32598D01*
X54492Y-32402D01*
X54417Y-32221D01*
X54279Y-32083D01*
X54098Y-32008D01*
X53902Y-32008D01*
X53721Y-32083D01*
X53583Y-32221D01*
X53508Y-32402D01*
X53508Y-32598D01*
X53583Y-32779D01*
X53721Y-32917D01*
X53902Y-32992D01*
X54098Y-32992D01*
X54279Y-32917D01*
X54417Y-32779D01*
X54492Y-32598D01*
X54492Y-33402D01*
X54417Y-33221D01*
X54279Y-33083D01*
X54098Y-33008D01*
X53902Y-33008D01*
X53721Y-33083D01*
X53583Y-33221D01*
X53508Y-33402D01*
X53508Y-33598D01*
X53583Y-33779D01*
X53721Y-33917D01*
X53902Y-33992D01*
X54098Y-33992D01*
X54279Y-33917D01*
X54417Y-33779D01*
X54492Y-33598D01*
X54492Y-34402D01*
X54417Y-34221D01*
X54279Y-34083D01*
X54098Y-34008D01*
X53902Y-34008D01*
X53721Y-34083D01*
X53583Y-34221D01*
X53508Y-34402D01*
X53508Y-34598D01*
X53583Y-34779D01*
X53721Y-34917D01*
X53902Y-34992D01*
X54098Y-34992D01*
X54279Y-34917D01*
X54417Y-34779D01*
X54492Y-34598D01*
X54492Y-35402D01*
X54417Y-35221D01*
X54279Y-35083D01*
X54098Y-35008D01*
X53902Y-35008D01*
X53721Y-35083D01*
X53583Y-35221D01*
X53508Y-35402D01*
X53508Y-35598D01*
X53583Y-35779D01*
X53721Y-35917D01*
X53902Y-35992D01*
X54098Y-35992D01*
X54279Y-35917D01*
X54417Y-35779D01*
X54492Y-35598D01*
X54492Y-36402D01*
X54417Y-36221D01*
X54279Y-36083D01*
X54098Y-36008D01*
X53902Y-36008D01*
X53721Y-36083D01*
X53583Y-36221D01*
X53508Y-36402D01*
X53508Y-36598D01*
X53583Y-36779D01*
X53721Y-36917D01*
X53902Y-36992D01*
X54098Y-36992D01*
X54279Y-36917D01*
X54417Y-36779D01*
X54492Y-36598D01*
X54492Y-37233D01*
X54179Y-37103D01*
X53822Y-37103D01*
X53492Y-37239D01*
X53240Y-37492D01*
X53103Y-37821D01*
X53103Y-38178D01*
X53239Y-38508D01*
X53492Y-38760D01*
X53821Y-38897D01*
X54178Y-38897D01*
X54508Y-38761D01*
X54760Y-38508D01*
X54897Y-38179D01*
X54897Y-39010D01*
X54721Y-39083D01*
X54583Y-39221D01*
X54508Y-39402D01*
X54508Y-39598D01*
X54583Y-39779D01*
X54721Y-39917D01*
X54902Y-39992D01*
X55098Y-39992D01*
X55279Y-39917D01*
X55417Y-39779D01*
X55492Y-39598D01*
X55492Y-40402D01*
X55417Y-40221D01*
X55279Y-40083D01*
X55098Y-40008D01*
X54902Y-40008D01*
X54721Y-40083D01*
X54583Y-40221D01*
X54508Y-40402D01*
X54508Y-40598D01*
X54583Y-40779D01*
X54721Y-40917D01*
X54902Y-40992D01*
X55098Y-40992D01*
X55279Y-40917D01*
X55417Y-40779D01*
X55492Y-40598D01*
X55492Y-41402D01*
X55417Y-41221D01*
X55279Y-41083D01*
X55098Y-41008D01*
X54902Y-41008D01*
X54721Y-41083D01*
X54583Y-41221D01*
X54508Y-41402D01*
X54508Y-41598D01*
X54583Y-41779D01*
X54721Y-41917D01*
X54902Y-41992D01*
X55098Y-41992D01*
X55279Y-41917D01*
X55417Y-41779D01*
X55492Y-41598D01*
X55492Y-42402D01*
X55417Y-42221D01*
X55279Y-42083D01*
X55098Y-42008D01*
X54902Y-42008D01*
X54721Y-42083D01*
X54583Y-42221D01*
X54508Y-42402D01*
X54508Y-42598D01*
X54583Y-42779D01*
X54721Y-42917D01*
X54902Y-42992D01*
X55098Y-42992D01*
X55279Y-42917D01*
X55417Y-42779D01*
X55492Y-42598D01*
X55492Y-43402D01*
X55417Y-43221D01*
X55279Y-43083D01*
X55098Y-43008D01*
X54902Y-43008D01*
X54721Y-43083D01*
X54583Y-43221D01*
X54508Y-43402D01*
X54508Y-43598D01*
X54583Y-43779D01*
X54721Y-43917D01*
X54902Y-43992D01*
X55098Y-43992D01*
X55279Y-43917D01*
X55417Y-43779D01*
X55492Y-43598D01*
X55492Y-45499D01*
X55373Y-45506D01*
X55241Y-45560D01*
X55204Y-45635D01*
X55500Y-45931D01*
X55796Y-45635D01*
X55796Y-45773D01*
X55569Y-46000D01*
X55865Y-46296D01*
X55940Y-46259D01*
X56003Y-46076D01*
X56006Y-46127D01*
X56060Y-46259D01*
X56135Y-46296D01*
X56431Y-46000D01*
X56431Y-46138D01*
X56204Y-46365D01*
X56241Y-46440D01*
X56429Y-46505D01*
X56627Y-46494D01*
X56759Y-46440D01*
X56796Y-46365D01*
X56796Y-46528D01*
X55796Y-46528D01*
X55796Y-46365D01*
X55500Y-46069D01*
X55431Y-46138D01*
X55431Y-46000D01*
X55135Y-45704D01*
X55060Y-45741D01*
X54996Y-45923D01*
X54994Y-45873D01*
X54940Y-45741D01*
X54865Y-45704D01*
X54796Y-45773D01*
X54796Y-45635D01*
X54759Y-45560D01*
X54571Y-45495D01*
X54492Y-45499D01*
X54492Y-43598D01*
X54492Y-43402D01*
X54492Y-42598D01*
X54492Y-42402D01*
X54492Y-41598D01*
X54492Y-41402D01*
X54492Y-40598D01*
X54492Y-40402D01*
X54492Y-39598D01*
X54492Y-39402D01*
X54417Y-39221D01*
X54279Y-39083D01*
X54098Y-39008D01*
X53902Y-39008D01*
X53721Y-39083D01*
X53583Y-39221D01*
X53508Y-39402D01*
X53508Y-39598D01*
X53583Y-39779D01*
X53721Y-39917D01*
X53902Y-39992D01*
X54098Y-39992D01*
X54279Y-39917D01*
X54417Y-39779D01*
X54492Y-39598D01*
X54492Y-40402D01*
X54417Y-40221D01*
X54279Y-40083D01*
X54098Y-40008D01*
X53902Y-40008D01*
X53721Y-40083D01*
X53583Y-40221D01*
X53508Y-40402D01*
X53508Y-40598D01*
X53583Y-40779D01*
X53721Y-40917D01*
X53902Y-40992D01*
X54098Y-40992D01*
X54279Y-40917D01*
X54417Y-40779D01*
X54492Y-40598D01*
X54492Y-41402D01*
X54417Y-41221D01*
X54279Y-41083D01*
X54098Y-41008D01*
X53902Y-41008D01*
X53721Y-41083D01*
X53583Y-41221D01*
X53508Y-41402D01*
X53508Y-41598D01*
X53583Y-41779D01*
X53721Y-41917D01*
X53902Y-41992D01*
X54098Y-41992D01*
X54279Y-41917D01*
X54417Y-41779D01*
X54492Y-41598D01*
X54492Y-42402D01*
X54417Y-42221D01*
X54279Y-42083D01*
X54098Y-42008D01*
X53902Y-42008D01*
X53721Y-42083D01*
X53583Y-42221D01*
X53508Y-42402D01*
X53508Y-42598D01*
X53583Y-42779D01*
X53721Y-42917D01*
X53902Y-42992D01*
X54098Y-42992D01*
X54279Y-42917D01*
X54417Y-42779D01*
X54492Y-42598D01*
X54492Y-43402D01*
X54417Y-43221D01*
X54279Y-43083D01*
X54098Y-43008D01*
X53902Y-43008D01*
X53721Y-43083D01*
X53583Y-43221D01*
X53508Y-43402D01*
X53508Y-43598D01*
X53583Y-43779D01*
X53721Y-43917D01*
X53902Y-43992D01*
X54098Y-43992D01*
X54279Y-43917D01*
X54417Y-43779D01*
X54492Y-43598D01*
X54492Y-45499D01*
X54373Y-45506D01*
X54241Y-45560D01*
X54204Y-45635D01*
X54500Y-45931D01*
X54796Y-45635D01*
X54796Y-45773D01*
X54569Y-46000D01*
X54865Y-46296D01*
X54940Y-46259D01*
X55003Y-46076D01*
X55006Y-46127D01*
X55060Y-46259D01*
X55135Y-46296D01*
X55431Y-46000D01*
X55431Y-46138D01*
X55204Y-46365D01*
X55241Y-46440D01*
X55429Y-46505D01*
X55627Y-46494D01*
X55759Y-46440D01*
X55796Y-46365D01*
X55796Y-46528D01*
X54796Y-46528D01*
X54796Y-46365D01*
X54500Y-46069D01*
X54431Y-46138D01*
X54431Y-46000D01*
X54135Y-45704D01*
X54060Y-45741D01*
X53995Y-45929D01*
X54006Y-46127D01*
X54060Y-46259D01*
X54135Y-46296D01*
X54431Y-46000D01*
X54431Y-46138D01*
X54204Y-46365D01*
X54241Y-46440D01*
X54429Y-46505D01*
X54627Y-46494D01*
X54759Y-46440D01*
X54796Y-46365D01*
X54796Y-46528D01*
X53772Y-46528D01*
X53358Y-46445D01*
X53024Y-46222D01*
X52803Y-45889D01*
X52722Y-45477D01*
X52722Y-30522D01*
X52803Y-30110D01*
X53024Y-29777D01*
X53358Y-29554D01*
X53772Y-29472D01*
X70227Y-29472D01*
X70639Y-29553D01*
X70972Y-29774D01*
X71195Y-30108D01*
X71278Y-30522D01*
X71278Y-45477D01*
X71278Y-45477D01*
G37*
G54D15*
X71278Y-45477D02*
X71195Y-45891D01*
X70972Y-46225D01*
X70897Y-46274D01*
X70897Y-38179D01*
X70897Y-37822D01*
X70761Y-37492D01*
X70508Y-37240D01*
X70492Y-37233D01*
X70492Y-36598D01*
X70492Y-36402D01*
X70492Y-35598D01*
X70492Y-35402D01*
X70492Y-34598D01*
X70492Y-34402D01*
X70492Y-33598D01*
X70492Y-33402D01*
X70492Y-32598D01*
X70492Y-32402D01*
X70417Y-32221D01*
X70279Y-32083D01*
X70098Y-32008D01*
X69992Y-32008D01*
X69992Y-30098D01*
X69992Y-29902D01*
X69917Y-29721D01*
X69779Y-29583D01*
X69598Y-29508D01*
X69402Y-29508D01*
X69221Y-29583D01*
X69083Y-29721D01*
X69008Y-29902D01*
X69008Y-30098D01*
X69083Y-30279D01*
X69221Y-30417D01*
X69402Y-30492D01*
X69598Y-30492D01*
X69779Y-30417D01*
X69917Y-30279D01*
X69992Y-30098D01*
X69992Y-32008D01*
X69902Y-32008D01*
X69721Y-32083D01*
X69583Y-32221D01*
X69508Y-32402D01*
X69508Y-32598D01*
X69583Y-32779D01*
X69721Y-32917D01*
X69902Y-32992D01*
X70098Y-32992D01*
X70279Y-32917D01*
X70417Y-32779D01*
X70492Y-32598D01*
X70492Y-33402D01*
X70417Y-33221D01*
X70279Y-33083D01*
X70098Y-33008D01*
X69902Y-33008D01*
X69721Y-33083D01*
X69583Y-33221D01*
X69508Y-33402D01*
X69508Y-33598D01*
X69583Y-33779D01*
X69721Y-33917D01*
X69902Y-33992D01*
X70098Y-33992D01*
X70279Y-33917D01*
X70417Y-33779D01*
X70492Y-33598D01*
X70492Y-34402D01*
X70417Y-34221D01*
X70279Y-34083D01*
X70098Y-34008D01*
X69902Y-34008D01*
X69721Y-34083D01*
X69583Y-34221D01*
X69508Y-34402D01*
X69508Y-34598D01*
X69583Y-34779D01*
X69721Y-34917D01*
X69902Y-34992D01*
X70098Y-34992D01*
X70279Y-34917D01*
X70417Y-34779D01*
X70492Y-34598D01*
X70492Y-35402D01*
X70417Y-35221D01*
X70279Y-35083D01*
X70098Y-35008D01*
X69902Y-35008D01*
X69721Y-35083D01*
X69583Y-35221D01*
X69508Y-35402D01*
X69508Y-35598D01*
X69583Y-35779D01*
X69721Y-35917D01*
X69902Y-35992D01*
X70098Y-35992D01*
X70279Y-35917D01*
X70417Y-35779D01*
X70492Y-35598D01*
X70492Y-36402D01*
X70417Y-36221D01*
X70279Y-36083D01*
X70098Y-36008D01*
X69902Y-36008D01*
X69721Y-36083D01*
X69583Y-36221D01*
X69508Y-36402D01*
X69508Y-36598D01*
X69583Y-36779D01*
X69721Y-36917D01*
X69902Y-36992D01*
X70098Y-36992D01*
X70279Y-36917D01*
X70417Y-36779D01*
X70492Y-36598D01*
X70492Y-37233D01*
X70179Y-37103D01*
X69822Y-37103D01*
X69492Y-37239D01*
X69492Y-36598D01*
X69492Y-36402D01*
X69492Y-35598D01*
X69492Y-35402D01*
X69492Y-34598D01*
X69492Y-34402D01*
X69492Y-33598D01*
X69492Y-33402D01*
X69492Y-32598D01*
X69492Y-32402D01*
X69417Y-32221D01*
X69279Y-32083D01*
X69098Y-32008D01*
X68992Y-32008D01*
X68992Y-30098D01*
X68992Y-29902D01*
X68917Y-29721D01*
X68779Y-29583D01*
X68598Y-29508D01*
X68402Y-29508D01*
X68221Y-29583D01*
X68083Y-29721D01*
X68008Y-29902D01*
X68008Y-30098D01*
X68083Y-30279D01*
X68221Y-30417D01*
X68402Y-30492D01*
X68598Y-30492D01*
X68779Y-30417D01*
X68917Y-30279D01*
X68992Y-30098D01*
X68992Y-32008D01*
X68902Y-32008D01*
X68721Y-32083D01*
X68583Y-32221D01*
X68508Y-32402D01*
X68508Y-32598D01*
X68583Y-32779D01*
X68721Y-32917D01*
X68902Y-32992D01*
X69098Y-32992D01*
X69279Y-32917D01*
X69417Y-32779D01*
X69492Y-32598D01*
X69492Y-33402D01*
X69417Y-33221D01*
X69279Y-33083D01*
X69098Y-33008D01*
X68902Y-33008D01*
X68721Y-33083D01*
X68583Y-33221D01*
X68508Y-33402D01*
X68508Y-33598D01*
X68583Y-33779D01*
X68721Y-33917D01*
X68902Y-33992D01*
X69098Y-33992D01*
X69279Y-33917D01*
X69417Y-33779D01*
X69492Y-33598D01*
X69492Y-34402D01*
X69417Y-34221D01*
X69279Y-34083D01*
X69098Y-34008D01*
X68902Y-34008D01*
X68721Y-34083D01*
X68583Y-34221D01*
X68508Y-34402D01*
X68508Y-34598D01*
X68583Y-34779D01*
X68721Y-34917D01*
X68902Y-34992D01*
X69098Y-34992D01*
X69279Y-34917D01*
X69417Y-34779D01*
X69492Y-34598D01*
X69492Y-35402D01*
X69417Y-35221D01*
X69279Y-35083D01*
X69098Y-35008D01*
X68902Y-35008D01*
X68721Y-35083D01*
X68583Y-35221D01*
X68508Y-35402D01*
X68508Y-35598D01*
X68583Y-35779D01*
X68721Y-35917D01*
X68902Y-35992D01*
X69098Y-35992D01*
X69279Y-35917D01*
X69417Y-35779D01*
X69492Y-35598D01*
X69492Y-36402D01*
X69417Y-36221D01*
X69279Y-36083D01*
X69098Y-36008D01*
X68902Y-36008D01*
X68721Y-36083D01*
X68583Y-36221D01*
X68508Y-36402D01*
X68508Y-36598D01*
X68583Y-36779D01*
X68721Y-36917D01*
X68902Y-36992D01*
X69098Y-36992D01*
X69279Y-36917D01*
X69417Y-36779D01*
X69492Y-36598D01*
X69492Y-37239D01*
X69240Y-37492D01*
X69103Y-37821D01*
X69103Y-38178D01*
X69239Y-38508D01*
X69492Y-38760D01*
X69821Y-38897D01*
X70178Y-38897D01*
X70508Y-38761D01*
X70760Y-38508D01*
X70897Y-38179D01*
X70897Y-46274D01*
X70639Y-46446D01*
X70492Y-46475D01*
X70492Y-43598D01*
X70492Y-43402D01*
X70492Y-42598D01*
X70492Y-42402D01*
X70492Y-41598D01*
X70492Y-41402D01*
X70492Y-40598D01*
X70492Y-40402D01*
X70492Y-39598D01*
X70492Y-39402D01*
X70417Y-39221D01*
X70279Y-39083D01*
X70098Y-39008D01*
X69902Y-39008D01*
X69721Y-39083D01*
X69583Y-39221D01*
X69508Y-39402D01*
X69508Y-39598D01*
X69583Y-39779D01*
X69721Y-39917D01*
X69902Y-39992D01*
X70098Y-39992D01*
X70279Y-39917D01*
X70417Y-39779D01*
X70492Y-39598D01*
X70492Y-40402D01*
X70417Y-40221D01*
X70279Y-40083D01*
X70098Y-40008D01*
X69902Y-40008D01*
X69721Y-40083D01*
X69583Y-40221D01*
X69508Y-40402D01*
X69508Y-40598D01*
X69583Y-40779D01*
X69721Y-40917D01*
X69902Y-40992D01*
X70098Y-40992D01*
X70279Y-40917D01*
X70417Y-40779D01*
X70492Y-40598D01*
X70492Y-41402D01*
X70417Y-41221D01*
X70279Y-41083D01*
X70098Y-41008D01*
X69902Y-41008D01*
X69721Y-41083D01*
X69583Y-41221D01*
X69508Y-41402D01*
X69508Y-41598D01*
X69583Y-41779D01*
X69721Y-41917D01*
X69902Y-41992D01*
X70098Y-41992D01*
X70279Y-41917D01*
X70417Y-41779D01*
X70492Y-41598D01*
X70492Y-42402D01*
X70417Y-42221D01*
X70279Y-42083D01*
X70098Y-42008D01*
X69902Y-42008D01*
X69721Y-42083D01*
X69583Y-42221D01*
X69508Y-42402D01*
X69508Y-42598D01*
X69583Y-42779D01*
X69721Y-42917D01*
X69902Y-42992D01*
X70098Y-42992D01*
X70279Y-42917D01*
X70417Y-42779D01*
X70492Y-42598D01*
X70492Y-43402D01*
X70417Y-43221D01*
X70279Y-43083D01*
X70098Y-43008D01*
X69902Y-43008D01*
X69721Y-43083D01*
X69583Y-43221D01*
X69508Y-43402D01*
X69508Y-43598D01*
X69583Y-43779D01*
X69721Y-43917D01*
X69902Y-43992D01*
X70098Y-43992D01*
X70279Y-43917D01*
X70417Y-43779D01*
X70492Y-43598D01*
X70492Y-46475D01*
X70227Y-46528D01*
X70005Y-46528D01*
X70005Y-46071D01*
X69994Y-45873D01*
X69940Y-45741D01*
X69865Y-45704D01*
X69796Y-45773D01*
X69796Y-45635D01*
X69759Y-45560D01*
X69571Y-45495D01*
X69492Y-45499D01*
X69492Y-43598D01*
X69492Y-43402D01*
X69492Y-42598D01*
X69492Y-42402D01*
X69492Y-41598D01*
X69492Y-41402D01*
X69492Y-40598D01*
X69492Y-40402D01*
X69492Y-39598D01*
X69492Y-39402D01*
X69417Y-39221D01*
X69279Y-39083D01*
X69098Y-39008D01*
X68902Y-39008D01*
X68721Y-39083D01*
X68583Y-39221D01*
X68508Y-39402D01*
X68508Y-39598D01*
X68583Y-39779D01*
X68721Y-39917D01*
X68902Y-39992D01*
X69098Y-39992D01*
X69279Y-39917D01*
X69417Y-39779D01*
X69492Y-39598D01*
X69492Y-40402D01*
X69417Y-40221D01*
X69279Y-40083D01*
X69098Y-40008D01*
X68902Y-40008D01*
X68721Y-40083D01*
X68583Y-40221D01*
X68508Y-40402D01*
X68508Y-40598D01*
X68583Y-40779D01*
X68721Y-40917D01*
X68902Y-40992D01*
X69098Y-40992D01*
X69279Y-40917D01*
X69417Y-40779D01*
X69492Y-40598D01*
X69492Y-41402D01*
X69417Y-41221D01*
X69279Y-41083D01*
X69098Y-41008D01*
X68902Y-41008D01*
X68721Y-41083D01*
X68583Y-41221D01*
X68508Y-41402D01*
X68508Y-41598D01*
X68583Y-41779D01*
X68721Y-41917D01*
X68902Y-41992D01*
X69098Y-41992D01*
X69279Y-41917D01*
X69417Y-41779D01*
X69492Y-41598D01*
X69492Y-42402D01*
X69417Y-42221D01*
X69279Y-42083D01*
X69098Y-42008D01*
X68902Y-42008D01*
X68721Y-42083D01*
X68583Y-42221D01*
X68508Y-42402D01*
X68508Y-42598D01*
X68583Y-42779D01*
X68721Y-42917D01*
X68902Y-42992D01*
X69098Y-42992D01*
X69279Y-42917D01*
X69417Y-42779D01*
X69492Y-42598D01*
X69492Y-43402D01*
X69417Y-43221D01*
X69279Y-43083D01*
X69098Y-43008D01*
X68902Y-43008D01*
X68721Y-43083D01*
X68583Y-43221D01*
X68508Y-43402D01*
X68508Y-43598D01*
X68583Y-43779D01*
X68721Y-43917D01*
X68902Y-43992D01*
X69098Y-43992D01*
X69279Y-43917D01*
X69417Y-43779D01*
X69492Y-43598D01*
X69492Y-45499D01*
X69373Y-45506D01*
X69241Y-45560D01*
X69204Y-45635D01*
X69500Y-45931D01*
X69796Y-45635D01*
X69796Y-45773D01*
X69569Y-46000D01*
X69865Y-46296D01*
X69940Y-46259D01*
X70005Y-46071D01*
X70005Y-46528D01*
X69796Y-46528D01*
X69796Y-46365D01*
X69500Y-46069D01*
X69431Y-46138D01*
X69431Y-46000D01*
X69135Y-45704D01*
X69060Y-45741D01*
X68996Y-45923D01*
X68994Y-45873D01*
X68940Y-45741D01*
X68865Y-45704D01*
X68796Y-45773D01*
X68796Y-45635D01*
X68759Y-45560D01*
X68571Y-45495D01*
X68492Y-45499D01*
X68492Y-43598D01*
X68492Y-43402D01*
X68492Y-42598D01*
X68492Y-42402D01*
X68492Y-41598D01*
X68492Y-41402D01*
X68492Y-40598D01*
X68492Y-40402D01*
X68492Y-39598D01*
X68492Y-39402D01*
X68492Y-36598D01*
X68492Y-36402D01*
X68492Y-35598D01*
X68492Y-35402D01*
X68492Y-34598D01*
X68492Y-34402D01*
X68492Y-33598D01*
X68492Y-33402D01*
X68492Y-32598D01*
X68492Y-32402D01*
X68417Y-32221D01*
X68279Y-32083D01*
X68098Y-32008D01*
X67992Y-32008D01*
X67992Y-30098D01*
X67992Y-29902D01*
X67917Y-29721D01*
X67779Y-29583D01*
X67598Y-29508D01*
X67402Y-29508D01*
X67221Y-29583D01*
X67083Y-29721D01*
X67008Y-29902D01*
X67008Y-30098D01*
X67083Y-30279D01*
X67221Y-30417D01*
X67402Y-30492D01*
X67598Y-30492D01*
X67779Y-30417D01*
X67917Y-30279D01*
X67992Y-30098D01*
X67992Y-32008D01*
X67902Y-32008D01*
X67721Y-32083D01*
X67583Y-32221D01*
X67508Y-32402D01*
X67508Y-32598D01*
X67583Y-32779D01*
X67721Y-32917D01*
X67902Y-32992D01*
X68098Y-32992D01*
X68279Y-32917D01*
X68417Y-32779D01*
X68492Y-32598D01*
X68492Y-33402D01*
X68417Y-33221D01*
X68279Y-33083D01*
X68098Y-33008D01*
X67902Y-33008D01*
X67721Y-33083D01*
X67583Y-33221D01*
X67508Y-33402D01*
X67508Y-33598D01*
X67583Y-33779D01*
X67721Y-33917D01*
X67902Y-33992D01*
X68098Y-33992D01*
X68279Y-33917D01*
X68417Y-33779D01*
X68492Y-33598D01*
X68492Y-34402D01*
X68417Y-34221D01*
X68279Y-34083D01*
X68098Y-34008D01*
X67902Y-34008D01*
X67721Y-34083D01*
X67583Y-34221D01*
X67508Y-34402D01*
X67508Y-34598D01*
X67583Y-34779D01*
X67721Y-34917D01*
X67902Y-34992D01*
X68098Y-34992D01*
X68279Y-34917D01*
X68417Y-34779D01*
X68492Y-34598D01*
X68492Y-35402D01*
X68417Y-35221D01*
X68279Y-35083D01*
X68098Y-35008D01*
X67902Y-35008D01*
X67721Y-35083D01*
X67583Y-35221D01*
X67508Y-35402D01*
X67508Y-35598D01*
X67583Y-35779D01*
X67721Y-35917D01*
X67902Y-35992D01*
X68098Y-35992D01*
X68279Y-35917D01*
X68417Y-35779D01*
X68492Y-35598D01*
X68492Y-36402D01*
X68417Y-36221D01*
X68279Y-36083D01*
X68098Y-36008D01*
X67902Y-36008D01*
X67721Y-36083D01*
X67583Y-36221D01*
X67508Y-36402D01*
X67508Y-36598D01*
X67583Y-36779D01*
X67721Y-36917D01*
X67902Y-36992D01*
X68098Y-36992D01*
X68279Y-36917D01*
X68417Y-36779D01*
X68492Y-36598D01*
X68492Y-39402D01*
X68417Y-39221D01*
X68279Y-39083D01*
X68098Y-39008D01*
X67902Y-39008D01*
X67721Y-39083D01*
X67583Y-39221D01*
X67508Y-39402D01*
X67508Y-39598D01*
X67583Y-39779D01*
X67721Y-39917D01*
X67902Y-39992D01*
X68098Y-39992D01*
X68279Y-39917D01*
X68417Y-39779D01*
X68492Y-39598D01*
X68492Y-40402D01*
X68417Y-40221D01*
X68279Y-40083D01*
X68098Y-40008D01*
X67902Y-40008D01*
X67721Y-40083D01*
X67583Y-40221D01*
X67508Y-40402D01*
X67508Y-40598D01*
X67583Y-40779D01*
X67721Y-40917D01*
X67902Y-40992D01*
X68098Y-40992D01*
X68279Y-40917D01*
X68417Y-40779D01*
X68492Y-40598D01*
X68492Y-41402D01*
X68417Y-41221D01*
X68279Y-41083D01*
X68098Y-41008D01*
X67902Y-41008D01*
X67721Y-41083D01*
X67583Y-41221D01*
X67508Y-41402D01*
X67508Y-41598D01*
X67583Y-41779D01*
X67721Y-41917D01*
X67902Y-41992D01*
X68098Y-41992D01*
X68279Y-41917D01*
X68417Y-41779D01*
X68492Y-41598D01*
X68492Y-42402D01*
X68417Y-42221D01*
X68279Y-42083D01*
X68098Y-42008D01*
X67902Y-42008D01*
X67721Y-42083D01*
X67583Y-42221D01*
X67508Y-42402D01*
X67508Y-42598D01*
X67583Y-42779D01*
X67721Y-42917D01*
X67902Y-42992D01*
X68098Y-42992D01*
X68279Y-42917D01*
X68417Y-42779D01*
X68492Y-42598D01*
X68492Y-43402D01*
X68417Y-43221D01*
X68279Y-43083D01*
X68098Y-43008D01*
X67902Y-43008D01*
X67721Y-43083D01*
X67583Y-43221D01*
X67508Y-43402D01*
X67508Y-43598D01*
X67583Y-43779D01*
X67721Y-43917D01*
X67902Y-43992D01*
X68098Y-43992D01*
X68279Y-43917D01*
X68417Y-43779D01*
X68492Y-43598D01*
X68492Y-45499D01*
X68373Y-45506D01*
X68241Y-45560D01*
X68204Y-45635D01*
X68500Y-45931D01*
X68796Y-45635D01*
X68796Y-45773D01*
X68569Y-46000D01*
X68865Y-46296D01*
X68940Y-46259D01*
X69003Y-46076D01*
X69006Y-46127D01*
X69060Y-46259D01*
X69135Y-46296D01*
X69431Y-46000D01*
X69431Y-46138D01*
X69204Y-46365D01*
X69241Y-46440D01*
X69429Y-46505D01*
X69627Y-46494D01*
X69759Y-46440D01*
X69796Y-46365D01*
X69796Y-46528D01*
X68796Y-46528D01*
X68796Y-46365D01*
X68500Y-46069D01*
X68431Y-46138D01*
X68431Y-46000D01*
X68135Y-45704D01*
X68060Y-45741D01*
X67996Y-45923D01*
X67994Y-45873D01*
X67940Y-45741D01*
X67865Y-45704D01*
X67796Y-45773D01*
X67796Y-45635D01*
X67759Y-45560D01*
X67571Y-45495D01*
X67492Y-45499D01*
X67492Y-43598D01*
X67492Y-43402D01*
X67492Y-42598D01*
X67492Y-42402D01*
X67492Y-41598D01*
X67492Y-41402D01*
X67492Y-40598D01*
X67492Y-40402D01*
X67492Y-39598D01*
X67492Y-39402D01*
X67492Y-36598D01*
X67492Y-36402D01*
X67492Y-35598D01*
X67492Y-35402D01*
X67492Y-34598D01*
X67492Y-34402D01*
X67492Y-33598D01*
X67492Y-33402D01*
X67492Y-32598D01*
X67492Y-32402D01*
X67417Y-32221D01*
X67279Y-32083D01*
X67098Y-32008D01*
X66992Y-32008D01*
X66992Y-30098D01*
X66992Y-29902D01*
X66917Y-29721D01*
X66779Y-29583D01*
X66598Y-29508D01*
X66402Y-29508D01*
X66221Y-29583D01*
X66083Y-29721D01*
X66008Y-29902D01*
X66008Y-30098D01*
X66083Y-30279D01*
X66221Y-30417D01*
X66402Y-30492D01*
X66598Y-30492D01*
X66779Y-30417D01*
X66917Y-30279D01*
X66992Y-30098D01*
X66992Y-32008D01*
X66902Y-32008D01*
X66721Y-32083D01*
X66583Y-32221D01*
X66508Y-32402D01*
X66508Y-32598D01*
X66583Y-32779D01*
X66721Y-32917D01*
X66902Y-32992D01*
X67098Y-32992D01*
X67279Y-32917D01*
X67417Y-32779D01*
X67492Y-32598D01*
X67492Y-33402D01*
X67417Y-33221D01*
X67279Y-33083D01*
X67098Y-33008D01*
X66902Y-33008D01*
X66721Y-33083D01*
X66583Y-33221D01*
X66508Y-33402D01*
X66508Y-33598D01*
X66583Y-33779D01*
X66721Y-33917D01*
X66902Y-33992D01*
X67098Y-33992D01*
X67279Y-33917D01*
X67417Y-33779D01*
X67492Y-33598D01*
X67492Y-34402D01*
X67417Y-34221D01*
X67279Y-34083D01*
X67098Y-34008D01*
X66902Y-34008D01*
X66721Y-34083D01*
X66583Y-34221D01*
X66508Y-34402D01*
X66508Y-34598D01*
X66583Y-34779D01*
X66721Y-34917D01*
X66902Y-34992D01*
X67098Y-34992D01*
X67279Y-34917D01*
X67417Y-34779D01*
X67492Y-34598D01*
X67492Y-35402D01*
X67417Y-35221D01*
X67279Y-35083D01*
X67098Y-35008D01*
X66902Y-35008D01*
X66721Y-35083D01*
X66583Y-35221D01*
X66508Y-35402D01*
X66508Y-35598D01*
X66583Y-35779D01*
X66721Y-35917D01*
X66902Y-35992D01*
X67098Y-35992D01*
X67279Y-35917D01*
X67417Y-35779D01*
X67492Y-35598D01*
X67492Y-36402D01*
X67417Y-36221D01*
X67279Y-36083D01*
X67098Y-36008D01*
X66902Y-36008D01*
X66721Y-36083D01*
X66583Y-36221D01*
X66508Y-36402D01*
X66508Y-36598D01*
X66583Y-36779D01*
X66721Y-36917D01*
X66902Y-36992D01*
X67098Y-36992D01*
X67279Y-36917D01*
X67417Y-36779D01*
X67492Y-36598D01*
X67492Y-39402D01*
X67417Y-39221D01*
X67279Y-39083D01*
X67098Y-39008D01*
X66902Y-39008D01*
X66721Y-39083D01*
X66583Y-39221D01*
X66508Y-39402D01*
X66508Y-39598D01*
X66583Y-39779D01*
X66721Y-39917D01*
X66902Y-39992D01*
X67098Y-39992D01*
X67279Y-39917D01*
X67417Y-39779D01*
X67492Y-39598D01*
X67492Y-40402D01*
X67417Y-40221D01*
X67279Y-40083D01*
X67098Y-40008D01*
X66902Y-40008D01*
X66721Y-40083D01*
X66583Y-40221D01*
X66508Y-40402D01*
X66508Y-40598D01*
X66583Y-40779D01*
X66721Y-40917D01*
X66902Y-40992D01*
X67098Y-40992D01*
X67279Y-40917D01*
X67417Y-40779D01*
X67492Y-40598D01*
X67492Y-41402D01*
X67417Y-41221D01*
X67279Y-41083D01*
X67098Y-41008D01*
X66902Y-41008D01*
X66721Y-41083D01*
X66583Y-41221D01*
X66508Y-41402D01*
X66508Y-41598D01*
X66583Y-41779D01*
X66721Y-41917D01*
X66902Y-41992D01*
X67098Y-41992D01*
X67279Y-41917D01*
X67417Y-41779D01*
X67492Y-41598D01*
X67492Y-42402D01*
X67417Y-42221D01*
X67279Y-42083D01*
X67098Y-42008D01*
X66902Y-42008D01*
X66721Y-42083D01*
X66583Y-42221D01*
X66508Y-42402D01*
X66508Y-42598D01*
X66583Y-42779D01*
X66721Y-42917D01*
X66902Y-42992D01*
X67098Y-42992D01*
X67279Y-42917D01*
X67417Y-42779D01*
X67492Y-42598D01*
X67492Y-43402D01*
X67417Y-43221D01*
X67279Y-43083D01*
X67098Y-43008D01*
X66902Y-43008D01*
X66721Y-43083D01*
X66583Y-43221D01*
X66508Y-43402D01*
X66508Y-43598D01*
X66583Y-43779D01*
X66721Y-43917D01*
X66902Y-43992D01*
X67098Y-43992D01*
X67279Y-43917D01*
X67417Y-43779D01*
X67492Y-43598D01*
X67492Y-45499D01*
X67373Y-45506D01*
X67241Y-45560D01*
X67204Y-45635D01*
X67500Y-45931D01*
X67796Y-45635D01*
X67796Y-45773D01*
X67569Y-46000D01*
X67865Y-46296D01*
X67940Y-46259D01*
X68003Y-46076D01*
X68006Y-46127D01*
X68060Y-46259D01*
X68135Y-46296D01*
X68431Y-46000D01*
X68431Y-46138D01*
X68204Y-46365D01*
X68241Y-46440D01*
X68429Y-46505D01*
X68627Y-46494D01*
X68759Y-46440D01*
X68796Y-46365D01*
X68796Y-46528D01*
X67796Y-46528D01*
X67796Y-46365D01*
X67500Y-46069D01*
X67431Y-46138D01*
X67431Y-46000D01*
X67135Y-45704D01*
X67060Y-45741D01*
X66996Y-45923D01*
X66994Y-45873D01*
X66940Y-45741D01*
X66865Y-45704D01*
X66796Y-45773D01*
X66796Y-45635D01*
X66759Y-45560D01*
X66571Y-45495D01*
X66492Y-45499D01*
X66492Y-43598D01*
X66492Y-43402D01*
X66492Y-42598D01*
X66492Y-42402D01*
X66492Y-41598D01*
X66492Y-41402D01*
X66492Y-40598D01*
X66492Y-40402D01*
X66492Y-39598D01*
X66492Y-39402D01*
X66492Y-36598D01*
X66492Y-36402D01*
X66492Y-35598D01*
X66492Y-35402D01*
X66492Y-34598D01*
X66492Y-34402D01*
X66492Y-33598D01*
X66492Y-33402D01*
X66492Y-32598D01*
X66492Y-32402D01*
X66417Y-32221D01*
X66279Y-32083D01*
X66098Y-32008D01*
X65992Y-32008D01*
X65992Y-30098D01*
X65992Y-29902D01*
X65917Y-29721D01*
X65779Y-29583D01*
X65598Y-29508D01*
X65402Y-29508D01*
X65221Y-29583D01*
X65083Y-29721D01*
X65008Y-29902D01*
X65008Y-30098D01*
X65083Y-30279D01*
X65221Y-30417D01*
X65402Y-30492D01*
X65598Y-30492D01*
X65779Y-30417D01*
X65917Y-30279D01*
X65992Y-30098D01*
X65992Y-32008D01*
X65902Y-32008D01*
X65721Y-32083D01*
X65583Y-32221D01*
X65508Y-32402D01*
X65508Y-32598D01*
X65583Y-32779D01*
X65721Y-32917D01*
X65902Y-32992D01*
X66098Y-32992D01*
X66279Y-32917D01*
X66417Y-32779D01*
X66492Y-32598D01*
X66492Y-33402D01*
X66417Y-33221D01*
X66279Y-33083D01*
X66098Y-33008D01*
X65902Y-33008D01*
X65721Y-33083D01*
X65583Y-33221D01*
X65508Y-33402D01*
X65508Y-33598D01*
X65583Y-33779D01*
X65721Y-33917D01*
X65902Y-33992D01*
X66098Y-33992D01*
X66279Y-33917D01*
X66417Y-33779D01*
X66492Y-33598D01*
X66492Y-34402D01*
X66417Y-34221D01*
X66279Y-34083D01*
X66098Y-34008D01*
X65902Y-34008D01*
X65721Y-34083D01*
X65583Y-34221D01*
X65508Y-34402D01*
X65508Y-34598D01*
X65583Y-34779D01*
X65721Y-34917D01*
X65902Y-34992D01*
X66098Y-34992D01*
X66279Y-34917D01*
X66417Y-34779D01*
X66492Y-34598D01*
X66492Y-35402D01*
X66417Y-35221D01*
X66279Y-35083D01*
X66098Y-35008D01*
X65902Y-35008D01*
X65721Y-35083D01*
X65583Y-35221D01*
X65508Y-35402D01*
X65508Y-35598D01*
X65583Y-35779D01*
X65721Y-35917D01*
X65902Y-35992D01*
X66098Y-35992D01*
X66279Y-35917D01*
X66417Y-35779D01*
X66492Y-35598D01*
X66492Y-36402D01*
X66417Y-36221D01*
X66279Y-36083D01*
X66098Y-36008D01*
X65902Y-36008D01*
X65721Y-36083D01*
X65583Y-36221D01*
X65508Y-36402D01*
X65508Y-36598D01*
X65583Y-36779D01*
X65721Y-36917D01*
X65902Y-36992D01*
X66098Y-36992D01*
X66279Y-36917D01*
X66417Y-36779D01*
X66492Y-36598D01*
X66492Y-39402D01*
X66417Y-39221D01*
X66279Y-39083D01*
X66098Y-39008D01*
X65902Y-39008D01*
X65721Y-39083D01*
X65583Y-39221D01*
X65508Y-39402D01*
X65508Y-39598D01*
X65583Y-39779D01*
X65721Y-39917D01*
X65902Y-39992D01*
X66098Y-39992D01*
X66279Y-39917D01*
X66417Y-39779D01*
X66492Y-39598D01*
X66492Y-40402D01*
X66417Y-40221D01*
X66279Y-40083D01*
X66098Y-40008D01*
X65902Y-40008D01*
X65721Y-40083D01*
X65583Y-40221D01*
X65508Y-40402D01*
X65508Y-40598D01*
X65583Y-40779D01*
X65721Y-40917D01*
X65902Y-40992D01*
X66098Y-40992D01*
X66279Y-40917D01*
X66417Y-40779D01*
X66492Y-40598D01*
X66492Y-41402D01*
X66417Y-41221D01*
X66279Y-41083D01*
X66098Y-41008D01*
X65902Y-41008D01*
X65721Y-41083D01*
X65583Y-41221D01*
X65508Y-41402D01*
X65508Y-41598D01*
X65583Y-41779D01*
X65721Y-41917D01*
X65902Y-41992D01*
X66098Y-41992D01*
X66279Y-41917D01*
X66417Y-41779D01*
X66492Y-41598D01*
X66492Y-42402D01*
X66417Y-42221D01*
X66279Y-42083D01*
X66098Y-42008D01*
X65902Y-42008D01*
X65721Y-42083D01*
X65583Y-42221D01*
X65508Y-42402D01*
X65508Y-42598D01*
X65583Y-42779D01*
X65721Y-42917D01*
X65902Y-42992D01*
X66098Y-42992D01*
X66279Y-42917D01*
X66417Y-42779D01*
X66492Y-42598D01*
X66492Y-43402D01*
X66417Y-43221D01*
X66279Y-43083D01*
X66098Y-43008D01*
X65902Y-43008D01*
X65721Y-43083D01*
X65583Y-43221D01*
X65508Y-43402D01*
X65508Y-43598D01*
X65583Y-43779D01*
X65721Y-43917D01*
X65902Y-43992D01*
X66098Y-43992D01*
X66279Y-43917D01*
X66417Y-43779D01*
X66492Y-43598D01*
X66492Y-45499D01*
X66373Y-45506D01*
X66241Y-45560D01*
X66204Y-45635D01*
X66500Y-45931D01*
X66796Y-45635D01*
X66796Y-45773D01*
X66569Y-46000D01*
X66865Y-46296D01*
X66940Y-46259D01*
X67003Y-46076D01*
X67006Y-46127D01*
X67060Y-46259D01*
X67135Y-46296D01*
X67431Y-46000D01*
X67431Y-46138D01*
X67204Y-46365D01*
X67241Y-46440D01*
X67429Y-46505D01*
X67627Y-46494D01*
X67759Y-46440D01*
X67796Y-46365D01*
X67796Y-46528D01*
X66796Y-46528D01*
X66796Y-46365D01*
X66500Y-46069D01*
X66431Y-46138D01*
X66431Y-46000D01*
X66135Y-45704D01*
X66060Y-45741D01*
X65996Y-45923D01*
X65994Y-45873D01*
X65940Y-45741D01*
X65865Y-45704D01*
X65796Y-45773D01*
X65796Y-45635D01*
X65759Y-45560D01*
X65571Y-45495D01*
X65492Y-45499D01*
X65492Y-43598D01*
X65492Y-43402D01*
X65492Y-42598D01*
X65492Y-42402D01*
X65492Y-41598D01*
X65492Y-41402D01*
X65492Y-40598D01*
X65492Y-40402D01*
X65492Y-39598D01*
X65492Y-39402D01*
X65492Y-36598D01*
X65492Y-36402D01*
X65492Y-35598D01*
X65492Y-35402D01*
X65492Y-34598D01*
X65492Y-34402D01*
X65492Y-33598D01*
X65492Y-33402D01*
X65492Y-32598D01*
X65492Y-32402D01*
X65417Y-32221D01*
X65279Y-32083D01*
X65098Y-32008D01*
X64902Y-32008D01*
X64721Y-32083D01*
X64583Y-32221D01*
X64508Y-32402D01*
X64508Y-32598D01*
X64583Y-32779D01*
X64721Y-32917D01*
X64902Y-32992D01*
X65098Y-32992D01*
X65279Y-32917D01*
X65417Y-32779D01*
X65492Y-32598D01*
X65492Y-33402D01*
X65417Y-33221D01*
X65279Y-33083D01*
X65098Y-33008D01*
X64902Y-33008D01*
X64721Y-33083D01*
X64583Y-33221D01*
X64508Y-33402D01*
X64508Y-33598D01*
X64583Y-33779D01*
X64721Y-33917D01*
X64902Y-33992D01*
X65098Y-33992D01*
X65279Y-33917D01*
X65417Y-33779D01*
X65492Y-33598D01*
X65492Y-34402D01*
X65417Y-34221D01*
X65279Y-34083D01*
X65098Y-34008D01*
X64902Y-34008D01*
X64721Y-34083D01*
X64583Y-34221D01*
X64508Y-34402D01*
X64508Y-34598D01*
X64583Y-34779D01*
X64721Y-34917D01*
X64902Y-34992D01*
X65098Y-34992D01*
X65279Y-34917D01*
X65417Y-34779D01*
X65492Y-34598D01*
X65492Y-35402D01*
X65417Y-35221D01*
X65279Y-35083D01*
X65098Y-35008D01*
X64902Y-35008D01*
X64721Y-35083D01*
X64583Y-35221D01*
X64508Y-35402D01*
X64508Y-35598D01*
X64583Y-35779D01*
X64721Y-35917D01*
X64902Y-35992D01*
X65098Y-35992D01*
X65279Y-35917D01*
X65417Y-35779D01*
X65492Y-35598D01*
X65492Y-36402D01*
X65417Y-36221D01*
X65279Y-36083D01*
X65098Y-36008D01*
X64902Y-36008D01*
X64721Y-36083D01*
X64583Y-36221D01*
X64508Y-36402D01*
X64508Y-36598D01*
X64583Y-36779D01*
X64721Y-36917D01*
X64902Y-36992D01*
X65098Y-36992D01*
X65279Y-36917D01*
X65417Y-36779D01*
X65492Y-36598D01*
X65492Y-39402D01*
X65417Y-39221D01*
X65279Y-39083D01*
X65098Y-39008D01*
X64902Y-39008D01*
X64721Y-39083D01*
X64583Y-39221D01*
X64508Y-39402D01*
X64508Y-39598D01*
X64583Y-39779D01*
X64721Y-39917D01*
X64902Y-39992D01*
X65098Y-39992D01*
X65279Y-39917D01*
X65417Y-39779D01*
X65492Y-39598D01*
X65492Y-40402D01*
X65417Y-40221D01*
X65279Y-40083D01*
X65098Y-40008D01*
X64902Y-40008D01*
X64721Y-40083D01*
X64583Y-40221D01*
X64508Y-40402D01*
X64508Y-40598D01*
X64583Y-40779D01*
X64721Y-40917D01*
X64902Y-40992D01*
X65098Y-40992D01*
X65279Y-40917D01*
X65417Y-40779D01*
X65492Y-40598D01*
X65492Y-41402D01*
X65417Y-41221D01*
X65279Y-41083D01*
X65098Y-41008D01*
X64902Y-41008D01*
X64721Y-41083D01*
X64583Y-41221D01*
X64508Y-41402D01*
X64508Y-41598D01*
X64583Y-41779D01*
X64721Y-41917D01*
X64902Y-41992D01*
X65098Y-41992D01*
X65279Y-41917D01*
X65417Y-41779D01*
X65492Y-41598D01*
X65492Y-42402D01*
X65417Y-42221D01*
X65279Y-42083D01*
X65098Y-42008D01*
X64902Y-42008D01*
X64721Y-42083D01*
X64583Y-42221D01*
X64508Y-42402D01*
X64508Y-42598D01*
X64583Y-42779D01*
X64721Y-42917D01*
X64902Y-42992D01*
X65098Y-42992D01*
X65279Y-42917D01*
X65417Y-42779D01*
X65492Y-42598D01*
X65492Y-43402D01*
X65417Y-43221D01*
X65279Y-43083D01*
X65098Y-43008D01*
X64902Y-43008D01*
X64721Y-43083D01*
X64583Y-43221D01*
X64508Y-43402D01*
X64508Y-43598D01*
X64583Y-43779D01*
X64721Y-43917D01*
X64902Y-43992D01*
X65098Y-43992D01*
X65279Y-43917D01*
X65417Y-43779D01*
X65492Y-43598D01*
X65492Y-45499D01*
X65373Y-45506D01*
X65241Y-45560D01*
X65204Y-45635D01*
X65500Y-45931D01*
X65796Y-45635D01*
X65796Y-45773D01*
X65569Y-46000D01*
X65865Y-46296D01*
X65940Y-46259D01*
X66003Y-46076D01*
X66006Y-46127D01*
X66060Y-46259D01*
X66135Y-46296D01*
X66431Y-46000D01*
X66431Y-46138D01*
X66204Y-46365D01*
X66241Y-46440D01*
X66429Y-46505D01*
X66627Y-46494D01*
X66759Y-46440D01*
X66796Y-46365D01*
X66796Y-46528D01*
X65796Y-46528D01*
X65796Y-46365D01*
X65500Y-46069D01*
X65431Y-46138D01*
X65431Y-46000D01*
X65135Y-45704D01*
X65060Y-45741D01*
X64995Y-45929D01*
X65006Y-46127D01*
X65060Y-46259D01*
X65135Y-46296D01*
X65431Y-46000D01*
X65431Y-46138D01*
X65204Y-46365D01*
X65241Y-46440D01*
X65429Y-46505D01*
X65627Y-46494D01*
X65759Y-46440D01*
X65796Y-46365D01*
X65796Y-46528D01*
X64492Y-46528D01*
X64492Y-43598D01*
X64492Y-43402D01*
X64492Y-42598D01*
X64492Y-42402D01*
X64492Y-41598D01*
X64492Y-41402D01*
X64492Y-40598D01*
X64492Y-40402D01*
X64492Y-39598D01*
X64492Y-39402D01*
X64492Y-36598D01*
X64492Y-36402D01*
X64492Y-35598D01*
X64492Y-35402D01*
X64492Y-34598D01*
X64492Y-34402D01*
X64492Y-33598D01*
X64492Y-33402D01*
X64492Y-32598D01*
X64492Y-32402D01*
X64417Y-32221D01*
X64279Y-32083D01*
X64098Y-32008D01*
X63992Y-32008D01*
X63992Y-30098D01*
X63992Y-29902D01*
X63917Y-29721D01*
X63779Y-29583D01*
X63598Y-29508D01*
X63402Y-29508D01*
X63221Y-29583D01*
X63083Y-29721D01*
X63008Y-29902D01*
X63008Y-30098D01*
X63083Y-30279D01*
X63221Y-30417D01*
X63402Y-30492D01*
X63598Y-30492D01*
X63779Y-30417D01*
X63917Y-30279D01*
X63992Y-30098D01*
X63992Y-32008D01*
X63902Y-32008D01*
X63721Y-32083D01*
X63583Y-32221D01*
X63508Y-32402D01*
X63508Y-32598D01*
X63583Y-32779D01*
X63721Y-32917D01*
X63902Y-32992D01*
X64098Y-32992D01*
X64279Y-32917D01*
X64417Y-32779D01*
X64492Y-32598D01*
X64492Y-33402D01*
X64417Y-33221D01*
X64279Y-33083D01*
X64098Y-33008D01*
X63902Y-33008D01*
X63721Y-33083D01*
X63583Y-33221D01*
X63508Y-33402D01*
X63508Y-33598D01*
X63583Y-33779D01*
X63721Y-33917D01*
X63902Y-33992D01*
X64098Y-33992D01*
X64279Y-33917D01*
X64417Y-33779D01*
X64492Y-33598D01*
X64492Y-34402D01*
X64417Y-34221D01*
X64279Y-34083D01*
X64098Y-34008D01*
X63902Y-34008D01*
X63721Y-34083D01*
X63583Y-34221D01*
X63508Y-34402D01*
X63508Y-34598D01*
X63583Y-34779D01*
X63721Y-34917D01*
X63902Y-34992D01*
X64098Y-34992D01*
X64279Y-34917D01*
X64417Y-34779D01*
X64492Y-34598D01*
X64492Y-35402D01*
X64417Y-35221D01*
X64279Y-35083D01*
X64098Y-35008D01*
X63902Y-35008D01*
X63721Y-35083D01*
X63583Y-35221D01*
X63508Y-35402D01*
X63508Y-35598D01*
X63583Y-35779D01*
X63721Y-35917D01*
X63902Y-35992D01*
X64098Y-35992D01*
X64279Y-35917D01*
X64417Y-35779D01*
X64492Y-35598D01*
X64492Y-36402D01*
X64417Y-36221D01*
X64279Y-36083D01*
X64098Y-36008D01*
X63902Y-36008D01*
X63721Y-36083D01*
X63583Y-36221D01*
X63508Y-36402D01*
X63508Y-36598D01*
X63583Y-36779D01*
X63721Y-36917D01*
X63902Y-36992D01*
X64098Y-36992D01*
X64279Y-36917D01*
X64417Y-36779D01*
X64492Y-36598D01*
X64492Y-39402D01*
X64417Y-39221D01*
X64279Y-39083D01*
X64098Y-39008D01*
X63902Y-39008D01*
X63721Y-39083D01*
X63583Y-39221D01*
X63508Y-39402D01*
X63508Y-39598D01*
X63583Y-39779D01*
X63721Y-39917D01*
X63902Y-39992D01*
X64098Y-39992D01*
X64279Y-39917D01*
X64417Y-39779D01*
X64492Y-39598D01*
X64492Y-40402D01*
X64417Y-40221D01*
X64279Y-40083D01*
X64098Y-40008D01*
X63902Y-40008D01*
X63721Y-40083D01*
X63583Y-40221D01*
X63508Y-40402D01*
X63508Y-40598D01*
X63583Y-40779D01*
X63721Y-40917D01*
X63902Y-40992D01*
X64098Y-40992D01*
X64279Y-40917D01*
X64417Y-40779D01*
X64492Y-40598D01*
X64492Y-41402D01*
X64417Y-41221D01*
X64279Y-41083D01*
X64098Y-41008D01*
X63902Y-41008D01*
X63721Y-41083D01*
X63583Y-41221D01*
X63508Y-41402D01*
X63508Y-41598D01*
X63583Y-41779D01*
X63721Y-41917D01*
X63902Y-41992D01*
X64098Y-41992D01*
X64279Y-41917D01*
X64417Y-41779D01*
X64492Y-41598D01*
X64492Y-42402D01*
X64417Y-42221D01*
X64279Y-42083D01*
X64098Y-42008D01*
X63902Y-42008D01*
X63721Y-42083D01*
X63583Y-42221D01*
X63508Y-42402D01*
X63508Y-42598D01*
X63583Y-42779D01*
X63721Y-42917D01*
X63902Y-42992D01*
X64098Y-42992D01*
X64279Y-42917D01*
X64417Y-42779D01*
X64492Y-42598D01*
X64492Y-43402D01*
X64417Y-43221D01*
X64279Y-43083D01*
X64098Y-43008D01*
X63902Y-43008D01*
X63721Y-43083D01*
X63583Y-43221D01*
X63508Y-43402D01*
X63508Y-43598D01*
X63583Y-43779D01*
X63721Y-43917D01*
X63902Y-43992D01*
X64098Y-43992D01*
X64279Y-43917D01*
X64417Y-43779D01*
X64492Y-43598D01*
X64492Y-46528D01*
X64005Y-46528D01*
X64005Y-46071D01*
X63994Y-45873D01*
X63940Y-45741D01*
X63865Y-45704D01*
X63796Y-45773D01*
X63796Y-45635D01*
X63759Y-45560D01*
X63571Y-45495D01*
X63492Y-45499D01*
X63492Y-43598D01*
X63492Y-43402D01*
X63492Y-42598D01*
X63492Y-42402D01*
X63492Y-41598D01*
X63492Y-41402D01*
X63492Y-40598D01*
X63492Y-40402D01*
X63492Y-39598D01*
X63492Y-39402D01*
X63492Y-36598D01*
X63492Y-36402D01*
X63492Y-35598D01*
X63492Y-35402D01*
X63492Y-34598D01*
X63492Y-34402D01*
X63492Y-33598D01*
X63492Y-33402D01*
X63492Y-32598D01*
X63492Y-32402D01*
X63417Y-32221D01*
X63279Y-32083D01*
X63098Y-32008D01*
X62992Y-32008D01*
X62992Y-30098D01*
X62992Y-29902D01*
X62917Y-29721D01*
X62779Y-29583D01*
X62598Y-29508D01*
X62402Y-29508D01*
X62221Y-29583D01*
X62083Y-29721D01*
X62008Y-29902D01*
X62008Y-30098D01*
X62083Y-30279D01*
X62221Y-30417D01*
X62402Y-30492D01*
X62598Y-30492D01*
X62779Y-30417D01*
X62917Y-30279D01*
X62992Y-30098D01*
X62992Y-32008D01*
X62902Y-32008D01*
X62721Y-32083D01*
X62583Y-32221D01*
X62508Y-32402D01*
X62508Y-32598D01*
X62583Y-32779D01*
X62721Y-32917D01*
X62902Y-32992D01*
X63098Y-32992D01*
X63279Y-32917D01*
X63417Y-32779D01*
X63492Y-32598D01*
X63492Y-33402D01*
X63417Y-33221D01*
X63279Y-33083D01*
X63098Y-33008D01*
X62902Y-33008D01*
X62721Y-33083D01*
X62583Y-33221D01*
X62508Y-33402D01*
X62508Y-33598D01*
X62583Y-33779D01*
X62721Y-33917D01*
X62902Y-33992D01*
X63098Y-33992D01*
X63279Y-33917D01*
X63417Y-33779D01*
X63492Y-33598D01*
X63492Y-34402D01*
X63417Y-34221D01*
X63279Y-34083D01*
X63098Y-34008D01*
X62902Y-34008D01*
X62721Y-34083D01*
X62583Y-34221D01*
X62508Y-34402D01*
X62508Y-34598D01*
X62583Y-34779D01*
X62721Y-34917D01*
X62902Y-34992D01*
X63098Y-34992D01*
X63279Y-34917D01*
X63417Y-34779D01*
X63492Y-34598D01*
X63492Y-35402D01*
X63417Y-35221D01*
X63279Y-35083D01*
X63098Y-35008D01*
X62902Y-35008D01*
X62721Y-35083D01*
X62583Y-35221D01*
X62508Y-35402D01*
X62508Y-35598D01*
X62583Y-35779D01*
X62721Y-35917D01*
X62902Y-35992D01*
X63098Y-35992D01*
X63279Y-35917D01*
X63417Y-35779D01*
X63492Y-35598D01*
X63492Y-36402D01*
X63417Y-36221D01*
X63279Y-36083D01*
X63098Y-36008D01*
X62902Y-36008D01*
X62721Y-36083D01*
X62583Y-36221D01*
X62508Y-36402D01*
X62508Y-36598D01*
X62583Y-36779D01*
X62721Y-36917D01*
X62902Y-36992D01*
X63098Y-36992D01*
X63279Y-36917D01*
X63417Y-36779D01*
X63492Y-36598D01*
X63492Y-39402D01*
X63417Y-39221D01*
X63279Y-39083D01*
X63098Y-39008D01*
X62902Y-39008D01*
X62721Y-39083D01*
X62583Y-39221D01*
X62508Y-39402D01*
X62508Y-39598D01*
X62583Y-39779D01*
X62721Y-39917D01*
X62902Y-39992D01*
X63098Y-39992D01*
X63279Y-39917D01*
X63417Y-39779D01*
X63492Y-39598D01*
X63492Y-40402D01*
X63417Y-40221D01*
X63279Y-40083D01*
X63098Y-40008D01*
X62902Y-40008D01*
X62721Y-40083D01*
X62583Y-40221D01*
X62508Y-40402D01*
X62508Y-40598D01*
X62583Y-40779D01*
X62721Y-40917D01*
X62902Y-40992D01*
X63098Y-40992D01*
X63279Y-40917D01*
X63417Y-40779D01*
X63492Y-40598D01*
X63492Y-41402D01*
X63417Y-41221D01*
X63279Y-41083D01*
X63098Y-41008D01*
X62902Y-41008D01*
X62721Y-41083D01*
X62583Y-41221D01*
X62508Y-41402D01*
X62508Y-41598D01*
X62583Y-41779D01*
X62721Y-41917D01*
X62902Y-41992D01*
X63098Y-41992D01*
X63279Y-41917D01*
X63417Y-41779D01*
X63492Y-41598D01*
X63492Y-42402D01*
X63417Y-42221D01*
X63279Y-42083D01*
X63098Y-42008D01*
X62902Y-42008D01*
X62721Y-42083D01*
X62583Y-42221D01*
X62508Y-42402D01*
X62508Y-42598D01*
X62583Y-42779D01*
X62721Y-42917D01*
X62902Y-42992D01*
X63098Y-42992D01*
X63279Y-42917D01*
X63417Y-42779D01*
X63492Y-42598D01*
X63492Y-43402D01*
X63417Y-43221D01*
X63279Y-43083D01*
X63098Y-43008D01*
X62902Y-43008D01*
X62721Y-43083D01*
X62583Y-43221D01*
X62508Y-43402D01*
X62508Y-43598D01*
X62583Y-43779D01*
X62721Y-43917D01*
X62902Y-43992D01*
X63098Y-43992D01*
X63279Y-43917D01*
X63417Y-43779D01*
X63492Y-43598D01*
X63492Y-45499D01*
X63373Y-45506D01*
X63241Y-45560D01*
X63204Y-45635D01*
X63500Y-45931D01*
X63796Y-45635D01*
X63796Y-45773D01*
X63569Y-46000D01*
X63865Y-46296D01*
X63940Y-46259D01*
X64005Y-46071D01*
X64005Y-46528D01*
X63796Y-46528D01*
X63796Y-46365D01*
X63500Y-46069D01*
X63431Y-46138D01*
X63431Y-46000D01*
X63135Y-45704D01*
X63060Y-45741D01*
X62996Y-45923D01*
X62994Y-45873D01*
X62940Y-45741D01*
X62865Y-45704D01*
X62796Y-45773D01*
X62796Y-45635D01*
X62759Y-45560D01*
X62571Y-45495D01*
X62492Y-45499D01*
X62492Y-43598D01*
X62492Y-43402D01*
X62492Y-42598D01*
X62492Y-42402D01*
X62492Y-41598D01*
X62492Y-41402D01*
X62492Y-40598D01*
X62492Y-40402D01*
X62492Y-39598D01*
X62492Y-39402D01*
X62492Y-36598D01*
X62492Y-36402D01*
X62492Y-35598D01*
X62492Y-35402D01*
X62492Y-34598D01*
X62492Y-34402D01*
X62492Y-33598D01*
X62492Y-33402D01*
X62492Y-32598D01*
X62492Y-32402D01*
X62417Y-32221D01*
X62279Y-32083D01*
X62098Y-32008D01*
X61992Y-32008D01*
X61992Y-30098D01*
X61992Y-29902D01*
X61917Y-29721D01*
X61779Y-29583D01*
X61598Y-29508D01*
X61402Y-29508D01*
X61221Y-29583D01*
X61083Y-29721D01*
X61008Y-29902D01*
X61008Y-30098D01*
X61083Y-30279D01*
X61221Y-30417D01*
X61402Y-30492D01*
X61598Y-30492D01*
X61779Y-30417D01*
X61917Y-30279D01*
X61992Y-30098D01*
X61992Y-32008D01*
X61902Y-32008D01*
X61721Y-32083D01*
X61583Y-32221D01*
X61508Y-32402D01*
X61508Y-32598D01*
X61583Y-32779D01*
X61721Y-32917D01*
X61902Y-32992D01*
X62098Y-32992D01*
X62279Y-32917D01*
X62417Y-32779D01*
X62492Y-32598D01*
X62492Y-33402D01*
X62417Y-33221D01*
X62279Y-33083D01*
X62098Y-33008D01*
X61902Y-33008D01*
X61721Y-33083D01*
X61583Y-33221D01*
X61508Y-33402D01*
X61508Y-33598D01*
X61583Y-33779D01*
X61721Y-33917D01*
X61902Y-33992D01*
X62098Y-33992D01*
X62279Y-33917D01*
X62417Y-33779D01*
X62492Y-33598D01*
X62492Y-34402D01*
X62417Y-34221D01*
X62279Y-34083D01*
X62098Y-34008D01*
X61902Y-34008D01*
X61721Y-34083D01*
X61583Y-34221D01*
X61508Y-34402D01*
X61508Y-34598D01*
X61583Y-34779D01*
X61721Y-34917D01*
X61902Y-34992D01*
X62098Y-34992D01*
X62279Y-34917D01*
X62417Y-34779D01*
X62492Y-34598D01*
X62492Y-35402D01*
X62417Y-35221D01*
X62279Y-35083D01*
X62098Y-35008D01*
X61902Y-35008D01*
X61721Y-35083D01*
X61583Y-35221D01*
X61508Y-35402D01*
X61508Y-35598D01*
X61583Y-35779D01*
X61721Y-35917D01*
X61902Y-35992D01*
X62098Y-35992D01*
X62279Y-35917D01*
X62417Y-35779D01*
X62492Y-35598D01*
X62492Y-36402D01*
X62417Y-36221D01*
X62279Y-36083D01*
X62098Y-36008D01*
X61902Y-36008D01*
X61721Y-36083D01*
X61583Y-36221D01*
X61508Y-36402D01*
X61508Y-36598D01*
X61583Y-36779D01*
X61721Y-36917D01*
X61902Y-36992D01*
X62098Y-36992D01*
X62279Y-36917D01*
X62417Y-36779D01*
X62492Y-36598D01*
X62492Y-39402D01*
X62417Y-39221D01*
X62279Y-39083D01*
X62098Y-39008D01*
X61902Y-39008D01*
X61721Y-39083D01*
X61583Y-39221D01*
X61508Y-39402D01*
X61508Y-39598D01*
X61583Y-39779D01*
X61721Y-39917D01*
X61902Y-39992D01*
X62098Y-39992D01*
X62279Y-39917D01*
X62417Y-39779D01*
X62492Y-39598D01*
X62492Y-40402D01*
X62417Y-40221D01*
X62279Y-40083D01*
X62098Y-40008D01*
X61902Y-40008D01*
X61721Y-40083D01*
X61583Y-40221D01*
X61508Y-40402D01*
X61508Y-40598D01*
X61583Y-40779D01*
X61721Y-40917D01*
X61902Y-40992D01*
X62098Y-40992D01*
X62279Y-40917D01*
X62417Y-40779D01*
X62492Y-40598D01*
X62492Y-41402D01*
X62417Y-41221D01*
X62279Y-41083D01*
X62098Y-41008D01*
X61902Y-41008D01*
X61721Y-41083D01*
X61583Y-41221D01*
X61508Y-41402D01*
X61508Y-41598D01*
X61583Y-41779D01*
X61721Y-41917D01*
X61902Y-41992D01*
X62098Y-41992D01*
X62279Y-41917D01*
X62417Y-41779D01*
X62492Y-41598D01*
X62492Y-42402D01*
X62417Y-42221D01*
X62279Y-42083D01*
X62098Y-42008D01*
X61902Y-42008D01*
X61721Y-42083D01*
X61583Y-42221D01*
X61508Y-42402D01*
X61508Y-42598D01*
X61583Y-42779D01*
X61721Y-42917D01*
X61902Y-42992D01*
X62098Y-42992D01*
X62279Y-42917D01*
X62417Y-42779D01*
X62492Y-42598D01*
X62492Y-43402D01*
X62417Y-43221D01*
X62279Y-43083D01*
X62098Y-43008D01*
X61902Y-43008D01*
X61721Y-43083D01*
X61583Y-43221D01*
X61508Y-43402D01*
X61508Y-43598D01*
X61583Y-43779D01*
X61721Y-43917D01*
X61902Y-43992D01*
X62098Y-43992D01*
X62279Y-43917D01*
X62417Y-43779D01*
X62492Y-43598D01*
X62492Y-45499D01*
X62373Y-45506D01*
X62241Y-45560D01*
X62204Y-45635D01*
X62500Y-45931D01*
X62796Y-45635D01*
X62796Y-45773D01*
X62569Y-46000D01*
X62865Y-46296D01*
X62940Y-46259D01*
X63003Y-46076D01*
X63006Y-46127D01*
X63060Y-46259D01*
X63135Y-46296D01*
X63431Y-46000D01*
X63431Y-46138D01*
X63204Y-46365D01*
X63241Y-46440D01*
X63429Y-46505D01*
X63627Y-46494D01*
X63759Y-46440D01*
X63796Y-46365D01*
X63796Y-46528D01*
X62796Y-46528D01*
X62796Y-46365D01*
X62500Y-46069D01*
X62431Y-46138D01*
X62431Y-46000D01*
X62135Y-45704D01*
X62060Y-45741D01*
X61996Y-45923D01*
X61994Y-45873D01*
X61940Y-45741D01*
X61865Y-45704D01*
X61796Y-45773D01*
X61796Y-45635D01*
X61759Y-45560D01*
X61571Y-45495D01*
X61492Y-45499D01*
X61492Y-43598D01*
X61492Y-43402D01*
X61492Y-42598D01*
X61492Y-42402D01*
X61492Y-41598D01*
X61492Y-41402D01*
X61492Y-40598D01*
X61492Y-40402D01*
X61492Y-39598D01*
X61492Y-39402D01*
X61492Y-36598D01*
X61492Y-36402D01*
X61492Y-35598D01*
X61492Y-35402D01*
X61492Y-34598D01*
X61492Y-34402D01*
X61492Y-33598D01*
X61492Y-33402D01*
X61492Y-32598D01*
X61492Y-32402D01*
X61417Y-32221D01*
X61279Y-32083D01*
X61098Y-32008D01*
X60992Y-32008D01*
X60992Y-30098D01*
X60992Y-29902D01*
X60917Y-29721D01*
X60779Y-29583D01*
X60598Y-29508D01*
X60402Y-29508D01*
X60221Y-29583D01*
X60083Y-29721D01*
X60008Y-29902D01*
X60008Y-30098D01*
X60083Y-30279D01*
X60221Y-30417D01*
X60402Y-30492D01*
X60598Y-30492D01*
X60779Y-30417D01*
X60917Y-30279D01*
X60992Y-30098D01*
X60992Y-32008D01*
X60902Y-32008D01*
X60721Y-32083D01*
X60583Y-32221D01*
X60508Y-32402D01*
X60508Y-32598D01*
X60583Y-32779D01*
X60721Y-32917D01*
X60902Y-32992D01*
X61098Y-32992D01*
X61279Y-32917D01*
X61417Y-32779D01*
X61492Y-32598D01*
X61492Y-33402D01*
X61417Y-33221D01*
X61279Y-33083D01*
X61098Y-33008D01*
X60902Y-33008D01*
X60721Y-33083D01*
X60583Y-33221D01*
X60508Y-33402D01*
X60508Y-33598D01*
X60583Y-33779D01*
X60721Y-33917D01*
X60902Y-33992D01*
X61098Y-33992D01*
X61279Y-33917D01*
X61417Y-33779D01*
X61492Y-33598D01*
X61492Y-34402D01*
X61417Y-34221D01*
X61279Y-34083D01*
X61098Y-34008D01*
X60902Y-34008D01*
X60721Y-34083D01*
X60583Y-34221D01*
X60508Y-34402D01*
X60508Y-34598D01*
X60583Y-34779D01*
X60721Y-34917D01*
X60902Y-34992D01*
X61098Y-34992D01*
X61279Y-34917D01*
X61417Y-34779D01*
X61492Y-34598D01*
X61492Y-35402D01*
X61417Y-35221D01*
X61279Y-35083D01*
X61098Y-35008D01*
X60902Y-35008D01*
X60721Y-35083D01*
X60583Y-35221D01*
X60508Y-35402D01*
X60508Y-35598D01*
X60583Y-35779D01*
X60721Y-35917D01*
X60902Y-35992D01*
X61098Y-35992D01*
X61279Y-35917D01*
X61417Y-35779D01*
X61492Y-35598D01*
X61492Y-36402D01*
X61417Y-36221D01*
X61279Y-36083D01*
X61098Y-36008D01*
X60902Y-36008D01*
X60721Y-36083D01*
X60583Y-36221D01*
X60508Y-36402D01*
X60508Y-36598D01*
X60583Y-36779D01*
X60721Y-36917D01*
X60902Y-36992D01*
X61098Y-36992D01*
X61279Y-36917D01*
X61417Y-36779D01*
X61492Y-36598D01*
X61492Y-39402D01*
X61417Y-39221D01*
X61279Y-39083D01*
X61098Y-39008D01*
X60902Y-39008D01*
X60721Y-39083D01*
X60583Y-39221D01*
X60508Y-39402D01*
X60508Y-39598D01*
X60583Y-39779D01*
X60721Y-39917D01*
X60902Y-39992D01*
X61098Y-39992D01*
X61279Y-39917D01*
X61417Y-39779D01*
X61492Y-39598D01*
X61492Y-40402D01*
X61417Y-40221D01*
X61279Y-40083D01*
X61098Y-40008D01*
X60902Y-40008D01*
X60721Y-40083D01*
X60583Y-40221D01*
X60508Y-40402D01*
X60508Y-40598D01*
X60583Y-40779D01*
X60721Y-40917D01*
X60902Y-40992D01*
X61098Y-40992D01*
X61279Y-40917D01*
X61417Y-40779D01*
X61492Y-40598D01*
X61492Y-41402D01*
X61417Y-41221D01*
X61279Y-41083D01*
X61098Y-41008D01*
X60902Y-41008D01*
X60721Y-41083D01*
X60583Y-41221D01*
X60508Y-41402D01*
X60508Y-41598D01*
X60583Y-41779D01*
X60721Y-41917D01*
X60902Y-41992D01*
X61098Y-41992D01*
X61279Y-41917D01*
X61417Y-41779D01*
X61492Y-41598D01*
X61492Y-42402D01*
X61417Y-42221D01*
X61279Y-42083D01*
X61098Y-42008D01*
X60902Y-42008D01*
X60721Y-42083D01*
X60583Y-42221D01*
X60508Y-42402D01*
X60508Y-42598D01*
X60583Y-42779D01*
X60721Y-42917D01*
X60902Y-42992D01*
X61098Y-42992D01*
X61279Y-42917D01*
X61417Y-42779D01*
X61492Y-42598D01*
X61492Y-43402D01*
X61417Y-43221D01*
X61279Y-43083D01*
X61098Y-43008D01*
X60902Y-43008D01*
X60721Y-43083D01*
X60583Y-43221D01*
X60508Y-43402D01*
X60508Y-43598D01*
X60583Y-43779D01*
X60721Y-43917D01*
X60902Y-43992D01*
X61098Y-43992D01*
X61279Y-43917D01*
X61417Y-43779D01*
X61492Y-43598D01*
X61492Y-45499D01*
X61373Y-45506D01*
X61241Y-45560D01*
X61204Y-45635D01*
X61500Y-45931D01*
X61796Y-45635D01*
X61796Y-45773D01*
X61569Y-46000D01*
X61865Y-46296D01*
X61940Y-46259D01*
X62003Y-46076D01*
X62006Y-46127D01*
X62060Y-46259D01*
X62135Y-46296D01*
X62431Y-46000D01*
X62431Y-46138D01*
X62204Y-46365D01*
X62241Y-46440D01*
X62429Y-46505D01*
X62627Y-46494D01*
X62759Y-46440D01*
X62796Y-46365D01*
X62796Y-46528D01*
X61796Y-46528D01*
X61796Y-46365D01*
X61500Y-46069D01*
X61431Y-46138D01*
X61431Y-46000D01*
X61135Y-45704D01*
X61060Y-45741D01*
X60996Y-45923D01*
X60994Y-45873D01*
X60940Y-45741D01*
X60865Y-45704D01*
X60796Y-45773D01*
X60796Y-45635D01*
X60759Y-45560D01*
X60571Y-45495D01*
X60492Y-45499D01*
X60492Y-43598D01*
X60492Y-43402D01*
X60492Y-42598D01*
X60492Y-42402D01*
X60492Y-41598D01*
X60492Y-41402D01*
X60492Y-40598D01*
X60492Y-40402D01*
X60492Y-39598D01*
X60492Y-39402D01*
X60492Y-36598D01*
X60492Y-36402D01*
X60492Y-35598D01*
X60492Y-35402D01*
X60492Y-34598D01*
X60492Y-34402D01*
X60492Y-33598D01*
X60492Y-33402D01*
X60492Y-32598D01*
X60492Y-32402D01*
X60417Y-32221D01*
X60279Y-32083D01*
X60098Y-32008D01*
X59902Y-32008D01*
X59721Y-32083D01*
X59583Y-32221D01*
X59508Y-32402D01*
X59508Y-32598D01*
X59583Y-32779D01*
X59721Y-32917D01*
X59902Y-32992D01*
X60098Y-32992D01*
X60279Y-32917D01*
X60417Y-32779D01*
X60492Y-32598D01*
X60492Y-33402D01*
X60417Y-33221D01*
X60279Y-33083D01*
X60098Y-33008D01*
X59902Y-33008D01*
X59721Y-33083D01*
X59583Y-33221D01*
X59508Y-33402D01*
X59508Y-33598D01*
X59583Y-33779D01*
X59721Y-33917D01*
X59902Y-33992D01*
X60098Y-33992D01*
X60279Y-33917D01*
X60417Y-33779D01*
X60492Y-33598D01*
X60492Y-34402D01*
X60417Y-34221D01*
X60279Y-34083D01*
X60098Y-34008D01*
X59902Y-34008D01*
X59721Y-34083D01*
X59583Y-34221D01*
X59508Y-34402D01*
X59508Y-34598D01*
X59583Y-34779D01*
X59721Y-34917D01*
X59902Y-34992D01*
X60098Y-34992D01*
X60279Y-34917D01*
X60417Y-34779D01*
X60492Y-34598D01*
X60492Y-35402D01*
X60417Y-35221D01*
X60279Y-35083D01*
X60098Y-35008D01*
X59902Y-35008D01*
X59721Y-35083D01*
X59583Y-35221D01*
X59508Y-35402D01*
X59508Y-35598D01*
X59583Y-35779D01*
X59721Y-35917D01*
X59902Y-35992D01*
X60098Y-35992D01*
X60279Y-35917D01*
X60417Y-35779D01*
X60492Y-35598D01*
X60492Y-36402D01*
X60417Y-36221D01*
X60279Y-36083D01*
X60098Y-36008D01*
X59902Y-36008D01*
X59721Y-36083D01*
X59583Y-36221D01*
X59508Y-36402D01*
X59508Y-36598D01*
X59583Y-36779D01*
X59721Y-36917D01*
X59902Y-36992D01*
X60098Y-36992D01*
X60279Y-36917D01*
X60417Y-36779D01*
X60492Y-36598D01*
X60492Y-39402D01*
X60417Y-39221D01*
X60279Y-39083D01*
X60098Y-39008D01*
X59902Y-39008D01*
X59721Y-39083D01*
X59583Y-39221D01*
X59508Y-39402D01*
X59508Y-39598D01*
X59583Y-39779D01*
X59721Y-39917D01*
X59902Y-39992D01*
X60098Y-39992D01*
X60279Y-39917D01*
X60417Y-39779D01*
X60492Y-39598D01*
X60492Y-40402D01*
X60417Y-40221D01*
X60279Y-40083D01*
X60098Y-40008D01*
X59902Y-40008D01*
X59721Y-40083D01*
X59583Y-40221D01*
X59508Y-40402D01*
X59508Y-40598D01*
X59583Y-40779D01*
X59721Y-40917D01*
X59902Y-40992D01*
X60098Y-40992D01*
X60279Y-40917D01*
X60417Y-40779D01*
X60492Y-40598D01*
X60492Y-41402D01*
X60417Y-41221D01*
X60279Y-41083D01*
X60098Y-41008D01*
X59902Y-41008D01*
X59721Y-41083D01*
X59583Y-41221D01*
X59508Y-41402D01*
X59508Y-41598D01*
X59583Y-41779D01*
X59721Y-41917D01*
X59902Y-41992D01*
X60098Y-41992D01*
X60279Y-41917D01*
X60417Y-41779D01*
X60492Y-41598D01*
X60492Y-42402D01*
X60417Y-42221D01*
X60279Y-42083D01*
X60098Y-42008D01*
X59902Y-42008D01*
X59721Y-42083D01*
X59583Y-42221D01*
X59508Y-42402D01*
X59508Y-42598D01*
X59583Y-42779D01*
X59721Y-42917D01*
X59902Y-42992D01*
X60098Y-42992D01*
X60279Y-42917D01*
X60417Y-42779D01*
X60492Y-42598D01*
X60492Y-43402D01*
X60417Y-43221D01*
X60279Y-43083D01*
X60098Y-43008D01*
X59902Y-43008D01*
X59721Y-43083D01*
X59583Y-43221D01*
X59508Y-43402D01*
X59508Y-43598D01*
X59583Y-43779D01*
X59721Y-43917D01*
X59902Y-43992D01*
X60098Y-43992D01*
X60279Y-43917D01*
X60417Y-43779D01*
X60492Y-43598D01*
X60492Y-45499D01*
X60373Y-45506D01*
X60241Y-45560D01*
X60204Y-45635D01*
X60500Y-45931D01*
X60796Y-45635D01*
X60796Y-45773D01*
X60569Y-46000D01*
X60865Y-46296D01*
X60940Y-46259D01*
X61003Y-46076D01*
X61006Y-46127D01*
X61060Y-46259D01*
X61135Y-46296D01*
X61431Y-46000D01*
X61431Y-46138D01*
X61204Y-46365D01*
X61241Y-46440D01*
X61429Y-46505D01*
X61627Y-46494D01*
X61759Y-46440D01*
X61796Y-46365D01*
X61796Y-46528D01*
X60796Y-46528D01*
X60796Y-46365D01*
X60500Y-46069D01*
X60431Y-46138D01*
X60431Y-46000D01*
X60135Y-45704D01*
X60060Y-45741D01*
X59995Y-45929D01*
X60006Y-46127D01*
X60060Y-46259D01*
X60135Y-46296D01*
X60431Y-46000D01*
X60431Y-46138D01*
X60204Y-46365D01*
X60241Y-46440D01*
X60429Y-46505D01*
X60627Y-46494D01*
X60759Y-46440D01*
X60796Y-46365D01*
X60796Y-46528D01*
X59492Y-46528D01*
X59492Y-43598D01*
X59492Y-43402D01*
X59492Y-42598D01*
X59492Y-42402D01*
X59492Y-41598D01*
X59492Y-41402D01*
X59492Y-40598D01*
X59492Y-40402D01*
X59492Y-39598D01*
X59492Y-39402D01*
X59492Y-36598D01*
X59492Y-36402D01*
X59492Y-35598D01*
X59492Y-35402D01*
X59492Y-34598D01*
X59492Y-34402D01*
X59492Y-33598D01*
X59492Y-33402D01*
X59492Y-32598D01*
X59492Y-32402D01*
X59417Y-32221D01*
X59279Y-32083D01*
X59098Y-32008D01*
X58992Y-32008D01*
X58992Y-30098D01*
X58992Y-29902D01*
X58917Y-29721D01*
X58779Y-29583D01*
X58598Y-29508D01*
X58402Y-29508D01*
X58221Y-29583D01*
X58083Y-29721D01*
X58008Y-29902D01*
X58008Y-30098D01*
X58083Y-30279D01*
X58221Y-30417D01*
X58402Y-30492D01*
X58598Y-30492D01*
X58779Y-30417D01*
X58917Y-30279D01*
X58992Y-30098D01*
X58992Y-32008D01*
X58902Y-32008D01*
X58721Y-32083D01*
X58583Y-32221D01*
X58508Y-32402D01*
X58508Y-32598D01*
X58583Y-32779D01*
X58721Y-32917D01*
X58902Y-32992D01*
X59098Y-32992D01*
X59279Y-32917D01*
X59417Y-32779D01*
X59492Y-32598D01*
X59492Y-33402D01*
X59417Y-33221D01*
X59279Y-33083D01*
X59098Y-33008D01*
X58902Y-33008D01*
X58721Y-33083D01*
X58583Y-33221D01*
X58508Y-33402D01*
X58508Y-33598D01*
X58583Y-33779D01*
X58721Y-33917D01*
X58902Y-33992D01*
X59098Y-33992D01*
X59279Y-33917D01*
X59417Y-33779D01*
X59492Y-33598D01*
X59492Y-34402D01*
X59417Y-34221D01*
X59279Y-34083D01*
X59098Y-34008D01*
X58902Y-34008D01*
X58721Y-34083D01*
X58583Y-34221D01*
X58508Y-34402D01*
X58508Y-34598D01*
X58583Y-34779D01*
X58721Y-34917D01*
X58902Y-34992D01*
X59098Y-34992D01*
X59279Y-34917D01*
X59417Y-34779D01*
X59492Y-34598D01*
X59492Y-35402D01*
X59417Y-35221D01*
X59279Y-35083D01*
X59098Y-35008D01*
X58902Y-35008D01*
X58721Y-35083D01*
X58583Y-35221D01*
X58508Y-35402D01*
X58508Y-35598D01*
X58583Y-35779D01*
X58721Y-35917D01*
X58902Y-35992D01*
X59098Y-35992D01*
X59279Y-35917D01*
X59417Y-35779D01*
X59492Y-35598D01*
X59492Y-36402D01*
X59417Y-36221D01*
X59279Y-36083D01*
X59098Y-36008D01*
X58902Y-36008D01*
X58721Y-36083D01*
X58583Y-36221D01*
X58508Y-36402D01*
X58508Y-36598D01*
X58583Y-36779D01*
X58721Y-36917D01*
X58902Y-36992D01*
X59098Y-36992D01*
X59279Y-36917D01*
X59417Y-36779D01*
X59492Y-36598D01*
X59492Y-39402D01*
X59417Y-39221D01*
X59279Y-39083D01*
X59098Y-39008D01*
X58902Y-39008D01*
X58721Y-39083D01*
X58583Y-39221D01*
X58508Y-39402D01*
X58508Y-39598D01*
X58583Y-39779D01*
X58721Y-39917D01*
X58902Y-39992D01*
X59098Y-39992D01*
X59279Y-39917D01*
X59417Y-39779D01*
X59492Y-39598D01*
X59492Y-40402D01*
X59417Y-40221D01*
X59279Y-40083D01*
X59098Y-40008D01*
X58902Y-40008D01*
X58721Y-40083D01*
X58583Y-40221D01*
X58508Y-40402D01*
X58508Y-40598D01*
X58583Y-40779D01*
X58721Y-40917D01*
X58902Y-40992D01*
X59098Y-40992D01*
X59279Y-40917D01*
X59417Y-40779D01*
X59492Y-40598D01*
X59492Y-41402D01*
X59417Y-41221D01*
X59279Y-41083D01*
X59098Y-41008D01*
X58902Y-41008D01*
X58721Y-41083D01*
X58583Y-41221D01*
X58508Y-41402D01*
X58508Y-41598D01*
X58583Y-41779D01*
X58721Y-41917D01*
X58902Y-41992D01*
X59098Y-41992D01*
X59279Y-41917D01*
X59417Y-41779D01*
X59492Y-41598D01*
X59492Y-42402D01*
X59417Y-42221D01*
X59279Y-42083D01*
X59098Y-42008D01*
X58902Y-42008D01*
X58721Y-42083D01*
X58583Y-42221D01*
X58508Y-42402D01*
X58508Y-42598D01*
X58583Y-42779D01*
X58721Y-42917D01*
X58902Y-42992D01*
X59098Y-42992D01*
X59279Y-42917D01*
X59417Y-42779D01*
X59492Y-42598D01*
X59492Y-43402D01*
X59417Y-43221D01*
X59279Y-43083D01*
X59098Y-43008D01*
X58902Y-43008D01*
X58721Y-43083D01*
X58583Y-43221D01*
X58508Y-43402D01*
X58508Y-43598D01*
X58583Y-43779D01*
X58721Y-43917D01*
X58902Y-43992D01*
X59098Y-43992D01*
X59279Y-43917D01*
X59417Y-43779D01*
X59492Y-43598D01*
X59492Y-46528D01*
X59005Y-46528D01*
X59005Y-46071D01*
X58994Y-45873D01*
X58940Y-45741D01*
X58865Y-45704D01*
X58796Y-45773D01*
X58796Y-45635D01*
X58759Y-45560D01*
X58571Y-45495D01*
X58492Y-45499D01*
X58492Y-43598D01*
X58492Y-43402D01*
X58492Y-42598D01*
X58492Y-42402D01*
X58492Y-41598D01*
X58492Y-41402D01*
X58492Y-40598D01*
X58492Y-40402D01*
X58492Y-39598D01*
X58492Y-39402D01*
X58492Y-36598D01*
X58492Y-36402D01*
X58492Y-35598D01*
X58492Y-35402D01*
X58492Y-34598D01*
X58492Y-34402D01*
X58492Y-33598D01*
X58492Y-33402D01*
X58492Y-32598D01*
X58492Y-32402D01*
X58417Y-32221D01*
X58279Y-32083D01*
X58098Y-32008D01*
X57992Y-32008D01*
X57992Y-30098D01*
X57992Y-29902D01*
X57917Y-29721D01*
X57779Y-29583D01*
X57598Y-29508D01*
X57402Y-29508D01*
X57221Y-29583D01*
X57083Y-29721D01*
X57008Y-29902D01*
X57008Y-30098D01*
X57083Y-30279D01*
X57221Y-30417D01*
X57402Y-30492D01*
X57598Y-30492D01*
X57779Y-30417D01*
X57917Y-30279D01*
X57992Y-30098D01*
X57992Y-32008D01*
X57902Y-32008D01*
X57721Y-32083D01*
X57583Y-32221D01*
X57508Y-32402D01*
X57508Y-32598D01*
X57583Y-32779D01*
X57721Y-32917D01*
X57902Y-32992D01*
X58098Y-32992D01*
X58279Y-32917D01*
X58417Y-32779D01*
X58492Y-32598D01*
X58492Y-33402D01*
X58417Y-33221D01*
X58279Y-33083D01*
X58098Y-33008D01*
X57902Y-33008D01*
X57721Y-33083D01*
X57583Y-33221D01*
X57508Y-33402D01*
X57508Y-33598D01*
X57583Y-33779D01*
X57721Y-33917D01*
X57902Y-33992D01*
X58098Y-33992D01*
X58279Y-33917D01*
X58417Y-33779D01*
X58492Y-33598D01*
X58492Y-34402D01*
X58417Y-34221D01*
X58279Y-34083D01*
X58098Y-34008D01*
X57902Y-34008D01*
X57721Y-34083D01*
X57583Y-34221D01*
X57508Y-34402D01*
X57508Y-34598D01*
X57583Y-34779D01*
X57721Y-34917D01*
X57902Y-34992D01*
X58098Y-34992D01*
X58279Y-34917D01*
X58417Y-34779D01*
X58492Y-34598D01*
X58492Y-35402D01*
X58417Y-35221D01*
X58279Y-35083D01*
X58098Y-35008D01*
X57902Y-35008D01*
X57721Y-35083D01*
X57583Y-35221D01*
X57508Y-35402D01*
X57508Y-35598D01*
X57583Y-35779D01*
X57721Y-35917D01*
X57902Y-35992D01*
X58098Y-35992D01*
X58279Y-35917D01*
X58417Y-35779D01*
X58492Y-35598D01*
X58492Y-36402D01*
X58417Y-36221D01*
X58279Y-36083D01*
X58098Y-36008D01*
X57902Y-36008D01*
X57721Y-36083D01*
X57583Y-36221D01*
X57508Y-36402D01*
X57508Y-36598D01*
X57583Y-36779D01*
X57721Y-36917D01*
X57902Y-36992D01*
X58098Y-36992D01*
X58279Y-36917D01*
X58417Y-36779D01*
X58492Y-36598D01*
X58492Y-39402D01*
X58417Y-39221D01*
X58279Y-39083D01*
X58098Y-39008D01*
X57902Y-39008D01*
X57721Y-39083D01*
X57583Y-39221D01*
X57508Y-39402D01*
X57508Y-39598D01*
X57583Y-39779D01*
X57721Y-39917D01*
X57902Y-39992D01*
X58098Y-39992D01*
X58279Y-39917D01*
X58417Y-39779D01*
X58492Y-39598D01*
X58492Y-40402D01*
X58417Y-40221D01*
X58279Y-40083D01*
X58098Y-40008D01*
X57902Y-40008D01*
X57721Y-40083D01*
X57583Y-40221D01*
X57508Y-40402D01*
X57508Y-40598D01*
X57583Y-40779D01*
X57721Y-40917D01*
X57902Y-40992D01*
X58098Y-40992D01*
X58279Y-40917D01*
X58417Y-40779D01*
X58492Y-40598D01*
X58492Y-41402D01*
X58417Y-41221D01*
X58279Y-41083D01*
X58098Y-41008D01*
X57902Y-41008D01*
X57721Y-41083D01*
X57583Y-41221D01*
X57508Y-41402D01*
X57508Y-41598D01*
X57583Y-41779D01*
X57721Y-41917D01*
X57902Y-41992D01*
X58098Y-41992D01*
X58279Y-41917D01*
X58417Y-41779D01*
X58492Y-41598D01*
X58492Y-42402D01*
X58417Y-42221D01*
X58279Y-42083D01*
X58098Y-42008D01*
X57902Y-42008D01*
X57721Y-42083D01*
X57583Y-42221D01*
X57508Y-42402D01*
X57508Y-42598D01*
X57583Y-42779D01*
X57721Y-42917D01*
X57902Y-42992D01*
X58098Y-42992D01*
X58279Y-42917D01*
X58417Y-42779D01*
X58492Y-42598D01*
X58492Y-43402D01*
X58417Y-43221D01*
X58279Y-43083D01*
X58098Y-43008D01*
X57902Y-43008D01*
X57721Y-43083D01*
X57583Y-43221D01*
X57508Y-43402D01*
X57508Y-43598D01*
X57583Y-43779D01*
X57721Y-43917D01*
X57902Y-43992D01*
X58098Y-43992D01*
X58279Y-43917D01*
X58417Y-43779D01*
X58492Y-43598D01*
X58492Y-45499D01*
X58373Y-45506D01*
X58241Y-45560D01*
X58204Y-45635D01*
X58500Y-45931D01*
X58796Y-45635D01*
X58796Y-45773D01*
X58569Y-46000D01*
X58865Y-46296D01*
X58940Y-46259D01*
X59005Y-46071D01*
X59005Y-46528D01*
X58796Y-46528D01*
X58796Y-46365D01*
X58500Y-46069D01*
X58431Y-46138D01*
X58431Y-46000D01*
X58135Y-45704D01*
X58060Y-45741D01*
X57996Y-45923D01*
X57994Y-45873D01*
X57940Y-45741D01*
X57865Y-45704D01*
X57796Y-45773D01*
X57796Y-45635D01*
X57759Y-45560D01*
X57571Y-45495D01*
X57492Y-45499D01*
X57492Y-43598D01*
X57492Y-43402D01*
X57492Y-42598D01*
X57492Y-42402D01*
X57492Y-41598D01*
X57492Y-41402D01*
X57492Y-40598D01*
X57492Y-40402D01*
X57492Y-39598D01*
X57492Y-39402D01*
X57492Y-36598D01*
X57492Y-36402D01*
X57492Y-35598D01*
X57492Y-35402D01*
X57492Y-34598D01*
X57492Y-34402D01*
X57492Y-33598D01*
X57492Y-33402D01*
X57492Y-32598D01*
X57492Y-32402D01*
X57417Y-32221D01*
X57279Y-32083D01*
X57098Y-32008D01*
X56992Y-32008D01*
X56992Y-30098D01*
X56992Y-29902D01*
X56917Y-29721D01*
X56779Y-29583D01*
X56598Y-29508D01*
X56402Y-29508D01*
X56221Y-29583D01*
X56083Y-29721D01*
X56008Y-29902D01*
X56008Y-30098D01*
X56083Y-30279D01*
X56221Y-30417D01*
X56402Y-30492D01*
X56598Y-30492D01*
X56779Y-30417D01*
X56917Y-30279D01*
X56992Y-30098D01*
X56992Y-32008D01*
X56902Y-32008D01*
X56721Y-32083D01*
X56583Y-32221D01*
X56508Y-32402D01*
X56508Y-32598D01*
X56583Y-32779D01*
X56721Y-32917D01*
X56902Y-32992D01*
X57098Y-32992D01*
X57279Y-32917D01*
X57417Y-32779D01*
X57492Y-32598D01*
X57492Y-33402D01*
X57417Y-33221D01*
X57279Y-33083D01*
X57098Y-33008D01*
X56902Y-33008D01*
X56721Y-33083D01*
X56583Y-33221D01*
X56508Y-33402D01*
X56508Y-33598D01*
X56583Y-33779D01*
X56721Y-33917D01*
X56902Y-33992D01*
X57098Y-33992D01*
X57279Y-33917D01*
X57417Y-33779D01*
X57492Y-33598D01*
X57492Y-34402D01*
X57417Y-34221D01*
X57279Y-34083D01*
X57098Y-34008D01*
X56902Y-34008D01*
X56721Y-34083D01*
X56583Y-34221D01*
X56508Y-34402D01*
X56508Y-34598D01*
X56583Y-34779D01*
X56721Y-34917D01*
X56902Y-34992D01*
X57098Y-34992D01*
X57279Y-34917D01*
X57417Y-34779D01*
X57492Y-34598D01*
X57492Y-35402D01*
X57417Y-35221D01*
X57279Y-35083D01*
X57098Y-35008D01*
X56902Y-35008D01*
X56721Y-35083D01*
X56583Y-35221D01*
X56508Y-35402D01*
X56508Y-35598D01*
X56583Y-35779D01*
X56721Y-35917D01*
X56902Y-35992D01*
X57098Y-35992D01*
X57279Y-35917D01*
X57417Y-35779D01*
X57492Y-35598D01*
X57492Y-36402D01*
X57417Y-36221D01*
X57279Y-36083D01*
X57098Y-36008D01*
X56902Y-36008D01*
X56721Y-36083D01*
X56583Y-36221D01*
X56508Y-36402D01*
X56508Y-36598D01*
X56583Y-36779D01*
X56721Y-36917D01*
X56902Y-36992D01*
X57098Y-36992D01*
X57279Y-36917D01*
X57417Y-36779D01*
X57492Y-36598D01*
X57492Y-39402D01*
X57417Y-39221D01*
X57279Y-39083D01*
X57098Y-39008D01*
X56902Y-39008D01*
X56721Y-39083D01*
X56583Y-39221D01*
X56508Y-39402D01*
X56508Y-39598D01*
X56583Y-39779D01*
X56721Y-39917D01*
X56902Y-39992D01*
X57098Y-39992D01*
X57279Y-39917D01*
X57417Y-39779D01*
X57492Y-39598D01*
X57492Y-40402D01*
X57417Y-40221D01*
X57279Y-40083D01*
X57098Y-40008D01*
X56902Y-40008D01*
X56721Y-40083D01*
X56583Y-40221D01*
X56508Y-40402D01*
X56508Y-40598D01*
X56583Y-40779D01*
X56721Y-40917D01*
X56902Y-40992D01*
X57098Y-40992D01*
X57279Y-40917D01*
X57417Y-40779D01*
X57492Y-40598D01*
X57492Y-41402D01*
X57417Y-41221D01*
X57279Y-41083D01*
X57098Y-41008D01*
X56902Y-41008D01*
X56721Y-41083D01*
X56583Y-41221D01*
X56508Y-41402D01*
X56508Y-41598D01*
X56583Y-41779D01*
X56721Y-41917D01*
X56902Y-41992D01*
X57098Y-41992D01*
X57279Y-41917D01*
X57417Y-41779D01*
X57492Y-41598D01*
X57492Y-42402D01*
X57417Y-42221D01*
X57279Y-42083D01*
X57098Y-42008D01*
X56902Y-42008D01*
X56721Y-42083D01*
X56583Y-42221D01*
X56508Y-42402D01*
X56508Y-42598D01*
X56583Y-42779D01*
X56721Y-42917D01*
X56902Y-42992D01*
X57098Y-42992D01*
X57279Y-42917D01*
X57417Y-42779D01*
X57492Y-42598D01*
X57492Y-43402D01*
X57417Y-43221D01*
X57279Y-43083D01*
X57098Y-43008D01*
X56902Y-43008D01*
X56721Y-43083D01*
X56583Y-43221D01*
X56508Y-43402D01*
X56508Y-43598D01*
X56583Y-43779D01*
X56721Y-43917D01*
X56902Y-43992D01*
X57098Y-43992D01*
X57279Y-43917D01*
X57417Y-43779D01*
X57492Y-43598D01*
X57492Y-45499D01*
X57373Y-45506D01*
X57241Y-45560D01*
X57204Y-45635D01*
X57500Y-45931D01*
X57796Y-45635D01*
X57796Y-45773D01*
X57569Y-46000D01*
X57865Y-46296D01*
X57940Y-46259D01*
X58003Y-46076D01*
X58006Y-46127D01*
X58060Y-46259D01*
X58135Y-46296D01*
X58431Y-46000D01*
X58431Y-46138D01*
X58204Y-46365D01*
X58241Y-46440D01*
X58429Y-46505D01*
X58627Y-46494D01*
X58759Y-46440D01*
X58796Y-46365D01*
X58796Y-46528D01*
X57796Y-46528D01*
X57796Y-46365D01*
X57500Y-46069D01*
X57431Y-46138D01*
X57431Y-46000D01*
X57135Y-45704D01*
X57060Y-45741D01*
X56996Y-45923D01*
X56994Y-45873D01*
X56940Y-45741D01*
X56865Y-45704D01*
X56796Y-45773D01*
X56796Y-45635D01*
X56759Y-45560D01*
X56571Y-45495D01*
X56492Y-45499D01*
X56492Y-43598D01*
X56492Y-43402D01*
X56492Y-42598D01*
X56492Y-42402D01*
X56492Y-41598D01*
X56492Y-41402D01*
X56492Y-40598D01*
X56492Y-40402D01*
X56492Y-39598D01*
X56492Y-39402D01*
X56492Y-36598D01*
X56492Y-36402D01*
X56492Y-35598D01*
X56492Y-35402D01*
X56492Y-34598D01*
X56492Y-34402D01*
X56492Y-33598D01*
X56492Y-33402D01*
X56492Y-32598D01*
X56492Y-32402D01*
X56417Y-32221D01*
X56279Y-32083D01*
X56098Y-32008D01*
X55992Y-32008D01*
X55992Y-30098D01*
X55992Y-29902D01*
X55917Y-29721D01*
X55779Y-29583D01*
X55598Y-29508D01*
X55402Y-29508D01*
X55221Y-29583D01*
X55083Y-29721D01*
X55008Y-29902D01*
X55008Y-30098D01*
X55083Y-30279D01*
X55221Y-30417D01*
X55402Y-30492D01*
X55598Y-30492D01*
X55779Y-30417D01*
X55917Y-30279D01*
X55992Y-30098D01*
X55992Y-32008D01*
X55902Y-32008D01*
X55721Y-32083D01*
X55583Y-32221D01*
X55508Y-32402D01*
X55508Y-32598D01*
X55583Y-32779D01*
X55721Y-32917D01*
X55902Y-32992D01*
X56098Y-32992D01*
X56279Y-32917D01*
X56417Y-32779D01*
X56492Y-32598D01*
X56492Y-33402D01*
X56417Y-33221D01*
X56279Y-33083D01*
X56098Y-33008D01*
X55902Y-33008D01*
X55721Y-33083D01*
X55583Y-33221D01*
X55508Y-33402D01*
X55508Y-33598D01*
X55583Y-33779D01*
X55721Y-33917D01*
X55902Y-33992D01*
X56098Y-33992D01*
X56279Y-33917D01*
X56417Y-33779D01*
X56492Y-33598D01*
X56492Y-34402D01*
X56417Y-34221D01*
X56279Y-34083D01*
X56098Y-34008D01*
X55902Y-34008D01*
X55721Y-34083D01*
X55583Y-34221D01*
X55508Y-34402D01*
X55508Y-34598D01*
X55583Y-34779D01*
X55721Y-34917D01*
X55902Y-34992D01*
X56098Y-34992D01*
X56279Y-34917D01*
X56417Y-34779D01*
X56492Y-34598D01*
X56492Y-35402D01*
X56417Y-35221D01*
X56279Y-35083D01*
X56098Y-35008D01*
X55902Y-35008D01*
X55721Y-35083D01*
X55583Y-35221D01*
X55508Y-35402D01*
X55508Y-35598D01*
X55583Y-35779D01*
X55721Y-35917D01*
X55902Y-35992D01*
X56098Y-35992D01*
X56279Y-35917D01*
X56417Y-35779D01*
X56492Y-35598D01*
X56492Y-36402D01*
X56417Y-36221D01*
X56279Y-36083D01*
X56098Y-36008D01*
X55902Y-36008D01*
X55721Y-36083D01*
X55583Y-36221D01*
X55508Y-36402D01*
X55508Y-36598D01*
X55583Y-36779D01*
X55721Y-36917D01*
X55902Y-36992D01*
X56098Y-36992D01*
X56279Y-36917D01*
X56417Y-36779D01*
X56492Y-36598D01*
X56492Y-39402D01*
X56417Y-39221D01*
X56279Y-39083D01*
X56098Y-39008D01*
X55902Y-39008D01*
X55721Y-39083D01*
X55583Y-39221D01*
X55508Y-39402D01*
X55508Y-39598D01*
X55583Y-39779D01*
X55721Y-39917D01*
X55902Y-39992D01*
X56098Y-39992D01*
X56279Y-39917D01*
X56417Y-39779D01*
X56492Y-39598D01*
X56492Y-40402D01*
X56417Y-40221D01*
X56279Y-40083D01*
X56098Y-40008D01*
X55902Y-40008D01*
X55721Y-40083D01*
X55583Y-40221D01*
X55508Y-40402D01*
X55508Y-40598D01*
X55583Y-40779D01*
X55721Y-40917D01*
X55902Y-40992D01*
X56098Y-40992D01*
X56279Y-40917D01*
X56417Y-40779D01*
X56492Y-40598D01*
X56492Y-41402D01*
X56417Y-41221D01*
X56279Y-41083D01*
X56098Y-41008D01*
X55902Y-41008D01*
X55721Y-41083D01*
X55583Y-41221D01*
X55508Y-41402D01*
X55508Y-41598D01*
X55583Y-41779D01*
X55721Y-41917D01*
X55902Y-41992D01*
X56098Y-41992D01*
X56279Y-41917D01*
X56417Y-41779D01*
X56492Y-41598D01*
X56492Y-42402D01*
X56417Y-42221D01*
X56279Y-42083D01*
X56098Y-42008D01*
X55902Y-42008D01*
X55721Y-42083D01*
X55583Y-42221D01*
X55508Y-42402D01*
X55508Y-42598D01*
X55583Y-42779D01*
X55721Y-42917D01*
X55902Y-42992D01*
X56098Y-42992D01*
X56279Y-42917D01*
X56417Y-42779D01*
X56492Y-42598D01*
X56492Y-43402D01*
X56417Y-43221D01*
X56279Y-43083D01*
X56098Y-43008D01*
X55902Y-43008D01*
X55721Y-43083D01*
X55583Y-43221D01*
X55508Y-43402D01*
X55508Y-43598D01*
X55583Y-43779D01*
X55721Y-43917D01*
X55902Y-43992D01*
X56098Y-43992D01*
X56279Y-43917D01*
X56417Y-43779D01*
X56492Y-43598D01*
X56492Y-45499D01*
X56373Y-45506D01*
X56241Y-45560D01*
X56204Y-45635D01*
X56500Y-45931D01*
X56796Y-45635D01*
X56796Y-45773D01*
X56569Y-46000D01*
X56865Y-46296D01*
X56940Y-46259D01*
X57003Y-46076D01*
X57006Y-46127D01*
X57060Y-46259D01*
X57135Y-46296D01*
X57431Y-46000D01*
X57431Y-46138D01*
X57204Y-46365D01*
X57241Y-46440D01*
X57429Y-46505D01*
X57627Y-46494D01*
X57759Y-46440D01*
X57796Y-46365D01*
X57796Y-46528D01*
X56796Y-46528D01*
X56796Y-46365D01*
X56500Y-46069D01*
X56431Y-46138D01*
X56431Y-46000D01*
X56135Y-45704D01*
X56060Y-45741D01*
X55996Y-45923D01*
X55994Y-45873D01*
X55940Y-45741D01*
X55865Y-45704D01*
X55796Y-45773D01*
X55796Y-45635D01*
X55759Y-45560D01*
X55571Y-45495D01*
X55492Y-45499D01*
X55492Y-43598D01*
X55492Y-43402D01*
X55492Y-42598D01*
X55492Y-42402D01*
X55492Y-41598D01*
X55492Y-41402D01*
X55492Y-40598D01*
X55492Y-40402D01*
X55492Y-39598D01*
X55492Y-39402D01*
X55492Y-36598D01*
X55492Y-36402D01*
X55492Y-35598D01*
X55492Y-35402D01*
X55492Y-34598D01*
X55492Y-34402D01*
X55492Y-33598D01*
X55492Y-33402D01*
X55492Y-32598D01*
X55492Y-32402D01*
X55417Y-32221D01*
X55279Y-32083D01*
X55098Y-32008D01*
X54992Y-32008D01*
X54992Y-30098D01*
X54992Y-29902D01*
X54917Y-29721D01*
X54779Y-29583D01*
X54598Y-29508D01*
X54402Y-29508D01*
X54221Y-29583D01*
X54083Y-29721D01*
X54008Y-29902D01*
X54008Y-30098D01*
X54083Y-30279D01*
X54221Y-30417D01*
X54402Y-30492D01*
X54598Y-30492D01*
X54779Y-30417D01*
X54917Y-30279D01*
X54992Y-30098D01*
X54992Y-32008D01*
X54902Y-32008D01*
X54721Y-32083D01*
X54583Y-32221D01*
X54508Y-32402D01*
X54508Y-32598D01*
X54583Y-32779D01*
X54721Y-32917D01*
X54902Y-32992D01*
X55098Y-32992D01*
X55279Y-32917D01*
X55417Y-32779D01*
X55492Y-32598D01*
X55492Y-33402D01*
X55417Y-33221D01*
X55279Y-33083D01*
X55098Y-33008D01*
X54902Y-33008D01*
X54721Y-33083D01*
X54583Y-33221D01*
X54508Y-33402D01*
X54508Y-33598D01*
X54583Y-33779D01*
X54721Y-33917D01*
X54902Y-33992D01*
X55098Y-33992D01*
X55279Y-33917D01*
X55417Y-33779D01*
X55492Y-33598D01*
X55492Y-34402D01*
X55417Y-34221D01*
X55279Y-34083D01*
X55098Y-34008D01*
X54902Y-34008D01*
X54721Y-34083D01*
X54583Y-34221D01*
X54508Y-34402D01*
X54508Y-34598D01*
X54583Y-34779D01*
X54721Y-34917D01*
X54902Y-34992D01*
X55098Y-34992D01*
X55279Y-34917D01*
X55417Y-34779D01*
X55492Y-34598D01*
X55492Y-35402D01*
X55417Y-35221D01*
X55279Y-35083D01*
X55098Y-35008D01*
X54902Y-35008D01*
X54721Y-35083D01*
X54583Y-35221D01*
X54508Y-35402D01*
X54508Y-35598D01*
X54583Y-35779D01*
X54721Y-35917D01*
X54902Y-35992D01*
X55098Y-35992D01*
X55279Y-35917D01*
X55417Y-35779D01*
X55492Y-35598D01*
X55492Y-36402D01*
X55417Y-36221D01*
X55279Y-36083D01*
X55098Y-36008D01*
X54902Y-36008D01*
X54721Y-36083D01*
X54583Y-36221D01*
X54508Y-36402D01*
X54508Y-36598D01*
X54583Y-36779D01*
X54721Y-36917D01*
X54902Y-36992D01*
X55098Y-36992D01*
X55279Y-36917D01*
X55417Y-36779D01*
X55492Y-36598D01*
X55492Y-39402D01*
X55417Y-39221D01*
X55279Y-39083D01*
X55098Y-39008D01*
X54902Y-39008D01*
X54897Y-39010D01*
X54897Y-38179D01*
X54897Y-37822D01*
X54761Y-37492D01*
X54508Y-37240D01*
X54492Y-37233D01*
X54492Y-36598D01*
X54492Y-36402D01*
X54492Y-35598D01*
X54492Y-35402D01*
X54492Y-34598D01*
X54492Y-34402D01*
X54492Y-33598D01*
X54492Y-33402D01*
X54492Y-32598D01*
X54492Y-32402D01*
X54417Y-32221D01*
X54279Y-32083D01*
X54098Y-32008D01*
X53902Y-32008D01*
X53721Y-32083D01*
X53583Y-32221D01*
X53508Y-32402D01*
X53508Y-32598D01*
X53583Y-32779D01*
X53721Y-32917D01*
X53902Y-32992D01*
X54098Y-32992D01*
X54279Y-32917D01*
X54417Y-32779D01*
X54492Y-32598D01*
X54492Y-33402D01*
X54417Y-33221D01*
X54279Y-33083D01*
X54098Y-33008D01*
X53902Y-33008D01*
X53721Y-33083D01*
X53583Y-33221D01*
X53508Y-33402D01*
X53508Y-33598D01*
X53583Y-33779D01*
X53721Y-33917D01*
X53902Y-33992D01*
X54098Y-33992D01*
X54279Y-33917D01*
X54417Y-33779D01*
X54492Y-33598D01*
X54492Y-34402D01*
X54417Y-34221D01*
X54279Y-34083D01*
X54098Y-34008D01*
X53902Y-34008D01*
X53721Y-34083D01*
X53583Y-34221D01*
X53508Y-34402D01*
X53508Y-34598D01*
X53583Y-34779D01*
X53721Y-34917D01*
X53902Y-34992D01*
X54098Y-34992D01*
X54279Y-34917D01*
X54417Y-34779D01*
X54492Y-34598D01*
X54492Y-35402D01*
X54417Y-35221D01*
X54279Y-35083D01*
X54098Y-35008D01*
X53902Y-35008D01*
X53721Y-35083D01*
X53583Y-35221D01*
X53508Y-35402D01*
X53508Y-35598D01*
X53583Y-35779D01*
X53721Y-35917D01*
X53902Y-35992D01*
X54098Y-35992D01*
X54279Y-35917D01*
X54417Y-35779D01*
X54492Y-35598D01*
X54492Y-36402D01*
X54417Y-36221D01*
X54279Y-36083D01*
X54098Y-36008D01*
X53902Y-36008D01*
X53721Y-36083D01*
X53583Y-36221D01*
X53508Y-36402D01*
X53508Y-36598D01*
X53583Y-36779D01*
X53721Y-36917D01*
X53902Y-36992D01*
X54098Y-36992D01*
X54279Y-36917D01*
X54417Y-36779D01*
X54492Y-36598D01*
X54492Y-37233D01*
X54179Y-37103D01*
X53822Y-37103D01*
X53492Y-37239D01*
X53240Y-37492D01*
X53103Y-37821D01*
X53103Y-38178D01*
X53239Y-38508D01*
X53492Y-38760D01*
X53821Y-38897D01*
X54178Y-38897D01*
X54508Y-38761D01*
X54760Y-38508D01*
X54897Y-38179D01*
X54897Y-39010D01*
X54721Y-39083D01*
X54583Y-39221D01*
X54508Y-39402D01*
X54508Y-39598D01*
X54583Y-39779D01*
X54721Y-39917D01*
X54902Y-39992D01*
X55098Y-39992D01*
X55279Y-39917D01*
X55417Y-39779D01*
X55492Y-39598D01*
X55492Y-40402D01*
X55417Y-40221D01*
X55279Y-40083D01*
X55098Y-40008D01*
X54902Y-40008D01*
X54721Y-40083D01*
X54583Y-40221D01*
X54508Y-40402D01*
X54508Y-40598D01*
X54583Y-40779D01*
X54721Y-40917D01*
X54902Y-40992D01*
X55098Y-40992D01*
X55279Y-40917D01*
X55417Y-40779D01*
X55492Y-40598D01*
X55492Y-41402D01*
X55417Y-41221D01*
X55279Y-41083D01*
X55098Y-41008D01*
X54902Y-41008D01*
X54721Y-41083D01*
X54583Y-41221D01*
X54508Y-41402D01*
X54508Y-41598D01*
X54583Y-41779D01*
X54721Y-41917D01*
X54902Y-41992D01*
X55098Y-41992D01*
X55279Y-41917D01*
X55417Y-41779D01*
X55492Y-41598D01*
X55492Y-42402D01*
X55417Y-42221D01*
X55279Y-42083D01*
X55098Y-42008D01*
X54902Y-42008D01*
X54721Y-42083D01*
X54583Y-42221D01*
X54508Y-42402D01*
X54508Y-42598D01*
X54583Y-42779D01*
X54721Y-42917D01*
X54902Y-42992D01*
X55098Y-42992D01*
X55279Y-42917D01*
X55417Y-42779D01*
X55492Y-42598D01*
X55492Y-43402D01*
X55417Y-43221D01*
X55279Y-43083D01*
X55098Y-43008D01*
X54902Y-43008D01*
X54721Y-43083D01*
X54583Y-43221D01*
X54508Y-43402D01*
X54508Y-43598D01*
X54583Y-43779D01*
X54721Y-43917D01*
X54902Y-43992D01*
X55098Y-43992D01*
X55279Y-43917D01*
X55417Y-43779D01*
X55492Y-43598D01*
X55492Y-45499D01*
X55373Y-45506D01*
X55241Y-45560D01*
X55204Y-45635D01*
X55500Y-45931D01*
X55796Y-45635D01*
X55796Y-45773D01*
X55569Y-46000D01*
X55865Y-46296D01*
X55940Y-46259D01*
X56003Y-46076D01*
X56006Y-46127D01*
X56060Y-46259D01*
X56135Y-46296D01*
X56431Y-46000D01*
X56431Y-46138D01*
X56204Y-46365D01*
X56241Y-46440D01*
X56429Y-46505D01*
X56627Y-46494D01*
X56759Y-46440D01*
X56796Y-46365D01*
X56796Y-46528D01*
X55796Y-46528D01*
X55796Y-46365D01*
X55500Y-46069D01*
X55431Y-46138D01*
X55431Y-46000D01*
X55135Y-45704D01*
X55060Y-45741D01*
X54996Y-45923D01*
X54994Y-45873D01*
X54940Y-45741D01*
X54865Y-45704D01*
X54796Y-45773D01*
X54796Y-45635D01*
X54759Y-45560D01*
X54571Y-45495D01*
X54492Y-45499D01*
X54492Y-43598D01*
X54492Y-43402D01*
X54492Y-42598D01*
X54492Y-42402D01*
X54492Y-41598D01*
X54492Y-41402D01*
X54492Y-40598D01*
X54492Y-40402D01*
X54492Y-39598D01*
X54492Y-39402D01*
X54417Y-39221D01*
X54279Y-39083D01*
X54098Y-39008D01*
X53902Y-39008D01*
X53721Y-39083D01*
X53583Y-39221D01*
X53508Y-39402D01*
X53508Y-39598D01*
X53583Y-39779D01*
X53721Y-39917D01*
X53902Y-39992D01*
X54098Y-39992D01*
X54279Y-39917D01*
X54417Y-39779D01*
X54492Y-39598D01*
X54492Y-40402D01*
X54417Y-40221D01*
X54279Y-40083D01*
X54098Y-40008D01*
X53902Y-40008D01*
X53721Y-40083D01*
X53583Y-40221D01*
X53508Y-40402D01*
X53508Y-40598D01*
X53583Y-40779D01*
X53721Y-40917D01*
X53902Y-40992D01*
X54098Y-40992D01*
X54279Y-40917D01*
X54417Y-40779D01*
X54492Y-40598D01*
X54492Y-41402D01*
X54417Y-41221D01*
X54279Y-41083D01*
X54098Y-41008D01*
X53902Y-41008D01*
X53721Y-41083D01*
X53583Y-41221D01*
X53508Y-41402D01*
X53508Y-41598D01*
X53583Y-41779D01*
X53721Y-41917D01*
X53902Y-41992D01*
X54098Y-41992D01*
X54279Y-41917D01*
X54417Y-41779D01*
X54492Y-41598D01*
X54492Y-42402D01*
X54417Y-42221D01*
X54279Y-42083D01*
X54098Y-42008D01*
X53902Y-42008D01*
X53721Y-42083D01*
X53583Y-42221D01*
X53508Y-42402D01*
X53508Y-42598D01*
X53583Y-42779D01*
X53721Y-42917D01*
X53902Y-42992D01*
X54098Y-42992D01*
X54279Y-42917D01*
X54417Y-42779D01*
X54492Y-42598D01*
X54492Y-43402D01*
X54417Y-43221D01*
X54279Y-43083D01*
X54098Y-43008D01*
X53902Y-43008D01*
X53721Y-43083D01*
X53583Y-43221D01*
X53508Y-43402D01*
X53508Y-43598D01*
X53583Y-43779D01*
X53721Y-43917D01*
X53902Y-43992D01*
X54098Y-43992D01*
X54279Y-43917D01*
X54417Y-43779D01*
X54492Y-43598D01*
X54492Y-45499D01*
X54373Y-45506D01*
X54241Y-45560D01*
X54204Y-45635D01*
X54500Y-45931D01*
X54796Y-45635D01*
X54796Y-45773D01*
X54569Y-46000D01*
X54865Y-46296D01*
X54940Y-46259D01*
X55003Y-46076D01*
X55006Y-46127D01*
X55060Y-46259D01*
X55135Y-46296D01*
X55431Y-46000D01*
X55431Y-46138D01*
X55204Y-46365D01*
X55241Y-46440D01*
X55429Y-46505D01*
X55627Y-46494D01*
X55759Y-46440D01*
X55796Y-46365D01*
X55796Y-46528D01*
X54796Y-46528D01*
X54796Y-46365D01*
X54500Y-46069D01*
X54431Y-46138D01*
X54431Y-46000D01*
X54135Y-45704D01*
X54060Y-45741D01*
X53995Y-45929D01*
X54006Y-46127D01*
X54060Y-46259D01*
X54135Y-46296D01*
X54431Y-46000D01*
X54431Y-46138D01*
X54204Y-46365D01*
X54241Y-46440D01*
X54429Y-46505D01*
X54627Y-46494D01*
X54759Y-46440D01*
X54796Y-46365D01*
X54796Y-46528D01*
X53772Y-46528D01*
X53358Y-46445D01*
X53024Y-46222D01*
X52803Y-45889D01*
X52722Y-45477D01*
X52722Y-30522D01*
X52803Y-30110D01*
X53024Y-29777D01*
X53358Y-29554D01*
X53772Y-29472D01*
X70227Y-29472D01*
X70639Y-29553D01*
X70972Y-29774D01*
X71195Y-30108D01*
X71278Y-30522D01*
X71278Y-45477D01*
M02*
