G04 (created by PCBNEW-RS274X (2011-07-08 BZR 3044)-stable) date 12/7/2011 10:38:21 PM*
G01*
G70*
G90*
%MOIN*%
G04 Gerber Fmt 3.4, Leading zero omitted, Abs format*
%FSLAX34Y34*%
G04 APERTURE LIST*
%ADD10C,0.006000*%
%ADD11C,0.015000*%
%ADD12C,0.008000*%
%ADD13C,0.012000*%
G04 APERTURE END LIST*
G54D10*
G54D11*
X71750Y-30900D02*
X71750Y-45100D01*
X52250Y-30900D02*
X52250Y-45100D01*
X70175Y-29300D02*
X53875Y-29300D01*
X53850Y-46700D02*
X70150Y-46700D01*
X52250Y-45100D02*
X52257Y-45239D01*
X52275Y-45377D01*
X52305Y-45514D01*
X52347Y-45647D01*
X52400Y-45776D01*
X52465Y-45899D01*
X52540Y-46017D01*
X52625Y-46128D01*
X52719Y-46231D01*
X52822Y-46325D01*
X52933Y-46410D01*
X53051Y-46485D01*
X53174Y-46550D01*
X53303Y-46603D01*
X53436Y-46645D01*
X53573Y-46675D01*
X53711Y-46693D01*
X53850Y-46700D01*
X53850Y-29300D02*
X53711Y-29307D01*
X53573Y-29325D01*
X53436Y-29355D01*
X53303Y-29397D01*
X53174Y-29450D01*
X53051Y-29515D01*
X52933Y-29590D01*
X52822Y-29675D01*
X52719Y-29769D01*
X52625Y-29872D01*
X52540Y-29983D01*
X52465Y-30101D01*
X52400Y-30224D01*
X52347Y-30353D01*
X52305Y-30486D01*
X52275Y-30623D01*
X52257Y-30761D01*
X52250Y-30900D01*
X71750Y-30900D02*
X71743Y-30761D01*
X71725Y-30623D01*
X71695Y-30486D01*
X71653Y-30353D01*
X71600Y-30224D01*
X71535Y-30101D01*
X71460Y-29983D01*
X71375Y-29872D01*
X71281Y-29769D01*
X71178Y-29675D01*
X71067Y-29590D01*
X70950Y-29515D01*
X70826Y-29450D01*
X70697Y-29397D01*
X70564Y-29355D01*
X70427Y-29325D01*
X70289Y-29307D01*
X70150Y-29300D01*
X70150Y-46700D02*
X70289Y-46693D01*
X70427Y-46675D01*
X70564Y-46645D01*
X70697Y-46603D01*
X70826Y-46550D01*
X70950Y-46485D01*
X71067Y-46410D01*
X71178Y-46325D01*
X71281Y-46231D01*
X71375Y-46128D01*
X71460Y-46017D01*
X71535Y-45899D01*
X71600Y-45776D01*
X71653Y-45647D01*
X71695Y-45514D01*
X71725Y-45377D01*
X71743Y-45239D01*
X71750Y-45100D01*
X53500Y-45250D02*
X70500Y-45250D01*
X53500Y-30750D02*
X70500Y-30750D01*
G54D12*
X69924Y-44743D02*
X69695Y-44743D01*
X69809Y-44743D02*
X69809Y-44143D01*
X69771Y-44229D01*
X69733Y-44286D01*
X69695Y-44314D01*
X70057Y-44143D02*
X70324Y-44143D01*
X70152Y-44743D01*
X68924Y-44743D02*
X68695Y-44743D01*
X68809Y-44743D02*
X68809Y-44143D01*
X68771Y-44229D01*
X68733Y-44286D01*
X68695Y-44314D01*
X69267Y-44143D02*
X69190Y-44143D01*
X69152Y-44171D01*
X69133Y-44200D01*
X69095Y-44286D01*
X69076Y-44400D01*
X69076Y-44629D01*
X69095Y-44686D01*
X69114Y-44714D01*
X69152Y-44743D01*
X69229Y-44743D01*
X69267Y-44714D01*
X69286Y-44686D01*
X69305Y-44629D01*
X69305Y-44486D01*
X69286Y-44429D01*
X69267Y-44400D01*
X69229Y-44371D01*
X69152Y-44371D01*
X69114Y-44400D01*
X69095Y-44429D01*
X69076Y-44486D01*
X67924Y-44743D02*
X67695Y-44743D01*
X67809Y-44743D02*
X67809Y-44143D01*
X67771Y-44229D01*
X67733Y-44286D01*
X67695Y-44314D01*
X68286Y-44143D02*
X68095Y-44143D01*
X68076Y-44429D01*
X68095Y-44400D01*
X68133Y-44371D01*
X68229Y-44371D01*
X68267Y-44400D01*
X68286Y-44429D01*
X68305Y-44486D01*
X68305Y-44629D01*
X68286Y-44686D01*
X68267Y-44714D01*
X68229Y-44743D01*
X68133Y-44743D01*
X68095Y-44714D01*
X68076Y-44686D01*
X66924Y-44743D02*
X66695Y-44743D01*
X66809Y-44743D02*
X66809Y-44143D01*
X66771Y-44229D01*
X66733Y-44286D01*
X66695Y-44314D01*
X67267Y-44343D02*
X67267Y-44743D01*
X67171Y-44114D02*
X67076Y-44543D01*
X67324Y-44543D01*
X65924Y-44743D02*
X65695Y-44743D01*
X65809Y-44743D02*
X65809Y-44143D01*
X65771Y-44229D01*
X65733Y-44286D01*
X65695Y-44314D01*
X66057Y-44143D02*
X66305Y-44143D01*
X66171Y-44371D01*
X66229Y-44371D01*
X66267Y-44400D01*
X66286Y-44429D01*
X66305Y-44486D01*
X66305Y-44629D01*
X66286Y-44686D01*
X66267Y-44714D01*
X66229Y-44743D01*
X66114Y-44743D01*
X66076Y-44714D01*
X66057Y-44686D01*
X64924Y-44743D02*
X64695Y-44743D01*
X64809Y-44743D02*
X64809Y-44143D01*
X64771Y-44229D01*
X64733Y-44286D01*
X64695Y-44314D01*
X65076Y-44200D02*
X65095Y-44171D01*
X65133Y-44143D01*
X65229Y-44143D01*
X65267Y-44171D01*
X65286Y-44200D01*
X65305Y-44257D01*
X65305Y-44314D01*
X65286Y-44400D01*
X65057Y-44743D01*
X65305Y-44743D01*
X63924Y-44743D02*
X63695Y-44743D01*
X63809Y-44743D02*
X63809Y-44143D01*
X63771Y-44229D01*
X63733Y-44286D01*
X63695Y-44314D01*
X64305Y-44743D02*
X64076Y-44743D01*
X64190Y-44743D02*
X64190Y-44143D01*
X64152Y-44229D01*
X64114Y-44286D01*
X64076Y-44314D01*
X62924Y-44743D02*
X62695Y-44743D01*
X62809Y-44743D02*
X62809Y-44143D01*
X62771Y-44229D01*
X62733Y-44286D01*
X62695Y-44314D01*
X63171Y-44143D02*
X63210Y-44143D01*
X63248Y-44171D01*
X63267Y-44200D01*
X63286Y-44257D01*
X63305Y-44371D01*
X63305Y-44514D01*
X63286Y-44629D01*
X63267Y-44686D01*
X63248Y-44714D01*
X63210Y-44743D01*
X63171Y-44743D01*
X63133Y-44714D01*
X63114Y-44686D01*
X63095Y-44629D01*
X63076Y-44514D01*
X63076Y-44371D01*
X63095Y-44257D01*
X63114Y-44200D01*
X63133Y-44171D01*
X63171Y-44143D01*
X61924Y-44743D02*
X62000Y-44743D01*
X62039Y-44714D01*
X62058Y-44686D01*
X62096Y-44600D01*
X62115Y-44486D01*
X62115Y-44257D01*
X62096Y-44200D01*
X62077Y-44171D01*
X62039Y-44143D01*
X61962Y-44143D01*
X61924Y-44171D01*
X61905Y-44200D01*
X61886Y-44257D01*
X61886Y-44400D01*
X61905Y-44457D01*
X61924Y-44486D01*
X61962Y-44514D01*
X62039Y-44514D01*
X62077Y-44486D01*
X62096Y-44457D01*
X62115Y-44400D01*
X60962Y-44400D02*
X60924Y-44371D01*
X60905Y-44343D01*
X60886Y-44286D01*
X60886Y-44257D01*
X60905Y-44200D01*
X60924Y-44171D01*
X60962Y-44143D01*
X61039Y-44143D01*
X61077Y-44171D01*
X61096Y-44200D01*
X61115Y-44257D01*
X61115Y-44286D01*
X61096Y-44343D01*
X61077Y-44371D01*
X61039Y-44400D01*
X60962Y-44400D01*
X60924Y-44429D01*
X60905Y-44457D01*
X60886Y-44514D01*
X60886Y-44629D01*
X60905Y-44686D01*
X60924Y-44714D01*
X60962Y-44743D01*
X61039Y-44743D01*
X61077Y-44714D01*
X61096Y-44686D01*
X61115Y-44629D01*
X61115Y-44514D01*
X61096Y-44457D01*
X61077Y-44429D01*
X61039Y-44400D01*
X59867Y-44143D02*
X60134Y-44143D01*
X59962Y-44743D01*
X59077Y-44143D02*
X59000Y-44143D01*
X58962Y-44171D01*
X58943Y-44200D01*
X58905Y-44286D01*
X58886Y-44400D01*
X58886Y-44629D01*
X58905Y-44686D01*
X58924Y-44714D01*
X58962Y-44743D01*
X59039Y-44743D01*
X59077Y-44714D01*
X59096Y-44686D01*
X59115Y-44629D01*
X59115Y-44486D01*
X59096Y-44429D01*
X59077Y-44400D01*
X59039Y-44371D01*
X58962Y-44371D01*
X58924Y-44400D01*
X58905Y-44429D01*
X58886Y-44486D01*
X58096Y-44143D02*
X57905Y-44143D01*
X57886Y-44429D01*
X57905Y-44400D01*
X57943Y-44371D01*
X58039Y-44371D01*
X58077Y-44400D01*
X58096Y-44429D01*
X58115Y-44486D01*
X58115Y-44629D01*
X58096Y-44686D01*
X58077Y-44714D01*
X58039Y-44743D01*
X57943Y-44743D01*
X57905Y-44714D01*
X57886Y-44686D01*
X57077Y-44343D02*
X57077Y-44743D01*
X56981Y-44114D02*
X56886Y-44543D01*
X57134Y-44543D01*
X55867Y-44143D02*
X56115Y-44143D01*
X55981Y-44371D01*
X56039Y-44371D01*
X56077Y-44400D01*
X56096Y-44429D01*
X56115Y-44486D01*
X56115Y-44629D01*
X56096Y-44686D01*
X56077Y-44714D01*
X56039Y-44743D01*
X55924Y-44743D01*
X55886Y-44714D01*
X55867Y-44686D01*
X54886Y-44200D02*
X54905Y-44171D01*
X54943Y-44143D01*
X55039Y-44143D01*
X55077Y-44171D01*
X55096Y-44200D01*
X55115Y-44257D01*
X55115Y-44314D01*
X55096Y-44400D01*
X54867Y-44743D01*
X55115Y-44743D01*
X54115Y-44743D02*
X53886Y-44743D01*
X54000Y-44743D02*
X54000Y-44143D01*
X53962Y-44229D01*
X53924Y-44286D01*
X53886Y-44314D01*
G54D13*
X70272Y-46014D02*
X70729Y-46014D01*
X64272Y-46014D02*
X64729Y-46014D01*
X59272Y-46014D02*
X59729Y-46014D01*
X53272Y-46014D02*
X53729Y-46014D01*
X52843Y-37643D02*
X53243Y-37643D01*
X52843Y-38243D01*
X53243Y-38243D01*
X53728Y-38243D02*
X53728Y-37929D01*
X53699Y-37871D01*
X53642Y-37843D01*
X53528Y-37843D01*
X53471Y-37871D01*
X53728Y-38214D02*
X53671Y-38243D01*
X53528Y-38243D01*
X53471Y-38214D01*
X53442Y-38157D01*
X53442Y-38100D01*
X53471Y-38043D01*
X53528Y-38014D01*
X53671Y-38014D01*
X53728Y-37986D01*
X54271Y-38214D02*
X54214Y-38243D01*
X54100Y-38243D01*
X54042Y-38214D01*
X54014Y-38186D01*
X53985Y-38129D01*
X53985Y-37957D01*
X54014Y-37900D01*
X54042Y-37871D01*
X54100Y-37843D01*
X54214Y-37843D01*
X54271Y-37871D01*
X54528Y-38243D02*
X54528Y-37643D01*
X54785Y-38243D02*
X54785Y-37929D01*
X54756Y-37871D01*
X54699Y-37843D01*
X54614Y-37843D01*
X54556Y-37871D01*
X54528Y-37900D01*
X55328Y-38243D02*
X55328Y-37929D01*
X55299Y-37871D01*
X55242Y-37843D01*
X55128Y-37843D01*
X55071Y-37871D01*
X55328Y-38214D02*
X55271Y-38243D01*
X55128Y-38243D01*
X55071Y-38214D01*
X55042Y-38157D01*
X55042Y-38100D01*
X55071Y-38043D01*
X55128Y-38014D01*
X55271Y-38014D01*
X55328Y-37986D01*
X55614Y-38243D02*
X55614Y-37843D01*
X55614Y-37957D02*
X55642Y-37900D01*
X55671Y-37871D01*
X55728Y-37843D01*
X55785Y-37843D01*
X55928Y-37843D02*
X56071Y-38243D01*
X56213Y-37843D02*
X56071Y-38243D01*
X56013Y-38386D01*
X55985Y-38414D01*
X55928Y-38443D01*
X56899Y-38243D02*
X56899Y-37643D01*
X56899Y-37929D02*
X57242Y-37929D01*
X57242Y-38243D02*
X57242Y-37643D01*
X57756Y-38214D02*
X57699Y-38243D01*
X57585Y-38243D01*
X57528Y-38214D01*
X57499Y-38157D01*
X57499Y-37929D01*
X57528Y-37871D01*
X57585Y-37843D01*
X57699Y-37843D01*
X57756Y-37871D01*
X57785Y-37929D01*
X57785Y-37986D01*
X57499Y-38043D01*
X58042Y-38243D02*
X58042Y-37843D01*
X58042Y-37643D02*
X58013Y-37671D01*
X58042Y-37700D01*
X58070Y-37671D01*
X58042Y-37643D01*
X58042Y-37700D01*
X58414Y-38243D02*
X58356Y-38214D01*
X58328Y-38157D01*
X58328Y-37643D01*
X58642Y-38243D02*
X58642Y-37843D01*
X58642Y-37643D02*
X58613Y-37671D01*
X58642Y-37700D01*
X58670Y-37671D01*
X58642Y-37643D01*
X58642Y-37700D01*
X59185Y-37843D02*
X59185Y-38329D01*
X59156Y-38386D01*
X59128Y-38414D01*
X59071Y-38443D01*
X58985Y-38443D01*
X58928Y-38414D01*
X59185Y-38214D02*
X59128Y-38243D01*
X59014Y-38243D01*
X58956Y-38214D01*
X58928Y-38186D01*
X58899Y-38129D01*
X58899Y-37957D01*
X58928Y-37900D01*
X58956Y-37871D01*
X59014Y-37843D01*
X59128Y-37843D01*
X59185Y-37871D01*
X59928Y-38014D02*
X60385Y-38014D01*
X61071Y-37843D02*
X61385Y-37843D01*
X61071Y-38243D01*
X61385Y-38243D01*
X61871Y-38243D02*
X61871Y-37929D01*
X61842Y-37871D01*
X61785Y-37843D01*
X61671Y-37843D01*
X61614Y-37871D01*
X61871Y-38214D02*
X61814Y-38243D01*
X61671Y-38243D01*
X61614Y-38214D01*
X61585Y-38157D01*
X61585Y-38100D01*
X61614Y-38043D01*
X61671Y-38014D01*
X61814Y-38014D01*
X61871Y-37986D01*
X62414Y-38214D02*
X62357Y-38243D01*
X62243Y-38243D01*
X62185Y-38214D01*
X62157Y-38186D01*
X62128Y-38129D01*
X62128Y-37957D01*
X62157Y-37900D01*
X62185Y-37871D01*
X62243Y-37843D01*
X62357Y-37843D01*
X62414Y-37871D01*
X62671Y-38243D02*
X62671Y-37643D01*
X62928Y-38243D02*
X62928Y-37929D01*
X62899Y-37871D01*
X62842Y-37843D01*
X62757Y-37843D01*
X62699Y-37871D01*
X62671Y-37900D01*
X63214Y-38186D02*
X63242Y-38214D01*
X63214Y-38243D01*
X63185Y-38214D01*
X63214Y-38186D01*
X63214Y-38243D01*
X63500Y-38243D02*
X63500Y-37643D01*
X63757Y-38243D02*
X63757Y-37929D01*
X63728Y-37871D01*
X63671Y-37843D01*
X63586Y-37843D01*
X63528Y-37871D01*
X63500Y-37900D01*
X64271Y-38214D02*
X64214Y-38243D01*
X64100Y-38243D01*
X64043Y-38214D01*
X64014Y-38157D01*
X64014Y-37929D01*
X64043Y-37871D01*
X64100Y-37843D01*
X64214Y-37843D01*
X64271Y-37871D01*
X64300Y-37929D01*
X64300Y-37986D01*
X64014Y-38043D01*
X64557Y-38243D02*
X64557Y-37843D01*
X64557Y-37643D02*
X64528Y-37671D01*
X64557Y-37700D01*
X64585Y-37671D01*
X64557Y-37643D01*
X64557Y-37700D01*
X64929Y-38243D02*
X64871Y-38214D01*
X64843Y-38157D01*
X64843Y-37643D01*
X65157Y-38243D02*
X65157Y-37843D01*
X65157Y-37643D02*
X65128Y-37671D01*
X65157Y-37700D01*
X65185Y-37671D01*
X65157Y-37643D01*
X65157Y-37700D01*
X65700Y-37843D02*
X65700Y-38329D01*
X65671Y-38386D01*
X65643Y-38414D01*
X65586Y-38443D01*
X65500Y-38443D01*
X65443Y-38414D01*
X65700Y-38214D02*
X65643Y-38243D01*
X65529Y-38243D01*
X65471Y-38214D01*
X65443Y-38186D01*
X65414Y-38129D01*
X65414Y-37957D01*
X65443Y-37900D01*
X65471Y-37871D01*
X65529Y-37843D01*
X65643Y-37843D01*
X65700Y-37871D01*
X66357Y-37957D02*
X66329Y-37929D01*
X66272Y-37900D01*
X66214Y-37900D01*
X66157Y-37929D01*
X66129Y-37957D01*
X66100Y-38014D01*
X66100Y-38071D01*
X66129Y-38129D01*
X66157Y-38157D01*
X66214Y-38186D01*
X66272Y-38186D01*
X66329Y-38157D01*
X66357Y-38129D01*
X66357Y-37900D02*
X66357Y-38129D01*
X66386Y-38157D01*
X66414Y-38157D01*
X66472Y-38129D01*
X66500Y-38071D01*
X66500Y-37929D01*
X66443Y-37843D01*
X66357Y-37786D01*
X66243Y-37757D01*
X66129Y-37786D01*
X66043Y-37843D01*
X65986Y-37929D01*
X65957Y-38043D01*
X65986Y-38157D01*
X66043Y-38243D01*
X66129Y-38300D01*
X66243Y-38329D01*
X66357Y-38300D01*
X66443Y-38243D01*
X67014Y-37843D02*
X67014Y-38329D01*
X66985Y-38386D01*
X66957Y-38414D01*
X66900Y-38443D01*
X66814Y-38443D01*
X66757Y-38414D01*
X67014Y-38214D02*
X66957Y-38243D01*
X66843Y-38243D01*
X66785Y-38214D01*
X66757Y-38186D01*
X66728Y-38129D01*
X66728Y-37957D01*
X66757Y-37900D01*
X66785Y-37871D01*
X66843Y-37843D01*
X66957Y-37843D01*
X67014Y-37871D01*
X67300Y-38243D02*
X67300Y-37843D01*
X67300Y-37900D02*
X67328Y-37871D01*
X67386Y-37843D01*
X67471Y-37843D01*
X67528Y-37871D01*
X67557Y-37929D01*
X67557Y-38243D01*
X67557Y-37929D02*
X67586Y-37871D01*
X67643Y-37843D01*
X67728Y-37843D01*
X67786Y-37871D01*
X67814Y-37929D01*
X67814Y-38243D01*
X68357Y-38243D02*
X68357Y-37929D01*
X68328Y-37871D01*
X68271Y-37843D01*
X68157Y-37843D01*
X68100Y-37871D01*
X68357Y-38214D02*
X68300Y-38243D01*
X68157Y-38243D01*
X68100Y-38214D01*
X68071Y-38157D01*
X68071Y-38100D01*
X68100Y-38043D01*
X68157Y-38014D01*
X68300Y-38014D01*
X68357Y-37986D01*
X68643Y-38243D02*
X68643Y-37843D01*
X68643Y-37643D02*
X68614Y-37671D01*
X68643Y-37700D01*
X68671Y-37671D01*
X68643Y-37643D01*
X68643Y-37700D01*
X69015Y-38243D02*
X68957Y-38214D01*
X68929Y-38157D01*
X68929Y-37643D01*
X69243Y-38186D02*
X69271Y-38214D01*
X69243Y-38243D01*
X69214Y-38214D01*
X69243Y-38186D01*
X69243Y-38243D01*
X69786Y-38214D02*
X69729Y-38243D01*
X69615Y-38243D01*
X69557Y-38214D01*
X69529Y-38186D01*
X69500Y-38129D01*
X69500Y-37957D01*
X69529Y-37900D01*
X69557Y-37871D01*
X69615Y-37843D01*
X69729Y-37843D01*
X69786Y-37871D01*
X70129Y-38243D02*
X70071Y-38214D01*
X70043Y-38186D01*
X70014Y-38129D01*
X70014Y-37957D01*
X70043Y-37900D01*
X70071Y-37871D01*
X70129Y-37843D01*
X70214Y-37843D01*
X70271Y-37871D01*
X70300Y-37900D01*
X70329Y-37957D01*
X70329Y-38129D01*
X70300Y-38186D01*
X70271Y-38214D01*
X70214Y-38243D01*
X70129Y-38243D01*
X70586Y-38243D02*
X70586Y-37843D01*
X70586Y-37900D02*
X70614Y-37871D01*
X70672Y-37843D01*
X70757Y-37843D01*
X70814Y-37871D01*
X70843Y-37929D01*
X70843Y-38243D01*
X70843Y-37929D02*
X70872Y-37871D01*
X70929Y-37843D01*
X71014Y-37843D01*
X71072Y-37871D01*
X71100Y-37929D01*
X71100Y-38243D01*
G54D12*
X69924Y-31743D02*
X69695Y-31743D01*
X69809Y-31743D02*
X69809Y-31143D01*
X69771Y-31229D01*
X69733Y-31286D01*
X69695Y-31314D01*
X70057Y-31143D02*
X70324Y-31143D01*
X70152Y-31743D01*
X68924Y-31743D02*
X68695Y-31743D01*
X68809Y-31743D02*
X68809Y-31143D01*
X68771Y-31229D01*
X68733Y-31286D01*
X68695Y-31314D01*
X69267Y-31143D02*
X69190Y-31143D01*
X69152Y-31171D01*
X69133Y-31200D01*
X69095Y-31286D01*
X69076Y-31400D01*
X69076Y-31629D01*
X69095Y-31686D01*
X69114Y-31714D01*
X69152Y-31743D01*
X69229Y-31743D01*
X69267Y-31714D01*
X69286Y-31686D01*
X69305Y-31629D01*
X69305Y-31486D01*
X69286Y-31429D01*
X69267Y-31400D01*
X69229Y-31371D01*
X69152Y-31371D01*
X69114Y-31400D01*
X69095Y-31429D01*
X69076Y-31486D01*
X67924Y-31743D02*
X67695Y-31743D01*
X67809Y-31743D02*
X67809Y-31143D01*
X67771Y-31229D01*
X67733Y-31286D01*
X67695Y-31314D01*
X68286Y-31143D02*
X68095Y-31143D01*
X68076Y-31429D01*
X68095Y-31400D01*
X68133Y-31371D01*
X68229Y-31371D01*
X68267Y-31400D01*
X68286Y-31429D01*
X68305Y-31486D01*
X68305Y-31629D01*
X68286Y-31686D01*
X68267Y-31714D01*
X68229Y-31743D01*
X68133Y-31743D01*
X68095Y-31714D01*
X68076Y-31686D01*
X66924Y-31743D02*
X66695Y-31743D01*
X66809Y-31743D02*
X66809Y-31143D01*
X66771Y-31229D01*
X66733Y-31286D01*
X66695Y-31314D01*
X67267Y-31343D02*
X67267Y-31743D01*
X67171Y-31114D02*
X67076Y-31543D01*
X67324Y-31543D01*
X65924Y-31743D02*
X65695Y-31743D01*
X65809Y-31743D02*
X65809Y-31143D01*
X65771Y-31229D01*
X65733Y-31286D01*
X65695Y-31314D01*
X66057Y-31143D02*
X66305Y-31143D01*
X66171Y-31371D01*
X66229Y-31371D01*
X66267Y-31400D01*
X66286Y-31429D01*
X66305Y-31486D01*
X66305Y-31629D01*
X66286Y-31686D01*
X66267Y-31714D01*
X66229Y-31743D01*
X66114Y-31743D01*
X66076Y-31714D01*
X66057Y-31686D01*
X64924Y-31743D02*
X64695Y-31743D01*
X64809Y-31743D02*
X64809Y-31143D01*
X64771Y-31229D01*
X64733Y-31286D01*
X64695Y-31314D01*
X65076Y-31200D02*
X65095Y-31171D01*
X65133Y-31143D01*
X65229Y-31143D01*
X65267Y-31171D01*
X65286Y-31200D01*
X65305Y-31257D01*
X65305Y-31314D01*
X65286Y-31400D01*
X65057Y-31743D01*
X65305Y-31743D01*
G54D13*
X70272Y-30014D02*
X70729Y-30014D01*
X70500Y-30243D02*
X70500Y-29786D01*
X64272Y-30014D02*
X64729Y-30014D01*
X64500Y-30243D02*
X64500Y-29786D01*
X59272Y-30014D02*
X59729Y-30014D01*
X59500Y-30243D02*
X59500Y-29786D01*
X53272Y-30014D02*
X53729Y-30014D01*
X53500Y-30243D02*
X53500Y-29786D01*
G54D12*
X63924Y-31743D02*
X63695Y-31743D01*
X63809Y-31743D02*
X63809Y-31143D01*
X63771Y-31229D01*
X63733Y-31286D01*
X63695Y-31314D01*
X64305Y-31743D02*
X64076Y-31743D01*
X64190Y-31743D02*
X64190Y-31143D01*
X64152Y-31229D01*
X64114Y-31286D01*
X64076Y-31314D01*
X62924Y-31743D02*
X62695Y-31743D01*
X62809Y-31743D02*
X62809Y-31143D01*
X62771Y-31229D01*
X62733Y-31286D01*
X62695Y-31314D01*
X63171Y-31143D02*
X63210Y-31143D01*
X63248Y-31171D01*
X63267Y-31200D01*
X63286Y-31257D01*
X63305Y-31371D01*
X63305Y-31514D01*
X63286Y-31629D01*
X63267Y-31686D01*
X63248Y-31714D01*
X63210Y-31743D01*
X63171Y-31743D01*
X63133Y-31714D01*
X63114Y-31686D01*
X63095Y-31629D01*
X63076Y-31514D01*
X63076Y-31371D01*
X63095Y-31257D01*
X63114Y-31200D01*
X63133Y-31171D01*
X63171Y-31143D01*
X61924Y-31743D02*
X62000Y-31743D01*
X62039Y-31714D01*
X62058Y-31686D01*
X62096Y-31600D01*
X62115Y-31486D01*
X62115Y-31257D01*
X62096Y-31200D01*
X62077Y-31171D01*
X62039Y-31143D01*
X61962Y-31143D01*
X61924Y-31171D01*
X61905Y-31200D01*
X61886Y-31257D01*
X61886Y-31400D01*
X61905Y-31457D01*
X61924Y-31486D01*
X61962Y-31514D01*
X62039Y-31514D01*
X62077Y-31486D01*
X62096Y-31457D01*
X62115Y-31400D01*
X60962Y-31400D02*
X60924Y-31371D01*
X60905Y-31343D01*
X60886Y-31286D01*
X60886Y-31257D01*
X60905Y-31200D01*
X60924Y-31171D01*
X60962Y-31143D01*
X61039Y-31143D01*
X61077Y-31171D01*
X61096Y-31200D01*
X61115Y-31257D01*
X61115Y-31286D01*
X61096Y-31343D01*
X61077Y-31371D01*
X61039Y-31400D01*
X60962Y-31400D01*
X60924Y-31429D01*
X60905Y-31457D01*
X60886Y-31514D01*
X60886Y-31629D01*
X60905Y-31686D01*
X60924Y-31714D01*
X60962Y-31743D01*
X61039Y-31743D01*
X61077Y-31714D01*
X61096Y-31686D01*
X61115Y-31629D01*
X61115Y-31514D01*
X61096Y-31457D01*
X61077Y-31429D01*
X61039Y-31400D01*
X59867Y-31143D02*
X60134Y-31143D01*
X59962Y-31743D01*
X59077Y-31143D02*
X59000Y-31143D01*
X58962Y-31171D01*
X58943Y-31200D01*
X58905Y-31286D01*
X58886Y-31400D01*
X58886Y-31629D01*
X58905Y-31686D01*
X58924Y-31714D01*
X58962Y-31743D01*
X59039Y-31743D01*
X59077Y-31714D01*
X59096Y-31686D01*
X59115Y-31629D01*
X59115Y-31486D01*
X59096Y-31429D01*
X59077Y-31400D01*
X59039Y-31371D01*
X58962Y-31371D01*
X58924Y-31400D01*
X58905Y-31429D01*
X58886Y-31486D01*
X58096Y-31143D02*
X57905Y-31143D01*
X57886Y-31429D01*
X57905Y-31400D01*
X57943Y-31371D01*
X58039Y-31371D01*
X58077Y-31400D01*
X58096Y-31429D01*
X58115Y-31486D01*
X58115Y-31629D01*
X58096Y-31686D01*
X58077Y-31714D01*
X58039Y-31743D01*
X57943Y-31743D01*
X57905Y-31714D01*
X57886Y-31686D01*
X57077Y-31343D02*
X57077Y-31743D01*
X56981Y-31114D02*
X56886Y-31543D01*
X57134Y-31543D01*
X55867Y-31143D02*
X56115Y-31143D01*
X55981Y-31371D01*
X56039Y-31371D01*
X56077Y-31400D01*
X56096Y-31429D01*
X56115Y-31486D01*
X56115Y-31629D01*
X56096Y-31686D01*
X56077Y-31714D01*
X56039Y-31743D01*
X55924Y-31743D01*
X55886Y-31714D01*
X55867Y-31686D01*
X54886Y-31200D02*
X54905Y-31171D01*
X54943Y-31143D01*
X55039Y-31143D01*
X55077Y-31171D01*
X55096Y-31200D01*
X55115Y-31257D01*
X55115Y-31314D01*
X55096Y-31400D01*
X54867Y-31743D01*
X55115Y-31743D01*
X54115Y-31743D02*
X53886Y-31743D01*
X54000Y-31743D02*
X54000Y-31143D01*
X53962Y-31229D01*
X53924Y-31286D01*
X53886Y-31314D01*
G54D13*
X70857Y-43571D02*
X71143Y-43571D01*
X70800Y-43743D02*
X71000Y-43143D01*
X71200Y-43743D01*
X71043Y-42429D02*
X71129Y-42457D01*
X71157Y-42486D01*
X71186Y-42543D01*
X71186Y-42629D01*
X71157Y-42686D01*
X71129Y-42714D01*
X71071Y-42743D01*
X70843Y-42743D01*
X70843Y-42143D01*
X71043Y-42143D01*
X71100Y-42171D01*
X71129Y-42200D01*
X71157Y-42257D01*
X71157Y-42314D01*
X71129Y-42371D01*
X71100Y-42400D01*
X71043Y-42429D01*
X70843Y-42429D01*
X71186Y-41686D02*
X71157Y-41714D01*
X71071Y-41743D01*
X71014Y-41743D01*
X70929Y-41714D01*
X70871Y-41657D01*
X70843Y-41600D01*
X70814Y-41486D01*
X70814Y-41400D01*
X70843Y-41286D01*
X70871Y-41229D01*
X70929Y-41171D01*
X71014Y-41143D01*
X71071Y-41143D01*
X71157Y-41171D01*
X71186Y-41200D01*
X70843Y-40743D02*
X70843Y-40143D01*
X70986Y-40143D01*
X71071Y-40171D01*
X71129Y-40229D01*
X71157Y-40286D01*
X71186Y-40400D01*
X71186Y-40486D01*
X71157Y-40600D01*
X71129Y-40657D01*
X71071Y-40714D01*
X70986Y-40743D01*
X70843Y-40743D01*
X70872Y-39429D02*
X71072Y-39429D01*
X71158Y-39743D02*
X70872Y-39743D01*
X70872Y-39143D01*
X71158Y-39143D01*
X71086Y-36429D02*
X70886Y-36429D01*
X70886Y-36743D02*
X70886Y-36143D01*
X71172Y-36143D01*
X71157Y-35171D02*
X71100Y-35143D01*
X71014Y-35143D01*
X70929Y-35171D01*
X70871Y-35229D01*
X70843Y-35286D01*
X70814Y-35400D01*
X70814Y-35486D01*
X70843Y-35600D01*
X70871Y-35657D01*
X70929Y-35714D01*
X71014Y-35743D01*
X71071Y-35743D01*
X71157Y-35714D01*
X71186Y-35686D01*
X71186Y-35486D01*
X71071Y-35486D01*
X70829Y-34743D02*
X70829Y-34143D01*
X70829Y-34429D02*
X71172Y-34429D01*
X71172Y-34743D02*
X71172Y-34143D01*
X71000Y-33743D02*
X71000Y-33143D01*
X71086Y-32143D02*
X71086Y-32571D01*
X71058Y-32657D01*
X71001Y-32714D01*
X70915Y-32743D01*
X70858Y-32743D01*
X53086Y-32143D02*
X53086Y-32571D01*
X53058Y-32657D01*
X53001Y-32714D01*
X52915Y-32743D01*
X52858Y-32743D01*
X53000Y-33743D02*
X53000Y-33143D01*
X52829Y-34743D02*
X52829Y-34143D01*
X52829Y-34429D02*
X53172Y-34429D01*
X53172Y-34743D02*
X53172Y-34143D01*
X53157Y-35171D02*
X53100Y-35143D01*
X53014Y-35143D01*
X52929Y-35171D01*
X52871Y-35229D01*
X52843Y-35286D01*
X52814Y-35400D01*
X52814Y-35486D01*
X52843Y-35600D01*
X52871Y-35657D01*
X52929Y-35714D01*
X53014Y-35743D01*
X53071Y-35743D01*
X53157Y-35714D01*
X53186Y-35686D01*
X53186Y-35486D01*
X53071Y-35486D01*
X53086Y-36429D02*
X52886Y-36429D01*
X52886Y-36743D02*
X52886Y-36143D01*
X53172Y-36143D01*
X52872Y-39429D02*
X53072Y-39429D01*
X53158Y-39743D02*
X52872Y-39743D01*
X52872Y-39143D01*
X53158Y-39143D01*
X52843Y-40743D02*
X52843Y-40143D01*
X52986Y-40143D01*
X53071Y-40171D01*
X53129Y-40229D01*
X53157Y-40286D01*
X53186Y-40400D01*
X53186Y-40486D01*
X53157Y-40600D01*
X53129Y-40657D01*
X53071Y-40714D01*
X52986Y-40743D01*
X52843Y-40743D01*
X53186Y-41686D02*
X53157Y-41714D01*
X53071Y-41743D01*
X53014Y-41743D01*
X52929Y-41714D01*
X52871Y-41657D01*
X52843Y-41600D01*
X52814Y-41486D01*
X52814Y-41400D01*
X52843Y-41286D01*
X52871Y-41229D01*
X52929Y-41171D01*
X53014Y-41143D01*
X53071Y-41143D01*
X53157Y-41171D01*
X53186Y-41200D01*
X53043Y-42429D02*
X53129Y-42457D01*
X53157Y-42486D01*
X53186Y-42543D01*
X53186Y-42629D01*
X53157Y-42686D01*
X53129Y-42714D01*
X53071Y-42743D01*
X52843Y-42743D01*
X52843Y-42143D01*
X53043Y-42143D01*
X53100Y-42171D01*
X53129Y-42200D01*
X53157Y-42257D01*
X53157Y-42314D01*
X53129Y-42371D01*
X53100Y-42400D01*
X53043Y-42429D01*
X52843Y-42429D01*
X52857Y-43571D02*
X53143Y-43571D01*
X52800Y-43743D02*
X53000Y-43143D01*
X53200Y-43743D01*
M02*
