M48
METRIC,TZ
T1C1.151
T2C3.165
%
G90
G05
T1
X137160Y-082550
X137160Y-085090
X137160Y-087630
X137160Y-090170
X137160Y-092710
X137160Y-100330
X137160Y-102870
X137160Y-105410
X137160Y-107950
X137160Y-110490
X138430Y-076200
X138430Y-116840
X139700Y-082550
X139700Y-085090
X139700Y-087630
X139700Y-090170
X139700Y-092710
X139700Y-100330
X139700Y-102870
X139700Y-105410
X139700Y-107950
X139700Y-110490
X140970Y-076200
X140970Y-116840
X142240Y-082550
X142240Y-085090
X142240Y-087630
X142240Y-090170
X142240Y-092710
X142240Y-100330
X142240Y-102870
X142240Y-105410
X142240Y-107950
X142240Y-110490
X143510Y-076200
X143510Y-116840
X144780Y-082550
X144780Y-085090
X144780Y-087630
X144780Y-090170
X144780Y-092710
X144780Y-100330
X144780Y-102870
X144780Y-105410
X144780Y-107950
X144780Y-110490
X146050Y-076200
X146050Y-116840
X147320Y-082550
X147320Y-085090
X147320Y-087630
X147320Y-090170
X147320Y-092710
X147320Y-100330
X147320Y-102870
X147320Y-105410
X147320Y-107950
X147320Y-110490
X148590Y-076200
X148590Y-116840
X149860Y-082550
X149860Y-085090
X149860Y-087630
X149860Y-090170
X149860Y-092710
X149860Y-100330
X149860Y-102870
X149860Y-105410
X149860Y-107950
X149860Y-110490
X152400Y-082550
X152400Y-085090
X152400Y-087630
X152400Y-090170
X152400Y-092710
X152400Y-100330
X152400Y-102870
X152400Y-105410
X152400Y-107950
X152400Y-110490
X153670Y-076200
X153670Y-116840
X154940Y-082550
X154940Y-085090
X154940Y-087630
X154940Y-090170
X154940Y-092710
X154940Y-100330
X154940Y-102870
X154940Y-105410
X154940Y-107950
X154940Y-110490
X156210Y-076200
X156210Y-116840
X157480Y-082550
X157480Y-085090
X157480Y-087630
X157480Y-090170
X157480Y-092710
X157480Y-100330
X157480Y-102870
X157480Y-105410
X157480Y-107950
X157480Y-110490
X158750Y-076200
X158750Y-116840
X160020Y-082550
X160020Y-085090
X160020Y-087630
X160020Y-090170
X160020Y-092710
X160020Y-100330
X160020Y-102870
X160020Y-105410
X160020Y-107950
X160020Y-110490
X161290Y-076200
X161290Y-116840
X162560Y-082550
X162560Y-085090
X162560Y-087630
X162560Y-090170
X162560Y-092710
X162560Y-100330
X162560Y-102870
X162560Y-105410
X162560Y-107950
X162560Y-110490
X165100Y-082550
X165100Y-085090
X165100Y-087630
X165100Y-090170
X165100Y-092710
X165100Y-100330
X165100Y-102870
X165100Y-105410
X165100Y-107950
X165100Y-110490
X166370Y-076200
X166370Y-116840
X167640Y-082550
X167640Y-085090
X167640Y-087630
X167640Y-090170
X167640Y-092710
X167640Y-100330
X167640Y-102870
X167640Y-105410
X167640Y-107950
X167640Y-110490
X168910Y-076200
X168910Y-116840
X170180Y-082550
X170180Y-085090
X170180Y-087630
X170180Y-090170
X170180Y-092710
X170180Y-100330
X170180Y-102870
X170180Y-105410
X170180Y-107950
X170180Y-110490
X171450Y-076200
X171450Y-116840
X172720Y-082550
X172720Y-085090
X172720Y-087630
X172720Y-090170
X172720Y-092710
X172720Y-100330
X172720Y-102870
X172720Y-105410
X172720Y-107950
X172720Y-110490
X173990Y-076200
X173990Y-116840
X175260Y-082550
X175260Y-085090
X175260Y-087630
X175260Y-090170
X175260Y-092710
X175260Y-100330
X175260Y-102870
X175260Y-105410
X175260Y-107950
X175260Y-110490
X176530Y-076200
X176530Y-116840
X177800Y-082550
X177800Y-085090
X177800Y-087630
X177800Y-090170
X177800Y-092710
X177800Y-100330
X177800Y-102870
X177800Y-105410
X177800Y-107950
X177800Y-110490
T2
X137160Y-096520
X177800Y-096520
T0
M30
